<svg id="Layer_1" data-name="Layer 1" xmlns="http://www.w3.org/2000/svg" xmlns:xlink="http://www.w3.org/1999/xlink" width="1602.66" height="1087.71" viewBox="0 0 1602.66 1087.71"><defs><style>.cls-1{fill:none;}.cls-1,.cls-2{stroke:#3d4752;stroke-miterlimit:10;}.cls-2{fill:#3d4752;}</style></defs><title>Artboard 1</title><image width="3778" height="2645" transform="translate(-42.61 -14.59) scale(0.45)" xlink:href="../../../../nightout.png"/><line class="cls-1" x1="164.52" y1="649.53" x2="181.88" y2="649.53"/><line class="cls-1" x1="181.88" y1="717.99" x2="181.88" y2="649.53"/><line class="cls-1" x1="181.88" y1="734.38" x2="181.88" y2="877.1"/><path d="M179.62,720.83h1v5.41c0,2.15-1,2.81-2.44,2.81a3.36,3.36,0,0,1-1.12-.19l.16-.85a2.57,2.57,0,0,0,.87.15c.94,0,1.49-.42,1.49-2Z"/><path d="M185.58,728.92l-.08-.73h0a2.16,2.16,0,0,1-1.77.86,1.66,1.66,0,0,1-1.78-1.67c0-1.4,1.25-2.17,3.49-2.16v-.11a1.2,1.2,0,0,0-1.32-1.35,2.93,2.93,0,0,0-1.51.43l-.24-.69a3.64,3.64,0,0,1,1.91-.52c1.78,0,2.21,1.21,2.21,2.38v2.17a8.47,8.47,0,0,0,.09,1.39Zm-.15-3c-1.15,0-2.46.18-2.46,1.3a.93.93,0,0,0,1,1,1.45,1.45,0,0,0,1.41-1,1.35,1.35,0,0,0,.06-.34Z"/><line class="cls-1" x1="324.91" y1="781.63" x2="426.48" y2="781.63"/><line class="cls-1" x1="445.34" y1="781.63" x2="505.55" y2="781.63"/><line class="cls-1" x1="505.55" y1="669.13" x2="505.55" y2="781.63"/><line class="cls-1" x1="532.55" y1="669.13" x2="505.55" y2="669.13"/><path d="M431.3,786.31a1.7,1.7,0,0,0,1.15-.44c.29-.34.4-.79.4-2.18v-4.86h1v5.26a3.22,3.22,0,0,1-.69,2.39,2.68,2.68,0,0,1-1.8.66ZM434,777.2a.62.62,0,0,1-.66.65.64.64,0,0,1-.65-.65.65.65,0,0,1,.68-.66A.62.62,0,0,1,434,777.2Z"/><path d="M438.85,784.63l-.09-.73h0a2.17,2.17,0,0,1-1.78.87,1.65,1.65,0,0,1-1.77-1.67c0-1.4,1.24-2.17,3.49-2.16v-.12a1.2,1.2,0,0,0-1.32-1.34,2.87,2.87,0,0,0-1.52.43l-.24-.7a3.63,3.63,0,0,1,1.91-.51c1.78,0,2.21,1.21,2.21,2.37v2.17a8.32,8.32,0,0,0,.09,1.39Zm-.16-3c-1.15,0-2.46.18-2.46,1.31a.94.94,0,0,0,1,1,1.44,1.44,0,0,0,1.4-1,.92.92,0,0,0,.06-.33Z"/><rect class="cls-1" x="70.98" y="984.13" width="165.86" height="77.14" rx="12"/><path d="M88.11,1001.38a2.79,2.79,0,0,0,1.39.42c.77,0,1.13-.39,1.13-.87s-.3-.78-1.08-1.07c-1-.37-1.54-.94-1.54-1.64a1.79,1.79,0,0,1,2-1.7,2.91,2.91,0,0,1,1.43.36l-.26.77a2.22,2.22,0,0,0-1.19-.34c-.62,0-1,.36-1,.79s.35.7,1.1,1c1,.39,1.52.89,1.52,1.76s-.79,1.74-2.17,1.74a3.33,3.33,0,0,1-1.63-.4Z"/><path d="M93,993.94h1.06v3.62h0a1.93,1.93,0,0,1,.76-.74,2.16,2.16,0,0,1,1.08-.3c.78,0,2,.48,2,2.48v3.45h-1v-3.33c0-.93-.35-1.73-1.35-1.73a1.51,1.51,0,0,0-1.41,1.06,1.26,1.26,0,0,0-.07.5v3.5H93Z"/><path d="M104.92,999.5a2.84,2.84,0,0,1-2.89,3.09,2.76,2.76,0,0,1-2.79-3,2.83,2.83,0,0,1,2.88-3.08A2.75,2.75,0,0,1,104.92,999.5Zm-4.61.06c0,1.28.73,2.24,1.76,2.24s1.77-.95,1.77-2.26c0-1-.5-2.23-1.74-2.23S100.31,998.46,100.31,999.56Z"/><path d="M106.59,996.65l.76,3c.17.65.33,1.25.44,1.85h0c.13-.59.33-1.21.52-1.84l.94-3h.89l.9,2.9c.22.7.39,1.31.52,1.9h0c.1-.59.26-1.2.45-1.89l.83-2.91h1l-1.87,5.8h-1l-.89-2.77c-.2-.64-.37-1.22-.52-1.9h0a15.86,15.86,0,0,1-.53,1.92l-.93,2.75h-1l-1.75-5.8Z"/><path d="M116.08,994.37v3.38H120v-3.38H121v8.08H120v-3.79h-3.91v3.79h-1v-8.08Z"/><path d="M126,1002.45l-.09-.73h0a2.17,2.17,0,0,1-1.78.87,1.65,1.65,0,0,1-1.77-1.67c0-1.4,1.24-2.17,3.49-2.16v-.12a1.2,1.2,0,0,0-1.32-1.34,2.9,2.9,0,0,0-1.51.43l-.24-.7a3.6,3.6,0,0,1,1.9-.51c1.78,0,2.21,1.21,2.21,2.37v2.17a7.31,7.31,0,0,0,.1,1.39Zm-.16-3c-1.15,0-2.46.18-2.46,1.31a.94.94,0,0,0,1,1,1.45,1.45,0,0,0,1.4-1,1,1,0,0,0,.06-.34Z"/><path d="M128.61,998.54c0-.74,0-1.34-.05-1.89h.95l0,1h0a2.27,2.27,0,0,1,2.06-1.13c1.4,0,2.46,1.19,2.46,3,0,2.09-1.27,3.12-2.64,3.12a2.05,2.05,0,0,1-1.79-.91h0v3.15h-1Zm1,1.55a1.88,1.88,0,0,0,0,.43,1.61,1.61,0,0,0,1.58,1.24c1.12,0,1.76-.91,1.76-2.24,0-1.17-.61-2.16-1.72-2.16a1.69,1.69,0,0,0-1.6,1.3,2.13,2.13,0,0,0-.07.44Z"/><path d="M135.43,998.54c0-.74,0-1.34,0-1.89h.94l0,1h0a2.27,2.27,0,0,1,2.06-1.13c1.4,0,2.46,1.19,2.46,3,0,2.09-1.27,3.12-2.64,3.12a2.05,2.05,0,0,1-1.79-.91h0v3.15h-1Zm1,1.55a1.88,1.88,0,0,0,.05.43,1.61,1.61,0,0,0,1.58,1.24c1.11,0,1.76-.91,1.76-2.24,0-1.17-.61-2.16-1.73-2.16a1.67,1.67,0,0,0-1.59,1.3,1.62,1.62,0,0,0-.07.44Z"/><path d="M142.56,996.65l1.27,3.43c.14.38.28.84.38,1.19h0c.11-.35.23-.79.37-1.21l1.15-3.41h1.12l-1.59,4.14c-.75,2-1.27,3-2,3.63a2.85,2.85,0,0,1-1.29.69l-.27-.89a2.76,2.76,0,0,0,.93-.52,3.17,3.17,0,0,0,.89-1.17,1.12,1.12,0,0,0,.08-.25.8.8,0,0,0-.07-.28l-2.15-5.35Z"/><path d="M152.05,998.66h-3.14v2.92h3.5v.87h-4.54v-8.08h4.36v.88h-3.32v2.55h3.14Z"/><path d="M153.73,998.22c0-.6,0-1.09,0-1.57h.93l.06,1h0a2.12,2.12,0,0,1,1.91-1.09c.81,0,2.06.48,2.06,2.47v3.46h-1.06v-3.34c0-.94-.35-1.72-1.34-1.72a1.51,1.51,0,0,0-1.42,1.08,1.53,1.53,0,0,0-.07.49v3.49h-1.06Z"/><path d="M165.41,993.94v7c0,.51,0,1.1,0,1.49h-.94l0-1h0a2.16,2.16,0,0,1-2,1.14c-1.41,0-2.49-1.19-2.49-3,0-1.93,1.19-3.12,2.61-3.12a2,2,0,0,1,1.75.89h0v-3.47ZM164.35,999a1.65,1.65,0,0,0,0-.44,1.54,1.54,0,0,0-1.52-1.22c-1.09,0-1.74,1-1.74,2.24s.58,2.15,1.72,2.15a1.59,1.59,0,0,0,1.54-1.26,1.71,1.71,0,0,0,0-.46Z"/><path d="M168.34,995a.66.66,0,0,1-1.31,0,.65.65,0,0,1,.66-.66A.63.63,0,0,1,168.34,995Zm-1.18,7.43v-5.8h1.06v5.8Z"/><path d="M170,998.22c0-.6,0-1.09-.05-1.57h.94l.06,1h0a2.14,2.14,0,0,1,1.92-1.09c.8,0,2,.48,2,2.47v3.46h-1v-3.34c0-.94-.35-1.72-1.35-1.72a1.51,1.51,0,0,0-1.41,1.08,1.53,1.53,0,0,0-.07.49v3.49H170Z"/><path d="M181.63,996.65c0,.42,0,.89,0,1.59v3.38a3.36,3.36,0,0,1-.82,2.65,3.13,3.13,0,0,1-2.12.69,3.78,3.78,0,0,1-1.93-.48l.27-.8a3.25,3.25,0,0,0,1.7.45c1.08,0,1.87-.56,1.87-2v-.65h0a2.08,2.08,0,0,1-1.85,1,2.59,2.59,0,0,1-2.47-2.83,2.78,2.78,0,0,1,2.61-3.08,2,2,0,0,1,1.82,1h0l.05-.88Zm-1.09,2.29a1.47,1.47,0,0,0-.06-.48,1.52,1.52,0,0,0-1.48-1.11c-1,0-1.72.85-1.72,2.19,0,1.14.57,2.09,1.71,2.09a1.55,1.55,0,0,0,1.47-1.08,1.87,1.87,0,0,0,.08-.57Z"/><path d="M89.32,1034.28v-5h-.81v-.81h.81v-.27a2.75,2.75,0,0,1,.67-2,2.06,2.06,0,0,1,1.42-.54,2.32,2.32,0,0,1,.9.17l-.14.81a1.67,1.67,0,0,0-.68-.13c-.9,0-1.12.79-1.12,1.68v.31h1.4v.81h-1.4v5Z"/><path d="M95.93,1034.28l-.08-.73h0a2.16,2.16,0,0,1-1.77.86,1.66,1.66,0,0,1-1.78-1.67c0-1.4,1.25-2.17,3.49-2.16v-.12a1.19,1.19,0,0,0-1.32-1.34,2.93,2.93,0,0,0-1.51.43l-.24-.69a3.55,3.55,0,0,1,1.91-.52c1.77,0,2.21,1.21,2.21,2.37v2.18a8.47,8.47,0,0,0,.09,1.39Zm-.15-3c-1.15,0-2.46.17-2.46,1.3a.93.93,0,0,0,1,1,1.45,1.45,0,0,0,1.41-1,1.35,1.35,0,0,0,.06-.34Z"/><path d="M103.52,1025.76v7c0,.51,0,1.1,0,1.5h-.94l-.05-1h0a2.13,2.13,0,0,1-2,1.14c-1.41,0-2.49-1.19-2.49-3,0-1.93,1.19-3.12,2.61-3.12a2,2,0,0,1,1.75.89h0v-3.47Zm-1.06,5.07a1.65,1.65,0,0,0,0-.44,1.54,1.54,0,0,0-1.52-1.22c-1.09,0-1.74,1-1.74,2.24s.58,2.15,1.72,2.15a1.59,1.59,0,0,0,1.54-1.26,1.71,1.71,0,0,0,0-.46Z"/><path d="M105.86,1031.57a1.85,1.85,0,0,0,2,2,3.83,3.83,0,0,0,1.61-.3l.18.76a4.88,4.88,0,0,1-1.93.36,2.7,2.7,0,0,1-2.86-2.93c0-1.75,1-3.13,2.72-3.13a2.46,2.46,0,0,1,2.4,2.74,4.88,4.88,0,0,1,0,.49Zm3.09-.76a1.5,1.5,0,0,0-1.46-1.71,1.74,1.74,0,0,0-1.62,1.71Z"/><path d="M113.68,1033.2a2.82,2.82,0,0,0,1.39.42c.77,0,1.13-.39,1.13-.87s-.3-.78-1.08-1.06c-1-.37-1.53-1-1.53-1.65a1.79,1.79,0,0,1,2-1.7,2.94,2.94,0,0,1,1.43.36l-.27.77a2.15,2.15,0,0,0-1.18-.34c-.63,0-1,.36-1,.79s.35.7,1.11,1c1,.38,1.52.88,1.52,1.75s-.79,1.74-2.17,1.74a3.3,3.3,0,0,1-1.63-.4Z"/><path d="M118.58,1030.37c0-.75,0-1.35,0-1.9h1l0,1h0a2.28,2.28,0,0,1,2.06-1.13c1.41,0,2.46,1.19,2.46,3,0,2.09-1.27,3.12-2.64,3.12a2,2,0,0,1-1.78-.91h0v3.15h-1Zm1,1.54a3,3,0,0,0,0,.44,1.63,1.63,0,0,0,1.58,1.23c1.12,0,1.77-.91,1.77-2.24,0-1.16-.62-2.16-1.73-2.16a1.7,1.7,0,0,0-1.6,1.31,2,2,0,0,0-.07.43Z"/><path d="M126.58,1026.84a.62.62,0,0,1-.67.65.63.63,0,0,1-.64-.65.65.65,0,0,1,.66-.66A.63.63,0,0,1,126.58,1026.84Zm-1.17,7.44v-5.81h1v5.81Z"/><path d="M128.21,1025.76h1.06v8.52h-1.06Z"/><path d="M130.9,1033.2a2.82,2.82,0,0,0,1.39.42c.77,0,1.13-.39,1.13-.87s-.3-.78-1.08-1.06c-1-.37-1.53-1-1.53-1.65a1.79,1.79,0,0,1,2-1.7,2.94,2.94,0,0,1,1.43.36l-.27.77a2.21,2.21,0,0,0-1.18-.34c-.63,0-1,.36-1,.79s.35.7,1.11,1c1,.38,1.52.88,1.52,1.75s-.79,1.74-2.17,1.74a3.3,3.3,0,0,1-1.63-.4Z"/><path d="M136.84,1031.13h0c.14-.2.34-.45.51-.65l1.7-2h1.28l-2.25,2.39,2.56,3.42h-1.29l-2-2.79-.54.6v2.19h-1v-8.52h1Z"/><path d="M145.68,1031.48a1.82,1.82,0,0,0,1.85,2.11,3.45,3.45,0,0,0,1.58-.33l.2.74a4.16,4.16,0,0,1-1.91.41,2.32,2.32,0,0,1-2.21-1.28h0a2.28,2.28,0,0,1-2.16,1.28,1.66,1.66,0,0,1-1.81-1.66c0-1.34,1.25-2.12,3.5-2.09v-.25a1.29,1.29,0,0,0-1.36-1.29,2.81,2.81,0,0,0-1.48.44l-.25-.69a3.59,3.59,0,0,1,1.81-.53,1.76,1.76,0,0,1,1.87,1.24h0a2.22,2.22,0,0,1,2-1.24c1.77,0,2.27,1.72,2.27,2.67a2.74,2.74,0,0,1,0,.47Zm-1-.12c-1.11,0-2.47.17-2.47,1.31a.94.94,0,0,0,1,1,1.42,1.42,0,0,0,1.4-1,1.16,1.16,0,0,0,.06-.42Zm3.88-.63a1.45,1.45,0,0,0-1.36-1.63,1.66,1.66,0,0,0-1.56,1.63Z"/><path d="M150.92,1030.28c0-.68,0-1.27,0-1.81h.92l0,1.14h0a1.74,1.74,0,0,1,1.6-1.27.91.91,0,0,1,.3,0v1a1.79,1.79,0,0,0-.36,0,1.47,1.47,0,0,0-1.41,1.35,2.38,2.38,0,0,0,0,.49v3.1h-1Z"/><path d="M154.89,1030c0-.6,0-1.09,0-1.57h.93l0,.94h0a2,2,0,0,1,1.82-1.07,1.74,1.74,0,0,1,1.65,1.16h0a2.42,2.42,0,0,1,.65-.75,1.93,1.93,0,0,1,1.28-.41c.77,0,1.91.5,1.91,2.52v3.42h-1V1031c0-1.11-.41-1.79-1.26-1.79a1.38,1.38,0,0,0-1.25,1,1.74,1.74,0,0,0-.08.53v3.59h-1v-3.48c0-.92-.4-1.6-1.21-1.6a1.45,1.45,0,0,0-1.31,1.06,1.72,1.72,0,0,0-.08.52v3.5h-1Z"/><path d="M172.3,1032.69c0,.6,0,1.13,0,1.59h-.94l-.06-1h0a2.19,2.19,0,0,1-1.92,1.08c-.91,0-2-.5-2-2.54v-3.4h1.05v3.22c0,1.1.34,1.84,1.3,1.84a1.53,1.53,0,0,0,1.39-1,1.49,1.49,0,0,0,.09-.54v-3.56h1.06Z"/><path d="M179.07,1025.76v7c0,.51,0,1.1,0,1.5h-.94l0-1h0a2.16,2.16,0,0,1-2,1.14c-1.41,0-2.49-1.19-2.49-3,0-1.93,1.19-3.12,2.61-3.12a2,2,0,0,1,1.75.89h0v-3.47Zm-1.06,5.07a1.65,1.65,0,0,0,0-.44,1.54,1.54,0,0,0-1.52-1.22c-1.09,0-1.74,1-1.74,2.24s.58,2.15,1.72,2.15a1.59,1.59,0,0,0,1.54-1.26,1.71,1.71,0,0,0,0-.46Z"/><path d="M89.62,1042.87l1.14,3.26c.19.53.35,1,.47,1.49h0c.13-.48.3-1,.49-1.49l1.12-3.26H94l-2.28,5.81h-1l-2.2-5.81Z"/><path d="M96.16,1041.24a.62.62,0,0,1-.67.65.63.63,0,0,1-.64-.65.65.65,0,0,1,.66-.66A.63.63,0,0,1,96.16,1041.24ZM95,1048.68v-5.81H96v5.81Z"/><path d="M97.65,1047.6A2.79,2.79,0,0,0,99,1048c.77,0,1.13-.39,1.13-.87s-.3-.78-1.08-1.06c-1-.37-1.54-.95-1.54-1.65a1.8,1.8,0,0,1,2-1.7,2.87,2.87,0,0,1,1.42.36l-.26.77a2.22,2.22,0,0,0-1.19-.34c-.62,0-1,.36-1,.79s.35.7,1.11,1c1,.38,1.52.89,1.52,1.75,0,1-.79,1.74-2.17,1.74a3.27,3.27,0,0,1-1.63-.4Z"/><path d="M105.5,1042.87l1.14,3.26c.19.53.35,1,.47,1.49h0c.13-.48.3-1,.49-1.49l1.13-3.26h1.1l-2.28,5.81h-1l-2.21-5.81Z"/><path d="M112,1041.24a.66.66,0,0,1-1.31,0,.65.65,0,0,1,.66-.66A.63.63,0,0,1,112,1041.24Zm-1.18,7.44v-5.81h1.06v5.81Z"/><path d="M113.67,1044.44c0-.6,0-1.09,0-1.57h.94l.06,1h0a2.14,2.14,0,0,1,1.92-1.09c.8,0,2,.48,2,2.47v3.47h-1v-3.35c0-.93-.35-1.71-1.35-1.71a1.5,1.5,0,0,0-1.41,1.08,1.45,1.45,0,0,0-.07.49v3.49h-1.06Z"/><path d="M125.34,1040.16v7c0,.51,0,1.1,0,1.5h-1l0-1h0a2.14,2.14,0,0,1-2,1.14c-1.4,0-2.48-1.19-2.48-3,0-1.93,1.19-3.12,2.6-3.12a1.93,1.93,0,0,1,1.75.89h0v-3.47Zm-1,5.08a1.68,1.68,0,0,0-.05-.45,1.55,1.55,0,0,0-1.52-1.22c-1.09,0-1.74,1-1.74,2.24s.57,2.15,1.71,2.15a1.59,1.59,0,0,0,1.55-1.26,1.71,1.71,0,0,0,.05-.46Z"/><path d="M127.69,1046a1.85,1.85,0,0,0,2,2,3.75,3.75,0,0,0,1.6-.3l.18.76a4.63,4.63,0,0,1-1.93.36,2.7,2.7,0,0,1-2.85-2.93c0-1.75,1-3.13,2.72-3.13a2.46,2.46,0,0,1,2.4,2.74,2.81,2.81,0,0,1,0,.49Zm3.09-.76a1.5,1.5,0,0,0-1.46-1.71,1.74,1.74,0,0,0-1.62,1.71Z"/><path d="M133.11,1044.68c0-.68,0-1.27-.05-1.81H134l0,1.14h0a1.74,1.74,0,0,1,1.61-1.27,1,1,0,0,1,.3,0v1a1.94,1.94,0,0,0-.36,0,1.48,1.48,0,0,0-1.42,1.35,3.52,3.52,0,0,0,0,.49v3.1h-1Z"/><path d="M136.89,1047.6a2.79,2.79,0,0,0,1.39.42c.77,0,1.13-.39,1.13-.87s-.3-.78-1.08-1.06c-1-.37-1.54-.95-1.54-1.65a1.8,1.8,0,0,1,2-1.7,2.9,2.9,0,0,1,1.42.36l-.26.77a2.22,2.22,0,0,0-1.19-.34c-.62,0-1,.36-1,.79s.35.7,1.1,1c1,.38,1.53.89,1.53,1.75,0,1-.79,1.74-2.17,1.74a3.27,3.27,0,0,1-1.63-.4Z"/><path d="M142.83,1045.54h0c.15-.21.35-.46.52-.66l1.7-2h1.27l-2.24,2.39,2.55,3.42h-1.28l-2-2.78-.54.59v2.19h-1v-8.52h1Z"/><path d="M151.67,1045.88a1.82,1.82,0,0,0,1.85,2.11,3.45,3.45,0,0,0,1.58-.33l.19.74a4.12,4.12,0,0,1-1.9.41,2.31,2.31,0,0,1-2.21-1.28h0a2.29,2.29,0,0,1-2.16,1.28,1.66,1.66,0,0,1-1.81-1.66c0-1.34,1.24-2.12,3.5-2.09v-.24a1.29,1.29,0,0,0-1.36-1.3,2.78,2.78,0,0,0-1.48.44l-.26-.69a3.75,3.75,0,0,1,1.81-.53,1.77,1.77,0,0,1,1.88,1.24h0a2.22,2.22,0,0,1,2-1.24c1.77,0,2.26,1.72,2.26,2.67a2.83,2.83,0,0,1,0,.47Zm-1-.12c-1.12,0-2.47.17-2.47,1.31a.94.94,0,0,0,1,1,1.42,1.42,0,0,0,1.4-1,1.13,1.13,0,0,0,.06-.41Zm3.87-.63a1.44,1.44,0,0,0-1.35-1.63,1.66,1.66,0,0,0-1.56,1.63Z"/><path d="M156.91,1044.68c0-.68,0-1.27,0-1.81h.92l0,1.14h.05a1.73,1.73,0,0,1,1.6-1.27.91.91,0,0,1,.3,0v1a1.86,1.86,0,0,0-.36,0,1.47,1.47,0,0,0-1.41,1.35,2.46,2.46,0,0,0-.05.49v3.1h-1Z"/><path d="M160.88,1044.44c0-.6,0-1.09,0-1.57h.92l.05.94h0a2,2,0,0,1,1.82-1.07,1.71,1.71,0,0,1,1.64,1.16h0a2.39,2.39,0,0,1,.64-.75,2,2,0,0,1,1.29-.41c.77,0,1.91.5,1.91,2.52v3.42h-1v-3.29c0-1.11-.4-1.79-1.26-1.79a1.37,1.37,0,0,0-1.24,1,1.73,1.73,0,0,0-.09.53v3.59h-1v-3.48c0-.92-.41-1.6-1.21-1.6a1.45,1.45,0,0,0-1.31,1.06,1.49,1.49,0,0,0-.08.52v3.5h-1Z"/><line class="cls-1" x1="153.91" y1="940.74" x2="153.91" y2="984.13"/><line class="cls-1" x1="677.84" y1="669.13" x2="751.13" y2="669.13"/><line class="cls-1" x1="493.98" y1="321.35" x2="751.13" y2="321.35"/><line class="cls-1" x1="751.13" y1="669.13" x2="751.13" y2="321.35"/><line class="cls-1" x1="232.98" y1="1022.71" x2="772.98" y2="1022.71"/><line class="cls-1" x1="496.34" y1="296.92" x2="772.98" y2="296.92"/><line class="cls-1" x1="772.98" y1="1022.71" x2="772.98" y2="296.92"/><polygon class="cls-2" points="181.88 875.81 186.49 867.02 177.5 867.05 181.88 875.81"/><polygon class="cls-2" points="153.8 984.13 158.41 975.35 149.42 975.38 153.8 984.13"/><polygon class="cls-2" points="532.98 669.27 524.21 664.64 524.22 673.63 532.98 669.27"/><polygon class="cls-2" points="495.1 321.12 503.82 325.84 503.91 316.85 495.1 321.12"/><polygon class="cls-2" points="497.03 296.69 505.75 301.41 505.84 292.43 497.03 296.69"/><polygon class="cls-2" points="838.54 185.47 843.05 176.63 834.06 176.76 838.54 185.47"/><polygon class="cls-2" points="838.54 87.35 843.05 78.51 834.06 78.64 838.54 87.35"/><path d="M469.82,1004h1.05v3.9h0c.22-.31.43-.6.64-.86l2.47-3h1.29l-2.92,3.44,3.15,4.65H474.3l-2.67-4-.76.89v3.08h-1.05Z"/><path d="M476.41,1003.58h1.06v8.52h-1.06Z"/><path d="M480.42,1004.66a.66.66,0,0,1-1.31,0,.65.65,0,0,1,.66-.66A.63.63,0,0,1,480.42,1004.66Zm-1.18,7.44v-5.81h1.06v5.81Z"/><path d="M483.09,1009h0a7.77,7.77,0,0,1,.51-.66l1.71-2h1.27l-2.25,2.39,2.56,3.42h-1.28l-2-2.78-.54.6v2.18h-1v-8.52h1Z"/><path d="M490.22,1008.19c0-.74,0-1.34-.05-1.9h.95l.05,1h0a2.3,2.3,0,0,1,2.07-1.13c1.4,0,2.45,1.19,2.45,3,0,2.09-1.27,3.12-2.63,3.12a2.05,2.05,0,0,1-1.79-.91h0v3.15h-1Zm1,1.55a2.86,2.86,0,0,0,0,.43,1.63,1.63,0,0,0,1.59,1.23c1.11,0,1.76-.91,1.76-2.24,0-1.16-.61-2.16-1.73-2.16a1.68,1.68,0,0,0-1.59,1.31,1.55,1.55,0,0,0-.07.43Z"/><path d="M500.26,1012.1l-.08-.73h0a2.16,2.16,0,0,1-1.77.86,1.66,1.66,0,0,1-1.78-1.67c0-1.4,1.25-2.17,3.49-2.16v-.11a1.2,1.2,0,0,0-1.32-1.35,2.93,2.93,0,0,0-1.51.43l-.24-.69a3.64,3.64,0,0,1,1.91-.52c1.78,0,2.21,1.21,2.21,2.38v2.17a8.47,8.47,0,0,0,.09,1.39Zm-.15-3c-1.15,0-2.46.18-2.46,1.3a.93.93,0,0,0,1,1,1.45,1.45,0,0,0,1.41-1,1.35,1.35,0,0,0,.06-.34Zm-2.27-4.57a1.13,1.13,0,0,1,1.22-1.14,1.11,1.11,0,0,1,1.19,1.12,1.21,1.21,0,0,1-2.41,0Zm1.82,0a.61.61,0,1,0-1.21,0,.61.61,0,1,0,1.21,0Z"/><path d="M506.55,1004.66a.65.65,0,1,1-1.3,0,.64.64,0,0,1,.66-.66A.62.62,0,0,1,506.55,1004.66Zm-1.17,7.44v-5.81h1.05v5.81Z"/><path d="M513.19,1006.29c0,.42-.05.89-.05,1.6v3.37a3.35,3.35,0,0,1-.83,2.65,3.06,3.06,0,0,1-2.11.7,3.76,3.76,0,0,1-1.93-.48l.26-.81a3.31,3.31,0,0,0,1.71.46c1.08,0,1.87-.57,1.87-2v-.65h0a2.05,2.05,0,0,1-1.84,1,2.59,2.59,0,0,1-2.47-2.83,2.79,2.79,0,0,1,2.61-3.08,1.92,1.92,0,0,1,1.81,1h0l0-.88Zm-1.1,2.29a1.82,1.82,0,0,0-.05-.48,1.53,1.53,0,0,0-1.48-1.11c-1,0-1.73.85-1.73,2.19,0,1.14.58,2.09,1.72,2.09a1.54,1.54,0,0,0,1.46-1.08,1.81,1.81,0,0,0,.08-.56Z"/><path d="M515.48,1009.39a1.85,1.85,0,0,0,2,2,3.8,3.8,0,0,0,1.61-.3l.18.76a4.67,4.67,0,0,1-1.93.36,2.7,2.7,0,0,1-2.86-2.93c0-1.75,1-3.13,2.73-3.13a2.46,2.46,0,0,1,2.39,2.74,4.88,4.88,0,0,1,0,.49Zm3.1-.76a1.5,1.5,0,0,0-1.47-1.71,1.75,1.75,0,0,0-1.62,1.71Z"/><path d="M520.9,1007.87c0-.6,0-1.1,0-1.58h.93l.06,1h0a2.13,2.13,0,0,1,1.92-1.09c.8,0,2.05.48,2.05,2.47v3.47h-1.06v-3.35c0-.93-.35-1.71-1.34-1.71a1.5,1.5,0,0,0-1.42,1.08,1.45,1.45,0,0,0-.07.49v3.49H520.9Z"/><line class="cls-1" x1="474.05" y1="997.53" x2="466.98" y2="997.53"/><line class="cls-1" x1="474.05" y1="1017.88" x2="466.98" y2="1017.88"/><line class="cls-1" x1="466.98" y1="1017.88" x2="466.98" y2="997.53"/><path d="M687.11,652.8h1v3.9h0c.21-.31.43-.6.63-.87l2.47-3h1.3l-2.93,3.43,3.16,4.65h-1.24l-2.66-4-.77.89v3.08h-1Z"/><path d="M693.7,652.37h1v8.51h-1Z"/><path d="M697.7,653.45a.65.65,0,1,1-1.3,0,.64.64,0,0,1,.66-.66A.62.62,0,0,1,697.7,653.45Zm-1.17,7.43v-5.8h1.05v5.8Z"/><path d="M700.38,657.74h0l.52-.66,1.7-2h1.27l-2.24,2.39,2.55,3.41h-1.28l-2-2.78-.54.6v2.18h-1v-8.51h1Z"/><path d="M707.51,657c0-.74,0-1.34,0-1.89h.95l0,1h0a2.28,2.28,0,0,1,2.06-1.12c1.4,0,2.46,1.18,2.46,2.95,0,2.08-1.27,3.12-2.64,3.12a2,2,0,0,1-1.79-.92h0v3.16h-1Zm1,1.55a1.88,1.88,0,0,0,.05.43,1.63,1.63,0,0,0,1.58,1.24c1.12,0,1.76-.91,1.76-2.24,0-1.17-.61-2.16-1.72-2.16a1.69,1.69,0,0,0-1.6,1.3,2.13,2.13,0,0,0-.07.44Z"/><path d="M717.55,660.88l-.08-.73h0a2.16,2.16,0,0,1-1.78.87,1.65,1.65,0,0,1-1.77-1.67c0-1.4,1.25-2.17,3.49-2.16v-.12a1.19,1.19,0,0,0-1.32-1.34,2.84,2.84,0,0,0-1.51.43l-.24-.7a3.61,3.61,0,0,1,1.91-.51c1.77,0,2.2,1.21,2.2,2.37v2.17a8.24,8.24,0,0,0,.1,1.39Zm-.16-3c-1.15,0-2.46.18-2.46,1.31a.94.94,0,0,0,1,1,1.42,1.42,0,0,0,1.4-1,.92.92,0,0,0,.06-.33Zm-2.26-4.57a1.13,1.13,0,0,1,1.22-1.14,1.12,1.12,0,1,1-1.22,1.14Zm1.82,0a.62.62,0,0,0-.62-.66.61.61,0,0,0-.59.68.64.64,0,0,0,.59.65A.63.63,0,0,0,717,653.33Z"/><path d="M723.84,653.45a.66.66,0,0,1-1.31,0,.65.65,0,0,1,.66-.66A.63.63,0,0,1,723.84,653.45Zm-1.18,7.43v-5.8h1.06v5.8Z"/><path d="M730.47,655.08c0,.42-.05.89-.05,1.59V660a3.33,3.33,0,0,1-.82,2.65,3.08,3.08,0,0,1-2.11.7,3.79,3.79,0,0,1-1.94-.48l.27-.8a3.25,3.25,0,0,0,1.7.45c1.08,0,1.87-.56,1.87-2v-.65h0a2.08,2.08,0,0,1-1.85,1,2.59,2.59,0,0,1-2.47-2.83,2.78,2.78,0,0,1,2.62-3.08,1.94,1.94,0,0,1,1.81,1h0l0-.87Zm-1.09,2.29a1.44,1.44,0,0,0-.06-.48,1.53,1.53,0,0,0-1.47-1.12c-1,0-1.73.86-1.73,2.2,0,1.14.57,2.09,1.71,2.09A1.55,1.55,0,0,0,729.3,659a1.87,1.87,0,0,0,.08-.57Z"/><path d="M732.77,658.17a1.86,1.86,0,0,0,2,2,3.75,3.75,0,0,0,1.6-.3l.18.75a4.63,4.63,0,0,1-1.93.36,2.69,2.69,0,0,1-2.85-2.92c0-1.75,1-3.13,2.72-3.13a2.45,2.45,0,0,1,2.4,2.73,2.63,2.63,0,0,1,0,.49Zm3.09-.75a1.51,1.51,0,0,0-1.46-1.72,1.75,1.75,0,0,0-1.62,1.72Z"/><path d="M738.19,656.65c0-.6,0-1.09-.05-1.57h.94l.06,1h0a2.14,2.14,0,0,1,1.92-1.09c.8,0,2,.48,2,2.47v3.46h-1v-3.34c0-.94-.35-1.72-1.35-1.72a1.5,1.5,0,0,0-1.41,1.08,1.45,1.45,0,0,0-.07.49v3.49h-1.06Z"/><line class="cls-1" x1="691.34" y1="646.31" x2="684.27" y2="646.31"/><line class="cls-1" x1="691.34" y1="666.67" x2="684.27" y2="666.67"/><line class="cls-1" x1="684.27" y1="666.67" x2="684.27" y2="646.31"/><line class="cls-1" x1="838.55" y1="157.74" x2="838.55" y2="182.81"/><line class="cls-1" x1="838.55" y1="61.31" x2="838.55" y2="86.38"/><line class="cls-1" x1="838.55" y1="56.49" x2="838.55" y2="87.35"/><circle class="cls-2" cx="838.55" cy="45.94" r="10.55"/></svg>
