<svg xmlns="http://www.w3.org/2000/svg" xmlns:xlink="http://www.w3.org/1999/xlink" width="1920" height="1080" viewBox="0 0 1920 1080"><defs><style>.cls-1{isolation:isolate;}.cls-2{fill:url(#linear-gradient);}.cls-3,.cls-4,.cls-5,.cls-6,.cls-7{fill:#9a97c1;}.cls-3{opacity:0.07;}.cls-4{opacity:0.14;}.cls-5{opacity:0.21;}.cls-6{opacity:0.28;}.cls-7{opacity:0.35;}.cls-8{mix-blend-mode:lighten;}.cls-9{fill:none;}.cls-10{fill:#fff;}</style><linearGradient id="linear-gradient" x1="960.1" y1="671.6" x2="962.09" y2="23.69" gradientUnits="userSpaceOnUse"><stop offset="0.11" stop-color="#ff9a2c"/><stop offset="0.13" stop-color="#f68e38"/><stop offset="0.24" stop-color="#cd566e"/><stop offset="0.34" stop-color="#ae2d96"/><stop offset="0.42" stop-color="#9c14ae"/><stop offset="0.46" stop-color="#950bb7"/><stop offset="0.68" stop-color="#630a82"/><stop offset="0.95" stop-color="#280842"/></linearGradient></defs><title>background_happy_ending</title><g class="cls-1"><g id="himler"><rect class="cls-2" x="1" y="1" width="1919" height="1078"/><circle class="cls-3" cx="1449.58" cy="214.8" r="886.88"/><circle class="cls-4" cx="1443.31" cy="213.59" r="523.9"/><circle class="cls-5" cx="1443.95" cy="222.28" r="316.77"/><circle class="cls-6" cx="1445.6" cy="224.11" r="209.37"/><ellipse class="cls-7" cx="1442.62" cy="218.01" rx="146.47" ry="144.6"/></g><g id="startside"><g class="cls-8"><rect class="cls-9" x="1261.01" y="106.53" width="4.74" height="4.74" transform="translate(873.07 1315.4) rotate(-77)"/><circle class="cls-10" cx="1263.38" cy="108.9" r="2.37"/><rect class="cls-9" x="1432.44" y="107.52" width="4.83" height="4.83" transform="translate(1004.96 1483.28) rotate(-77)"/><circle class="cls-10" cx="1434.85" cy="109.94" r="2.41"/><rect class="cls-9" x="1507.46" y="125.35" width="2.84" height="2.84" transform="translate(1045.93 1568.47) rotate(-77)"/><circle class="cls-10" cx="1508.88" cy="126.78" r="1.42"/><rect class="cls-9" x="1591.04" y="140.28" width="4.77" height="4.77" transform="matrix(0.22, -0.97, 0.97, 0.22, 1095.98, 1663.16)"/><circle class="cls-10" cx="1593.43" cy="142.66" r="2.38"/><rect class="cls-9" x="1792.28" y="170.52" width="5.66" height="5.66" transform="translate(1222.39 1883.45) rotate(-77)"/><circle class="cls-10" cx="1795.1" cy="173.35" r="2.83"/><rect class="cls-9" x="1872.49" y="169" width="2.84" height="2.84" transform="translate(1286.32 1957.97) rotate(-77)"/><circle class="cls-10" cx="1873.91" cy="170.42" r="1.42"/><rect class="cls-9" x="1791.45" y="294.31" width="4.86" height="4.86" transform="translate(1101.21 1977.89) rotate(-77)"/><circle class="cls-10" cx="1793.88" cy="296.74" r="2.43"/><rect class="cls-9" x="1649.93" y="257.38" width="6.26" height="6.26" transform="translate(1027.37 1812.6) rotate(-77)"/><circle class="cls-10" cx="1653.06" cy="260.51" r="3.13"/><rect class="cls-9" x="1606.38" y="236.37" width="3.97" height="3.97" transform="translate(1014.32 1751.88) rotate(-77)"/><circle class="cls-10" cx="1608.37" cy="238.35" r="1.98"/><rect class="cls-9" x="1508.36" y="246.91" width="5.63" height="5.63" transform="translate(927.91 1665.99) rotate(-77)"/><circle class="cls-10" cx="1511.17" cy="249.72" r="2.82"/><rect class="cls-9" x="1463.57" y="294.37" width="6.52" height="6.52" transform="translate(846.86 1659.91) rotate(-77)"/><circle class="cls-10" cx="1466.83" cy="297.63" r="3.26"/><rect class="cls-9" x="1360.31" y="267.84" width="5.89" height="5.89" transform="translate(792.75 1538.18) rotate(-77)"/><circle class="cls-10" cx="1363.25" cy="270.78" r="2.94"/><rect class="cls-9" x="1163.9" y="283.4" width="5.92" height="5.92" transform="translate(625.35 1358.89) rotate(-77)"/><circle class="cls-10" cx="1166.86" cy="286.36" r="2.96"/><rect class="cls-9" x="991.78" y="342.37" width="2.38" height="2.38" transform="translate(434.84 1233.8) rotate(-77)"/><circle class="cls-10" cx="992.97" cy="343.56" r="1.19"/><rect class="cls-9" x="891.9" y="340.38" width="3.54" height="3.54" transform="translate(359.26 1135.95) rotate(-77)"/><circle class="cls-10" cx="893.67" cy="342.15" r="1.77"/><rect class="cls-9" x="759.85" y="317.02" width="6.05" height="6.05" transform="translate(279.42 991.37) rotate(-77)"/><circle class="cls-10" cx="762.87" cy="320.05" r="3.02"/><rect class="cls-9" x="544.35" y="314.34" width="4.43" height="4.43" transform="translate(115.17 777.9) rotate(-77)"/><circle class="cls-10" cx="546.56" cy="316.56" r="2.22"/><rect class="cls-9" x="389.63" y="90.25" width="2.43" height="2.43" transform="translate(213.8 451.72) rotate(-77)"/><circle class="cls-10" cx="390.85" cy="91.47" r="1.22"/><rect class="cls-9" x="772.15" y="-0.8" width="6.55" height="6.55" transform="translate(598.58 757.47) rotate(-77)"/><circle class="cls-10" cx="775.43" cy="2.47" r="3.27"/><rect class="cls-9" x="982.63" y="6.37" width="3.31" height="3.31" transform="translate(755.05 965.28) rotate(-77)"/><circle class="cls-10" cx="984.29" cy="8.02" r="1.66"/><rect class="cls-9" x="1046.84" y="217.37" width="5.49" height="5.49" transform="translate(599.01 1193.29) rotate(-77)"/><circle class="cls-10" cx="1049.59" cy="220.11" r="2.74"/><rect class="cls-9" x="884.35" y="219.01" width="3.37" height="3.37" transform="translate(471.68 1034.38) rotate(-77)"/><circle class="cls-10" cx="886.04" cy="220.7" r="1.68"/><rect class="cls-9" x="825.04" y="182.09" width="3.1" height="3.1" transform="translate(461.71 947.74) rotate(-77)"/><circle class="cls-10" cx="826.59" cy="183.64" r="1.55"/><rect class="cls-9" x="758.6" y="187.17" width="6.64" height="6.64" transform="translate(404.92 890.03) rotate(-77)"/><circle class="cls-10" cx="761.92" cy="190.49" r="3.32"/><rect class="cls-9" x="589.58" y="201.89" width="5.43" height="5.43" transform="translate(259.7 735.69) rotate(-77)"/><circle class="cls-10" cx="592.3" cy="204.61" r="2.71"/><rect class="cls-9" x="415.87" y="200.33" width="4.62" height="4.62" transform="translate(126.66 564.52) rotate(-77)"/><circle class="cls-10" cx="418.18" cy="202.64" r="2.31"/><rect class="cls-9" x="348.73" y="196.96" width="5.86" height="5.86" transform="translate(77.79 497.57) rotate(-77)"/><circle class="cls-10" cx="351.66" cy="199.89" r="2.93"/><rect class="cls-9" x="213.22" y="211.89" width="2.71" height="2.71" transform="translate(-41.47 374.35) rotate(-77)"/><circle class="cls-10" cx="214.58" cy="213.25" r="1.36"/><rect class="cls-9" x="102.11" y="204.79" width="4.42" height="4.42" transform="translate(-120.84 262.08) rotate(-77)"/><circle class="cls-10" cx="104.32" cy="207" r="2.21"/><rect class="cls-9" x="38.21" y="201.41" width="2.82" height="2.82" transform="translate(-166.91 195.79) rotate(-77)"/><circle class="cls-10" cx="39.62" cy="202.82" r="1.41"/></g><rect class="cls-9" x="1258.89" y="39.29" width="5.51" height="5.51" transform="translate(936.87 1261.9) rotate(-77)"/><circle class="cls-10" cx="1261.65" cy="42.04" r="2.76"/><rect class="cls-9" x="1447.58" y="11.27" width="4.82" height="4.82" transform="translate(1110.49 1423.43) rotate(-77)"/><circle class="cls-10" cx="1450" cy="13.68" r="2.41"/><rect class="cls-9" x="1606.74" y="51.52" width="5.47" height="5.47" transform="translate(1194.56 1610.27) rotate(-77)"/><circle class="cls-10" cx="1609.47" cy="54.25" r="2.74"/><rect class="cls-9" x="1684.28" y="42" width="6.24" height="6.24" transform="translate(1263.85 1679.12) rotate(-77)"/><circle class="cls-10" cx="1687.4" cy="45.12" r="3.12"/><rect class="cls-9" x="1763.77" y="45.64" width="3.21" height="3.21" transform="matrix(0.22, -0.97, 0.97, 0.22, 1322.22, 1756.74)"/><circle class="cls-10" cx="1765.38" cy="47.24" r="1.6"/></g></g></svg>
