<svg xmlns="http://www.w3.org/2000/svg" xmlns:xlink="http://www.w3.org/1999/xlink" width="1186" height="735" viewBox="0 0 1186 735"><defs><style>.cls-1{opacity:0.9;}.cls-1,.cls-4{filter:url(#AI_Shadow_2);}.cls-2{fill:#e8d3ea;}.cls-3{fill:#fff;}.cls-5{fill:#2a0d59;}.cls-6{fill:#441982;}.cls-7{fill:#5e25a0;}.cls-8{fill:#f9b732;}.cls-9{fill:#e29c40;}.cls-10{fill:#b2ff6e;}.cls-11{fill:#f9cf8c;}.cls-12{fill:#cc883e;}.cls-13{opacity:0.6;}.cls-13,.cls-15{filter:url(#AI_GaussianBlur_4);}.cls-14{fill:#100b11;}.cls-15{opacity:0.72;}.cls-16{fill:#4d0c59;}</style><filter id="AI_Shadow_2" x="-15" y="-15" width="140" height="130" name="AI_Shadow_2"><feGaussianBlur result="blur" stdDeviation="6" in="SourceAlpha"/><feOffset result="offsetBlurredAlpha" dx="8" dy="8" in="blur"/><feMerge><feMergeNode in="offsetBlurredAlpha"/><feMergeNode in="SourceGraphic"/></feMerge></filter><filter id="AI_GaussianBlur_4" name="AI_GaussianBlur_4"><feGaussianBlur stdDeviation="4"/></filter></defs><title>foreforegroudn_happy_ending</title><g id="taber-forgrund"><g class="cls-1"><rect class="cls-2" x="11.5" y="8.5" width="1020" height="651" rx="10.5"/><path class="cls-3" d="M1021,10a9,9,0,0,1,9,9V649a9,9,0,0,1-9,9H22a9,9,0,0,1-9-9V19a9,9,0,0,1,9-9h999m0-3H22A12,12,0,0,0,10,19V649a12,12,0,0,0,12,12h999a12,12,0,0,0,12-12V19a12,12,0,0,0-12-12Z"/></g><g class="cls-4"><rect class="cls-5" x="835" y="639.25" width="70.41" height="10.83" transform="translate(-53.7 1209.68) rotate(-67.98)"/><path class="cls-5" d="M820.93,653.85c41.27-4.94,65.26,19.4,52.14,36.79-6.16,8.17-26.35,9.5-36.56,10.7h0c-.14,0-16.13.64-11.63-8,3.67-7-6.3-6.84-8.44-7.28s-10.18-1.76-6.1-7.91c3.22-4.86-1-7.78-6.1-7.91-4.47-.11-13.62-5-4.6-9.8C807.1,656.51,820.93,653.85,820.93,653.85Z"/><path class="cls-6" d="M900.48,686.84c23-34.61,57.11-37.06,61.83-15.8,2.22,10-9.87,26.22-15.58,34.76h0c-.09.11-10,12.69-13.59,3.69-2.94-7.32-9.29.36-11,1.7s-8,6.6-10-.49c-1.61-5.61-6.59-4.26-10-.49-3,3.33-12.64,7.12-10.44-2.86C893.53,699.09,900.48,686.84,900.48,686.84Z"/><rect class="cls-6" x="916.23" y="604.3" width="10.83" height="70.41" transform="translate(-189.49 485.29) rotate(-26.85)"/><path class="cls-7" d="M1098.33,408.42s53.1,31.91,65.52,61.17c10,23.52,7.61,41.36-13.39,62.78-17.37,16.86-42.28,29.69-64.08,41.92s-39.05,13-58.81,17.41-17.23-128.39-17.23-128.39,12.68-4.37,27.74-26.58S1065.69,396,1098.33,408.42Z"/><path class="cls-6" d="M1121.4,424.6s30,15.73,42.45,45c10,23.52,7.61,41.36-13.39,62.78-17.37,16.86-42.28,29.69-64.08,41.92s-39.05,13-58.81,17.41c-17.68,4-.47-29.64,2.25-35a3.74,3.74,0,0,1,1.44-1.51c9-5.15,67.52-28.7,91.43-56.8C1141.38,476.45,1121.4,424.6,1121.4,424.6Z"/><path class="cls-8" d="M821.69,436.72s-93.83-7.43-104,38.64-11,75.2-11.6,87.23-4.08,30.73,42.32,46,87.66,28.65,207.38,33.62c33.1,1.37,68.12-19.19,73.19-49.79s11.8-66,10.67-80.29c-.84-10.69,5.42-32.32-26.65-48-10.76-5.27-25.83-9.88-46.92-13.19C882.09,437.69,821.69,436.72,821.69,436.72Z"/><path class="cls-9" d="M1021.68,567.71c-33.35,46-50.34,44.76-90.58,51.52C849.39,633,747,607.87,749.41,608.7c46.21,15.8,87.66,28.64,207.38,33.61,33.1,1.38,68.12-19.19,73.19-49.79s12.57-60.37,10.84-92.88C1040.82,499.64,1043.21,538,1021.68,567.71Z"/><path class="cls-10" d="M818.06,513.41A24.36,24.36,0,0,1,791.11,534c-12.89-1.71-20.36-13.82-18.65-26.69s16.2-23.07,29.07-21.36S819.71,501,818.06,513.41Z"/><path class="cls-10" d="M974.36,544.27c-1.71,12.87-11.12,22.74-24,21S930,551.47,931.73,538.61s16.85-25.73,29.07-21.36C974.28,522.07,976,531.88,974.36,544.27Z"/><path d="M810.2,511.86c-.4,10.54-11.21,21.37-20.55,17.95-8.66-3.17-18.39-11.85-15.14-22.69,3.63-12.13,10.69-19.26,20.54-17.95S810.62,500.55,810.2,511.86Z"/><path d="M935.53,535.11c4.17-12.26,9.89-17.32,21.31-16.37,8.76.73,16.58,10.79,12.32,23.32s-13.12,23.65-23.7,20.05S932.1,545.19,935.53,535.11Z"/><path class="cls-11" d="M862.4,521.32l45.21,9s23.06,1,11.31,28.74S901,595.05,901,595.05a39.05,39.05,0,0,1-40,12.84c-17.58-4.35-65.5-15.77-80.83-21.84s-11.51-19.69-11.51-19.69a16.91,16.91,0,0,1,7.79-13.08c7.73-5,60.65-31.29,60.65-31.29A56.8,56.8,0,0,1,862.4,521.32Z"/><ellipse cx="870.44" cy="571.77" rx="5.57" ry="3.68" transform="translate(-41.76 1074.24) rotate(-62.15)"/><ellipse cx="834.29" cy="562.93" rx="5.57" ry="3.68" transform="translate(-53.2 1037.57) rotate(-62.15)"/><ellipse class="cls-3" cx="788.65" cy="499.41" rx="5" ry="4" transform="translate(189.68 1215.39) rotate(-82.43)"/><ellipse class="cls-3" cx="947.06" cy="528.05" rx="5.32" ry="4.79" transform="translate(372.53 1447.65) rotate(-87.15)"/><path class="cls-12" d="M937.83,573.23a34.22,34.22,0,0,1,10.17-6.6,48.12,48.12,0,0,1,10.77-3.24,49.36,49.36,0,0,1,11.23-.73,34.27,34.27,0,0,1,11.83,2.6l.13.68-5.47,1.17L971,568.17l-11,2.11-11,1.87-5.51.94-5.54.83Z"/><path class="cls-12" d="M762.91,523.41a21,21,0,0,1,9.16.27,24.93,24.93,0,0,1,13.32,8.45,21.08,21.08,0,0,1,4.17,8.15l-.38.59-3.42-2-3.38-2c-2.25-1.35-4.47-2.76-6.71-4.14s-4.43-2.84-6.62-4.29l-3.28-2.19L762.53,524Z"/></g><g class="cls-13"><path class="cls-14" d="M230,118,207.41,83.88A1.88,1.88,0,0,1,209,80.93H222.3a2,2,0,0,1,1.63.91l14.18,20.91,14.18-20.91a1.89,1.89,0,0,1,1.63-.91h13.26a1.88,1.88,0,0,1,1.63,2.95l-22.85,34v32.54a2,2,0,0,1-1.93,1.94H231.89a1.94,1.94,0,0,1-1.94-1.94Z"/><path class="cls-14" d="M277,126.22a19.23,19.23,0,0,1,7.86,1.63c0-4-.62-6-5.51-6a43,43,0,0,0-10.2,1.53c-1.53.51-2.25-.61-2.45-2.14l-.92-6.43a2.17,2.17,0,0,1,1.53-2.75,71.1,71.1,0,0,1,13.57-1.53c12.65,0,17.24,5.3,17.24,17.34v22.54a2,2,0,0,1-1.94,1.94h-4.49a1.91,1.91,0,0,1-1.84-1.33l-1.42-2.75a17.07,17.07,0,0,1-12.35,5.1c-8.05,0-14.07-5.41-14.07-13.47C262,132,267.69,126.22,277,126.22Zm2.65,17.13a4.39,4.39,0,1,0,0-8.77,4.33,4.33,0,0,0-4.38,4.28A4.44,4.44,0,0,0,279.62,143.35Z"/><path class="cls-14" d="M320.73,126.22a19.15,19.15,0,0,1,7.85,1.63c0-4-.61-6-5.51-6a43.17,43.17,0,0,0-10.2,1.53c-1.53.51-2.24-.61-2.44-2.14l-.92-6.43A2.17,2.17,0,0,1,311,112a71.07,71.07,0,0,1,13.56-1.53c12.65,0,17.24,5.3,17.24,17.34v22.54a2,2,0,0,1-1.93,1.94h-4.49a1.9,1.9,0,0,1-1.84-1.33l-1.43-2.75a17,17,0,0,1-12.34,5.1c-8.06,0-14.08-5.41-14.08-13.47C305.73,132,311.45,126.22,320.73,126.22Zm2.65,17.13a4.39,4.39,0,1,0,0-8.77,4.34,4.34,0,0,0-4.39,4.28A4.44,4.44,0,0,0,323.38,143.35Z"/><path class="cls-14" d="M364.48,126.22a19.23,19.23,0,0,1,7.86,1.63c0-4-.61-6-5.51-6a43.1,43.1,0,0,0-10.2,1.53c-1.53.51-2.24-.61-2.45-2.14l-.92-6.43a2.18,2.18,0,0,1,1.53-2.75,71.1,71.1,0,0,1,13.57-1.53c12.65,0,17.24,5.3,17.24,17.34v22.54a2,2,0,0,1-1.94,1.94h-4.49a1.9,1.9,0,0,1-1.83-1.33l-1.43-2.75a17.06,17.06,0,0,1-12.34,5.1c-8.06,0-14.08-5.41-14.08-13.47C349.49,132,355.2,126.22,364.48,126.22Zm2.66,17.13a4.39,4.39,0,1,0,0-8.77,4.34,4.34,0,0,0-4.39,4.28A4.44,4.44,0,0,0,367.14,143.35Z"/><path class="cls-14" d="M390.8,114.18a1.8,1.8,0,0,1,1.73-2.65h11.63a2,2,0,0,1,1.74,1.12l7.85,19h.2l8.06-19a1.84,1.84,0,0,1,1.74-1.12h11.52a1.77,1.77,0,0,1,1.74,2.65l-31.22,67.53a2,2,0,0,1-1.73,1.22H392.63a1.83,1.83,0,0,1-1.73-2.75l15.2-32Z"/><path class="cls-14" d="M449.45,134.17c5,0,12,3.88,12,15.4,0,14.08-9.29,21.22-12.24,23.87a2,2,0,0,1-2.86,0L444.25,171a1.83,1.83,0,0,1,.2-2.86c1.23-1,9.08-6.83,9.18-15.91a13,13,0,0,1-5.3,1.12,9.61,9.61,0,0,1-9.49-9.49C438.84,138.66,443.23,134.17,449.45,134.17Z"/><path class="cls-14" d="M487.39,114.18a1.8,1.8,0,0,1,1.74-2.65h11.62a2,2,0,0,1,1.74,1.12l7.85,19h.21l8.06-19a1.82,1.82,0,0,1,1.73-1.12h11.53a1.77,1.77,0,0,1,1.73,2.65l-31.21,67.53a2,2,0,0,1-1.74,1.22H489.23a1.83,1.83,0,0,1-1.74-2.75l15.2-32Z"/><path class="cls-14" d="M557.77,110.51a21.42,21.42,0,1,1-21.21,21.32A21.49,21.49,0,0,1,557.77,110.51Zm0,29.68a8.21,8.21,0,0,0,8.06-8.36,8.06,8.06,0,1,0-16.12,0A8.21,8.21,0,0,0,557.77,140.19Z"/><path class="cls-14" d="M585.92,113.46a1.93,1.93,0,0,1,1.94-1.93h10.92a1.92,1.92,0,0,1,1.93,1.93v18.88c0,4.18,2.35,7.85,6.53,7.85,4,0,6.12-3.77,6.12-7.24V113.46c0-1.63,1.12-1.93,2.14-1.93h10.41a1.93,1.93,0,0,1,1.94,1.93v36.93a2,2,0,0,1-1.94,1.94h-4.79a2.24,2.24,0,0,1-1.94-1.43l-1.53-3.77c-2.66,2.55-5.92,6.22-13.77,6.22-12.14,0-18-9.79-18-21.42Z"/><path class="cls-14" d="M665.18,137.44s-3-3.06-3-9.29a18,18,0,0,1,17.95-17.64h19.28a1.87,1.87,0,0,1,1.94,1.93v4.19a2.08,2.08,0,0,1-1.12,1.73l-5.92,2.14s3.88,3.17,3.88,9.9c0,7.44-6.84,15.4-17.65,15.4h-7.35c-2.14,0-3.36,1.12-3.36,2.75,0,1.94,1.73,2.76,3.26,2.76h12.24c9.59,0,17.55,5.81,17.55,14.89C702.92,176,696.08,184,680,184c-15.81,0-21.32-7.45-21.32-13.87,0-6.12,5.1-9.18,6.22-9.79V160A11.77,11.77,0,0,1,657,148.66C657,140.6,665.18,137.44,665.18,137.44ZM680,172c5.1,0,7.34-2,7.34-4.8,0-2.14-1.83-4.28-7.34-4.28-3.68,0-7.35,1.32-7.35,4.28S675.07,172,680,172Zm.61-37.64a5.31,5.31,0,1,0-5.41-5.31A5.24,5.24,0,0,0,680.58,134.38Z"/><path class="cls-14" d="M726.89,110.51a21.42,21.42,0,1,1-21.22,21.32A21.48,21.48,0,0,1,726.89,110.51Zm0,29.68a8.21,8.21,0,0,0,8.06-8.36,8.06,8.06,0,1,0-16.12,0A8.21,8.21,0,0,0,726.89,140.19Z"/><path class="cls-14" d="M757.59,124.48h-2.65a1.92,1.92,0,0,1-1.84-1.94v-9.08a1.85,1.85,0,0,1,1.84-1.93h2.65V100.2a2,2,0,0,1,1.94-1.93h10.91a1.91,1.91,0,0,1,1.84,1.93v11.33h7.54a1.87,1.87,0,0,1,1.94,1.93v9.08a1.93,1.93,0,0,1-1.94,1.94h-7.54v12.75c0,2.25,1.53,2.45,2.75,2.45a20.22,20.22,0,0,0,4-.71,1.77,1.77,0,0,1,2.24,1.32l2.25,8.47a2,2,0,0,1-1.33,2.34s-7.24,2.25-12.34,2.25c-7.75,0-12.24-4.9-12.24-14.18Z"/><path class="cls-14" d="M815.22,124.48h-2.66a1.91,1.91,0,0,1-1.83-1.94v-9.08a1.84,1.84,0,0,1,1.83-1.93h2.66V100.2a2,2,0,0,1,1.93-1.93h10.92a1.91,1.91,0,0,1,1.83,1.93v11.33h7.55a1.87,1.87,0,0,1,1.94,1.93v9.08a1.93,1.93,0,0,1-1.94,1.94H829.9v12.75c0,2.25,1.54,2.45,2.76,2.45a20.22,20.22,0,0,0,4-.71,1.77,1.77,0,0,1,2.24,1.32l2.25,8.47a2,2,0,0,1-1.33,2.34s-7.24,2.25-12.34,2.25c-7.76,0-12.24-4.9-12.24-14.18Z"/><path class="cls-14" d="M848.67,82.86a2,2,0,0,1,1.94-1.93h11.32a2,2,0,0,1,1.94,1.93v30a21.7,21.7,0,0,1,9.49-2.34c12.85,0,19.48,10.09,19.48,21.42v18.46a2,2,0,0,1-1.94,1.94H880.09a1.94,1.94,0,0,1-1.94-1.94V131.72c0-4.48-3-8-7.44-8-3.27,0-6.84,1.83-6.84,8v18.67c0,1.33-.51,1.94-2.24,1.94h-11a2,2,0,0,1-1.94-1.94Z"/><path class="cls-14" d="M920.79,110.51a19.06,19.06,0,0,1,19.38,19.17,23.3,23.3,0,0,1-.21,2.76,2,2,0,0,1-1.93,1.73H913.54a7.57,7.57,0,0,0,7.86,6.73,13.31,13.31,0,0,0,7.14-2.44,1.77,1.77,0,0,1,2.55,0l5.1,6.12a2.2,2.2,0,0,1-.1,2.95c-3.57,3.57-8.67,5.82-15.1,5.82a21.42,21.42,0,0,1-.2-42.84Zm5,15.71a5.51,5.51,0,0,0-5.41-4.8,5.68,5.68,0,0,0-5.51,4.8Z"/><path class="cls-14" d="M474.54,235.86a1.87,1.87,0,0,1,1.94-1.93h4.69a2.08,2.08,0,0,1,1.74,1.12l1.73,4.18c2.55-2.65,7.24-6.32,13.77-6.32,5.71,0,9.69,2.14,13.36,6.22a20,20,0,0,1,14.08-6.22c12.65,0,18.87,9.79,18.87,21.42v18.46a1.94,1.94,0,0,1-1.94,1.94H532a1.94,1.94,0,0,1-1.94-1.94V253.72c0-4.08-2.14-7.66-6.83-7.66a6.93,6.93,0,0,0-6.84,6.94v19.79a1.93,1.93,0,0,1-1.93,1.94h-9.8a1.93,1.93,0,0,1-1.93-1.94V253.72c0-4.08-1.84-7.66-6.43-7.66a6.92,6.92,0,0,0-7.14,7.15v19.58a2,2,0,0,1-1.94,1.94H476.48a1.94,1.94,0,0,1-1.94-1.94Z"/><path class="cls-14" d="M572.77,232.91a21.42,21.42,0,1,1-21.22,21.32A21.48,21.48,0,0,1,572.77,232.91Zm0,29.68a8.21,8.21,0,0,0,8.06-8.36,8.06,8.06,0,1,0-16.12,0A8.21,8.21,0,0,0,572.77,262.59Z"/><path class="cls-14" d="M619.89,232.91a21.42,21.42,0,1,1-21.22,21.32A21.49,21.49,0,0,1,619.89,232.91Zm0,29.68a8.21,8.21,0,0,0,8.06-8.36,8.06,8.06,0,1,0-16.12,0A8.21,8.21,0,0,0,619.89,262.59Z"/><path class="cls-14" d="M649,235.86a1.93,1.93,0,0,1,1.94-1.93h4.79a2.28,2.28,0,0,1,1.84,1.22l1.63,4.08a19.22,19.22,0,0,1,14.38-6.32c12.65,0,19.38,9.69,19.38,21.32v18.56a2,2,0,0,1-1.94,1.94H680.07a1.94,1.94,0,0,1-1.94-1.94V253.72c0-4.08-2.34-7.66-6.93-7.66-4.08,0-7.76,3-7.76,7.15v19.58a1.72,1.72,0,0,1-1.83,1.94H650.9a2,2,0,0,1-1.94-1.94Z"/><path class="cls-14" d="M725.36,205.26a2,2,0,0,1,1.93-1.93h11.33a2,2,0,0,1,1.93,1.93v29.58a20.73,20.73,0,0,1,8.47-1.93c10.92,0,20.3,7,20.3,21.42,0,11.73-8.67,21.42-20.2,21.42a17.64,17.64,0,0,1-13.66-6.43l-1.23,3.37c-.41,1.12-1.12,2-2.14,2h-4.8a2,2,0,0,1-1.93-1.94Zm21.72,57.33a8.19,8.19,0,0,0,8.27-8.36,8.09,8.09,0,0,0-8.27-8.17,8,8,0,0,0-8.16,8.17A8.1,8.1,0,0,0,747.08,262.59Z"/><path class="cls-14" d="M789.62,248.62a19.15,19.15,0,0,1,7.85,1.63c0-4-.61-6-5.51-6a43.1,43.1,0,0,0-10.2,1.53c-1.53.51-2.24-.61-2.45-2.14l-.91-6.43a2.17,2.17,0,0,1,1.53-2.75,70.84,70.84,0,0,1,13.56-1.53c12.65,0,17.24,5.3,17.24,17.34v22.54a2,2,0,0,1-1.94,1.94H804.3a1.9,1.9,0,0,1-1.83-1.33L801,270.65a17,17,0,0,1-12.34,5.1c-8.06,0-14.08-5.41-14.08-13.47C774.62,254.43,780.33,248.62,789.62,248.62Zm2.65,17.13a4.39,4.39,0,1,0,0-8.77,4.34,4.34,0,0,0-4.39,4.28A4.44,4.44,0,0,0,792.27,265.75Z"/><path class="cls-14" d="M840,232.91a19,19,0,0,1,15.3,7.34,2,2,0,0,1-.51,2.86l-6.12,5.81a1.85,1.85,0,0,1-2.24-.2,8.09,8.09,0,0,0-14.08,5.61,8,8,0,0,0,8,8.26c3.57,0,5.3-1.53,6.94-3.16a1.66,1.66,0,0,1,2.24-.41l6.12,5.3c.92.82,1.43,1.84.71,2.86-3.77,5.71-9.07,8.57-16.42,8.57-11.63,0-21.93-9.18-21.93-21.42C818,242.29,828.38,232.91,840,232.91Z"/><path class="cls-14" d="M864,205.26a2,2,0,0,1,1.94-1.93h11.32a2,2,0,0,1,1.94,1.93v44.17l12.34-14.28a3.43,3.43,0,0,1,2.55-1.22h11.43a1.89,1.89,0,0,1,1.53,3.16L893.55,252.7l16.33,19a1.83,1.83,0,0,1-1.54,3.06H894.57a2.56,2.56,0,0,1-1.53-.82l-13.87-17.75v16.63a2,2,0,0,1-1.94,1.94H865.91a2,2,0,0,1-1.94-1.94Z"/><path class="cls-14" d="M925.88,256.37a9.93,9.93,0,0,1,9.8,9.79,9.83,9.83,0,0,1-9.8,9.59,9.71,9.71,0,0,1-9.58-9.59A9.82,9.82,0,0,1,925.88,256.37Zm-4-11-5-28.46V205.26a2,2,0,0,1,1.94-1.93h14.28a2,2,0,0,1,1.94,1.93v11.43l-5,28.66a2.07,2.07,0,0,1-1.94,1.63h-4.28A2.07,2.07,0,0,1,921.91,245.35Z"/></g><g class="cls-15"><path class="cls-14" d="M144.43,334.71a1.77,1.77,0,0,1,1.71-1.71h10.8a1.77,1.77,0,0,1,1.71,1.71v59.58a1.77,1.77,0,0,1-1.71,1.71h-10.8a1.77,1.77,0,0,1-1.71-1.71Z"/><path class="cls-14" d="M170.89,371.43h-2.34a1.69,1.69,0,0,1-1.62-1.71v-8a1.64,1.64,0,0,1,1.62-1.71h2.34V350a1.77,1.77,0,0,1,1.71-1.71h9.63a1.69,1.69,0,0,1,1.62,1.71v10h6.66a1.65,1.65,0,0,1,1.71,1.71v8a1.71,1.71,0,0,1-1.71,1.71h-6.66v11.25c0,2,1.35,2.16,2.43,2.16a17.57,17.57,0,0,0,3.51-.63,1.58,1.58,0,0,1,2,1.17l2,7.47a1.79,1.79,0,0,1-1.17,2.07s-6.39,2-10.89,2c-6.84,0-10.8-4.32-10.8-12.51Z"/><path class="cls-14" d="M199.15,357.12a1.33,1.33,0,0,1,.09-2c1-.72,6.3-4.68,6.39-10.8a10.39,10.39,0,0,1-3.6.63,6.43,6.43,0,0,1-6.48-6.39c0-3.51,3-6.48,7.11-6.48,3.42,0,8.19,2.61,8.19,10.44,0,9.45-6.3,14.4-8.37,16.11a1.29,1.29,0,0,1-2-.18Z"/><path class="cls-14" d="M215.35,392l3.15-6.21a1.55,1.55,0,0,1,1.89-.72s4.23,2.34,8.1,2.34a1.58,1.58,0,0,0,1.71-1.62c0-.9-.54-2.16-5.13-3.78-7-2.43-10.08-6.48-10.08-12.06,0-6,4.32-10.89,14-10.89,5.67,0,10,1.53,12,2.79.81.54,1.44,1.35.9,2.25l-3.33,6.12a1.59,1.59,0,0,1-1.89.54s-4.14-2.07-7.65-2.07c-1.17,0-2,.27-2,1.26s1,1.8,4,2.88c7.29,2.52,12.33,5.4,12.33,12.6,0,6.3-5,11.43-15.21,11.43-5.94,0-10.44-1.53-12.24-3C215.35,393.39,214.9,392.85,215.35,392Z"/><path class="cls-14" d="M283.93,421.29a1.77,1.77,0,0,1-1.71,1.71h-10a1.77,1.77,0,0,1-1.71-1.71V361.71a1.77,1.77,0,0,1,1.71-1.71h4.23c.9,0,1.53.81,1.89,1.8l1.08,3a15.57,15.57,0,0,1,12.06-5.67c10.17,0,17.82,8.55,17.82,18.9,0,12.69-8.28,18.9-17.91,18.9a18.18,18.18,0,0,1-7.47-1.71Zm5.76-36a7.13,7.13,0,0,0,7.29-7.2,7.22,7.22,0,0,0-7.29-7.38,7.15,7.15,0,0,0-7.2,7.38A7.05,7.05,0,0,0,289.69,385.29Z"/><path class="cls-14" d="M327.22,373a16.91,16.91,0,0,1,6.93,1.44c0-3.51-.54-5.31-4.86-5.31a38.2,38.2,0,0,0-9,1.35c-1.35.45-2-.54-2.16-1.89l-.81-5.67a1.92,1.92,0,0,1,1.35-2.43,63,63,0,0,1,12-1.35c11.16,0,15.21,4.68,15.21,15.3v19.89a1.77,1.77,0,0,1-1.71,1.71h-4a1.67,1.67,0,0,1-1.62-1.17l-1.26-2.43a15,15,0,0,1-10.89,4.5C319.3,396.9,314,392.13,314,385,314,378.09,319,373,327.22,373Zm2.34,15.12a3.87,3.87,0,1,0,0-7.74,3.82,3.82,0,0,0-3.87,3.78A3.92,3.92,0,0,0,329.56,388.08Z"/><path class="cls-14" d="M355,361.71a1.71,1.71,0,0,1,1.71-1.71H361a1.63,1.63,0,0,1,1.62,1.08l1.62,4c1.8-2.61,5.13-5.94,9.81-5.94,5,0,8.46,1.8,7.2,3.87l-4.41,7.2a1.53,1.53,0,0,1-2,.81,6.47,6.47,0,0,0-2.16-.45,4.78,4.78,0,0,0-4.77,5.13v18.63c0,1.08-.54,1.71-2,1.71h-9.18a1.77,1.77,0,0,1-1.71-1.71Z"/><path class="cls-14" d="M387.52,371.43h-2.34a1.69,1.69,0,0,1-1.62-1.71v-8a1.64,1.64,0,0,1,1.62-1.71h2.34V350a1.77,1.77,0,0,1,1.71-1.71h9.63a1.69,1.69,0,0,1,1.62,1.71v10h6.66a1.65,1.65,0,0,1,1.71,1.71v8a1.71,1.71,0,0,1-1.71,1.71h-6.66v11.25c0,2,1.35,2.16,2.43,2.16a17.57,17.57,0,0,0,3.51-.63,1.58,1.58,0,0,1,2,1.17l2,7.47a1.79,1.79,0,0,1-1.17,2.07s-6.39,2-10.89,2c-6.84,0-10.8-4.32-10.8-12.51Z"/><path class="cls-14" d="M412.72,362.34a1.59,1.59,0,0,1,1.53-2.34h10.26a1.72,1.72,0,0,1,1.53,1L433,377.73h.18L440.26,361a1.62,1.62,0,0,1,1.53-1H452a1.56,1.56,0,0,1,1.53,2.34L426,421.92a1.8,1.8,0,0,1-1.53,1.08H414.34a1.61,1.61,0,0,1-1.53-2.43l13.41-28.26Z"/><path class="cls-14" d="M480.22,371.43h-2.34a1.69,1.69,0,0,1-1.62-1.71v-8a1.64,1.64,0,0,1,1.62-1.71h2.34V350a1.77,1.77,0,0,1,1.71-1.71h9.63a1.69,1.69,0,0,1,1.62,1.71v10h6.66a1.65,1.65,0,0,1,1.71,1.71v8a1.71,1.71,0,0,1-1.71,1.71h-6.66v11.25c0,2,1.35,2.16,2.43,2.16a17.57,17.57,0,0,0,3.51-.63,1.58,1.58,0,0,1,2,1.17l2,7.47a1.79,1.79,0,0,1-1.17,2.07s-6.39,2-10.89,2c-6.84,0-10.8-4.32-10.8-12.51Z"/><path class="cls-14" d="M509.2,342a7.14,7.14,0,0,1,7.11-7.2,7.22,7.22,0,0,1,7.2,7.2,7.14,7.14,0,0,1-7.2,7.11A7.07,7.07,0,0,1,509.2,342Zm.54,19.71a1.71,1.71,0,0,1,1.71-1.71h9.9a1.71,1.71,0,0,1,1.71,1.71v32.58a1.77,1.77,0,0,1-1.71,1.71h-9.9a1.77,1.77,0,0,1-1.71-1.71Z"/><path class="cls-14" d="M532.78,361.71a1.65,1.65,0,0,1,1.71-1.71h4.14a1.83,1.83,0,0,1,1.53,1l1.53,3.69a17,17,0,0,1,12.15-5.58c5,0,8.55,1.89,11.79,5.49a17.67,17.67,0,0,1,12.42-5.49c11.16,0,16.65,8.64,16.65,18.9v16.29A1.71,1.71,0,0,1,593,396h-9.54a1.71,1.71,0,0,1-1.71-1.71V377.46c0-3.6-1.89-6.75-6-6.75a6.11,6.11,0,0,0-6,6.12v17.46A1.71,1.71,0,0,1,568,396h-8.64a1.71,1.71,0,0,1-1.71-1.71V377.46c0-3.6-1.62-6.75-5.67-6.75a6.1,6.1,0,0,0-6.3,6.3v17.28a1.77,1.77,0,0,1-1.71,1.71h-9.45a1.71,1.71,0,0,1-1.71-1.71Z"/><path class="cls-14" d="M619.45,359.1A16.82,16.82,0,0,1,636.55,376a22.07,22.07,0,0,1-.18,2.43,1.74,1.74,0,0,1-1.71,1.53h-21.6a6.68,6.68,0,0,0,6.93,5.94,11.73,11.73,0,0,0,6.3-2.16,1.57,1.57,0,0,1,2.25,0l4.5,5.4a1.94,1.94,0,0,1-.09,2.61,18.32,18.32,0,0,1-13.32,5.13,18.9,18.9,0,0,1-.18-37.8ZM623.86,373a4.85,4.85,0,0,0-4.77-4.23,5,5,0,0,0-4.86,4.23Z"/></g><path class="cls-16" d="M228,115,205.41,80.88A1.88,1.88,0,0,1,207,77.93H220.3a2,2,0,0,1,1.63.91l14.18,20.91,14.18-20.91a1.89,1.89,0,0,1,1.63-.91h13.26a1.88,1.88,0,0,1,1.63,2.95l-22.85,34v32.54a2,2,0,0,1-1.93,1.94H229.89a1.94,1.94,0,0,1-1.94-1.94Z"/><path class="cls-16" d="M275,123.22a19.23,19.23,0,0,1,7.86,1.63c0-4-.62-6-5.51-6a43,43,0,0,0-10.2,1.53c-1.53.51-2.25-.61-2.45-2.14l-.92-6.43a2.17,2.17,0,0,1,1.53-2.75,71.1,71.1,0,0,1,13.57-1.53c12.65,0,17.24,5.3,17.24,17.34v22.54a2,2,0,0,1-1.94,1.94h-4.49a1.91,1.91,0,0,1-1.84-1.33l-1.42-2.75a17.07,17.07,0,0,1-12.35,5.1c-8.05,0-14.07-5.41-14.07-13.47C260,129,265.69,123.22,275,123.22Zm2.65,17.13a4.39,4.39,0,1,0,0-8.77,4.33,4.33,0,0,0-4.38,4.28A4.44,4.44,0,0,0,277.62,140.35Z"/><path class="cls-16" d="M318.73,123.22a19.15,19.15,0,0,1,7.85,1.63c0-4-.61-6-5.51-6a43.17,43.17,0,0,0-10.2,1.53c-1.53.51-2.24-.61-2.44-2.14l-.92-6.43A2.17,2.17,0,0,1,309,109a71.07,71.07,0,0,1,13.56-1.53c12.65,0,17.24,5.3,17.24,17.34v22.54a2,2,0,0,1-1.93,1.94h-4.49a1.9,1.9,0,0,1-1.84-1.33l-1.43-2.75a17,17,0,0,1-12.34,5.1c-8.06,0-14.08-5.41-14.08-13.47C303.73,129,309.45,123.22,318.73,123.22Zm2.65,17.13a4.39,4.39,0,1,0,0-8.77,4.34,4.34,0,0,0-4.39,4.28A4.44,4.44,0,0,0,321.38,140.35Z"/><path class="cls-16" d="M362.48,123.22a19.23,19.23,0,0,1,7.86,1.63c0-4-.61-6-5.51-6a43.1,43.1,0,0,0-10.2,1.53c-1.53.51-2.24-.61-2.45-2.14l-.92-6.43a2.18,2.18,0,0,1,1.53-2.75,71.1,71.1,0,0,1,13.57-1.53c12.65,0,17.24,5.3,17.24,17.34v22.54a2,2,0,0,1-1.94,1.94h-4.49a1.9,1.9,0,0,1-1.83-1.33l-1.43-2.75a17.06,17.06,0,0,1-12.34,5.1c-8.06,0-14.08-5.41-14.08-13.47C347.49,129,353.2,123.22,362.48,123.22Zm2.66,17.13a4.39,4.39,0,1,0,0-8.77,4.34,4.34,0,0,0-4.39,4.28A4.44,4.44,0,0,0,365.14,140.35Z"/><path class="cls-16" d="M388.8,111.18a1.8,1.8,0,0,1,1.73-2.65h11.63a2,2,0,0,1,1.74,1.12l7.85,19h.2l8.06-19a1.84,1.84,0,0,1,1.74-1.12h11.52a1.77,1.77,0,0,1,1.74,2.65l-31.22,67.53a2,2,0,0,1-1.73,1.22H390.63a1.83,1.83,0,0,1-1.73-2.75l15.2-32Z"/><path class="cls-16" d="M447.45,131.17c5,0,12,3.88,12,15.4,0,14.08-9.29,21.22-12.24,23.87a2,2,0,0,1-2.86,0L442.25,168a1.83,1.83,0,0,1,.2-2.86c1.23-1,9.08-6.83,9.18-15.91a13,13,0,0,1-5.3,1.12,9.61,9.61,0,0,1-9.49-9.49C436.84,135.66,441.23,131.17,447.45,131.17Z"/><path class="cls-16" d="M485.39,111.18a1.8,1.8,0,0,1,1.74-2.65h11.62a2,2,0,0,1,1.74,1.12l7.85,19h.21l8.06-19a1.82,1.82,0,0,1,1.73-1.12h11.53a1.77,1.77,0,0,1,1.73,2.65l-31.21,67.53a2,2,0,0,1-1.74,1.22H487.23a1.83,1.83,0,0,1-1.74-2.75l15.2-32Z"/><path class="cls-16" d="M555.77,107.51a21.42,21.42,0,1,1-21.21,21.32A21.49,21.49,0,0,1,555.77,107.51Zm0,29.68a8.21,8.21,0,0,0,8.06-8.36,8.06,8.06,0,1,0-16.12,0A8.21,8.21,0,0,0,555.77,137.19Z"/><path class="cls-16" d="M583.92,110.46a1.93,1.93,0,0,1,1.94-1.93h10.92a1.92,1.92,0,0,1,1.93,1.93v18.88c0,4.18,2.35,7.85,6.53,7.85,4,0,6.12-3.77,6.12-7.24V110.46c0-1.63,1.12-1.93,2.14-1.93h10.41a1.93,1.93,0,0,1,1.94,1.93v36.93a2,2,0,0,1-1.94,1.94h-4.79a2.24,2.24,0,0,1-1.94-1.43l-1.53-3.77c-2.66,2.55-5.92,6.22-13.77,6.22-12.14,0-18-9.79-18-21.42Z"/><path class="cls-16" d="M663.18,134.44s-3-3.06-3-9.29a18,18,0,0,1,17.95-17.64h19.28a1.87,1.87,0,0,1,1.94,1.93v4.19a2.08,2.08,0,0,1-1.12,1.73l-5.92,2.14s3.88,3.17,3.88,9.9c0,7.44-6.84,15.4-17.65,15.4h-7.35c-2.14,0-3.36,1.12-3.36,2.75,0,1.94,1.73,2.76,3.26,2.76h12.24c9.59,0,17.55,5.81,17.55,14.89C700.92,173,694.08,181,678,181c-15.81,0-21.32-7.45-21.32-13.87,0-6.12,5.1-9.18,6.22-9.79V157A11.77,11.77,0,0,1,655,145.66C655,137.6,663.18,134.44,663.18,134.44ZM678,169c5.1,0,7.34-2,7.34-4.8,0-2.14-1.83-4.28-7.34-4.28-3.68,0-7.35,1.32-7.35,4.28S673.07,169,678,169Zm.61-37.64a5.31,5.31,0,1,0-5.41-5.31A5.24,5.24,0,0,0,678.58,131.38Z"/><path class="cls-16" d="M724.89,107.51a21.42,21.42,0,1,1-21.22,21.32A21.48,21.48,0,0,1,724.89,107.51Zm0,29.68a8.21,8.21,0,0,0,8.06-8.36,8.06,8.06,0,1,0-16.12,0A8.21,8.21,0,0,0,724.89,137.19Z"/><path class="cls-16" d="M755.59,121.48h-2.65a1.92,1.92,0,0,1-1.84-1.94v-9.08a1.85,1.85,0,0,1,1.84-1.93h2.65V97.2a2,2,0,0,1,1.94-1.93h10.91a1.91,1.91,0,0,1,1.84,1.93v11.33h7.54a1.87,1.87,0,0,1,1.94,1.93v9.08a1.93,1.93,0,0,1-1.94,1.94h-7.54v12.75c0,2.25,1.53,2.45,2.75,2.45a20.22,20.22,0,0,0,4-.71,1.77,1.77,0,0,1,2.24,1.32l2.25,8.47a2,2,0,0,1-1.33,2.34s-7.24,2.25-12.34,2.25c-7.75,0-12.24-4.9-12.24-14.18Z"/><path class="cls-16" d="M813.22,121.48h-2.66a1.91,1.91,0,0,1-1.83-1.94v-9.08a1.84,1.84,0,0,1,1.83-1.93h2.66V97.2a2,2,0,0,1,1.93-1.93h10.92a1.91,1.91,0,0,1,1.83,1.93v11.33h7.55a1.87,1.87,0,0,1,1.94,1.93v9.08a1.93,1.93,0,0,1-1.94,1.94H827.9v12.75c0,2.25,1.54,2.45,2.76,2.45a20.22,20.22,0,0,0,4-.71,1.77,1.77,0,0,1,2.24,1.32l2.25,8.47a2,2,0,0,1-1.33,2.34s-7.24,2.25-12.34,2.25c-7.76,0-12.24-4.9-12.24-14.18Z"/><path class="cls-16" d="M846.67,79.86a2,2,0,0,1,1.94-1.93h11.32a2,2,0,0,1,1.94,1.93v30a21.7,21.7,0,0,1,9.49-2.34c12.85,0,19.48,10.09,19.48,21.42v18.46a2,2,0,0,1-1.94,1.94H878.09a1.94,1.94,0,0,1-1.94-1.94V128.72c0-4.48-3-8-7.44-8-3.27,0-6.84,1.83-6.84,8v18.67c0,1.33-.51,1.94-2.24,1.94h-11a2,2,0,0,1-1.94-1.94Z"/><path class="cls-16" d="M918.79,107.51a19.06,19.06,0,0,1,19.38,19.17,23.3,23.3,0,0,1-.21,2.76,2,2,0,0,1-1.93,1.73H911.54a7.57,7.57,0,0,0,7.86,6.73,13.31,13.31,0,0,0,7.14-2.44,1.77,1.77,0,0,1,2.55,0l5.1,6.12a2.2,2.2,0,0,1-.1,2.95c-3.57,3.57-8.67,5.82-15.1,5.82a21.42,21.42,0,0,1-.2-42.84Zm5,15.71a5.51,5.51,0,0,0-5.41-4.8,5.68,5.68,0,0,0-5.51,4.8Z"/><path class="cls-16" d="M472.54,232.86a1.87,1.87,0,0,1,1.94-1.93h4.69a2.08,2.08,0,0,1,1.74,1.12l1.73,4.18c2.55-2.65,7.24-6.32,13.77-6.32,5.71,0,9.69,2.14,13.36,6.22a20,20,0,0,1,14.08-6.22c12.65,0,18.87,9.79,18.87,21.42v18.46a1.94,1.94,0,0,1-1.94,1.94H530a1.94,1.94,0,0,1-1.94-1.94V250.72c0-4.08-2.14-7.66-6.83-7.66a6.93,6.93,0,0,0-6.84,6.94v19.79a1.93,1.93,0,0,1-1.93,1.94h-9.8a1.93,1.93,0,0,1-1.93-1.94V250.72c0-4.08-1.84-7.66-6.43-7.66a6.92,6.92,0,0,0-7.14,7.15v19.58a2,2,0,0,1-1.94,1.94H474.48a1.94,1.94,0,0,1-1.94-1.94Z"/><path class="cls-16" d="M570.77,229.91a21.42,21.42,0,1,1-21.22,21.32A21.48,21.48,0,0,1,570.77,229.91Zm0,29.68a8.21,8.21,0,0,0,8.06-8.36,8.06,8.06,0,1,0-16.12,0A8.21,8.21,0,0,0,570.77,259.59Z"/><path class="cls-16" d="M617.89,229.91a21.42,21.42,0,1,1-21.22,21.32A21.49,21.49,0,0,1,617.89,229.91Zm0,29.68a8.21,8.21,0,0,0,8.06-8.36,8.06,8.06,0,1,0-16.12,0A8.21,8.21,0,0,0,617.89,259.59Z"/><path class="cls-16" d="M647,232.86a1.93,1.93,0,0,1,1.94-1.93h4.79a2.28,2.28,0,0,1,1.84,1.22l1.63,4.08a19.22,19.22,0,0,1,14.38-6.32c12.65,0,19.38,9.69,19.38,21.32v18.56a2,2,0,0,1-1.94,1.94H678.07a1.94,1.94,0,0,1-1.94-1.94V250.72c0-4.08-2.34-7.66-6.93-7.66-4.08,0-7.76,3-7.76,7.15v19.58a1.72,1.72,0,0,1-1.83,1.94H648.9a2,2,0,0,1-1.94-1.94Z"/><path class="cls-16" d="M723.36,202.26a2,2,0,0,1,1.93-1.93h11.33a2,2,0,0,1,1.93,1.93v29.58a20.73,20.73,0,0,1,8.47-1.93c10.92,0,20.3,7,20.3,21.42,0,11.73-8.67,21.42-20.2,21.42a17.64,17.64,0,0,1-13.66-6.43l-1.23,3.37c-.41,1.12-1.12,2-2.14,2h-4.8a2,2,0,0,1-1.93-1.94Zm21.72,57.33a8.19,8.19,0,0,0,8.27-8.36,8.09,8.09,0,0,0-8.27-8.17,8,8,0,0,0-8.16,8.17A8.1,8.1,0,0,0,745.08,259.59Z"/><path class="cls-16" d="M787.62,245.62a19.15,19.15,0,0,1,7.85,1.63c0-4-.61-6-5.51-6a43.1,43.1,0,0,0-10.2,1.53c-1.53.51-2.24-.61-2.45-2.14l-.91-6.43a2.17,2.17,0,0,1,1.53-2.75,70.84,70.84,0,0,1,13.56-1.53c12.65,0,17.24,5.3,17.24,17.34v22.54a2,2,0,0,1-1.94,1.94H802.3a1.9,1.9,0,0,1-1.83-1.33L799,267.65a17,17,0,0,1-12.34,5.1c-8.06,0-14.08-5.41-14.08-13.47C772.62,251.43,778.33,245.62,787.62,245.62Zm2.65,17.13a4.39,4.39,0,1,0,0-8.77,4.34,4.34,0,0,0-4.39,4.28A4.44,4.44,0,0,0,790.27,262.75Z"/><path class="cls-16" d="M838,229.91a19,19,0,0,1,15.3,7.34,2,2,0,0,1-.51,2.86l-6.12,5.81a1.85,1.85,0,0,1-2.24-.2,8.09,8.09,0,0,0-14.08,5.61,8,8,0,0,0,8,8.26c3.57,0,5.3-1.53,6.94-3.16a1.66,1.66,0,0,1,2.24-.41l6.12,5.3c.92.82,1.43,1.84.71,2.86-3.77,5.71-9.07,8.57-16.42,8.57-11.63,0-21.93-9.18-21.93-21.42C816,239.29,826.38,229.91,838,229.91Z"/><path class="cls-16" d="M862,202.26a2,2,0,0,1,1.94-1.93h11.32a2,2,0,0,1,1.94,1.93v44.17l12.34-14.28a3.43,3.43,0,0,1,2.55-1.22h11.43a1.89,1.89,0,0,1,1.53,3.16L891.55,249.7l16.33,19a1.83,1.83,0,0,1-1.54,3.06H892.57a2.56,2.56,0,0,1-1.53-.82l-13.87-17.75v16.63a2,2,0,0,1-1.94,1.94H863.91a2,2,0,0,1-1.94-1.94Z"/><path class="cls-16" d="M923.88,253.37a9.93,9.93,0,0,1,9.8,9.79,9.83,9.83,0,0,1-9.8,9.59,9.71,9.71,0,0,1-9.58-9.59A9.82,9.82,0,0,1,923.88,253.37Zm-4-11-5-28.46V202.26a2,2,0,0,1,1.94-1.93h14.28a2,2,0,0,1,1.94,1.93v11.43l-5,28.66a2.07,2.07,0,0,1-1.94,1.63h-4.28A2.07,2.07,0,0,1,919.91,242.35Z"/><path class="cls-16" d="M141.43,330.71a1.77,1.77,0,0,1,1.71-1.71h10.8a1.77,1.77,0,0,1,1.71,1.71v59.58a1.77,1.77,0,0,1-1.71,1.71h-10.8a1.77,1.77,0,0,1-1.71-1.71Z"/><path class="cls-16" d="M167.89,367.43h-2.34a1.69,1.69,0,0,1-1.62-1.71v-8a1.64,1.64,0,0,1,1.62-1.71h2.34V346a1.77,1.77,0,0,1,1.71-1.71h9.63a1.69,1.69,0,0,1,1.62,1.71v10h6.66a1.65,1.65,0,0,1,1.71,1.71v8a1.71,1.71,0,0,1-1.71,1.71h-6.66v11.25c0,2,1.35,2.16,2.43,2.16a17.57,17.57,0,0,0,3.51-.63,1.58,1.58,0,0,1,2,1.17l2,7.47a1.79,1.79,0,0,1-1.17,2.07s-6.39,2-10.89,2c-6.84,0-10.8-4.32-10.8-12.51Z"/><path class="cls-16" d="M196.15,353.12a1.33,1.33,0,0,1,.09-2c1-.72,6.3-4.68,6.39-10.8a10.39,10.39,0,0,1-3.6.63,6.43,6.43,0,0,1-6.48-6.39c0-3.51,3-6.48,7.11-6.48,3.42,0,8.19,2.61,8.19,10.44,0,9.45-6.3,14.4-8.37,16.11a1.29,1.29,0,0,1-2-.18Z"/><path class="cls-16" d="M212.35,388l3.15-6.21a1.55,1.55,0,0,1,1.89-.72s4.23,2.34,8.1,2.34a1.58,1.58,0,0,0,1.71-1.62c0-.9-.54-2.16-5.13-3.78-7-2.43-10.08-6.48-10.08-12.06,0-6,4.32-10.89,14-10.89,5.67,0,10,1.53,12,2.79.81.54,1.44,1.35.9,2.25l-3.33,6.12a1.59,1.59,0,0,1-1.89.54s-4.14-2.07-7.65-2.07c-1.17,0-2,.27-2,1.26s1,1.8,4,2.88c7.29,2.52,12.33,5.4,12.33,12.6,0,6.3-5,11.43-15.21,11.43-5.94,0-10.44-1.53-12.24-3C212.35,389.39,211.9,388.85,212.35,388Z"/><path class="cls-16" d="M280.93,417.29a1.77,1.77,0,0,1-1.71,1.71h-10a1.77,1.77,0,0,1-1.71-1.71V357.71a1.77,1.77,0,0,1,1.71-1.71h4.23c.9,0,1.53.81,1.89,1.8l1.08,3a15.57,15.57,0,0,1,12.06-5.67c10.17,0,17.82,8.55,17.82,18.9,0,12.69-8.28,18.9-17.91,18.9a18.18,18.18,0,0,1-7.47-1.71Zm5.76-36a7.13,7.13,0,0,0,7.29-7.2,7.22,7.22,0,0,0-7.29-7.38,7.15,7.15,0,0,0-7.2,7.38A7.05,7.05,0,0,0,286.69,381.29Z"/><path class="cls-16" d="M324.22,369a16.91,16.91,0,0,1,6.93,1.44c0-3.51-.54-5.31-4.86-5.31a38.2,38.2,0,0,0-9,1.35c-1.35.45-2-.54-2.16-1.89l-.81-5.67a1.92,1.92,0,0,1,1.35-2.43,63,63,0,0,1,12-1.35c11.16,0,15.21,4.68,15.21,15.3v19.89a1.77,1.77,0,0,1-1.71,1.71h-4a1.67,1.67,0,0,1-1.62-1.17l-1.26-2.43a15,15,0,0,1-10.89,4.5C316.3,392.9,311,388.13,311,381,311,374.09,316,369,324.22,369Zm2.34,15.12a3.87,3.87,0,1,0,0-7.74,3.82,3.82,0,0,0-3.87,3.78A3.92,3.92,0,0,0,326.56,384.08Z"/><path class="cls-16" d="M352,357.71a1.71,1.71,0,0,1,1.71-1.71H358a1.63,1.63,0,0,1,1.62,1.08l1.62,4c1.8-2.61,5.13-5.94,9.81-5.94,5,0,8.46,1.8,7.2,3.87l-4.41,7.2a1.53,1.53,0,0,1-2,.81,6.47,6.47,0,0,0-2.16-.45,4.78,4.78,0,0,0-4.77,5.13v18.63c0,1.08-.54,1.71-2,1.71h-9.18a1.77,1.77,0,0,1-1.71-1.71Z"/><path class="cls-16" d="M384.52,367.43h-2.34a1.69,1.69,0,0,1-1.62-1.71v-8a1.64,1.64,0,0,1,1.62-1.71h2.34V346a1.77,1.77,0,0,1,1.71-1.71h9.63a1.69,1.69,0,0,1,1.62,1.71v10h6.66a1.65,1.65,0,0,1,1.71,1.71v8a1.71,1.71,0,0,1-1.71,1.71h-6.66v11.25c0,2,1.35,2.16,2.43,2.16a17.57,17.57,0,0,0,3.51-.63,1.58,1.58,0,0,1,2,1.17l2,7.47a1.79,1.79,0,0,1-1.17,2.07s-6.39,2-10.89,2c-6.84,0-10.8-4.32-10.8-12.51Z"/><path class="cls-16" d="M409.72,358.34a1.59,1.59,0,0,1,1.53-2.34h10.26a1.72,1.72,0,0,1,1.53,1L430,373.73h.18L437.26,357a1.62,1.62,0,0,1,1.53-1H449a1.56,1.56,0,0,1,1.53,2.34L423,417.92a1.8,1.8,0,0,1-1.53,1.08H411.34a1.61,1.61,0,0,1-1.53-2.43l13.41-28.26Z"/><path class="cls-16" d="M477.22,367.43h-2.34a1.69,1.69,0,0,1-1.62-1.71v-8a1.64,1.64,0,0,1,1.62-1.71h2.34V346a1.77,1.77,0,0,1,1.71-1.71h9.63a1.69,1.69,0,0,1,1.62,1.71v10h6.66a1.65,1.65,0,0,1,1.71,1.71v8a1.71,1.71,0,0,1-1.71,1.71h-6.66v11.25c0,2,1.35,2.16,2.43,2.16a17.57,17.57,0,0,0,3.51-.63,1.58,1.58,0,0,1,2,1.17l2,7.47a1.79,1.79,0,0,1-1.17,2.07s-6.39,2-10.89,2c-6.84,0-10.8-4.32-10.8-12.51Z"/><path class="cls-16" d="M506.2,338a7.14,7.14,0,0,1,7.11-7.2,7.22,7.22,0,0,1,7.2,7.2,7.14,7.14,0,0,1-7.2,7.11A7.07,7.07,0,0,1,506.2,338Zm.54,19.71a1.71,1.71,0,0,1,1.71-1.71h9.9a1.71,1.71,0,0,1,1.71,1.71v32.58a1.77,1.77,0,0,1-1.71,1.71h-9.9a1.77,1.77,0,0,1-1.71-1.71Z"/><path class="cls-16" d="M529.78,357.71a1.65,1.65,0,0,1,1.71-1.71h4.14a1.83,1.83,0,0,1,1.53,1l1.53,3.69a17,17,0,0,1,12.15-5.58c5,0,8.55,1.89,11.79,5.49a17.67,17.67,0,0,1,12.42-5.49c11.16,0,16.65,8.64,16.65,18.9v16.29A1.71,1.71,0,0,1,590,392h-9.54a1.71,1.71,0,0,1-1.71-1.71V373.46c0-3.6-1.89-6.75-6-6.75a6.11,6.11,0,0,0-6,6.12v17.46A1.71,1.71,0,0,1,565,392h-8.64a1.71,1.71,0,0,1-1.71-1.71V373.46c0-3.6-1.62-6.75-5.67-6.75a6.1,6.1,0,0,0-6.3,6.3v17.28a1.77,1.77,0,0,1-1.71,1.71h-9.45a1.71,1.71,0,0,1-1.71-1.71Z"/><path class="cls-16" d="M616.45,355.1A16.82,16.82,0,0,1,633.55,372a22.07,22.07,0,0,1-.18,2.43,1.74,1.74,0,0,1-1.71,1.53h-21.6a6.68,6.68,0,0,0,6.93,5.94,11.73,11.73,0,0,0,6.3-2.16,1.57,1.57,0,0,1,2.25,0l4.5,5.4a1.94,1.94,0,0,1-.09,2.61,18.32,18.32,0,0,1-13.32,5.13,18.9,18.9,0,0,1-.18-37.8ZM620.86,369a4.85,4.85,0,0,0-4.77-4.23,5,5,0,0,0-4.86,4.23Z"/></g></svg>
