<svg xmlns="http://www.w3.org/2000/svg" xmlns:xlink="http://www.w3.org/1999/xlink" width="1920" height="1080" viewBox="0 0 1920 1080"><defs><style>.cls-1{fill:url(#linear-gradient);}.cls-2{fill:#601d11;}.cls-3{fill:#491810;}.cls-4{fill:#f24cbb;}.cls-5{fill:#cc29b5;}.cls-6{fill:#aa30a7;}.cls-7{fill:#d146aa;}.cls-8{fill:#b22497;}.cls-9{fill:#dd43a2;}.cls-10{fill:#1a021e;}</style><linearGradient id="linear-gradient" x1="960.31" y1="918.27" x2="962.46" y2="1111.41" gradientUnits="userSpaceOnUse"><stop offset="0" stop-color="#86b7ae"/><stop offset="0.55" stop-color="#69a398"/><stop offset="0.87" stop-color="#5d9b8f"/></linearGradient></defs><title>foreground_happy_ending</title><g id="himler"><path class="cls-1" d="M967,828c-108.57,0-220.91,3-328.9,7.5-9.24-29.37-40.18-48-72.94-42.53a67.06,67.06,0,0,0-41.65,24.41C508.45,787.14,473.64,769,437,775.17c-39.07,6.56-67.16,38.52-68.55,74.87C155.66,863.9,2,879.16,2,879.16L0,1082H1920l2-202.84S1412,828,967,828Z"/></g><g id="baggrund"><path class="cls-2" d="M135,638H66v509.38h.26q-.26,6.06-.26,12.32c0,20.1,16,24.3,35,24.3s34-5.6,34-24.3q0-6.26-.26-12.32H135Z"/><path class="cls-3" d="M101,638.41H66.41v503.4h.25q-.24,6-.25,12.18c0,21.24,15.76,24,34.59,24"/><path class="cls-3" d="M66,850.57S8.27,853.54,0,801c-.39-2.45-14,3-14,3s4,62,80,62Z"/><path class="cls-2" d="M274,706.55c-12,63.45-94,99.88-139,95.16v22.18S272,821,294,704C294,704.45,274,706.55,274,706.55Z"/><path class="cls-4" d="M348,285.5C384,507,237.41,658,101,658S-187,488-146,285.5C-105.18,83.87-35.41-87,101-87S315,82.44,348,285.5Z"/><ellipse class="cls-5" cx="282.5" cy="541.5" rx="114.5" ry="165.5"/><circle class="cls-6" cx="-18" cy="733" r="71"/><path class="cls-7" d="M101,658c-136.41,0-288-170-247-372.5C-105.18,83.87-35.41-87,101-87"/><circle class="cls-8" cx="1929.3" cy="674.7" r="85.7"/><circle class="cls-8" cx="1790.78" cy="690.92" r="64.86"/><circle class="cls-8" cx="1544.79" cy="860.94" r="85.7"/><ellipse class="cls-8" cx="1659.68" cy="755.31" rx="115.35" ry="102.38"/><circle class="cls-9" cx="1443.79" cy="910.04" r="49.57"/><circle class="cls-9" cx="1227.02" cy="1067.59" r="44.98"/><circle class="cls-9" cx="1350.68" cy="960.02" r="72.27"/><circle class="cls-9" cx="1283.36" cy="1027.57" r="49.43"/><circle class="cls-9" cx="1299.36" cy="1052.57" r="49.43"/><circle class="cls-9" cx="1129.24" cy="1066.16" r="64.86"/><circle class="cls-9" cx="1050.38" cy="1077.02" r="34.28"/><ellipse class="cls-10" cx="1850.29" cy="915.09" rx="249.97" ry="217.72" transform="translate(-32.53 68.94) rotate(-2.12)"/><ellipse class="cls-10" cx="1553.04" cy="1039.9" rx="172.37" ry="155.86" transform="translate(-37.34 58.05) rotate(-2.12)"/><ellipse class="cls-10" cx="1376.96" cy="1060.32" rx="78.56" ry="68.81" transform="translate(-38.21 51.56) rotate(-2.12)"/></g></svg>
