<svg xmlns="http://www.w3.org/2000/svg" xmlns:xlink="http://www.w3.org/1999/xlink" width="1920" height="1080" viewBox="0 0 1920 1080"><defs><style>.cls-1{fill:url(#linear-gradient);}.cls-2{fill:none;}.cls-3{fill:#fff;}.cls-4{fill:#0b381b;}.cls-5{fill:#124419;}.cls-6{fill:#12352d;}.cls-7{fill:#b22497;}.cls-8{fill:#dd43a2;}.cls-9{fill:#49190e;}.cls-10{fill:#2b0f09;}.cls-11{fill:#91268a;}.cls-12{fill:#bc3c91;}.cls-13{filter:url(#AI_GaussianBlur_4);}.cls-14{fill:#020202;}.cls-15{fill:#f9cf8c;}.cls-16{fill:#f9b732;}.cls-17{fill:#e29c40;}.cls-18{fill:#5e25a0;}.cls-19{fill:#441982;}.cls-20{fill:#1a021e;}</style><linearGradient id="linear-gradient" x1="960.31" y1="914.27" x2="962.46" y2="1107.41" gradientUnits="userSpaceOnUse"><stop offset="0" stop-color="#76938d"/><stop offset="0.04" stop-color="#73918b"/><stop offset="0.49" stop-color="#557d75"/><stop offset="0.74" stop-color="#49756d"/></linearGradient><filter id="AI_GaussianBlur_4" name="AI_GaussianBlur_4"><feGaussianBlur stdDeviation="4"/></filter></defs><title>foreground_game</title><g id="himler"><path class="cls-1" d="M967,824c-108.57,0-220.91,3-328.9,7.5-9.24-29.37-40.18-48-72.94-42.53a67.06,67.06,0,0,0-41.65,24.41C508.45,783.14,473.64,765,437,771.17c-39.07,6.56-67.16,38.52-68.55,74.87C155.66,859.9,2,875.16,2,875.16L0,1078H1920l2-202.84S1412,824,967,824Z"/></g><g id="startside"><rect class="cls-2" x="1258.89" y="39.29" width="5.51" height="5.51" transform="translate(936.87 1261.9) rotate(-77)"/><circle class="cls-3" cx="1261.65" cy="42.04" r="2.76"/><rect class="cls-2" x="1447.58" y="11.27" width="4.82" height="4.82" transform="translate(1110.49 1423.43) rotate(-77)"/><circle class="cls-3" cx="1450" cy="13.68" r="2.41"/><rect class="cls-2" x="1606.74" y="51.52" width="5.47" height="5.47" transform="translate(1194.56 1610.27) rotate(-77)"/><circle class="cls-3" cx="1609.47" cy="54.25" r="2.74"/><rect class="cls-2" x="1684.28" y="42" width="6.24" height="6.24" transform="translate(1263.85 1679.12) rotate(-77)"/><circle class="cls-3" cx="1687.4" cy="45.12" r="3.12"/><rect class="cls-2" x="1763.77" y="45.64" width="3.21" height="3.21" transform="translate(1322.22 1756.74) rotate(-77)"/><circle class="cls-3" cx="1765.38" cy="47.24" r="1.6"/></g><g id="baggrund"><path class="cls-4" d="M224.35,488.89H247c-4.52-6.86-8.43-13.53-11.8-19.73h7.86A233.65,233.65,0,0,1,231,448.53h6.91a183.68,183.68,0,0,1-10.49-18.16h6.3A133.33,133.33,0,0,1,219,401a111.44,111.44,0,0,1-15,29.37h6.8a149.55,149.55,0,0,1-11,18.16h7.53a188.59,188.59,0,0,1-12.69,20.63h7.56a223.49,223.49,0,0,1-12.45,19.73h23.44v9h0a1.27,1.27,0,0,0,0,.34c0,1.55,2.49,2.8,5.56,2.8s5.56-1.25,5.56-2.8a1.27,1.27,0,0,0,0-.34h0Z"/><path class="cls-5" d="M254.35,476.89H277c-4.52-6.86-8.43-13.53-11.8-19.73h7.86A233.65,233.65,0,0,1,261,436.53h6.91a183.68,183.68,0,0,1-10.49-18.16h6.3A133.33,133.33,0,0,1,249,389a111.44,111.44,0,0,1-15,29.37h6.8a149.55,149.55,0,0,1-11,18.16h7.53a188.59,188.59,0,0,1-12.69,20.63h7.56a223.49,223.49,0,0,1-12.45,19.73h23.44v9h0a1.27,1.27,0,0,0,0,.34c0,1.55,2.49,2.8,5.56,2.8s5.56-1.25,5.56-2.8a1.27,1.27,0,0,0,0-.34h0Z"/><path class="cls-5" d="M253.35,519.89H276c-4.52-6.86-8.43-13.53-11.8-19.73h7.86A233.65,233.65,0,0,1,260,479.53h6.91a183.68,183.68,0,0,1-10.49-18.16h6.3A133.33,133.33,0,0,1,248,432a111.44,111.44,0,0,1-15,29.37h6.8a149.55,149.55,0,0,1-11,18.16h7.53a188.59,188.59,0,0,1-12.69,20.63h7.56a223.49,223.49,0,0,1-12.45,19.73h23.44v9h0a1.27,1.27,0,0,0,0,.34c0,1.55,2.49,2.8,5.56,2.8s5.56-1.25,5.56-2.8a1.27,1.27,0,0,0,0-.34h0Z"/><path class="cls-4" d="M328.35,476.89H351c-4.52-6.86-8.43-13.53-11.8-19.73h7.86A233.65,233.65,0,0,1,335,436.53h6.91a183.68,183.68,0,0,1-10.49-18.16h6.3A133.33,133.33,0,0,1,323,389a111.44,111.44,0,0,1-15,29.37h6.8a149.55,149.55,0,0,1-11,18.16h7.53a188.59,188.59,0,0,1-12.69,20.63h7.56a223.49,223.49,0,0,1-12.45,19.73h23.44v9h0a1.27,1.27,0,0,0,0,.34c0,1.55,2.49,2.8,5.56,2.8s5.56-1.25,5.56-2.8a1.27,1.27,0,0,0,0-.34h0Z"/><path class="cls-6" d="M370.1,526.47H388c-3.57-6-6.66-11.77-9.32-17.17h6.21c-3.79-6.34-6.95-12.45-9.54-17.95h5.46a160.89,160.89,0,0,1-8.29-15.8h5A121.14,121.14,0,0,1,365.9,450a101.85,101.85,0,0,1-11.85,25.55h5.37a133.26,133.26,0,0,1-8.69,15.8h5.95a168.36,168.36,0,0,1-10,17.95h6c-2.78,5.44-6,11.25-9.84,17.17h18.52v7.8h0a1.43,1.43,0,0,0,0,.29c0,1.35,2,2.44,4.4,2.44s4.39-1.09,4.39-2.44a1.43,1.43,0,0,0,0-.29h0Z"/><circle class="cls-7" cx="1929.3" cy="674.7" r="85.7"/><circle class="cls-7" cx="1790.78" cy="690.92" r="64.86"/><circle class="cls-7" cx="1544.79" cy="860.94" r="85.7"/><ellipse class="cls-7" cx="1659.68" cy="755.31" rx="115.35" ry="102.38"/><circle class="cls-8" cx="1443.79" cy="910.04" r="49.57"/><circle class="cls-8" cx="1227.02" cy="1067.59" r="44.98"/><circle class="cls-8" cx="1350.68" cy="960.02" r="72.27"/><circle class="cls-8" cx="1283.36" cy="1027.57" r="49.43"/><circle class="cls-8" cx="1299.36" cy="1052.57" r="49.43"/><circle class="cls-8" cx="1129.24" cy="1066.16" r="64.86"/><circle class="cls-8" cx="1050.38" cy="1077.02" r="34.28"/><path class="cls-9" d="M135,638H66v509.38h.26q-.26,6.06-.26,12.32c0,20.1,16,24.3,35,24.3s34-5.6,34-24.3q0-6.26-.26-12.32H135Z"/><path class="cls-10" d="M101,644.41H66.41v503.4h.25q-.24,6-.25,12.18c0,21.24,15.76,24,34.59,24"/><path class="cls-10" d="M66,850.57S8.27,853.54,0,801c-.39-2.45-14,3-14,3s4,62,80,62Z"/><path class="cls-9" d="M274,706.55c-12,63.45-94,99.88-139,95.16v22.18S272,821,294,704C294,704.45,274,706.55,274,706.55Z"/><path class="cls-8" d="M348,285.5C384,507,237.41,658,101,658S-187,488-146,285.5C-105.18,83.87-35.41-87,101-87S315,82.44,348,285.5Z"/><ellipse class="cls-7" cx="282.5" cy="541.5" rx="114.5" ry="165.5"/><circle class="cls-11" cx="-18" cy="733" r="71"/><path class="cls-12" d="M101,658c-136.41,0-288-170-247-372.5C-105.18,83.87-35.41-87,101-87"/><g class="cls-13"><path class="cls-14" d="M1630.67,827.37c-16.57-22.46-46.86-32.72-46.86-32.72l.06.09c-13.54-6-24.6-9.49-24.6-9.49-30.42-4-47,12.93-45.7,36.46.35,6.51.53,12.59.57,18.29-56.78,4.92-94.15,12.41-94.15,12.41s-81.91,11.11-82,52.53c0,4,0,7.82.09,11.51-13.56,2.18-27.17,4.51-33.7,6.12-12.53,3.09-10.35,10.11-10.35,10.11s-.46,4.14,5.35,6.75c4.52,2,29.89,10.72,40.94,14.49,1.4,13.38,3.08,22.67,4,28,1.53,9.21,2.1,23.32,31.6,29.54-1.1.08-1.6.13-1.41.15l5.43.62c2.84.49,5.92.92,9.26,1.26,39.39,4.1,74.73,7.67,161.53-6q11.34-1.72,23.57-3.85c28.67-5,54.89-29.16,53.54-56.36-.88-17.82-.82-35.53-2.78-53.38,2.53-3.38,4.89-6.8,7-10.2C1645.61,861.15,1644,845.42,1630.67,827.37Z"/></g><path class="cls-15" d="M1368.43,951.07l36.38-4.55s18.33-.48,10.76-14.76-11.92-18.54-11.92-18.54-10.15-9.91-30.91-6.7c-14.2,2.2-52.88,8-65.41,11.05S1297,927.68,1297,927.68s-.46,4.14,5.35,6.75,46.09,16.23,46.09,16.23A67.25,67.25,0,0,0,1368.43,951.07Z"/><path class="cls-16" d="M1423,847.41s-81.91,11.11-82,52.53,4.57,66.59,6.3,77,2.22,27.13,44.88,31.57,80.56,8.26,184.23-9.78c28.67-5,54.88-29.17,53.54-56.37s-2.17-58.85-5.8-70.89c-2.72-9-1.37-28.74-31.83-36.26-10.21-2.52-24-3.67-42.72-2.58C1475,837,1423,847.41,1423,847.41Z"/><path class="cls-17" d="M1568,863c-45.52,8.28-77,6.13-105,19-66.13,30.36-109.39,113.24-108,115,19,24,118.56,19.71,222.22,1.67,28.67-5,54.89-29.16,53.54-56.36S1627,866,1610,838C1610,838,1590,859,1568,863Z"/><path class="cls-18" d="M1562.27,780.25s51.85,16.44,68.43,38.89c13.32,18.06,14.93,33.78,1.36,56.36-11.41,17.94-30.07,34-46.2,48.87s-30.71,19-46.68,26.85l-36-41.33s17.34-20.31,13.41-93.18C1515.3,793.18,1531.85,776.3,1562.27,780.25Z"/><path class="cls-19" d="M1600,796s17,7,33.67,26.37c14.65,17-11.09,66-24.67,88.63-11.4,17.94-83-9-101-10,5-12,8-38,8-38,12-2,47-5,62-3C1582,837,1600,796,1600,796Z"/><ellipse class="cls-20" cx="1850.29" cy="915.09" rx="249.97" ry="217.72" transform="translate(-32.53 68.94) rotate(-2.12)"/><ellipse class="cls-20" cx="1553.04" cy="1039.9" rx="172.37" ry="155.86" transform="translate(-37.34 58.05) rotate(-2.12)"/><ellipse class="cls-20" cx="1376.96" cy="1060.32" rx="78.56" ry="68.81" transform="translate(-38.21 51.56) rotate(-2.12)"/></g></svg>
