<svg xmlns="http://www.w3.org/2000/svg" xmlns:xlink="http://www.w3.org/1999/xlink" width="1920" height="1080" viewBox="0 0 1920 1080"><defs><style>.cls-1{isolation:isolate;}.cls-2{fill:url(#linear-gradient);}.cls-3,.cls-4,.cls-5,.cls-6,.cls-7{fill:#9a97c1;}.cls-3{opacity:0.07;}.cls-4{opacity:0.14;}.cls-5{opacity:0.21;}.cls-6{opacity:0.28;}.cls-7{opacity:0.35;}.cls-8{fill:url(#linear-gradient-2);}.cls-9{fill:url(#linear-gradient-3);}.cls-10{fill:url(#linear-gradient-4);}.cls-11{fill:#2a0d59;}.cls-12{fill:#441982;}.cls-13{fill:#5e25a0;}.cls-14{fill:#f9b732;}.cls-15{fill:#e29c40;}.cls-16{fill:#fff;}.cls-17{fill:#f9cf8c;}.cls-18{fill:#b2ff6e;}.cls-19{mix-blend-mode:lighten;}.cls-20{fill:none;}.cls-21{fill:#233f2f;}.cls-22{fill:#2a3a2f;}.cls-23{fill:#31443d;}.cls-24{fill:#ebeced;}.cls-25{fill:#d3d3d3;}.cls-26{fill:#f9f9f9;}.cls-27{fill:#efefef;}.cls-28{fill:#dbdbdb;}.cls-29{fill:#d8d8d8;}.cls-30{fill:#dce1e5;}.cls-31{fill:#b22497;}.cls-32{fill:#dd43a2;}.cls-33{fill:#1a021e;}.cls-34{fill:#601d11;}.cls-35{fill:#491810;}.cls-36{fill:#f24cbb;}.cls-37{fill:#cc29b5;}.cls-38{fill:#aa30a7;}.cls-39{fill:#d146aa;}.cls-40{opacity:0.9;}.cls-40,.cls-42{filter:url(#AI_Shadow_2);}.cls-41{fill:#e8d3ea;}.cls-43{fill:#cc883e;}.cls-44{opacity:0.6;}.cls-44,.cls-46{filter:url(#AI_GaussianBlur_4);}.cls-45{fill:#100b11;}.cls-46{opacity:0.72;}.cls-47{fill:#4d0c59;}</style><linearGradient id="linear-gradient" x1="960.1" y1="671.6" x2="962.09" y2="23.69" gradientUnits="userSpaceOnUse"><stop offset="0.11" stop-color="#ff9a2c"/><stop offset="0.13" stop-color="#f68e38"/><stop offset="0.24" stop-color="#cd566e"/><stop offset="0.34" stop-color="#ae2d96"/><stop offset="0.42" stop-color="#9c14ae"/><stop offset="0.46" stop-color="#950bb7"/><stop offset="0.68" stop-color="#630a82"/><stop offset="0.95" stop-color="#280842"/></linearGradient><linearGradient id="linear-gradient-2" x1="959.81" y1="641.85" x2="959.6" y2="439.77" gradientUnits="userSpaceOnUse"><stop offset="0" stop-color="#27544b"/><stop offset="0.37" stop-color="#2b6257"/><stop offset="0.77" stop-color="#2e6d61"/></linearGradient><linearGradient id="linear-gradient-3" x1="928.69" y1="766.74" x2="925.08" y2="1059.38" gradientUnits="userSpaceOnUse"><stop offset="0.02" stop-color="#419383"/><stop offset="0.23" stop-color="#368273"/><stop offset="0.42" stop-color="#2f7769"/></linearGradient><linearGradient id="linear-gradient-4" x1="960.31" y1="918.27" x2="962.46" y2="1111.41" gradientUnits="userSpaceOnUse"><stop offset="0" stop-color="#86b7ae"/><stop offset="0.55" stop-color="#69a398"/><stop offset="0.87" stop-color="#5d9b8f"/></linearGradient><filter id="AI_Shadow_2" x="-15" y="-15" width="140" height="130" name="AI_Shadow_2"><feGaussianBlur result="blur" stdDeviation="6" in="SourceAlpha"/><feOffset result="offsetBlurredAlpha" dx="8" dy="8" in="blur"/><feMerge><feMergeNode in="offsetBlurredAlpha"/><feMergeNode in="SourceGraphic"/></feMerge></filter><filter id="AI_GaussianBlur_4" name="AI_GaussianBlur_4"><feGaussianBlur stdDeviation="4"/></filter></defs><title>happyending</title><g class="cls-1"><g id="himler"><rect class="cls-2" x="1" y="1" width="1919" height="1078"/><circle class="cls-3" cx="1449.58" cy="214.8" r="886.88"/><circle class="cls-4" cx="1443.31" cy="213.59" r="523.9"/><circle class="cls-5" cx="1443.95" cy="222.28" r="316.77"/><circle class="cls-6" cx="1445.6" cy="224.11" r="209.37"/><ellipse class="cls-7" cx="1442.62" cy="218.01" rx="146.47" ry="144.6"/><path class="cls-8" d="M1796.92,495s0,0,0-.05a.82.82,0,0,0,0-.27h0l.47-7.16,18.08,1.2c-3.24-5.72-6-11.24-8.37-16.37l6.27.41a186,186,0,0,1-8.54-17.1l5.51.36A147.52,147.52,0,0,1,1803,441l5,.33a106.38,106.38,0,0,1-10.16-24.22,89.35,89.35,0,0,1-13.53,22.65l5.43.36a118.82,118.82,0,0,1-9.74,13.92l6,.4c-1.75,2.82-3.73,5.81-5.93,8.88a99.73,99.73,0,0,1-5.33-8.83l4.52.35a70.38,70.38,0,0,1-9.25-17.46,59,59,0,0,1-12.06,15.8l4.88.38a83.8,83.8,0,0,1-8.69,9.68l5.4.42a106.73,106.73,0,0,1-10,11l5.43.42a127.85,127.85,0,0,1-9.81,10.49l16.83,1.3-.39,5.08h0a.83.83,0,0,0,0,.15C1575.92,477,1256.51,455,965,455c-71.65,0-144.94,1.3-217.55,3.48v-7.87l22.64-.06c-4.53-6.44-8.46-12.69-11.84-18.52h7.86A217,217,0,0,1,754,412.65h6.91a171.26,171.26,0,0,1-10.52-17.05h6.29A122.05,122.05,0,0,1,741.93,368,102.57,102.57,0,0,1,727,395.64h6.8a140.83,140.83,0,0,1-10.95,17.09h7.52a176.81,176.81,0,0,1-12.64,19.42l7.56,0a208.35,208.35,0,0,1-12.41,18.57l23.44-.05,0,8.19c-28.65.9-57.17,1.93-85.41,3.07l-.13-5.69,17.89-.4c-3.69-5.42-6.91-10.67-9.68-15.57l6.21-.14a185.39,185.39,0,0,1-9.91-16.29l5.46-.12a145.87,145.87,0,0,1-8.61-14.34l5-.11A106.89,106.89,0,0,1,645,386a89.94,89.94,0,0,1-11.32,23.76l5.37-.12a122,122,0,0,1-8.36,14.72l5.95-.14A151.24,151.24,0,0,1,627,441l6-.14a179.26,179.26,0,0,1-9.48,16L642,456.4l.13,5.85C300,476.36,0,506.16,0,506.16V1124H1920V506.16S1873.73,501.52,1796.92,495Zm-16.62-23.63-.52-.84,1,.07Zm-1.58-6.25c-.39.53-.79,1.07-1.2,1.61-.34-.6-.7-1.21-1-1.78Zm-9.18,27.4h0l.39-5.09,16.27,1.27c-.48-.68-.94-1.35-1.4-2l3.71.24-.47,7.16h0l0,.15-18.52-1.53h0A.67.67,0,0,0,1769.54,492.56Z"/><path class="cls-9" d="M1499.85,664.4c-7.07-11.56-20.69-19.4-36.35-19.4-13.65,0-25.77,6-33.33,15.16-26.22-1.52-53.05-3-80.34-4.39-13.71-19.34-43.49-33.74-78.72-35.68-36.44-2-68.56,9.87-83.75,28.67-84.53-3-170.6-4.76-254.36-4.76-176.41,0-362.81,7.86-524.26,17.43A41,41,0,0,0,327,666c0,.18,0,.35,0,.53C118.09,680.25-32,695.16-32,695.16L-34,1113H1886l2-417.84S1723.5,678.66,1499.85,664.4Z"/><path class="cls-10" d="M967,828c-108.57,0-220.91,3-328.9,7.5-9.24-29.37-40.18-48-72.94-42.53a67.06,67.06,0,0,0-41.65,24.41C508.45,787.14,473.64,769,437,775.17c-39.07,6.56-67.16,38.52-68.55,74.87C155.66,863.9,2,879.16,2,879.16L0,1082H1920l2-202.84S1412,828,967,828Z"/></g><g id="næbdyr"><rect class="cls-11" x="525.67" y="610.7" width="7.07" height="45.96" transform="translate(-44.68 40.16) rotate(-4.17)"/><path class="cls-11" d="M503,653.26c22.74-14.78,43.81-7.43,41.14,6.53-1.26,6.56-12.7,13.16-18.33,16.8-1.88,1.21,0,0,0,0s-9.26,5-9.09-1.31c.13-5.14-5.67-2.19-7.05-1.83s-6.47,1.9-5.85-2.87c.49-3.78-2.85-4.26-5.85-2.88-2.65,1.22-9.42,1-5.52-4.42C495.65,658.8,503,653.26,503,653.26Z"/><path class="cls-12" d="M545.45,653.88c22.57-15,43.73-8,41.21,6-1.18,6.57-12.54,13.3-18.13,17h0c-.08,0-9.21,5.13-9.12-1.2.08-5.15-5.68-2.12-7.06-1.75s-6.45,2-5.89-2.81c.45-3.78-2.89-4.22-5.88-2.8-2.63,1.25-9.41,1.11-5.57-4.35C538.18,659.51,545.45,653.88,545.45,653.88Z"/><rect class="cls-12" x="566.58" y="607.72" width="7.07" height="45.96" transform="translate(-44.35 43.13) rotate(-4.17)"/><path class="cls-13" d="M651.25,454.87s38.17,13.35,50,30.39c9.51,13.71,10.36,25.43-.22,41.91-8.86,13.08-23.08,24.59-35.38,35.3S642.4,576,630.36,581.41s-28.06-79.77-28.06-79.77,7.52-4.48,14.2-20.67S628.73,451.28,651.25,454.87Z"/><path class="cls-12" d="M668.14,462.15s21.28,6.07,33.1,23.11c9.51,13.71,10.36,25.43-.22,41.91-8.86,13.08-23.08,24.59-35.38,35.3S642.4,576,630.36,581.41c-10.77,4.88-4.24-18.88-3.2-22.65a2.36,2.36,0,0,1,.72-1.16c5-4.48,39.34-27.31,50.89-48.45C687.8,492.63,668.14,462.15,668.14,462.15Z"/><path class="cls-14" d="M478.2,509.71s-61,7.71-61.33,38.5,2.95,49.53,4.18,57.29,1.47,20.18,33.14,23.77,59.83,6.66,137-6.07c21.34-3.52,41-21.31,40.16-41.54s-1.22-43.76-3.84-52.73c-2-6.72-.83-21.38-23.42-27.16-7.57-1.94-17.82-2.89-31.74-2.2C516.93,502.3,478.2,509.71,478.2,509.71Z"/><path class="cls-15" d="M623.41,566.86c-15.2,33.83-26.22,35.29-51,44.95C522,631.44,453.19,629,454.85,629.22c31.63,4,59.83,6.66,137-6.06,21.34-3.52,41-21.32,40.17-41.55s0-40.25-5.42-60.8C626.6,520.81,633.23,545,623.41,566.86Z"/><path class="cls-16" d="M486.06,559.2A15.9,15.9,0,0,1,471.58,576c-8.46.61-14.85-6.14-15.46-14.59s7.29-16.89,15.74-17.51S485.47,551.06,486.06,559.2Z"/><path class="cls-16" d="M590.05,558.16c.62,8.45-4.08,16-12.53,16.63s-14.84-6.13-15.46-14.58,7.35-18.68,15.74-17.51C587.06,544,589.46,550,590.05,558.16Z"/><path d="M481.58,560.51c1.15,6.79-4.33,15.14-10.75,14.2-5.95-.87-13.32-5.13-12.69-12.49.71-8.23,4.27-13.73,10.75-14.2S480.34,553.22,481.58,560.51Z"/><path d="M588.75,558.26c.58,7.92-1.44,12.14-8.12,14.34-5.11,1.68-11.93-2.13-12.52-10.22s1.75-16.49,8.58-17S588.28,551.75,588.75,558.26Z"/><path class="cls-17" d="M515.46,558.37l30.09-.23s14.88-2.4,11,16.86-6.66,25.36-6.66,25.36a25.48,25.48,0,0,1-23.88,13.52c-11.81-.45-43.95-1.37-54.56-3.22s-10-11-10-11a11,11,0,0,1,3.24-9.4c4.28-4.24,34.61-28.05,34.61-28.05A36.93,36.93,0,0,1,515.46,558.37Z"/><ellipse cx="527.29" cy="589.54" rx="3.64" ry="2.4" transform="translate(-185.42 932.51) rotate(-73.89)"/><ellipse cx="503.02" cy="588.69" rx="3.64" ry="2.4" transform="translate(-202.15 908.58) rotate(-73.89)"/><ellipse class="cls-16" cx="473.32" cy="554.9" rx="2.61" ry="3.26" transform="translate(-39.1 35.89) rotate(-4.17)"/><ellipse class="cls-16" cx="575.49" cy="551.37" rx="2.94" ry="3.26" transform="translate(-38.57 43.31) rotate(-4.17)"/><path class="cls-13" d="M651.25,454.87s38.17,13.35,50,30.39c9.51,13.71,10.36,25.43-.22,41.91-8.86,13.08-23.08,24.59-35.38,35.3S642.4,576,630.36,581.41s-28.06-79.77-28.06-79.77,7.52-4.48,14.2-20.67S628.73,451.28,651.25,454.87Z"/><path class="cls-12" d="M668.14,462.15s21.28,6.07,33.1,23.11c9.51,13.71,10.36,25.43-.22,41.91-8.86,13.08-23.08,24.59-35.38,35.3S642.4,576,630.36,581.41c-10.77,4.88-4.24-18.88-3.2-22.65a2.36,2.36,0,0,1,.72-1.16c5-4.48,39.34-27.31,50.89-48.45C687.8,492.63,668.14,462.15,668.14,462.15Z"/><path class="cls-14" d="M478.2,509.71s-61,7.71-61.33,38.5,2.95,49.53,4.18,57.29,1.47,20.18,33.14,23.77,59.83,6.66,137-6.07c21.34-3.52,41-21.31,40.16-41.54s-1.22-43.76-3.84-52.73c-2-6.72-.83-21.38-23.42-27.16-7.57-1.94-17.82-2.89-31.74-2.2C516.93,502.3,478.2,509.71,478.2,509.71Z"/><path class="cls-15" d="M623.41,566.86c-15.2,33.83-26.22,35.29-51,44.95C522,631.44,453.19,629,454.85,629.22c31.63,4,59.83,6.66,137-6.06,21.34-3.52,41-21.32,40.17-41.55s0-40.25-5.42-60.8C626.6,520.81,633.23,545,623.41,566.86Z"/><path class="cls-18" d="M486.06,559.2A15.9,15.9,0,0,1,471.58,576c-8.46.61-14.85-6.14-15.46-14.59s7.29-16.89,15.74-17.51S485.47,551.06,486.06,559.2Z"/><path class="cls-18" d="M590.05,558.16c.62,8.45-4.08,16-12.53,16.63s-14.84-6.13-15.46-14.58,7.35-18.68,15.74-17.51C587.06,544,589.46,550,590.05,558.16Z"/><path d="M481.58,560.51c1.15,6.79-4.33,15.14-10.75,14.2-5.95-.87-13.32-5.13-12.69-12.49.71-8.23,4.27-13.73,10.75-14.2S480.34,553.22,481.58,560.51Z"/><path d="M585.45,557.85c.58,7.92-1.44,12.14-8.12,14.33-5.11,1.68-11.93-2.12-12.52-10.21s1.74-16.49,8.58-17S585,551.34,585.45,557.85Z"/><path class="cls-17" d="M515.46,558.37l30.09-.23s14.88-2.4,11,16.86-6.66,25.36-6.66,25.36a25.48,25.48,0,0,1-23.88,13.52c-11.81-.45-43.95-1.37-54.56-3.22s-10-11-10-11a11,11,0,0,1,3.24-9.4c4.28-4.24,34.61-28.05,34.61-28.05A36.93,36.93,0,0,1,515.46,558.37Z"/><ellipse cx="527.29" cy="589.54" rx="3.64" ry="2.4" transform="translate(-185.42 932.51) rotate(-73.89)"/><ellipse cx="503.02" cy="588.69" rx="3.64" ry="2.4" transform="translate(-202.15 908.58) rotate(-73.89)"/><ellipse class="cls-16" cx="473.32" cy="554.9" rx="2.61" ry="3.26" transform="translate(-39.1 35.89) rotate(-4.17)"/><ellipse class="cls-16" cx="578.09" cy="551.18" rx="2.94" ry="3.26" transform="translate(-38.55 43.5) rotate(-4.17)"/><rect class="cls-11" x="245.67" y="810.7" width="7.07" height="45.96" transform="translate(-59.96 20.33) rotate(-4.17)"/><path class="cls-11" d="M223,853.26c22.74-14.78,43.81-7.43,41.14,6.53-1.26,6.56-12.7,13.16-18.33,16.8-1.88,1.21,0,0,0,0s-9.26,5-9.09-1.31c.13-5.14-5.67-2.19-7-1.83s-6.47,1.9-5.85-2.87c.49-3.78-2.85-4.26-5.85-2.88-2.65,1.22-9.42,1-5.52-4.42C215.65,858.8,223,853.26,223,853.26Z"/><path class="cls-12" d="M265.45,853.88c22.57-15,43.73-8,41.21,6-1.18,6.57-12.54,13.3-18.13,17h0c-.08,0-9.21,5.13-9.12-1.2.08-5.15-5.68-2.12-7.06-1.75s-6.45,2-5.89-2.81c.45-3.78-2.89-4.22-5.88-2.8-2.63,1.25-9.41,1.11-5.57-4.35C258.18,859.51,265.45,853.88,265.45,853.88Z"/><rect class="cls-12" x="286.58" y="807.72" width="7.07" height="45.96" transform="translate(-59.64 23.3) rotate(-4.17)"/><path class="cls-13" d="M371.25,654.87s38.17,13.35,50,30.39c9.51,13.71,10.36,25.43-.22,41.91-8.86,13.08-23.08,24.59-35.38,35.3S362.4,776,350.36,781.41s-28.06-79.77-28.06-79.77,7.52-4.48,14.2-20.67S348.73,651.28,371.25,654.87Z"/><path class="cls-12" d="M388.14,662.15s21.28,6.07,33.1,23.11c9.51,13.71,10.36,25.43-.22,41.91-8.86,13.08-23.08,24.59-35.38,35.3S362.4,776,350.36,781.41c-10.77,4.88-4.24-18.88-3.2-22.65a2.36,2.36,0,0,1,.72-1.16c5-4.48,39.34-27.31,50.89-48.45C407.8,692.63,388.14,662.15,388.14,662.15Z"/><path class="cls-14" d="M198.2,709.71s-61,7.71-61.33,38.5,2.95,49.53,4.18,57.29,1.47,20.18,33.14,23.77,59.83,6.66,137-6.07c21.34-3.52,41-21.31,40.16-41.54s-1.22-43.76-3.84-52.73c-2-6.72-.83-21.38-23.42-27.16-7.57-1.94-17.82-2.89-31.74-2.2C236.93,702.3,198.2,709.71,198.2,709.71Z"/><path class="cls-15" d="M343.41,766.86c-15.2,33.83-26.22,35.29-51,44.95C242,831.44,173.19,829,174.85,829.22c31.63,4,59.83,6.66,137-6.06,21.34-3.52,41-21.32,40.17-41.55s0-40.25-5.42-60.8C346.6,720.81,353.23,745,343.41,766.86Z"/><path class="cls-16" d="M206.06,759.2A15.9,15.9,0,0,1,191.58,776c-8.46.61-14.85-6.14-15.46-14.59s7.29-16.89,15.74-17.51S205.47,751.06,206.06,759.2Z"/><path class="cls-16" d="M310.05,758.16c.62,8.45-4.08,16-12.53,16.63s-14.84-6.13-15.46-14.58,7.35-18.68,15.74-17.51C307.06,744,309.46,750,310.05,758.16Z"/><path d="M201.58,760.51c1.15,6.79-4.33,15.14-10.75,14.2-6-.87-13.32-5.13-12.69-12.49.71-8.23,4.27-13.73,10.75-14.2S200.34,753.22,201.58,760.51Z"/><path d="M308.75,758.26c.58,7.92-1.44,12.14-8.12,14.34-5.11,1.68-11.93-2.13-12.52-10.22s1.75-16.49,8.58-17S308.28,751.75,308.75,758.26Z"/><path class="cls-17" d="M235.46,758.37l30.09-.23s14.88-2.4,11,16.86-6.66,25.36-6.66,25.36a25.48,25.48,0,0,1-23.88,13.52c-11.81-.45-44-1.37-54.56-3.22s-10-11-10-11a11,11,0,0,1,3.24-9.4c4.28-4.24,34.61-28.05,34.61-28.05A36.93,36.93,0,0,1,235.46,758.37Z"/><ellipse cx="247.29" cy="789.54" rx="3.64" ry="2.4" transform="translate(-579.86 808.01) rotate(-73.89)"/><ellipse cx="223.02" cy="788.69" rx="3.64" ry="2.4" transform="translate(-596.59 784.07) rotate(-73.89)"/><ellipse class="cls-16" cx="193.32" cy="754.9" rx="2.61" ry="3.26" transform="translate(-54.38 16.06) rotate(-4.17)"/><ellipse class="cls-16" cx="295.49" cy="751.37" rx="2.94" ry="3.26" transform="translate(-53.86 23.48) rotate(-4.17)"/><path class="cls-13" d="M371.25,654.87s38.17,13.35,50,30.39c9.51,13.71,10.36,25.43-.22,41.91-8.86,13.08-23.08,24.59-35.38,35.3S362.4,776,350.36,781.41s-28.06-79.77-28.06-79.77,7.52-4.48,14.2-20.67S348.73,651.28,371.25,654.87Z"/><path class="cls-12" d="M388.14,662.15s21.28,6.07,33.1,23.11c9.51,13.71,10.36,25.43-.22,41.91-8.86,13.08-23.08,24.59-35.38,35.3S362.4,776,350.36,781.41c-10.77,4.88-4.24-18.88-3.2-22.65a2.36,2.36,0,0,1,.72-1.16c5-4.48,39.34-27.31,50.89-48.45C407.8,692.63,388.14,662.15,388.14,662.15Z"/><path class="cls-14" d="M198.2,709.71s-61,7.71-61.33,38.5,2.95,49.53,4.18,57.29,1.47,20.18,33.14,23.77,59.83,6.66,137-6.07c21.34-3.52,41-21.31,40.16-41.54s-1.22-43.76-3.84-52.73c-2-6.72-.83-21.38-23.42-27.16-7.57-1.94-17.82-2.89-31.74-2.2C236.93,702.3,198.2,709.71,198.2,709.71Z"/><path class="cls-15" d="M343.41,766.86c-15.2,33.83-26.22,35.29-51,44.95C242,831.44,173.19,829,174.85,829.22c31.63,4,59.83,6.66,137-6.06,21.34-3.52,41-21.32,40.17-41.55s0-40.25-5.42-60.8C346.6,720.81,353.23,745,343.41,766.86Z"/><path class="cls-18" d="M206.06,759.2A15.9,15.9,0,0,1,191.58,776c-8.46.61-14.85-6.14-15.46-14.59s7.29-16.89,15.74-17.51S205.47,751.06,206.06,759.2Z"/><path class="cls-18" d="M310.05,758.16c.62,8.45-4.08,16-12.53,16.63s-14.84-6.13-15.46-14.58,7.35-18.68,15.74-17.51C307.06,744,309.46,750,310.05,758.16Z"/><path d="M201.58,760.51c1.15,6.79-4.33,15.14-10.75,14.2-6-.87-13.32-5.13-12.69-12.49.71-8.23,4.27-13.73,10.75-14.2S200.34,753.22,201.58,760.51Z"/><path d="M305.45,757.85c.58,7.92-1.44,12.14-8.12,14.33-5.11,1.68-11.93-2.12-12.52-10.21s1.74-16.49,8.58-17S305,751.34,305.45,757.85Z"/><path class="cls-17" d="M235.46,758.37l30.09-.23s14.88-2.4,11,16.86-6.66,25.36-6.66,25.36a25.48,25.48,0,0,1-23.88,13.52c-11.81-.45-44-1.37-54.56-3.22s-10-11-10-11a11,11,0,0,1,3.24-9.4c4.28-4.24,34.61-28.05,34.61-28.05A36.93,36.93,0,0,1,235.46,758.37Z"/><ellipse cx="247.29" cy="789.54" rx="3.64" ry="2.4" transform="translate(-579.86 808.01) rotate(-73.89)"/><ellipse cx="223.02" cy="788.69" rx="3.64" ry="2.4" transform="translate(-596.59 784.07) rotate(-73.89)"/><ellipse class="cls-16" cx="193.32" cy="754.9" rx="2.61" ry="3.26" transform="translate(-54.38 16.06) rotate(-4.17)"/><ellipse class="cls-16" cx="298.09" cy="751.18" rx="2.94" ry="3.26" transform="translate(-53.83 23.67) rotate(-4.17)"/><polygon class="cls-11" points="1613.4 480.33 1607.35 479.49 1612.47 441.37 1618.52 442.21 1613.4 480.33"/><path class="cls-11" d="M1587.38,472.18c21.79-8,38.32,1.76,33.64,12.71-2.2,5.14-13,8.49-18.41,10.47-1.79.65,0,0,0,0s-8.7,2.45-7.46-2.7c1-4.19-4.41-2.81-5.64-2.76s-5.8.39-4.45-3.4c1.07-3-1.67-4-4.45-3.4-2.45.52-8.13-.87-3.9-4.61C1580.22,475.4,1587.38,472.18,1587.38,472.18Z"/><path class="cls-12" d="M1623.16,480.29c21.69-8.28,38.34,1.32,33.8,12.33-2.14,5.17-12.92,8.64-18.28,10.68-1.79.67,0,0,0,0s-8.67,2.54-7.5-2.62c1-4.2-4.44-2.76-5.67-2.7s-5.79.47-4.49-3.35c1-3-1.72-4-4.49-3.35-2.44.56-8.14-.78-4-4.56C1616,483.59,1623.16,480.29,1623.16,480.29Z"/><polygon class="cls-12" points="1648.49 485.21 1642.44 484.37 1647.56 446.26 1653.62 447.1 1648.49 485.21"/><path class="cls-13" d="M1747.09,336.36s30,17.76,37,33.82c5.66,12.92,4.35,22.67-7.45,34.26-9.76,9.12-23.77,16-36,22.56s-22,6.87-33.1,9.18-9.9-70.31-9.9-70.31,7.14-2.31,15.58-14.37S1728.68,329.39,1747.09,336.36Z"/><path class="cls-12" d="M1760.11,345.34s16.94,8.78,24,24.84c5.66,12.92,4.35,22.67-7.45,34.26-9.76,9.12-23.77,16-36,22.56s-22,6.87-33.1,9.18c-10,2.07-.31-16.21,1.21-19.11a1.94,1.94,0,0,1,.81-.82c5-2.76,38-15.31,51.42-30.54C1771.44,373.81,1760.11,345.34,1760.11,345.34Z"/><path class="cls-14" d="M1591.31,350.25s-52.87-4.59-58.52,20.54a249.29,249.29,0,0,0-6.4,47.63c-.32,6.58-2.26,16.78,23.9,25.39s49.42,16.16,116.86,19.56c18.65.94,38.35-10.1,41.16-26.8s6.55-36,5.89-43.85c-.49-5.85,3-17.64-15.09-26.42-6.07-2.95-14.56-5.55-26.44-7.48C1625.33,351.13,1591.31,350.25,1591.31,350.25Z"/><path class="cls-15" d="M1704.15,423c-18.71,25-28.28,24.19-50.94,27.65-46,7-103.72-7.26-102.36-6.8,26.05,8.91,49.42,16.17,116.86,19.57,18.65.94,38.34-10.1,41.16-26.81s7-32.94,6-50.73C1714.83,385.91,1716.24,406.91,1704.15,423Z"/><path class="cls-16" d="M1589.38,392.17c-1,7-7.91,12.14-15.15,11.13s-11.49-7.68-10.55-14.7,9.09-12.53,16.34-11.52S1590.29,385.4,1589.38,392.17Z"/><path class="cls-16" d="M1677.46,409.94c-.94,7-6.22,12.37-13.47,11.36s-11.49-7.68-10.55-14.7,9.45-14,16.34-11.51C1677.39,397.8,1678.37,403.17,1677.46,409.94Z"/><path d="M1585.36,392.44c-.21,5.76-6.28,11.62-11.55,9.7-4.88-1.79-10.37-6.59-8.56-12.5,2-6.61,6-10.47,11.54-9.7S1585.58,386.25,1585.36,392.44Z"/><path d="M1676.34,409.78c-.88,6.59-3.32,9.68-9.34,10.28-4.62.47-9.72-3.87-8.82-10.6s4.33-13.18,10.2-12.36S1677.07,404.37,1676.34,409.78Z"/><path class="cls-17" d="M1614.37,396.75l25.47,5.2s13,.7,6.42,15.78-10,19.56-10,19.56a22.06,22.06,0,0,1-22.53,6.79c-9.91-2.48-36.92-9-45.56-12.4s-6.51-10.84-6.51-10.84a9,9,0,0,1,4.37-7.11c4.34-2.7,34.11-16.76,34.11-16.76A32.82,32.82,0,0,1,1614.37,396.75Z"/><ellipse cx="1618.97" cy="424.38" rx="3.05" ry="2.07" transform="translate(454.07 1626.12) rotate(-60.58)"/><ellipse cx="1598.59" cy="419.34" rx="3.05" ry="2.07" transform="translate(448.1 1605.81) rotate(-60.58)"/><ellipse class="cls-16" cx="1579.35" cy="386.36" rx="2.73" ry="2.26" transform="translate(1001.41 1906.1) rotate(-82.93)"/><ellipse class="cls-16" cx="1666.32" cy="401.77" rx="2.73" ry="2.54" transform="translate(1093.92 2017.45) rotate(-84.05)"/><path class="cls-13" d="M1747.09,336.36s30,17.76,37,33.82c5.66,12.92,4.35,22.67-7.45,34.26-9.76,9.12-23.77,16-36,22.56s-22,6.87-33.1,9.18-9.9-70.31-9.9-70.31,7.14-2.31,15.58-14.37S1728.68,329.39,1747.09,336.36Z"/><path class="cls-12" d="M1760.11,345.34s16.94,8.78,24,24.84c5.66,12.92,4.35,22.67-7.45,34.26-9.76,9.12-23.77,16-36,22.56s-22,6.87-33.1,9.18c-10,2.07-.31-16.21,1.21-19.11a1.94,1.94,0,0,1,.81-.82c5-2.76,38-15.31,51.42-30.54C1771.44,373.81,1760.11,345.34,1760.11,345.34Z"/><path class="cls-14" d="M1591.31,350.25s-52.87-4.59-58.52,20.54a249.29,249.29,0,0,0-6.4,47.63c-.32,6.58-2.26,16.78,23.9,25.39s49.42,16.16,116.86,19.56c18.65.94,38.35-10.1,41.16-26.8s6.55-36,5.89-43.85c-.49-5.85,3-17.64-15.09-26.42-6.07-2.95-14.56-5.55-26.44-7.48C1625.33,351.13,1591.31,350.25,1591.31,350.25Z"/><path class="cls-15" d="M1704.15,423c-18.71,25-28.28,24.19-50.94,27.65-46,7-103.72-7.26-102.36-6.8,26.05,8.91,49.42,16.17,116.86,19.57,18.65.94,38.34-10.1,41.16-26.81s7-32.94,6-50.73C1714.83,385.91,1716.24,406.91,1704.15,423Z"/><path class="cls-18" d="M1589.38,392.17c-1,7-7.91,12.14-15.15,11.13s-11.49-7.68-10.55-14.7,9.09-12.53,16.34-11.52S1590.29,385.4,1589.38,392.17Z"/><path class="cls-18" d="M1677.46,409.94c-.94,7-6.22,12.37-13.47,11.36s-11.49-7.68-10.55-14.7,9.45-14,16.34-11.51C1677.39,397.8,1678.37,403.17,1677.46,409.94Z"/><path d="M1585.36,392.44c-.21,5.76-6.28,11.62-11.55,9.7-4.88-1.79-10.37-6.59-8.56-12.5,2-6.61,6-10.47,11.54-9.7S1585.58,386.25,1585.36,392.44Z"/><path d="M1673.62,408.86c-.88,6.58-3.32,9.67-9.34,10.27-4.62.47-9.72-3.87-8.82-10.6s4.33-13.18,10.2-12.36S1674.35,403.44,1673.62,408.86Z"/><path class="cls-17" d="M1614.37,396.75l25.47,5.2s13,.7,6.42,15.78-10,19.56-10,19.56a22.06,22.06,0,0,1-22.53,6.79c-9.91-2.48-36.92-9-45.56-12.4s-6.51-10.84-6.51-10.84a9,9,0,0,1,4.37-7.11c4.34-2.7,34.11-16.76,34.11-16.76A32.82,32.82,0,0,1,1614.37,396.75Z"/><ellipse cx="1618.97" cy="424.38" rx="3.05" ry="2.07" transform="translate(454.07 1626.12) rotate(-60.58)"/><ellipse cx="1598.59" cy="419.34" rx="3.05" ry="2.07" transform="translate(448.1 1605.81) rotate(-60.58)"/><ellipse class="cls-16" cx="1579.35" cy="386.36" rx="2.73" ry="2.26" transform="translate(1001.41 1906.1) rotate(-82.93)"/><ellipse class="cls-16" cx="1668.56" cy="402.08" rx="2.73" ry="2.54" transform="translate(1095.61 2019.95) rotate(-84.05)"/><rect class="cls-11" x="832.91" y="782.6" width="45.96" height="7.07" transform="translate(49.54 1623) rotate(-88.63)"/><path class="cls-11" d="M827.9,803.09c24.07-12.52,44.33-3.17,40.32,10.46-1.88,6.41-13.91,11.88-19.87,15h0c-.08,0-9.7,4.1-8.93-2.18.63-5.11-5.42-2.73-6.83-2.51S826,825.09,827,820.4c.85-3.71-2.42-4.52-5.55-3.42-2.75,1-9.47.08-5.07-4.94C820.07,807.89,827.9,803.09,827.9,803.09Z"/><path class="cls-12" d="M870.11,807.8c23.91-12.8,44.28-3.69,40.43,10-1.8,6.43-13.77,12-19.69,15.18h0c-.08,0-9.66,4.22-9-2.07.57-5.12-5.46-2.66-6.87-2.43s-6.6,1.35-5.58-3.36c.8-3.72-2.48-4.48-5.59-3.36-2.74,1-9.47.2-5.13-4.87C862.33,812.7,870.11,807.8,870.11,807.8Z"/><rect class="cls-12" x="873.91" y="783.58" width="45.96" height="7.07" transform="translate(88.58 1664.94) rotate(-88.63)"/><path class="cls-13" d="M994.62,619.94s36.7,17,46.82,35.07c8.14,14.56,7.86,26.31-4.26,41.69-10.08,12.16-25.34,22.24-38.63,31.72s-24.42,11.17-36.93,15.44-20.24-82.1-20.24-82.1,7.93-3.73,16.13-19.2S972.55,614.19,994.62,619.94Z"/><path class="cls-12" d="M1010.73,628.81s20.59,8.09,30.71,26.2c8.14,14.56,7.86,26.31-4.26,41.69-10.08,12.16-25.34,22.24-38.63,31.72s-24.42,11.17-36.93,15.44c-11.2,3.83-2.4-19.2-1-22.85a2.41,2.41,0,0,1,.83-1.08c5.45-4,41.79-23.39,55.33-43.31C1027.35,661.05,1010.73,628.81,1010.73,628.81Z"/><path class="cls-14" d="M817.09,657.81s-61.42,1.8-64.77,32.41-1.83,49.58-1.37,57.42-.48,20.23,30.7,26.85,58.91,12.41,137,7.19c21.58-1.44,42.85-17.25,44-37.47s3-43.67,1.26-52.86c-1.3-6.87,1.24-21.35-20.68-29.29-7.36-2.66-17.46-4.59-31.38-5.25C856.35,654.18,817.09,657.81,817.09,657.81Z"/><path class="cls-15" d="M956.11,728.71c-18.4,32.21-29.51,32.6-55.15,39.82-52.06,14.67-120.28,5.62-118.65,6,31.1,7,58.9,12.41,136.94,7.19,21.59-1.44,42.86-17.26,44-37.47s3.9-40.07.48-61C963.72,683.19,968,707.92,956.11,728.71Z"/><path class="cls-16" d="M820.14,707.83a15.91,15.91,0,0,1-16,15.29c-8.48-.2-14.18-7.53-14-16S799,691,807.48,691.21,820.33,699.68,820.14,707.83Z"/><path class="cls-16" d="M923.74,716.84c-.2,8.47-5.61,15.54-14.08,15.33s-14.18-7.53-14-16,9.12-17.88,17.36-15.91C922.13,702.44,923.94,708.68,923.74,716.84Z"/><path d="M815.55,708.7c.48,6.87-5.77,14.66-12.07,13.1-5.84-1.44-12.77-6.39-11.43-13.66,1.5-8.12,5.58-13.25,12.07-13.09S815,701.33,815.55,708.7Z"/><path d="M922.44,716.81c-.19,7.94-2.61,11.94-9.47,13.48-5.25,1.18-11.67-3.26-11.48-11.37s3.33-16.24,10.18-16.08S922.59,710.28,922.44,716.81Z"/><path class="cls-17" d="M849.47,709.84l30,2.68s15-.95,9.37,17.85S879.74,755,879.74,755a25.51,25.51,0,0,1-25.08,11.16c-11.72-1.59-43.62-5.61-54-8.47s-8.85-12-8.85-12a11,11,0,0,1,4.13-9c4.66-3.81,37.16-24.58,37.16-24.58A37,37,0,0,1,849.47,709.84Z"/><ellipse cx="858.25" cy="742.01" rx="3.64" ry="2.4" transform="translate(-148.07 1265.94) rotate(-68.35)"/><ellipse cx="834.16" cy="738.82" rx="3.64" ry="2.4" transform="translate(-160.3 1241.54) rotate(-68.35)"/><ellipse class="cls-16" cx="807.86" cy="702.32" rx="3.26" ry="2.61" transform="translate(86.45 1493.17) rotate(-88.63)"/><ellipse class="cls-16" cx="909.9" cy="708.67" rx="3.26" ry="2.94" transform="translate(179.69 1601.38) rotate(-88.63)"/><path class="cls-13" d="M994.62,619.94s36.7,17,46.82,35.07c8.14,14.56,7.86,26.31-4.26,41.69-10.08,12.16-25.34,22.24-38.63,31.72s-24.42,11.17-36.93,15.44-20.24-82.1-20.24-82.1,7.93-3.73,16.13-19.2S972.55,614.19,994.62,619.94Z"/><path class="cls-12" d="M1010.73,628.81s20.59,8.09,30.71,26.2c8.14,14.56,7.86,26.31-4.26,41.69-10.08,12.16-25.34,22.24-38.63,31.72s-24.42,11.17-36.93,15.44c-11.2,3.83-2.4-19.2-1-22.85a2.41,2.41,0,0,1,.83-1.08c5.45-4,41.79-23.39,55.33-43.31C1027.35,661.05,1010.73,628.81,1010.73,628.81Z"/><path class="cls-14" d="M817.09,657.81s-61.42,1.8-64.77,32.41-1.83,49.58-1.37,57.42-.48,20.23,30.7,26.85,58.91,12.41,137,7.19c21.58-1.44,42.85-17.25,44-37.47s3-43.67,1.26-52.86c-1.3-6.87,1.24-21.35-20.68-29.29-7.36-2.66-17.46-4.59-31.38-5.25C856.35,654.18,817.09,657.81,817.09,657.81Z"/><path class="cls-15" d="M956.11,728.71c-18.4,32.21-29.51,32.6-55.15,39.82-52.06,14.67-120.28,5.62-118.65,6,31.1,7,58.9,12.41,136.94,7.19,21.59-1.44,42.86-17.26,44-37.47s3.9-40.07.48-61C963.72,683.19,968,707.92,956.11,728.71Z"/><path class="cls-18" d="M820.14,707.83a15.91,15.91,0,0,1-16,15.29c-8.48-.2-14.18-7.53-14-16S799,691,807.48,691.21,820.33,699.68,820.14,707.83Z"/><path class="cls-18" d="M923.74,716.84c-.2,8.47-5.61,15.54-14.08,15.33s-14.18-7.53-14-16,9.12-17.88,17.36-15.91C922.13,702.44,923.94,708.68,923.74,716.84Z"/><path d="M815.55,708.7c.48,6.87-5.77,14.66-12.07,13.1-5.84-1.44-12.77-6.39-11.43-13.66,1.5-8.12,5.58-13.25,12.07-13.09S815,701.33,815.55,708.7Z"/><path d="M919.19,716.08c-.19,7.94-2.61,11.94-9.46,13.48-5.26,1.18-11.68-3.26-11.49-11.37s3.33-16.25,10.18-16.08S919.34,709.55,919.19,716.08Z"/><path class="cls-17" d="M849.47,709.84l30,2.68s15-.95,9.37,17.85S879.74,755,879.74,755a25.51,25.51,0,0,1-25.08,11.16c-11.72-1.59-43.62-5.61-54-8.47s-8.85-12-8.85-12a11,11,0,0,1,4.13-9c4.66-3.81,37.16-24.58,37.16-24.58A37,37,0,0,1,849.47,709.84Z"/><ellipse cx="858.25" cy="742.01" rx="3.64" ry="2.4" transform="translate(-148.07 1265.94) rotate(-68.35)"/><ellipse cx="834.16" cy="738.82" rx="3.64" ry="2.4" transform="translate(-160.3 1241.54) rotate(-68.35)"/><ellipse class="cls-16" cx="807.86" cy="702.32" rx="3.26" ry="2.61" transform="translate(86.45 1493.17) rotate(-88.63)"/><ellipse class="cls-16" cx="912.51" cy="708.74" rx="3.26" ry="2.94" transform="translate(182.18 1604.05) rotate(-88.63)"/><rect class="cls-11" x="1224.39" y="633.53" width="45.96" height="7.07" transform="translate(492.84 1817.09) rotate(-84.46)"/><path class="cls-11" d="M1218.23,651.94c24.91-10.74,44.44.06,39.45,13.37-2.35,6.26-14.74,10.83-20.91,13.47h0c-.09,0-10,3.39-8.75-2.82,1-5.05-5.21-3.12-6.63-3s-6.7.79-5.28-3.82c1.11-3.64-2.09-4.68-5.29-3.82-2.81.76-9.45-.6-4.69-5.28C1210.06,656.16,1218.23,651.94,1218.23,651.94Z"/><path class="cls-12" d="M1260,659.71c24.78-11,44.44-.46,39.6,12.91-2.27,6.28-14.61,11-20.75,13.71-2,.91,0,0,0,0s-9.93,3.5-8.78-2.72c.94-5.07-5.24-3.06-6.67-2.92s-6.68.86-5.32-3.76c1.07-3.65-2.15-4.66-5.33-3.76-2.81.79-9.46-.5-4.76-5.23C1251.86,664,1260,659.71,1260,659.71Z"/><rect class="cls-12" x="1265.21" y="637.49" width="45.96" height="7.07" transform="translate(525.78 1861.3) rotate(-84.46)"/><path class="cls-13" d="M1397.82,481.4S1433.2,501,1442,519.79c7.06,15.11,5.92,26.81-7.29,41.26-10.94,11.4-26.89,20.35-40.83,28.83s-25.18,9.37-38,12.72-14.21-83.36-14.21-83.36,8.17-3.14,17.48-18S1376.24,474.06,1397.82,481.4Z"/><path class="cls-12" d="M1413.25,491.42s20,9.57,28.73,28.37c7.06,15.11,5.92,26.81-7.29,41.26-10.94,11.4-26.89,20.35-40.83,28.83s-25.18,9.37-38,12.72c-11.45,3-1-19.33.66-22.87a2.4,2.4,0,0,1,.9-1c5.72-3.56,43.38-20.28,58.33-39.16C1427.48,524.78,1413.25,491.42,1413.25,491.42Z"/><path class="cls-14" d="M1218,506.26s-61.39-2.68-67,27.61-5.44,49.31-5.55,57.17-2,20.14,28.67,29,57.85,16.66,136.06,17.13c21.63.13,44-14.09,46.6-34.17s6.17-43.34,5.11-52.63c-.8-6.95,2.79-21.21-18.5-30.72-7.14-3.19-17.08-5.85-30.92-7.52C1257.43,505.49,1218,506.26,1218,506.26Z"/><path class="cls-15" d="M1351.5,587.09c-20.69,30.78-31.8,30.36-57.9,35.7-53,10.84-120.36-3.15-118.77-2.67,30.51,9.24,57.85,16.66,136.06,17.13,21.63.13,44-14.09,46.6-34.17s6.8-39.67,4.92-60.84C1362.41,542.24,1364.86,567.21,1351.5,587.09Z"/><path class="cls-16" d="M1217.41,556.37a15.9,15.9,0,0,1-17.1,14.08c-8.45-.82-13.6-8.55-12.78-17s10-15.42,18.46-14.6S1218.2,548.25,1217.41,556.37Z"/><path class="cls-16" d="M1320.09,572.89c-.82,8.43-6.73,15.09-15.16,14.27s-13.6-8.55-12.78-17,10.39-17.17,18.47-14.6C1319.52,558.41,1320.87,564.77,1320.09,572.89Z"/><path d="M1212.77,556.91c0,6.88-6.82,14.19-13,12.18-5.72-1.87-12.27-7.3-10.4-14.45,2.09-8,6.53-12.82,13-12.19S1212.78,549.51,1212.77,556.91Z"/><path d="M1318.79,572.76c-.77,7.91-3.47,11.73-10.42,12.77-5.33.79-11.41-4.11-10.63-12.18s4.51-16,11.33-15.3S1319.42,566.27,1318.79,572.76Z"/><path class="cls-17" d="M1246.52,560.51l29.7,4.85s15.07.15,8,18.48-10.84,23.87-10.84,23.87a25.49,25.49,0,0,1-25.82,9.3c-11.57-2.43-43.09-8.77-53.23-12.37s-8-12.58-8-12.58a11,11,0,0,1,4.78-8.72c4.92-3.46,38.84-21.81,38.84-21.81A37,37,0,0,1,1246.52,560.51Z"/><ellipse cx="1252.93" cy="593.23" rx="3.64" ry="2.4" transform="translate(173.17 1462.64) rotate(-64.18)"/><ellipse cx="1229.15" cy="588.3" rx="3.64" ry="2.4" transform="translate(164.18 1438.44) rotate(-64.18)"/><ellipse class="cls-16" cx="1205.57" cy="549.98" rx="3.26" ry="2.61" transform="translate(541.76 1696.81) rotate(-84.46)"/><ellipse class="cls-16" cx="1306.87" cy="563.74" rx="3.26" ry="2.94" transform="matrix(0.1, -1, 1, 0.1, 619.58, 1810.07)"/><path class="cls-13" d="M1397.82,481.4S1433.2,501,1442,519.79c7.06,15.11,5.92,26.81-7.29,41.26-10.94,11.4-26.89,20.35-40.83,28.83s-25.18,9.37-38,12.72-14.21-83.36-14.21-83.36,8.17-3.14,17.48-18S1376.24,474.06,1397.82,481.4Z"/><path class="cls-12" d="M1413.25,491.42s20,9.57,28.73,28.37c7.06,15.11,5.92,26.81-7.29,41.26-10.94,11.4-26.89,20.35-40.83,28.83s-25.18,9.37-38,12.72c-11.45,3-1-19.33.66-22.87a2.4,2.4,0,0,1,.9-1c5.72-3.56,43.38-20.28,58.33-39.16C1427.48,524.78,1413.25,491.42,1413.25,491.42Z"/><path class="cls-14" d="M1218,506.26s-61.39-2.68-67,27.61-5.44,49.31-5.55,57.17-2,20.14,28.67,29,57.85,16.66,136.06,17.13c21.63.13,44-14.09,46.6-34.17s6.17-43.34,5.11-52.63c-.8-6.95,2.79-21.21-18.5-30.72-7.14-3.19-17.08-5.85-30.92-7.52C1257.43,505.49,1218,506.26,1218,506.26Z"/><path class="cls-15" d="M1351.5,587.09c-20.69,30.78-31.8,30.36-57.9,35.7-53,10.84-120.36-3.15-118.77-2.67,30.51,9.24,57.85,16.66,136.06,17.13,21.63.13,44-14.09,46.6-34.17s6.8-39.67,4.92-60.84C1362.41,542.24,1364.86,567.21,1351.5,587.09Z"/><path class="cls-18" d="M1217.41,556.37a15.9,15.9,0,0,1-17.1,14.08c-8.45-.82-13.6-8.55-12.78-17s10-15.42,18.46-14.6S1218.2,548.25,1217.41,556.37Z"/><path class="cls-18" d="M1320.09,572.89c-.82,8.43-6.73,15.09-15.16,14.27s-13.6-8.55-12.78-17,10.39-17.17,18.47-14.6C1319.52,558.41,1320.87,564.77,1320.09,572.89Z"/><path d="M1212.77,556.91c0,6.88-6.82,14.19-13,12.18-5.72-1.87-12.27-7.3-10.4-14.45,2.09-8,6.53-12.82,13-12.19S1212.78,549.51,1212.77,556.91Z"/><path d="M1315.6,571.8c-.77,7.9-3.46,11.72-10.42,12.76-5.32.8-11.4-4.1-10.62-12.18s4.5-16,11.32-15.3S1316.23,565.3,1315.6,571.8Z"/><path class="cls-17" d="M1246.52,560.51l29.7,4.85s15.07.15,8,18.48-10.84,23.87-10.84,23.87a25.49,25.49,0,0,1-25.82,9.3c-11.57-2.43-43.09-8.77-53.23-12.37s-8-12.58-8-12.58a11,11,0,0,1,4.78-8.72c4.92-3.46,38.84-21.81,38.84-21.81A37,37,0,0,1,1246.52,560.51Z"/><ellipse cx="1252.93" cy="593.23" rx="3.64" ry="2.4" transform="translate(173.17 1462.64) rotate(-64.18)"/><ellipse cx="1229.15" cy="588.3" rx="3.64" ry="2.4" transform="translate(164.18 1438.44) rotate(-64.18)"/><ellipse class="cls-16" cx="1205.57" cy="549.98" rx="3.26" ry="2.61" transform="translate(541.76 1696.81) rotate(-84.46)"/><ellipse class="cls-16" cx="1309.47" cy="563.99" rx="3.26" ry="2.94" transform="translate(621.68 1812.89) rotate(-84.46)"/></g><g id="startside"><g class="cls-19"><rect class="cls-20" x="1261.01" y="106.53" width="4.74" height="4.74" transform="translate(873.07 1315.4) rotate(-77)"/><circle class="cls-16" cx="1263.38" cy="108.9" r="2.37"/><rect class="cls-20" x="1432.44" y="107.52" width="4.83" height="4.83" transform="translate(1004.96 1483.28) rotate(-77)"/><circle class="cls-16" cx="1434.85" cy="109.94" r="2.41"/><rect class="cls-20" x="1507.46" y="125.35" width="2.84" height="2.84" transform="translate(1045.93 1568.47) rotate(-77)"/><circle class="cls-16" cx="1508.88" cy="126.78" r="1.42"/><rect class="cls-20" x="1591.04" y="140.28" width="4.77" height="4.77" transform="translate(1095.98 1663.16) rotate(-77)"/><circle class="cls-16" cx="1593.43" cy="142.66" r="2.38"/><rect class="cls-20" x="1792.28" y="170.52" width="5.66" height="5.66" transform="translate(1222.39 1883.45) rotate(-77)"/><circle class="cls-16" cx="1795.1" cy="173.35" r="2.83"/><rect class="cls-20" x="1872.49" y="169" width="2.84" height="2.84" transform="translate(1286.32 1957.97) rotate(-77)"/><circle class="cls-16" cx="1873.91" cy="170.42" r="1.42"/><rect class="cls-20" x="1791.45" y="294.31" width="4.86" height="4.86" transform="translate(1101.21 1977.89) rotate(-77)"/><circle class="cls-16" cx="1793.88" cy="296.74" r="2.43"/><rect class="cls-20" x="1649.93" y="257.38" width="6.26" height="6.26" transform="translate(1027.37 1812.6) rotate(-77)"/><circle class="cls-16" cx="1653.06" cy="260.51" r="3.13"/><rect class="cls-20" x="1606.38" y="236.37" width="3.97" height="3.97" transform="translate(1014.32 1751.88) rotate(-77)"/><circle class="cls-16" cx="1608.37" cy="238.35" r="1.98"/><rect class="cls-20" x="1508.36" y="246.91" width="5.63" height="5.63" transform="translate(927.91 1665.99) rotate(-77)"/><circle class="cls-16" cx="1511.17" cy="249.72" r="2.82"/><rect class="cls-20" x="1463.57" y="294.37" width="6.52" height="6.52" transform="translate(846.86 1659.91) rotate(-77)"/><circle class="cls-16" cx="1466.83" cy="297.63" r="3.26"/><rect class="cls-20" x="1360.31" y="267.84" width="5.89" height="5.89" transform="translate(792.75 1538.18) rotate(-77)"/><circle class="cls-16" cx="1363.25" cy="270.78" r="2.94"/><rect class="cls-20" x="1163.9" y="283.4" width="5.92" height="5.92" transform="translate(625.35 1358.89) rotate(-77)"/><circle class="cls-16" cx="1166.86" cy="286.36" r="2.96"/><rect class="cls-20" x="991.78" y="342.37" width="2.38" height="2.38" transform="translate(434.84 1233.8) rotate(-77)"/><circle class="cls-16" cx="992.97" cy="343.56" r="1.19"/><rect class="cls-20" x="891.9" y="340.38" width="3.54" height="3.54" transform="translate(359.26 1135.95) rotate(-77)"/><circle class="cls-16" cx="893.67" cy="342.15" r="1.77"/><rect class="cls-20" x="759.85" y="317.02" width="6.05" height="6.05" transform="translate(279.42 991.37) rotate(-77)"/><circle class="cls-16" cx="762.87" cy="320.05" r="3.02"/><rect class="cls-20" x="544.35" y="314.34" width="4.43" height="4.43" transform="translate(115.17 777.9) rotate(-77)"/><circle class="cls-16" cx="546.56" cy="316.56" r="2.22"/><rect class="cls-20" x="389.63" y="90.25" width="2.43" height="2.43" transform="translate(213.8 451.72) rotate(-77)"/><circle class="cls-16" cx="390.85" cy="91.47" r="1.22"/><rect class="cls-20" x="772.15" y="-0.8" width="6.55" height="6.55" transform="translate(598.58 757.47) rotate(-77)"/><circle class="cls-16" cx="775.43" cy="2.47" r="3.27"/><rect class="cls-20" x="982.63" y="6.37" width="3.31" height="3.31" transform="translate(755.05 965.28) rotate(-77)"/><circle class="cls-16" cx="984.29" cy="8.02" r="1.66"/><rect class="cls-20" x="1046.84" y="217.37" width="5.49" height="5.49" transform="translate(599.01 1193.29) rotate(-77)"/><circle class="cls-16" cx="1049.59" cy="220.11" r="2.74"/><rect class="cls-20" x="884.35" y="219.01" width="3.37" height="3.37" transform="translate(471.68 1034.38) rotate(-77)"/><circle class="cls-16" cx="886.04" cy="220.7" r="1.68"/><rect class="cls-20" x="825.04" y="182.09" width="3.1" height="3.1" transform="translate(461.71 947.74) rotate(-77)"/><circle class="cls-16" cx="826.59" cy="183.64" r="1.55"/><rect class="cls-20" x="758.6" y="187.17" width="6.64" height="6.64" transform="translate(404.92 890.03) rotate(-77)"/><circle class="cls-16" cx="761.92" cy="190.49" r="3.32"/><rect class="cls-20" x="589.58" y="201.89" width="5.43" height="5.43" transform="translate(259.7 735.69) rotate(-77)"/><circle class="cls-16" cx="592.3" cy="204.61" r="2.71"/><rect class="cls-20" x="415.87" y="200.33" width="4.62" height="4.62" transform="translate(126.66 564.52) rotate(-77)"/><circle class="cls-16" cx="418.18" cy="202.64" r="2.31"/><rect class="cls-20" x="348.73" y="196.96" width="5.86" height="5.86" transform="translate(77.79 497.57) rotate(-77)"/><circle class="cls-16" cx="351.66" cy="199.89" r="2.93"/><rect class="cls-20" x="213.22" y="211.89" width="2.71" height="2.71" transform="translate(-41.47 374.35) rotate(-77)"/><circle class="cls-16" cx="214.58" cy="213.25" r="1.36"/><rect class="cls-20" x="102.11" y="204.79" width="4.42" height="4.42" transform="translate(-120.84 262.08) rotate(-77)"/><circle class="cls-16" cx="104.32" cy="207" r="2.21"/><rect class="cls-20" x="38.21" y="201.41" width="2.82" height="2.82" transform="translate(-166.91 195.79) rotate(-77)"/><circle class="cls-16" cx="39.62" cy="202.82" r="1.41"/></g><rect class="cls-20" x="1258.89" y="39.29" width="5.51" height="5.51" transform="translate(936.87 1261.9) rotate(-77)"/><circle class="cls-16" cx="1261.65" cy="42.04" r="2.76"/><rect class="cls-20" x="1447.58" y="11.27" width="4.82" height="4.82" transform="translate(1110.49 1423.43) rotate(-77)"/><circle class="cls-16" cx="1450" cy="13.68" r="2.41"/><rect class="cls-20" x="1606.74" y="51.52" width="5.47" height="5.47" transform="translate(1194.56 1610.27) rotate(-77)"/><circle class="cls-16" cx="1609.47" cy="54.25" r="2.74"/><rect class="cls-20" x="1684.28" y="42" width="6.24" height="6.24" transform="translate(1263.85 1679.12) rotate(-77)"/><circle class="cls-16" cx="1687.4" cy="45.12" r="3.12"/><rect class="cls-20" x="1763.77" y="45.64" width="3.21" height="3.21" transform="translate(1322.22 1756.74) rotate(-77)"/><circle class="cls-16" cx="1765.38" cy="47.24" r="1.6"/></g><g id="baggrund"><polygon class="cls-21" points="823.56 223.04 803 228 754.12 124.2 671.63 280.01 607.85 195.7 440 479 670 465 964 457 823.56 223.04"/><polyline class="cls-22" points="643 242 607.85 195.7 440 479 522 474"/><polyline class="cls-23" points="343 486 571 473 488.65 356 450.11 355.96 433.94 331.94 433.8 332.16 403.62 287.32 294.95 287.2 226 195.83 77 508 343 486 343 486"/><circle class="cls-24" cx="1443" cy="221" r="140"/><path class="cls-25" d="M1582.65,208.5a140,140,0,0,1-249,99.66c.13,0,99.8,35,167.73-29.34,74.43-70.56,26-169.8,26.07-169.68A139.58,139.58,0,0,1,1582.65,208.5Z"/><path class="cls-26" d="M1319.44,196.64c32.28-120.34,168.47-139.12,233.62-37.57,0,0-49.89-59.29-120.33-48.72S1319.44,196.64,1319.44,196.64Z"/><ellipse class="cls-27" cx="1537.21" cy="205.74" rx="25.24" ry="39.62" transform="matrix(1, -0.09, 0.09, 1, -11.94, 131.67)"/><ellipse class="cls-25" cx="1537.7" cy="205.68" rx="21.35" ry="35.7" transform="translate(-11.93 131.71) rotate(-4.89)"/><ellipse class="cls-28" cx="1361.89" cy="267.11" rx="18.57" ry="30.15" transform="translate(22.22 629.56) rotate(-26.24)"/><ellipse class="cls-29" cx="1449.5" cy="146.76" rx="19.03" ry="12.89"/><ellipse class="cls-30" cx="1348.48" cy="179.85" rx="24.14" ry="15.14" transform="translate(701.68 1376.69) rotate(-69.21)"/><ellipse class="cls-26" cx="1421.14" cy="217.11" rx="16.94" ry="23.66"/><circle class="cls-31" cx="1929.3" cy="674.7" r="85.7"/><circle class="cls-31" cx="1790.78" cy="690.92" r="64.86"/><circle class="cls-31" cx="1544.79" cy="860.94" r="85.7"/><ellipse class="cls-31" cx="1659.68" cy="755.31" rx="115.35" ry="102.38"/><circle class="cls-32" cx="1443.79" cy="910.04" r="49.57"/><circle class="cls-32" cx="1227.02" cy="1067.59" r="44.98"/><circle class="cls-32" cx="1350.68" cy="960.02" r="72.27"/><circle class="cls-32" cx="1283.36" cy="1027.57" r="49.43"/><circle class="cls-32" cx="1299.36" cy="1052.57" r="49.43"/><circle class="cls-32" cx="1129.24" cy="1066.16" r="64.86"/><circle class="cls-32" cx="1050.38" cy="1077.02" r="34.28"/><ellipse class="cls-33" cx="1850.29" cy="915.09" rx="249.97" ry="217.72" transform="translate(-32.53 68.94) rotate(-2.12)"/><ellipse class="cls-33" cx="1553.04" cy="1039.9" rx="172.37" ry="155.86" transform="translate(-37.34 58.05) rotate(-2.12)"/><ellipse class="cls-33" cx="1376.96" cy="1060.32" rx="78.56" ry="68.81" transform="translate(-38.21 51.56) rotate(-2.12)"/><path class="cls-34" d="M135,638H66v509.38h.26q-.26,6.06-.26,12.32c0,20.1,16,24.3,35,24.3s34-5.6,34-24.3q0-6.26-.26-12.32H135Z"/><path class="cls-35" d="M101,638.41H66.41v503.4h.25q-.24,6-.25,12.18c0,21.24,15.76,24,34.59,24"/><path class="cls-35" d="M66,850.57S8.27,853.54,0,801c-.39-2.45-14,3-14,3s4,62,80,62Z"/><path class="cls-34" d="M274,706.55c-12,63.45-94,99.88-139,95.16v22.18S272,821,294,704C294,704.45,274,706.55,274,706.55Z"/><path class="cls-36" d="M348,285.5C384,507,237.41,658,101,658S-187,488-146,285.5C-105.18,83.87-35.41-87,101-87S315,82.44,348,285.5Z"/><ellipse class="cls-37" cx="282.5" cy="541.5" rx="114.5" ry="165.5"/><circle class="cls-38" cx="-18" cy="733" r="71"/><path class="cls-39" d="M101,658c-136.41,0-288-170-247-372.5C-105.18,83.87-35.41-87,101-87"/></g><g id="taber-forgrund"><g class="cls-40"><rect class="cls-41" x="468.5" y="228.5" width="1020" height="651" rx="10.5"/><path class="cls-16" d="M1478,230a9,9,0,0,1,9,9V869a9,9,0,0,1-9,9H479a9,9,0,0,1-9-9V239a9,9,0,0,1,9-9h999m0-3H479a12,12,0,0,0-12,12V869a12,12,0,0,0,12,12h999a12,12,0,0,0,12-12V239a12,12,0,0,0-12-12Z"/></g><g class="cls-42"><rect class="cls-11" x="1292" y="859.25" width="70.41" height="10.83" transform="translate(28 1770.85) rotate(-67.98)"/><path class="cls-11" d="M1277.93,873.85c41.27-4.94,65.26,19.4,52.14,36.79-6.16,8.17-26.35,9.5-36.56,10.7h0c-.14,0-16.13.64-11.63-8,3.67-7-6.3-6.84-8.44-7.28s-10.18-1.76-6.1-7.91c3.22-4.86-1-7.78-6.1-7.91-4.47-.11-13.62-5-4.6-9.8C1264.1,876.51,1277.93,873.85,1277.93,873.85Z"/><path class="cls-12" d="M1357.48,906.84c23-34.61,57.11-37.06,61.83-15.8,2.22,10-9.87,26.22-15.58,34.76h0c-.09.11-10,12.69-13.59,3.69-2.94-7.32-9.29.36-11,1.7s-7.95,6.6-10-.49c-1.61-5.61-6.59-4.26-10-.49-3,3.33-12.64,7.12-10.44-2.86C1350.53,919.09,1357.48,906.84,1357.48,906.84Z"/><rect class="cls-12" x="1373.23" y="824.3" width="10.83" height="70.41" transform="translate(-239.58 715.45) rotate(-26.85)"/><path class="cls-13" d="M1555.33,628.42s53.1,31.91,65.52,61.17c10,23.52,7.61,41.36-13.39,62.78-17.37,16.86-42.28,29.69-64.08,41.92s-39.05,13-58.81,17.41-17.23-128.39-17.23-128.39,12.68-4.37,27.74-26.58S1522.69,616,1555.33,628.42Z"/><path class="cls-12" d="M1578.4,644.6s30,15.73,42.45,45c10,23.52,7.61,41.36-13.39,62.78-17.37,16.86-42.28,29.69-64.08,41.92s-39.05,13-58.81,17.41c-17.68,4-.47-29.64,2.25-35a3.74,3.74,0,0,1,1.44-1.51c9-5.15,67.52-28.7,91.43-56.8C1598.38,696.45,1578.4,644.6,1578.4,644.6Z"/><path class="cls-14" d="M1278.69,656.72s-93.83-7.43-104,38.64-11,75.2-11.6,87.23-4.08,30.73,42.32,46,87.66,28.65,207.38,33.62c33.1,1.37,68.12-19.19,73.19-49.79s11.8-66,10.67-80.29c-.84-10.69,5.42-32.32-26.65-48-10.76-5.27-25.83-9.88-46.92-13.19C1339.09,657.69,1278.69,656.72,1278.69,656.72Z"/><path class="cls-15" d="M1478.68,787.71c-33.35,46-50.34,44.76-90.58,51.52C1306.39,853,1204,827.87,1206.41,828.7c46.21,15.8,87.66,28.64,207.38,33.61,33.1,1.38,68.12-19.19,73.19-49.79s12.57-60.37,10.84-92.88C1497.82,719.64,1500.21,758,1478.68,787.71Z"/><path class="cls-18" d="M1275.06,733.41a24.36,24.36,0,0,1-27,20.63c-12.89-1.71-20.36-13.82-18.65-26.69s16.2-23.07,29.07-21.36S1276.71,721,1275.06,733.41Z"/><path class="cls-18" d="M1431.36,764.27c-1.71,12.87-11.12,22.74-24,21s-20.36-13.83-18.65-26.69,16.85-25.73,29.07-21.36C1431.28,742.07,1433,751.88,1431.36,764.27Z"/><path d="M1267.2,731.86c-.4,10.54-11.21,21.37-20.55,17.95-8.66-3.17-18.39-11.85-15.14-22.69,3.63-12.13,10.69-19.26,20.54-18S1267.62,720.55,1267.2,731.86Z"/><path d="M1392.53,755.11c4.17-12.26,9.89-17.32,21.31-16.37,8.76.73,16.58,10.79,12.32,23.32s-13.12,23.65-23.7,20.05S1389.1,765.19,1392.53,755.11Z"/><path class="cls-17" d="M1319.4,741.32l45.21,9s23.06,1,11.31,28.74S1358,815.05,1358,815.05a39.05,39.05,0,0,1-40,12.84c-17.58-4.35-65.5-15.77-80.83-21.84s-11.51-19.69-11.51-19.69a16.91,16.91,0,0,1,7.79-13.08c7.73-5,60.65-31.29,60.65-31.29A56.8,56.8,0,0,1,1319.4,741.32Z"/><ellipse cx="1327.44" cy="791.77" rx="5.57" ry="3.68" transform="translate(7.22 1595.51) rotate(-62.15)"/><ellipse cx="1291.29" cy="782.93" rx="5.57" ry="3.68" transform="translate(-4.23 1558.84) rotate(-62.15)"/><ellipse class="cls-16" cx="1245.65" cy="719.41" rx="5" ry="4" transform="translate(368.39 1859.42) rotate(-82.43)"/><ellipse class="cls-16" cx="1404.06" cy="748.05" rx="5.32" ry="4.79" transform="translate(587.06 2113.14) rotate(-87.15)"/><path class="cls-43" d="M1394.83,793.23a34.22,34.22,0,0,1,10.17-6.6,48.12,48.12,0,0,1,10.77-3.24,49.36,49.36,0,0,1,11.23-.73,34.27,34.27,0,0,1,11.83,2.6l.13.68-5.47,1.17-5.49,1.06-11,2.1-11,1.88-5.51.94-5.54.83Z"/><path class="cls-43" d="M1219.91,743.41a21,21,0,0,1,9.16.27,24.93,24.93,0,0,1,13.32,8.45,21.08,21.08,0,0,1,4.17,8.15l-.38.59-3.42-2-3.38-2c-2.25-1.35-4.47-2.76-6.71-4.14s-4.43-2.84-6.62-4.29l-3.28-2.19-3.24-2.25Z"/></g><g class="cls-44"><path class="cls-45" d="M687,338l-22.54-34.07a1.88,1.88,0,0,1,1.63-2.95H679.3a2,2,0,0,1,1.63.91l14.18,20.91,14.18-20.91a1.89,1.89,0,0,1,1.63-.91h13.26a1.88,1.88,0,0,1,1.63,2.95l-22.85,34v32.54a2,2,0,0,1-1.93,1.94H688.89a1.94,1.94,0,0,1-1.94-1.94Z"/><path class="cls-45" d="M734,346.22a19.23,19.23,0,0,1,7.86,1.63c0-4-.62-6-5.51-6a43,43,0,0,0-10.2,1.53c-1.53.51-2.25-.61-2.45-2.14l-.92-6.43a2.17,2.17,0,0,1,1.53-2.75,71.1,71.1,0,0,1,13.57-1.53c12.65,0,17.24,5.3,17.24,17.34v22.54a2,2,0,0,1-1.94,1.94h-4.49a1.91,1.91,0,0,1-1.84-1.33l-1.42-2.75a17.07,17.07,0,0,1-12.35,5.1c-8,0-14.07-5.41-14.07-13.47C719,352,724.69,346.22,734,346.22Zm2.65,17.13a4.39,4.39,0,1,0,0-8.77,4.33,4.33,0,0,0-4.38,4.28A4.44,4.44,0,0,0,736.62,363.35Z"/><path class="cls-45" d="M777.73,346.22a19.15,19.15,0,0,1,7.85,1.63c0-4-.61-6-5.51-6a43.17,43.17,0,0,0-10.2,1.53c-1.53.51-2.24-.61-2.44-2.14l-.92-6.43A2.17,2.17,0,0,1,768,332a71.07,71.07,0,0,1,13.56-1.53c12.65,0,17.24,5.3,17.24,17.34v22.54a2,2,0,0,1-1.93,1.94h-4.49a1.9,1.9,0,0,1-1.84-1.33l-1.43-2.75a17,17,0,0,1-12.34,5.1c-8.06,0-14.08-5.41-14.08-13.47C762.73,352,768.45,346.22,777.73,346.22Zm2.65,17.13a4.39,4.39,0,1,0,0-8.77,4.34,4.34,0,0,0-4.39,4.28A4.44,4.44,0,0,0,780.38,363.35Z"/><path class="cls-45" d="M821.48,346.22a19.23,19.23,0,0,1,7.86,1.63c0-4-.61-6-5.51-6a43.1,43.1,0,0,0-10.2,1.53c-1.53.51-2.24-.61-2.45-2.14l-.92-6.43a2.18,2.18,0,0,1,1.53-2.75,71.1,71.1,0,0,1,13.57-1.53c12.65,0,17.24,5.3,17.24,17.34v22.54a2,2,0,0,1-1.94,1.94h-4.49a1.9,1.9,0,0,1-1.83-1.33l-1.43-2.75a17.06,17.06,0,0,1-12.34,5.1c-8.06,0-14.08-5.41-14.08-13.47C806.49,352,812.2,346.22,821.48,346.22Zm2.66,17.13a4.39,4.39,0,1,0,0-8.77,4.34,4.34,0,0,0-4.39,4.28A4.44,4.44,0,0,0,824.14,363.35Z"/><path class="cls-45" d="M847.8,334.18a1.8,1.8,0,0,1,1.73-2.65h11.63a2,2,0,0,1,1.74,1.12l7.85,19h.2l8.06-19a1.84,1.84,0,0,1,1.74-1.12h11.52a1.77,1.77,0,0,1,1.74,2.65l-31.22,67.53a2,2,0,0,1-1.73,1.22H849.63a1.83,1.83,0,0,1-1.73-2.75l15.2-32Z"/><path class="cls-45" d="M906.45,354.17c5,0,12,3.88,12,15.4,0,14.08-9.29,21.22-12.24,23.87a2,2,0,0,1-2.86,0L901.25,391a1.83,1.83,0,0,1,.2-2.86c1.23-1,9.08-6.83,9.18-15.91a13,13,0,0,1-5.3,1.12,9.61,9.61,0,0,1-9.49-9.49C895.84,358.66,900.23,354.17,906.45,354.17Z"/><path class="cls-45" d="M944.39,334.18a1.8,1.8,0,0,1,1.74-2.65h11.62a2,2,0,0,1,1.74,1.12l7.85,19h.21l8.06-19a1.82,1.82,0,0,1,1.73-1.12h11.53a1.77,1.77,0,0,1,1.73,2.65l-31.21,67.53a2,2,0,0,1-1.74,1.22H946.23a1.83,1.83,0,0,1-1.74-2.75l15.2-32Z"/><path class="cls-45" d="M1014.77,330.51a21.42,21.42,0,1,1-21.21,21.32A21.49,21.49,0,0,1,1014.77,330.51Zm0,29.68a8.21,8.21,0,0,0,8.06-8.36,8.06,8.06,0,1,0-16.12,0A8.21,8.21,0,0,0,1014.77,360.19Z"/><path class="cls-45" d="M1042.92,333.46a1.93,1.93,0,0,1,1.94-1.93h10.92a1.92,1.92,0,0,1,1.93,1.93v18.88c0,4.18,2.35,7.85,6.53,7.85,4,0,6.12-3.77,6.12-7.24V333.46c0-1.63,1.12-1.93,2.14-1.93h10.41a1.93,1.93,0,0,1,1.94,1.93v36.93a2,2,0,0,1-1.94,1.94h-4.79a2.24,2.24,0,0,1-1.94-1.43l-1.53-3.77c-2.66,2.55-5.92,6.22-13.77,6.22-12.14,0-18-9.79-18-21.42Z"/><path class="cls-45" d="M1122.18,357.44s-3-3.06-3-9.29a18,18,0,0,1,18-17.64h19.28a1.87,1.87,0,0,1,1.94,1.93v4.19a2.08,2.08,0,0,1-1.12,1.73l-5.92,2.14s3.88,3.17,3.88,9.9c0,7.44-6.84,15.4-17.65,15.4h-7.35c-2.14,0-3.36,1.12-3.36,2.75,0,1.94,1.73,2.76,3.26,2.76h12.24c9.59,0,17.55,5.81,17.55,14.89,0,9.79-6.84,17.75-23,17.75-15.81,0-21.32-7.45-21.32-13.87,0-6.12,5.1-9.18,6.22-9.79V380a11.77,11.77,0,0,1-7.85-11.32C1114,360.6,1122.18,357.44,1122.18,357.44ZM1137,392c5.1,0,7.34-2,7.34-4.8,0-2.14-1.83-4.28-7.34-4.28-3.68,0-7.35,1.32-7.35,4.28S1132.07,392,1137,392Zm.61-37.64a5.31,5.31,0,1,0-5.41-5.31A5.24,5.24,0,0,0,1137.58,354.38Z"/><path class="cls-45" d="M1183.89,330.51a21.42,21.42,0,1,1-21.22,21.32A21.48,21.48,0,0,1,1183.89,330.51Zm0,29.68a8.21,8.21,0,0,0,8.06-8.36,8.06,8.06,0,1,0-16.12,0A8.21,8.21,0,0,0,1183.89,360.19Z"/><path class="cls-45" d="M1214.59,344.48h-2.65a1.92,1.92,0,0,1-1.84-1.94v-9.08a1.85,1.85,0,0,1,1.84-1.93h2.65V320.2a2,2,0,0,1,1.94-1.93h10.91a1.91,1.91,0,0,1,1.84,1.93v11.33h7.54a1.87,1.87,0,0,1,1.94,1.93v9.08a1.93,1.93,0,0,1-1.94,1.94h-7.54v12.75c0,2.25,1.53,2.45,2.75,2.45a20.22,20.22,0,0,0,4-.71,1.77,1.77,0,0,1,2.24,1.32l2.25,8.47a2,2,0,0,1-1.33,2.34s-7.24,2.25-12.34,2.25c-7.75,0-12.24-4.9-12.24-14.18Z"/><path class="cls-45" d="M1272.22,344.48h-2.66a1.91,1.91,0,0,1-1.83-1.94v-9.08a1.84,1.84,0,0,1,1.83-1.93h2.66V320.2a2,2,0,0,1,1.93-1.93h10.92a1.91,1.91,0,0,1,1.83,1.93v11.33h7.55a1.87,1.87,0,0,1,1.94,1.93v9.08a1.93,1.93,0,0,1-1.94,1.94h-7.55v12.75c0,2.25,1.54,2.45,2.76,2.45a20.22,20.22,0,0,0,4-.71,1.77,1.77,0,0,1,2.24,1.32l2.25,8.47a2,2,0,0,1-1.33,2.34s-7.24,2.25-12.34,2.25c-7.76,0-12.24-4.9-12.24-14.18Z"/><path class="cls-45" d="M1305.67,302.86a2,2,0,0,1,1.94-1.93h11.32a2,2,0,0,1,1.94,1.93v30a21.7,21.7,0,0,1,9.49-2.34c12.85,0,19.48,10.09,19.48,21.42v18.46a2,2,0,0,1-1.94,1.94h-10.81a1.94,1.94,0,0,1-1.94-1.94V351.72c0-4.48-3-8.05-7.44-8.05-3.27,0-6.84,1.83-6.84,8.05v18.67c0,1.33-.51,1.94-2.24,1.94h-11a2,2,0,0,1-1.94-1.94Z"/><path class="cls-45" d="M1377.79,330.51a19.06,19.06,0,0,1,19.38,19.17,23.3,23.3,0,0,1-.21,2.76,2,2,0,0,1-1.93,1.73h-24.49a7.57,7.57,0,0,0,7.86,6.73,13.31,13.31,0,0,0,7.14-2.44,1.77,1.77,0,0,1,2.55,0l5.1,6.12a2.2,2.2,0,0,1-.1,2.95c-3.57,3.57-8.67,5.82-15.1,5.82a21.42,21.42,0,0,1-.2-42.84Zm5,15.71a5.51,5.51,0,0,0-5.41-4.8,5.68,5.68,0,0,0-5.51,4.8Z"/><path class="cls-45" d="M931.54,455.86a1.87,1.87,0,0,1,1.94-1.93h4.69a2.08,2.08,0,0,1,1.74,1.12l1.73,4.18c2.55-2.65,7.24-6.32,13.77-6.32,5.71,0,9.69,2.14,13.36,6.22a20,20,0,0,1,14.08-6.22c12.65,0,18.87,9.79,18.87,21.42v18.46a1.94,1.94,0,0,1-1.94,1.94H989a1.94,1.94,0,0,1-1.94-1.94V473.72c0-4.08-2.14-7.66-6.83-7.66a6.93,6.93,0,0,0-6.84,6.94v19.79a1.93,1.93,0,0,1-1.93,1.94h-9.8a1.93,1.93,0,0,1-1.93-1.94V473.72c0-4.08-1.84-7.66-6.43-7.66a6.92,6.92,0,0,0-7.14,7.15v19.58a2,2,0,0,1-1.94,1.94H933.48a1.94,1.94,0,0,1-1.94-1.94Z"/><path class="cls-45" d="M1029.77,452.91a21.42,21.42,0,1,1-21.22,21.32A21.48,21.48,0,0,1,1029.77,452.91Zm0,29.68a8.21,8.21,0,0,0,8.06-8.36,8.06,8.06,0,1,0-16.12,0A8.21,8.21,0,0,0,1029.77,482.59Z"/><path class="cls-45" d="M1076.89,452.91a21.42,21.42,0,1,1-21.22,21.32A21.49,21.49,0,0,1,1076.89,452.91Zm0,29.68a8.21,8.21,0,0,0,8.06-8.36,8.06,8.06,0,1,0-16.12,0A8.21,8.21,0,0,0,1076.89,482.59Z"/><path class="cls-45" d="M1106,455.86a1.93,1.93,0,0,1,1.94-1.93h4.79a2.28,2.28,0,0,1,1.84,1.22l1.63,4.08a19.22,19.22,0,0,1,14.38-6.32c12.65,0,19.38,9.69,19.38,21.32v18.56a2,2,0,0,1-1.94,1.94h-10.91a1.94,1.94,0,0,1-1.94-1.94V473.72c0-4.08-2.34-7.66-6.93-7.66-4.08,0-7.76,3-7.76,7.15v19.58a1.72,1.72,0,0,1-1.83,1.94H1107.9a2,2,0,0,1-1.94-1.94Z"/><path class="cls-45" d="M1182.36,425.26a2,2,0,0,1,1.93-1.93h11.33a2,2,0,0,1,1.93,1.93v29.58a20.73,20.73,0,0,1,8.47-1.93c10.92,0,20.3,7,20.3,21.42,0,11.73-8.67,21.42-20.2,21.42a17.64,17.64,0,0,1-13.66-6.43l-1.23,3.37c-.41,1.12-1.12,2-2.14,2h-4.8a2,2,0,0,1-1.93-1.94Zm21.72,57.33a8.19,8.19,0,0,0,8.27-8.36,8.09,8.09,0,0,0-8.27-8.17,8,8,0,0,0-8.16,8.17A8.1,8.1,0,0,0,1204.08,482.59Z"/><path class="cls-45" d="M1246.62,468.62a19.15,19.15,0,0,1,7.85,1.63c0-4-.61-6-5.51-6a43.1,43.1,0,0,0-10.2,1.53c-1.53.51-2.24-.61-2.45-2.14l-.91-6.43a2.17,2.17,0,0,1,1.53-2.75,70.84,70.84,0,0,1,13.56-1.53c12.65,0,17.24,5.3,17.24,17.34v22.54a2,2,0,0,1-1.94,1.94h-4.49a1.9,1.9,0,0,1-1.83-1.33l-1.43-2.75a17,17,0,0,1-12.34,5.1c-8.06,0-14.08-5.41-14.08-13.47C1231.62,474.43,1237.33,468.62,1246.62,468.62Zm2.65,17.13a4.39,4.39,0,1,0,0-8.77,4.34,4.34,0,0,0-4.39,4.28A4.44,4.44,0,0,0,1249.27,485.75Z"/><path class="cls-45" d="M1297,452.91a19,19,0,0,1,15.3,7.34,2,2,0,0,1-.51,2.86l-6.12,5.81a1.85,1.85,0,0,1-2.24-.2,8.09,8.09,0,0,0-14.08,5.61,8,8,0,0,0,8,8.26c3.57,0,5.3-1.53,6.94-3.16a1.66,1.66,0,0,1,2.24-.41l6.12,5.3c.92.82,1.43,1.84.71,2.86-3.77,5.71-9.07,8.57-16.42,8.57-11.63,0-21.93-9.18-21.93-21.42C1275,462.29,1285.38,452.91,1297,452.91Z"/><path class="cls-45" d="M1321,425.26a2,2,0,0,1,1.94-1.93h11.32a2,2,0,0,1,1.94,1.93v44.17l12.34-14.28a3.43,3.43,0,0,1,2.55-1.22h11.43a1.89,1.89,0,0,1,1.53,3.16l-13.47,15.61,16.33,19a1.83,1.83,0,0,1-1.54,3.06h-13.77a2.56,2.56,0,0,1-1.53-.82l-13.87-17.75v16.63a2,2,0,0,1-1.94,1.94h-11.32a2,2,0,0,1-1.94-1.94Z"/><path class="cls-45" d="M1382.88,476.37a9.93,9.93,0,0,1,9.8,9.79,9.83,9.83,0,0,1-9.8,9.59,9.71,9.71,0,0,1-9.58-9.59A9.82,9.82,0,0,1,1382.88,476.37Zm-4-11-5-28.46V425.26a2,2,0,0,1,1.94-1.93h14.28a2,2,0,0,1,1.94,1.93v11.43l-5,28.66a2.07,2.07,0,0,1-1.94,1.63h-4.28A2.07,2.07,0,0,1,1378.91,465.35Z"/></g><g class="cls-46"><path class="cls-45" d="M601.43,554.71a1.77,1.77,0,0,1,1.71-1.71h10.8a1.77,1.77,0,0,1,1.71,1.71v59.58a1.77,1.77,0,0,1-1.71,1.71h-10.8a1.77,1.77,0,0,1-1.71-1.71Z"/><path class="cls-45" d="M627.89,591.43h-2.34a1.69,1.69,0,0,1-1.62-1.71v-8a1.64,1.64,0,0,1,1.62-1.71h2.34V570a1.77,1.77,0,0,1,1.71-1.71h9.63a1.69,1.69,0,0,1,1.62,1.71v10h6.66a1.65,1.65,0,0,1,1.71,1.71v8a1.71,1.71,0,0,1-1.71,1.71h-6.66v11.25c0,2,1.35,2.16,2.43,2.16a17.57,17.57,0,0,0,3.51-.63,1.58,1.58,0,0,1,2,1.17l2,7.47a1.79,1.79,0,0,1-1.17,2.07s-6.39,2-10.89,2c-6.84,0-10.8-4.32-10.8-12.51Z"/><path class="cls-45" d="M656.15,577.12a1.33,1.33,0,0,1,.09-2c1-.72,6.3-4.68,6.39-10.8a10.39,10.39,0,0,1-3.6.63,6.43,6.43,0,0,1-6.48-6.39c0-3.51,3-6.48,7.11-6.48,3.42,0,8.19,2.61,8.19,10.44,0,9.45-6.3,14.4-8.37,16.11a1.29,1.29,0,0,1-2-.18Z"/><path class="cls-45" d="M672.35,612l3.15-6.21a1.55,1.55,0,0,1,1.89-.72s4.23,2.34,8.1,2.34a1.58,1.58,0,0,0,1.71-1.62c0-.9-.54-2.16-5.13-3.78-7-2.43-10.08-6.48-10.08-12.06,0-6,4.32-10.89,14-10.89,5.67,0,10,1.53,12,2.79.81.54,1.44,1.35.9,2.25l-3.33,6.12a1.59,1.59,0,0,1-1.89.54s-4.14-2.07-7.65-2.07c-1.17,0-2,.27-2,1.26s1,1.8,4.05,2.88c7.29,2.52,12.33,5.4,12.33,12.6,0,6.3-5,11.43-15.21,11.43-5.94,0-10.44-1.53-12.24-3C672.35,613.39,671.9,612.85,672.35,612Z"/><path class="cls-45" d="M740.93,641.29a1.77,1.77,0,0,1-1.71,1.71h-10a1.77,1.77,0,0,1-1.71-1.71V581.71a1.77,1.77,0,0,1,1.71-1.71h4.23c.9,0,1.53.81,1.89,1.8l1.08,3a15.57,15.57,0,0,1,12.06-5.67c10.17,0,17.82,8.55,17.82,18.9,0,12.69-8.28,18.9-17.91,18.9a18.18,18.18,0,0,1-7.47-1.71Zm5.76-36a7.13,7.13,0,0,0,7.29-7.2,7.22,7.22,0,0,0-7.29-7.38,7.15,7.15,0,0,0-7.2,7.38A7.05,7.05,0,0,0,746.69,605.29Z"/><path class="cls-45" d="M784.22,593a16.91,16.91,0,0,1,6.93,1.44c0-3.51-.54-5.31-4.86-5.31a38.2,38.2,0,0,0-9,1.35c-1.35.45-2-.54-2.16-1.89l-.81-5.67a1.92,1.92,0,0,1,1.35-2.43,63,63,0,0,1,12-1.35c11.16,0,15.21,4.68,15.21,15.3v19.89a1.77,1.77,0,0,1-1.71,1.71h-4a1.67,1.67,0,0,1-1.62-1.17l-1.26-2.43a15,15,0,0,1-10.89,4.5C776.3,616.9,771,612.13,771,605,771,598.09,776,593,784.22,593Zm2.34,15.12a3.87,3.87,0,1,0,0-7.74,3.82,3.82,0,0,0-3.87,3.78A3.92,3.92,0,0,0,786.56,608.08Z"/><path class="cls-45" d="M812,581.71a1.71,1.71,0,0,1,1.71-1.71H818a1.63,1.63,0,0,1,1.62,1.08l1.62,4c1.8-2.61,5.13-5.94,9.81-5.94,5,0,8.46,1.8,7.2,3.87l-4.41,7.2a1.53,1.53,0,0,1-2,.81,6.47,6.47,0,0,0-2.16-.45,4.78,4.78,0,0,0-4.77,5.13v18.63c0,1.08-.54,1.71-2,1.71h-9.18a1.77,1.77,0,0,1-1.71-1.71Z"/><path class="cls-45" d="M844.52,591.43h-2.34a1.69,1.69,0,0,1-1.62-1.71v-8a1.64,1.64,0,0,1,1.62-1.71h2.34V570a1.77,1.77,0,0,1,1.71-1.71h9.63a1.69,1.69,0,0,1,1.62,1.71v10h6.66a1.65,1.65,0,0,1,1.71,1.71v8a1.71,1.71,0,0,1-1.71,1.71h-6.66v11.25c0,2,1.35,2.16,2.43,2.16a17.57,17.57,0,0,0,3.51-.63,1.58,1.58,0,0,1,2,1.17l2,7.47a1.79,1.79,0,0,1-1.17,2.07s-6.39,2-10.89,2c-6.84,0-10.8-4.32-10.8-12.51Z"/><path class="cls-45" d="M869.72,582.34a1.59,1.59,0,0,1,1.53-2.34h10.26a1.72,1.72,0,0,1,1.53,1L890,597.73h.18L897.26,581a1.62,1.62,0,0,1,1.53-1H909a1.56,1.56,0,0,1,1.53,2.34L883,641.92a1.8,1.8,0,0,1-1.53,1.08H871.34a1.61,1.61,0,0,1-1.53-2.43l13.41-28.26Z"/><path class="cls-45" d="M937.22,591.43h-2.34a1.69,1.69,0,0,1-1.62-1.71v-8a1.64,1.64,0,0,1,1.62-1.71h2.34V570a1.77,1.77,0,0,1,1.71-1.71h9.63a1.69,1.69,0,0,1,1.62,1.71v10h6.66a1.65,1.65,0,0,1,1.71,1.71v8a1.71,1.71,0,0,1-1.71,1.71h-6.66v11.25c0,2,1.35,2.16,2.43,2.16a17.57,17.57,0,0,0,3.51-.63,1.58,1.58,0,0,1,2,1.17l2,7.47a1.79,1.79,0,0,1-1.17,2.07s-6.39,2-10.89,2c-6.84,0-10.8-4.32-10.8-12.51Z"/><path class="cls-45" d="M966.2,562a7.14,7.14,0,0,1,7.11-7.2,7.22,7.22,0,0,1,7.2,7.2,7.14,7.14,0,0,1-7.2,7.11A7.07,7.07,0,0,1,966.2,562Zm.54,19.71a1.71,1.71,0,0,1,1.71-1.71h9.9a1.71,1.71,0,0,1,1.71,1.71v32.58a1.77,1.77,0,0,1-1.71,1.71h-9.9a1.77,1.77,0,0,1-1.71-1.71Z"/><path class="cls-45" d="M989.78,581.71a1.65,1.65,0,0,1,1.71-1.71h4.14a1.83,1.83,0,0,1,1.53,1l1.53,3.69a17,17,0,0,1,12.15-5.58c5,0,8.55,1.89,11.79,5.49a17.67,17.67,0,0,1,12.42-5.49c11.16,0,16.65,8.64,16.65,18.9v16.29A1.71,1.71,0,0,1,1050,616h-9.54a1.71,1.71,0,0,1-1.71-1.71V597.46c0-3.6-1.89-6.75-6-6.75a6.11,6.11,0,0,0-6,6.12v17.46A1.71,1.71,0,0,1,1025,616h-8.64a1.71,1.71,0,0,1-1.71-1.71V597.46c0-3.6-1.62-6.75-5.67-6.75a6.1,6.1,0,0,0-6.3,6.3v17.28a1.77,1.77,0,0,1-1.71,1.71h-9.45a1.71,1.71,0,0,1-1.71-1.71Z"/><path class="cls-45" d="M1076.45,579.1a16.82,16.82,0,0,1,17.1,16.92,22.07,22.07,0,0,1-.18,2.43,1.74,1.74,0,0,1-1.71,1.53h-21.6a6.68,6.68,0,0,0,6.93,5.94,11.73,11.73,0,0,0,6.3-2.16,1.57,1.57,0,0,1,2.25,0l4.5,5.4a1.94,1.94,0,0,1-.09,2.61,18.32,18.32,0,0,1-13.32,5.13,18.9,18.9,0,0,1-.18-37.8Zm4.41,13.86a4.85,4.85,0,0,0-4.77-4.23,5,5,0,0,0-4.86,4.23Z"/></g><path class="cls-47" d="M685,335l-22.54-34.07a1.88,1.88,0,0,1,1.63-2.95H677.3a2,2,0,0,1,1.63.91l14.18,20.91,14.18-20.91a1.89,1.89,0,0,1,1.63-.91h13.26a1.88,1.88,0,0,1,1.63,2.95l-22.85,34v32.54a2,2,0,0,1-1.93,1.94H686.89a1.94,1.94,0,0,1-1.94-1.94Z"/><path class="cls-47" d="M732,343.22a19.23,19.23,0,0,1,7.86,1.63c0-4-.62-6-5.51-6a43,43,0,0,0-10.2,1.53c-1.53.51-2.25-.61-2.45-2.14l-.92-6.43a2.17,2.17,0,0,1,1.53-2.75,71.1,71.1,0,0,1,13.57-1.53c12.65,0,17.24,5.3,17.24,17.34v22.54a2,2,0,0,1-1.94,1.94h-4.49a1.91,1.91,0,0,1-1.84-1.33l-1.42-2.75a17.07,17.07,0,0,1-12.35,5.1c-8,0-14.07-5.41-14.07-13.47C717,349,722.69,343.22,732,343.22Zm2.65,17.13a4.39,4.39,0,1,0,0-8.77,4.33,4.33,0,0,0-4.38,4.28A4.44,4.44,0,0,0,734.62,360.35Z"/><path class="cls-47" d="M775.73,343.22a19.15,19.15,0,0,1,7.85,1.63c0-4-.61-6-5.51-6a43.17,43.17,0,0,0-10.2,1.53c-1.53.51-2.24-.61-2.44-2.14l-.92-6.43A2.17,2.17,0,0,1,766,329a71.07,71.07,0,0,1,13.56-1.53c12.65,0,17.24,5.3,17.24,17.34v22.54a2,2,0,0,1-1.93,1.94h-4.49a1.9,1.9,0,0,1-1.84-1.33l-1.43-2.75a17,17,0,0,1-12.34,5.1c-8.06,0-14.08-5.41-14.08-13.47C760.73,349,766.45,343.22,775.73,343.22Zm2.65,17.13a4.39,4.39,0,1,0,0-8.77,4.34,4.34,0,0,0-4.39,4.28A4.44,4.44,0,0,0,778.38,360.35Z"/><path class="cls-47" d="M819.48,343.22a19.23,19.23,0,0,1,7.86,1.63c0-4-.61-6-5.51-6a43.1,43.1,0,0,0-10.2,1.53c-1.53.51-2.24-.61-2.45-2.14l-.92-6.43a2.18,2.18,0,0,1,1.53-2.75,71.1,71.1,0,0,1,13.57-1.53c12.65,0,17.24,5.3,17.24,17.34v22.54a2,2,0,0,1-1.94,1.94h-4.49a1.9,1.9,0,0,1-1.83-1.33l-1.43-2.75a17.06,17.06,0,0,1-12.34,5.1c-8.06,0-14.08-5.41-14.08-13.47C804.49,349,810.2,343.22,819.48,343.22Zm2.66,17.13a4.39,4.39,0,1,0,0-8.77,4.34,4.34,0,0,0-4.39,4.28A4.44,4.44,0,0,0,822.14,360.35Z"/><path class="cls-47" d="M845.8,331.18a1.8,1.8,0,0,1,1.73-2.65h11.63a2,2,0,0,1,1.74,1.12l7.85,19h.2l8.06-19a1.84,1.84,0,0,1,1.74-1.12h11.52a1.77,1.77,0,0,1,1.74,2.65l-31.22,67.53a2,2,0,0,1-1.73,1.22H847.63a1.83,1.83,0,0,1-1.73-2.75l15.2-32Z"/><path class="cls-47" d="M904.45,351.17c5,0,12,3.88,12,15.4,0,14.08-9.29,21.22-12.24,23.87a2,2,0,0,1-2.86,0L899.25,388a1.83,1.83,0,0,1,.2-2.86c1.23-1,9.08-6.83,9.18-15.91a13,13,0,0,1-5.3,1.12,9.61,9.61,0,0,1-9.49-9.49C893.84,355.66,898.23,351.17,904.45,351.17Z"/><path class="cls-47" d="M942.39,331.18a1.8,1.8,0,0,1,1.74-2.65h11.62a2,2,0,0,1,1.74,1.12l7.85,19h.21l8.06-19a1.82,1.82,0,0,1,1.73-1.12h11.53a1.77,1.77,0,0,1,1.73,2.65l-31.21,67.53a2,2,0,0,1-1.74,1.22H944.23a1.83,1.83,0,0,1-1.74-2.75l15.2-32Z"/><path class="cls-47" d="M1012.77,327.51a21.42,21.42,0,1,1-21.21,21.32A21.49,21.49,0,0,1,1012.77,327.51Zm0,29.68a8.21,8.21,0,0,0,8.06-8.36,8.06,8.06,0,1,0-16.12,0A8.21,8.21,0,0,0,1012.77,357.19Z"/><path class="cls-47" d="M1040.92,330.46a1.93,1.93,0,0,1,1.94-1.93h10.92a1.92,1.92,0,0,1,1.93,1.93v18.88c0,4.18,2.35,7.85,6.53,7.85,4,0,6.12-3.77,6.12-7.24V330.46c0-1.63,1.12-1.93,2.14-1.93h10.41a1.93,1.93,0,0,1,1.94,1.93v36.93a2,2,0,0,1-1.94,1.94h-4.79a2.24,2.24,0,0,1-1.94-1.43l-1.53-3.77c-2.66,2.55-5.92,6.22-13.77,6.22-12.14,0-18-9.79-18-21.42Z"/><path class="cls-47" d="M1120.18,354.44s-3-3.06-3-9.29a18,18,0,0,1,18-17.64h19.28a1.87,1.87,0,0,1,1.94,1.93v4.19a2.08,2.08,0,0,1-1.12,1.73l-5.92,2.14s3.88,3.17,3.88,9.9c0,7.44-6.84,15.4-17.65,15.4h-7.35c-2.14,0-3.36,1.12-3.36,2.75,0,1.94,1.73,2.76,3.26,2.76h12.24c9.59,0,17.55,5.81,17.55,14.89,0,9.79-6.84,17.75-23,17.75-15.81,0-21.32-7.45-21.32-13.87,0-6.12,5.1-9.18,6.22-9.79V377a11.77,11.77,0,0,1-7.85-11.32C1112,357.6,1120.18,354.44,1120.18,354.44ZM1135,389c5.1,0,7.34-2,7.34-4.8,0-2.14-1.83-4.28-7.34-4.28-3.68,0-7.35,1.32-7.35,4.28S1130.07,389,1135,389Zm.61-37.64a5.31,5.31,0,1,0-5.41-5.31A5.24,5.24,0,0,0,1135.58,351.38Z"/><path class="cls-47" d="M1181.89,327.51a21.42,21.42,0,1,1-21.22,21.32A21.48,21.48,0,0,1,1181.89,327.51Zm0,29.68a8.21,8.21,0,0,0,8.06-8.36,8.06,8.06,0,1,0-16.12,0A8.21,8.21,0,0,0,1181.89,357.19Z"/><path class="cls-47" d="M1212.59,341.48h-2.65a1.92,1.92,0,0,1-1.84-1.94v-9.08a1.85,1.85,0,0,1,1.84-1.93h2.65V317.2a2,2,0,0,1,1.94-1.93h10.91a1.91,1.91,0,0,1,1.84,1.93v11.33h7.54a1.87,1.87,0,0,1,1.94,1.93v9.08a1.93,1.93,0,0,1-1.94,1.94h-7.54v12.75c0,2.25,1.53,2.45,2.75,2.45a20.22,20.22,0,0,0,4-.71,1.77,1.77,0,0,1,2.24,1.32l2.25,8.47a2,2,0,0,1-1.33,2.34s-7.24,2.25-12.34,2.25c-7.75,0-12.24-4.9-12.24-14.18Z"/><path class="cls-47" d="M1270.22,341.48h-2.66a1.91,1.91,0,0,1-1.83-1.94v-9.08a1.84,1.84,0,0,1,1.83-1.93h2.66V317.2a2,2,0,0,1,1.93-1.93h10.92a1.91,1.91,0,0,1,1.83,1.93v11.33h7.55a1.87,1.87,0,0,1,1.94,1.93v9.08a1.93,1.93,0,0,1-1.94,1.94h-7.55v12.75c0,2.25,1.54,2.45,2.76,2.45a20.22,20.22,0,0,0,4-.71,1.77,1.77,0,0,1,2.24,1.32l2.25,8.47a2,2,0,0,1-1.33,2.34s-7.24,2.25-12.34,2.25c-7.76,0-12.24-4.9-12.24-14.18Z"/><path class="cls-47" d="M1303.67,299.86a2,2,0,0,1,1.94-1.93h11.32a2,2,0,0,1,1.94,1.93v30a21.7,21.7,0,0,1,9.49-2.34c12.85,0,19.48,10.09,19.48,21.42v18.46a2,2,0,0,1-1.94,1.94h-10.81a1.94,1.94,0,0,1-1.94-1.94V348.72c0-4.48-3-8.05-7.44-8.05-3.27,0-6.84,1.83-6.84,8.05v18.67c0,1.33-.51,1.94-2.24,1.94h-11a2,2,0,0,1-1.94-1.94Z"/><path class="cls-47" d="M1375.79,327.51a19.06,19.06,0,0,1,19.38,19.17,23.3,23.3,0,0,1-.21,2.76,2,2,0,0,1-1.93,1.73h-24.49a7.57,7.57,0,0,0,7.86,6.73,13.31,13.31,0,0,0,7.14-2.44,1.77,1.77,0,0,1,2.55,0l5.1,6.12a2.2,2.2,0,0,1-.1,2.95c-3.57,3.57-8.67,5.82-15.1,5.82a21.42,21.42,0,0,1-.2-42.84Zm5,15.71a5.51,5.51,0,0,0-5.41-4.8,5.68,5.68,0,0,0-5.51,4.8Z"/><path class="cls-47" d="M929.54,452.86a1.87,1.87,0,0,1,1.94-1.93h4.69a2.08,2.08,0,0,1,1.74,1.12l1.73,4.18c2.55-2.65,7.24-6.32,13.77-6.32,5.71,0,9.69,2.14,13.36,6.22a20,20,0,0,1,14.08-6.22c12.65,0,18.87,9.79,18.87,21.42v18.46a1.94,1.94,0,0,1-1.94,1.94H987a1.94,1.94,0,0,1-1.94-1.94V470.72c0-4.08-2.14-7.66-6.83-7.66a6.93,6.93,0,0,0-6.84,6.94v19.79a1.93,1.93,0,0,1-1.93,1.94h-9.8a1.93,1.93,0,0,1-1.93-1.94V470.72c0-4.08-1.84-7.66-6.43-7.66a6.92,6.92,0,0,0-7.14,7.15v19.58a2,2,0,0,1-1.94,1.94H931.48a1.94,1.94,0,0,1-1.94-1.94Z"/><path class="cls-47" d="M1027.77,449.91a21.42,21.42,0,1,1-21.22,21.32A21.48,21.48,0,0,1,1027.77,449.91Zm0,29.68a8.21,8.21,0,0,0,8.06-8.36,8.06,8.06,0,1,0-16.12,0A8.21,8.21,0,0,0,1027.77,479.59Z"/><path class="cls-47" d="M1074.89,449.91a21.42,21.42,0,1,1-21.22,21.32A21.49,21.49,0,0,1,1074.89,449.91Zm0,29.68a8.21,8.21,0,0,0,8.06-8.36,8.06,8.06,0,1,0-16.12,0A8.21,8.21,0,0,0,1074.89,479.59Z"/><path class="cls-47" d="M1104,452.86a1.93,1.93,0,0,1,1.94-1.93h4.79a2.28,2.28,0,0,1,1.84,1.22l1.63,4.08a19.22,19.22,0,0,1,14.38-6.32c12.65,0,19.38,9.69,19.38,21.32v18.56a2,2,0,0,1-1.94,1.94h-10.91a1.94,1.94,0,0,1-1.94-1.94V470.72c0-4.08-2.34-7.66-6.93-7.66-4.08,0-7.76,3-7.76,7.15v19.58a1.72,1.72,0,0,1-1.83,1.94H1105.9a2,2,0,0,1-1.94-1.94Z"/><path class="cls-47" d="M1180.36,422.26a2,2,0,0,1,1.93-1.93h11.33a2,2,0,0,1,1.93,1.93v29.58a20.73,20.73,0,0,1,8.47-1.93c10.92,0,20.3,7,20.3,21.42,0,11.73-8.67,21.42-20.2,21.42a17.64,17.64,0,0,1-13.66-6.43l-1.23,3.37c-.41,1.12-1.12,2-2.14,2h-4.8a2,2,0,0,1-1.93-1.94Zm21.72,57.33a8.19,8.19,0,0,0,8.27-8.36,8.09,8.09,0,0,0-8.27-8.17,8,8,0,0,0-8.16,8.17A8.1,8.1,0,0,0,1202.08,479.59Z"/><path class="cls-47" d="M1244.62,465.62a19.15,19.15,0,0,1,7.85,1.63c0-4-.61-6-5.51-6a43.1,43.1,0,0,0-10.2,1.53c-1.53.51-2.24-.61-2.45-2.14l-.91-6.43a2.17,2.17,0,0,1,1.53-2.75,70.84,70.84,0,0,1,13.56-1.53c12.65,0,17.24,5.3,17.24,17.34v22.54a2,2,0,0,1-1.94,1.94h-4.49a1.9,1.9,0,0,1-1.83-1.33l-1.43-2.75a17,17,0,0,1-12.34,5.1c-8.06,0-14.08-5.41-14.08-13.47C1229.62,471.43,1235.33,465.62,1244.62,465.62Zm2.65,17.13a4.39,4.39,0,1,0,0-8.77,4.34,4.34,0,0,0-4.39,4.28A4.44,4.44,0,0,0,1247.27,482.75Z"/><path class="cls-47" d="M1295,449.91a19,19,0,0,1,15.3,7.34,2,2,0,0,1-.51,2.86l-6.12,5.81a1.85,1.85,0,0,1-2.24-.2,8.09,8.09,0,0,0-14.08,5.61,8,8,0,0,0,8,8.26c3.57,0,5.3-1.53,6.94-3.16a1.66,1.66,0,0,1,2.24-.41l6.12,5.3c.92.82,1.43,1.84.71,2.86-3.77,5.71-9.07,8.57-16.42,8.57-11.63,0-21.93-9.18-21.93-21.42C1273,459.29,1283.38,449.91,1295,449.91Z"/><path class="cls-47" d="M1319,422.26a2,2,0,0,1,1.94-1.93h11.32a2,2,0,0,1,1.94,1.93v44.17l12.34-14.28a3.43,3.43,0,0,1,2.55-1.22h11.43a1.89,1.89,0,0,1,1.53,3.16l-13.47,15.61,16.33,19a1.83,1.83,0,0,1-1.54,3.06h-13.77a2.56,2.56,0,0,1-1.53-.82l-13.87-17.75v16.63a2,2,0,0,1-1.94,1.94h-11.32a2,2,0,0,1-1.94-1.94Z"/><path class="cls-47" d="M1380.88,473.37a9.93,9.93,0,0,1,9.8,9.79,9.83,9.83,0,0,1-9.8,9.59,9.71,9.71,0,0,1-9.58-9.59A9.82,9.82,0,0,1,1380.88,473.37Zm-4-11-5-28.46V422.26a2,2,0,0,1,1.94-1.93h14.28a2,2,0,0,1,1.94,1.93v11.43l-5,28.66a2.07,2.07,0,0,1-1.94,1.63h-4.28A2.07,2.07,0,0,1,1376.91,462.35Z"/><path class="cls-47" d="M598.43,550.71a1.77,1.77,0,0,1,1.71-1.71h10.8a1.77,1.77,0,0,1,1.71,1.71v59.58a1.77,1.77,0,0,1-1.71,1.71h-10.8a1.77,1.77,0,0,1-1.71-1.71Z"/><path class="cls-47" d="M624.89,587.43h-2.34a1.69,1.69,0,0,1-1.62-1.71v-8a1.64,1.64,0,0,1,1.62-1.71h2.34V566a1.77,1.77,0,0,1,1.71-1.71h9.63a1.69,1.69,0,0,1,1.62,1.71v10h6.66a1.65,1.65,0,0,1,1.71,1.71v8a1.71,1.71,0,0,1-1.71,1.71h-6.66v11.25c0,2,1.35,2.16,2.43,2.16a17.57,17.57,0,0,0,3.51-.63,1.58,1.58,0,0,1,2,1.17l2,7.47a1.79,1.79,0,0,1-1.17,2.07s-6.39,2-10.89,2c-6.84,0-10.8-4.32-10.8-12.51Z"/><path class="cls-47" d="M653.15,573.12a1.33,1.33,0,0,1,.09-2c1-.72,6.3-4.68,6.39-10.8a10.39,10.39,0,0,1-3.6.63,6.43,6.43,0,0,1-6.48-6.39c0-3.51,3-6.48,7.11-6.48,3.42,0,8.19,2.61,8.19,10.44,0,9.45-6.3,14.4-8.37,16.11a1.29,1.29,0,0,1-2-.18Z"/><path class="cls-47" d="M669.35,608l3.15-6.21a1.55,1.55,0,0,1,1.89-.72s4.23,2.34,8.1,2.34a1.58,1.58,0,0,0,1.71-1.62c0-.9-.54-2.16-5.13-3.78-7-2.43-10.08-6.48-10.08-12.06,0-6,4.32-10.89,14-10.89,5.67,0,10,1.53,12,2.79.81.54,1.44,1.35.9,2.25l-3.33,6.12a1.59,1.59,0,0,1-1.89.54s-4.14-2.07-7.65-2.07c-1.17,0-2,.27-2,1.26s1,1.8,4.05,2.88c7.29,2.52,12.33,5.4,12.33,12.6,0,6.3-5,11.43-15.21,11.43-5.94,0-10.44-1.53-12.24-3C669.35,609.39,668.9,608.85,669.35,608Z"/><path class="cls-47" d="M737.93,637.29a1.77,1.77,0,0,1-1.71,1.71h-10a1.77,1.77,0,0,1-1.71-1.71V577.71a1.77,1.77,0,0,1,1.71-1.71h4.23c.9,0,1.53.81,1.89,1.8l1.08,3a15.57,15.57,0,0,1,12.06-5.67c10.17,0,17.82,8.55,17.82,18.9,0,12.69-8.28,18.9-17.91,18.9a18.18,18.18,0,0,1-7.47-1.71Zm5.76-36a7.13,7.13,0,0,0,7.29-7.2,7.22,7.22,0,0,0-7.29-7.38,7.15,7.15,0,0,0-7.2,7.38A7.05,7.05,0,0,0,743.69,601.29Z"/><path class="cls-47" d="M781.22,589a16.91,16.91,0,0,1,6.93,1.44c0-3.51-.54-5.31-4.86-5.31a38.2,38.2,0,0,0-9,1.35c-1.35.45-2-.54-2.16-1.89l-.81-5.67a1.92,1.92,0,0,1,1.35-2.43,63,63,0,0,1,12-1.35c11.16,0,15.21,4.68,15.21,15.3v19.89a1.77,1.77,0,0,1-1.71,1.71h-4a1.67,1.67,0,0,1-1.62-1.17l-1.26-2.43a15,15,0,0,1-10.89,4.5C773.3,612.9,768,608.13,768,601,768,594.09,773,589,781.22,589Zm2.34,15.12a3.87,3.87,0,1,0,0-7.74,3.82,3.82,0,0,0-3.87,3.78A3.92,3.92,0,0,0,783.56,604.08Z"/><path class="cls-47" d="M809,577.71a1.71,1.71,0,0,1,1.71-1.71H815a1.63,1.63,0,0,1,1.62,1.08l1.62,4c1.8-2.61,5.13-5.94,9.81-5.94,5,0,8.46,1.8,7.2,3.87l-4.41,7.2a1.53,1.53,0,0,1-2,.81,6.47,6.47,0,0,0-2.16-.45,4.78,4.78,0,0,0-4.77,5.13v18.63c0,1.08-.54,1.71-2,1.71h-9.18a1.77,1.77,0,0,1-1.71-1.71Z"/><path class="cls-47" d="M841.52,587.43h-2.34a1.69,1.69,0,0,1-1.62-1.71v-8a1.64,1.64,0,0,1,1.62-1.71h2.34V566a1.77,1.77,0,0,1,1.71-1.71h9.63a1.69,1.69,0,0,1,1.62,1.71v10h6.66a1.65,1.65,0,0,1,1.71,1.71v8a1.71,1.71,0,0,1-1.71,1.71h-6.66v11.25c0,2,1.35,2.16,2.43,2.16a17.57,17.57,0,0,0,3.51-.63,1.58,1.58,0,0,1,2,1.17l2,7.47a1.79,1.79,0,0,1-1.17,2.07s-6.39,2-10.89,2c-6.84,0-10.8-4.32-10.8-12.51Z"/><path class="cls-47" d="M866.72,578.34a1.59,1.59,0,0,1,1.53-2.34h10.26a1.72,1.72,0,0,1,1.53,1L887,593.73h.18L894.26,577a1.62,1.62,0,0,1,1.53-1H906a1.56,1.56,0,0,1,1.53,2.34L880,637.92a1.8,1.8,0,0,1-1.53,1.08H868.34a1.61,1.61,0,0,1-1.53-2.43l13.41-28.26Z"/><path class="cls-47" d="M934.22,587.43h-2.34a1.69,1.69,0,0,1-1.62-1.71v-8a1.64,1.64,0,0,1,1.62-1.71h2.34V566a1.77,1.77,0,0,1,1.71-1.71h9.63a1.69,1.69,0,0,1,1.62,1.71v10h6.66a1.65,1.65,0,0,1,1.71,1.71v8a1.71,1.71,0,0,1-1.71,1.71h-6.66v11.25c0,2,1.35,2.16,2.43,2.16a17.57,17.57,0,0,0,3.51-.63,1.58,1.58,0,0,1,2,1.17l2,7.47a1.79,1.79,0,0,1-1.17,2.07s-6.39,2-10.89,2c-6.84,0-10.8-4.32-10.8-12.51Z"/><path class="cls-47" d="M963.2,558a7.14,7.14,0,0,1,7.11-7.2,7.22,7.22,0,0,1,7.2,7.2,7.14,7.14,0,0,1-7.2,7.11A7.07,7.07,0,0,1,963.2,558Zm.54,19.71a1.71,1.71,0,0,1,1.71-1.71h9.9a1.71,1.71,0,0,1,1.71,1.71v32.58a1.77,1.77,0,0,1-1.71,1.71h-9.9a1.77,1.77,0,0,1-1.71-1.71Z"/><path class="cls-47" d="M986.78,577.71a1.65,1.65,0,0,1,1.71-1.71h4.14a1.83,1.83,0,0,1,1.53,1l1.53,3.69a17,17,0,0,1,12.15-5.58c5,0,8.55,1.89,11.79,5.49a17.67,17.67,0,0,1,12.42-5.49c11.16,0,16.65,8.64,16.65,18.9v16.29A1.71,1.71,0,0,1,1047,612h-9.54a1.71,1.71,0,0,1-1.71-1.71V593.46c0-3.6-1.89-6.75-6-6.75a6.11,6.11,0,0,0-6,6.12v17.46A1.71,1.71,0,0,1,1022,612h-8.64a1.71,1.71,0,0,1-1.71-1.71V593.46c0-3.6-1.62-6.75-5.67-6.75a6.1,6.1,0,0,0-6.3,6.3v17.28a1.77,1.77,0,0,1-1.71,1.71h-9.45a1.71,1.71,0,0,1-1.71-1.71Z"/><path class="cls-47" d="M1073.45,575.1a16.82,16.82,0,0,1,17.1,16.92,22.07,22.07,0,0,1-.18,2.43,1.74,1.74,0,0,1-1.71,1.53h-21.6a6.68,6.68,0,0,0,6.93,5.94,11.73,11.73,0,0,0,6.3-2.16,1.57,1.57,0,0,1,2.25,0l4.5,5.4a1.94,1.94,0,0,1-.09,2.61,18.32,18.32,0,0,1-13.32,5.13,18.9,18.9,0,0,1-.18-37.8Zm4.41,13.86a4.85,4.85,0,0,0-4.77-4.23,5,5,0,0,0-4.86,4.23Z"/></g></g></svg>
