<svg xmlns="http://www.w3.org/2000/svg" width="270" height="170" viewBox="0 0 270 170"><defs><style>.cls-1{fill:#fff;}.cls-2{fill:#9e337a;}.cls-3{fill:#f2d7ea;}.cls-4{fill:#546d23;}.cls-5{fill:#b5c490;}.cls-6{fill:#98a07f;}.cls-7{fill:#484947;}.cls-8{fill:#e0add2;}.cls-9{fill:#aa94a6;}.cls-10{fill:#7b8466;}</style></defs><title>liv_uden_farve</title><g id="andre_ting" data-name="andre ting"><polygon class="cls-1" points="139.82 147.7 119.82 134.7 139.38 124.01 139.82 147.7"/><polygon class="cls-1" points="122.82 158.7 100.82 145.7 119.82 134.7 122.82 158.7"/><polygon class="cls-1" points="100.82 169.7 80.82 155.7 100.82 145.7 100.82 169.7"/><path d="M130.4,80.69a55,55,0,0,1,7.9-3.53c1.33-.52,2.7-.93,4-1.39s2.73-.81,4.1-1.22,2.76-.71,4.15-1,2.78-.63,4.2-.85a55.35,55.35,0,0,1,8.6-1h0a.1.1,0,0,1,.1.1.12.12,0,0,1-.07.1L147,76.48l-16.53,4.41a.1.1,0,0,1-.12-.07.11.11,0,0,1,0-.12Z"/><path d="M59.87,73.38a22.37,22.37,0,0,1,5.43.71c.89.18,1.72.48,2.58.71s1.68.6,2.51.9,1.64.68,2.45,1.06,1.6.77,2.37,1.24a22.78,22.78,0,0,1,4.47,3.17l0,0a.11.11,0,0,1,0,.14.1.1,0,0,1-.1,0l-10-3.8-9.87-4a.09.09,0,0,1,0-.18Z"/><ellipse cx="68.82" cy="81.7" rx="4" ry="5"/><ellipse cx="143.82" cy="82.7" rx="5" ry="6"/><path class="cls-2" d="M205.22,86.15c.3.64,5.28,10.65,25.6,13.55,0,0-2-13-17-22,0,0,20-12,20-26,0,0-20.06-1.84-28,23.08v.08"/><ellipse class="cls-3" cx="145.82" cy="81.2" rx="1" ry="1.5"/><ellipse class="cls-3" cx="70.82" cy="81.2" rx="1" ry="1.5"/><path class="cls-4" d="M190,36.76c1.69-6.8,7.76-14.09,14.44-16.09,0,0-4.61,3.06-6.07,7.28,0,0,5.05,3.94,1.44,8S190,36.76,190,36.76Z"/><path class="cls-5" d="M180.18,153.5c1-27,14-42,18-50,4.12-8.25,18.64-33.8-6.36-56.8,0,0,32,1,16-40,0,0-27-7-32,31,0,0-30-7-45-7-25,0-36,6-46,7,0,0,6-30-10-37-7-3-26,12-28,19-1.65,5.77-.64,18.8,14.36,24.8,0,0-21,31-11,59l-11,10c-.86,4.85-11.09,25,18,41,17.29,9.49,25.64,1.2,34.64-3.8,0,0,28.36,5.8,31.36,18.8"/><path class="cls-1" d="M140.18,145.5,119.8,134.72s5.69-3.72,7.38-5.22c2.51-2.23,9-10,9-10Z"/><polygon class="cls-1" points="122.82 158.7 100.82 145.7 119.82 134.7 122.82 158.7"/><polygon class="cls-1" points="100.82 169.7 80.82 155.7 100.82 145.7 100.82 169.7"/><path class="cls-6" d="M175.82,37.7s-30-7-45-7c-25,0-36,6-46,7,0,0,6-30-10-37-7-3-26,12-28,19-1.65,5.77-.64,18.8,14.36,24.8,0,0-20,17-12,60C79.35,74.14,120.36,51.81,175.82,37.7Z"/><ellipse class="cls-7" cx="45.18" cy="117.5" rx="9" ry="7"/><path class="cls-8" d="M213.82,77.7s20-12,20-26c0,0-20.06-1.84-28,23.08v.08c-.57,0-16.23-.34-30-10.16-14-10-39.83-6.73-57,4-8,5-16,5-31-5s-37.64.8-37.64.8-6,17-1,40l51.64-12.8s10-2,26,10c14,10.5,45,3,56-5,9.15-6.65,21-10.16,22.4-10.55.3.64,5.28,10.65,25.6,13.55C230.82,99.7,228.82,86.7,213.82,77.7Z"/><path d="M130.4,80.69a55,55,0,0,1,7.9-3.53c1.33-.52,2.7-.93,4-1.39s2.73-.81,4.1-1.22,2.76-.71,4.15-1,2.78-.63,4.2-.85a55.35,55.35,0,0,1,8.6-1h0a.1.1,0,0,1,.1.1.12.12,0,0,1-.07.1L147,76.48l-16.53,4.41a.1.1,0,0,1-.12-.07.11.11,0,0,1,0-.12Z"/><path d="M65.22,76.18a22.45,22.45,0,0,1,5.44.71c.89.18,1.72.48,2.58.71s1.68.59,2.51.89,1.64.69,2.44,1.07,1.61.76,2.38,1.23A23.58,23.58,0,0,1,85,84l0,0a.09.09,0,0,1,0,.13.11.11,0,0,1-.11,0L75,80.35l-9.87-4a.09.09,0,0,1-.05-.12.08.08,0,0,1,.08-.06Z"/><ellipse cx="74.18" cy="84.5" rx="4" ry="5"/><ellipse cx="143.82" cy="82.7" rx="5" ry="6"/><path class="cls-9" d="M205.22,86.15c.3.64,5.28,10.65,25.6,13.55,0,0-2-13-17-22,0,0,20-12,20-26,0,0-20.06-1.84-28,23.08v.08"/><ellipse class="cls-3" cx="141.82" cy="82.2" rx="1" ry="1.5"/><ellipse class="cls-3" cx="76.18" cy="84" rx="1" ry="1.5"/><path class="cls-10" d="M190,36.76c1.69-6.8,7.76-14.09,14.44-16.09,0,0-4.61,3.06-6.07,7.28,0,0,5.05,3.94,1.44,8S190,36.76,190,36.76Z"/></g></svg>
