<svg xmlns="http://www.w3.org/2000/svg" width="120" height="100" viewBox="0 0 120 100"><defs><style>.cls-1{fill:none;stroke-width:9px;}.cls-1,.cls-2{stroke:#000;stroke-linecap:round;}.cls-1,.cls-2,.cls-4{stroke-linejoin:round;}.cls-2{fill:#020202;stroke-width:7px;}.cls-3,.cls-4{fill:#fff;}.cls-4{stroke:#fff;}</style></defs><title>lyd</title><g id="taber-forgrund"><line class="cls-1" x1="6" y1="94.5" x2="77" y2="7.5"/><path class="cls-2" d="M22.78,35.6c.07-.07,0-.23,0,.07a10,10,0,0,0-2.4-.29c-6.45,0-11.68,6.21-11.68,13.87s5.23,13.87,11.68,13.87a10,10,0,0,0,1.91-.2v.2L53.88,94V5.5Z"/><path class="cls-3" d="M17.89,36.47c-5,.24-12.68,6.63-7.67,18.88.21.21.41-9.91,8.31-12.11C23.23,41.11,22,36.26,17.89,36.47Z"/><path class="cls-4" d="M40.75,16.34,50,7.5v19S50.5,12.17,40.75,16.34Z"/></g></svg>
