<svg xmlns="http://www.w3.org/2000/svg" width="120" height="100" viewBox="0 0 120 100"><defs><style>.cls-1{fill:none;stroke-width:9px;}.cls-1,.cls-2{stroke:#000;stroke-linecap:round;}.cls-1,.cls-2,.cls-4{stroke-linejoin:round;}.cls-2{fill:#020202;stroke-width:7px;}.cls-3,.cls-4{fill:#fff;}.cls-4{stroke:#fff;}</style></defs><title>lyd_taendt</title><g id="taber-forgrund"><path class="cls-1" d="M78.5,89.5s32-10,32-42c0-26-32-36-32-36"/><path class="cls-1" d="M76.14,71.76S93.61,66.3,93.61,48.83c0-14.2-17.47-19.66-17.47-19.66"/><path class="cls-1" d="M71.09,57.84s6.73-2.1,6.73-8.83c0-5.46-6.73-7.57-6.73-7.57"/><path class="cls-2" d="M22.28,35.6c.07-.07,0-.23,0,.07a10,10,0,0,0-2.4-.29c-6.45,0-11.68,6.21-11.68,13.87s5.23,13.87,11.68,13.87a10,10,0,0,0,1.91-.2v.2L53.38,94V5.5Z"/><path class="cls-3" d="M17.39,36.47c-5,.24-12.68,6.63-7.67,18.88.21.21.41-9.91,8.31-12.11C22.73,41.11,21.49,36.26,17.39,36.47Z"/><path class="cls-4" d="M43.25,16.34,52.5,7.5v19S53,12.17,43.25,16.34Z"/></g></svg>
