<svg xmlns="http://www.w3.org/2000/svg" xmlns:xlink="http://www.w3.org/1999/xlink" width="500" height="500" viewBox="0 0 500 500"><defs><style>.cls-1{filter:url(#AI_Shadow_2);}.cls-2{fill:#ebeced;}.cls-3{fill:#d3d3d3;}.cls-4{fill:#f9f9f9;}.cls-5{fill:#efefef;}.cls-6{fill:#dbdbdb;}.cls-7{fill:#d8d8d8;}.cls-8{fill:#dce1e5;}</style><filter id="AI_Shadow_2" x="-15" y="-15" width="140" height="130" name="AI_Shadow_2"><feGaussianBlur result="blur" stdDeviation="6" in="SourceAlpha"/><feOffset result="offsetBlurredAlpha" dx="8" dy="8" in="blur"/><feMerge><feMergeNode in="offsetBlurredAlpha"/><feMergeNode in="SourceGraphic"/></feMerge></filter></defs><title>måne</title><g id="andre_ting" data-name="andre ting"><g class="cls-1"><circle class="cls-2" cx="243.82" cy="242" r="238.5"/><path class="cls-3" d="M481.73,220.71c11.68,131.2-85.2,247-216.4,258.72A238.27,238.27,0,0,1,57.59,390.48c.21,0,170,59.72,285.73-50,126.8-120.21,44.25-289.26,44.42-289.07A237.89,237.89,0,0,1,481.73,220.71Z"/><path class="cls-4" d="M33.32,200.5c55-205,287-237,398-64,0,0-85-101-205-83S33.32,200.5,33.32,200.5Z"/><ellipse class="cls-5" cx="404.32" cy="216" rx="43" ry="67.5" transform="translate(-16.93 35.22) rotate(-4.89)"/><ellipse class="cls-3" cx="405.15" cy="215.9" rx="36.37" ry="60.82" transform="matrix(1, -0.09, 0.09, 1, -16.92, 35.29)"/><ellipse class="cls-6" cx="105.64" cy="320.55" rx="31.64" ry="51.36" transform="translate(-130.82 79.72) rotate(-26.24)"/><ellipse class="cls-7" cx="254.89" cy="115.53" rx="32.43" ry="21.97"/><ellipse class="cls-8" cx="82.81" cy="171.9" rx="41.12" ry="25.79" transform="translate(-107.3 188.3) rotate(-69.21)"/><ellipse class="cls-4" cx="206.58" cy="235.37" rx="28.85" ry="40.3"/></g></g></svg>
