<svg xmlns="http://www.w3.org/2000/svg" width="477.36" height="477" viewBox="0 0 477.36 477"><defs><style>.cls-1{fill:#ebeced;}.cls-2{fill:#d3d3d3;}.cls-3{fill:#f9f9f9;}.cls-4{fill:#efefef;}.cls-5{fill:#dbdbdb;}.cls-6{fill:#d8d8d8;}.cls-7{fill:#dce1e5;}</style></defs><title>måne_points</title><g id="andre_ting" data-name="andre ting"><circle class="cls-1" cx="238.5" cy="238.5" r="238.5"/><path class="cls-2" d="M476.41,217.21c11.68,131.2-85.2,247-216.4,258.72A238.27,238.27,0,0,1,52.27,387c.21,0,170,59.72,285.73-50C464.8,216.79,382.25,47.74,382.43,47.93A237.92,237.92,0,0,1,476.41,217.21Z"/><path class="cls-3" d="M28,197C83-8,315-40,426,133c0,0-85-101-205-83S28,197,28,197Z"/><ellipse class="cls-4" cx="399" cy="212.5" rx="43" ry="67.5" transform="translate(-16.65 34.75) rotate(-4.89)"/><ellipse class="cls-2" cx="399.83" cy="212.4" rx="36.37" ry="60.82" transform="matrix(1, -0.09, 0.09, 1, -16.64, 34.82)"/><ellipse class="cls-5" cx="100.32" cy="317.05" rx="31.64" ry="51.36" transform="translate(-129.82 77.01) rotate(-26.24)"/><ellipse class="cls-6" cx="249.57" cy="112.03" rx="32.43" ry="21.97"/><ellipse class="cls-7" cx="77.49" cy="168.4" rx="41.12" ry="25.79" transform="translate(-107.46 181.07) rotate(-69.21)"/><ellipse class="cls-3" cx="201.26" cy="231.87" rx="28.85" ry="40.3"/></g></svg>
