<svg xmlns="http://www.w3.org/2000/svg" xmlns:xlink="http://www.w3.org/1999/xlink" width="1920" height="1080" viewBox="0 0 1920 1080"><defs><style>.cls-1{fill:url(#linear-gradient);}</style><linearGradient id="linear-gradient" x1="962.69" y1="757.74" x2="959.08" y2="1050.38" gradientUnits="userSpaceOnUse"><stop offset="0.02" stop-color="#3d776c"/><stop offset="0.23" stop-color="#30665c"/><stop offset="0.42" stop-color="#275b51"/></linearGradient></defs><title>middleground_game</title><g id="himler"><path class="cls-1" d="M1533.85,655.4c-7.07-11.56-20.69-19.4-36.35-19.4-13.65,0-25.77,6-33.33,15.16-26.22-1.52-53.05-3-80.34-4.39-13.71-19.34-43.49-33.74-78.72-35.68-36.44-2-68.56,9.87-83.75,28.67-84.53-3-170.6-4.76-254.36-4.76-176.41,0-362.81,7.86-524.26,17.43A41,41,0,0,0,361,657c0,.18,0,.35,0,.53C152.09,671.25,2,686.16,2,686.16L0,1104H1920l2-417.84S1757.5,669.66,1533.85,655.4Z"/></g></svg>
