<svg xmlns="http://www.w3.org/2000/svg" width="460" height="365" viewBox="0 0 460 365"><defs><style>.cls-1{fill:#2a0d59;}.cls-2{fill:#441982;}.cls-3{fill:#5e25a0;}.cls-4{fill:#f9b732;}.cls-5{fill:#e29c40;}.cls-6{fill:#fff;}.cls-7{fill:#f9cf8c;}.cls-8{fill:#b2ff6e;}.cls-9{fill:#cc883e;}.cls-10{fill:#8167a5;}.cls-11{fill:#e538ac;}</style></defs><title>naebdyr_fest</title><g id="næbdyr"><rect class="cls-1" x="163.36" y="254.58" width="10.83" height="70.41"/><path class="cls-1" d="M126.54,316.78c36.4-20.06,67.77-6.48,62.13,14.55C186,341.22,167.8,350,158.79,355c-3,1.65,0,0,0,0s-14.72,6.63-13.76-3c.78-7.85-8.41-4-10.56-3.59s-10.09,2.18-8.62-5.05c1.16-5.71-3.88-6.82-8.62-5-4.18,1.58-14.5.47-7.94-7.36C114.72,324.43,126.54,316.78,126.54,316.78Z"/><path class="cls-2" d="M191.35,322.45c36.16-20.47,67.69-7.27,62.29,13.83-2.53,9.92-20.65,18.94-29.6,24h0c-.13.06-14.64,6.81-13.79-2.85.69-7.85-8.45-3.88-10.6-3.46s-10.07,2.3-8.68-4.94c1.1-5.73-4-6.78-8.68-4.94-4.16,1.62-14.49.64-8-7.28C179.61,330.24,191.35,322.45,191.35,322.45Z"/><rect class="cls-2" x="226.19" y="254.58" width="10.83" height="70.41"/><path class="cls-3" d="M375.16,30.18s56.83,24.64,73,52c13,22,13,40-5,64-15,19-38,35-58,50s-37,18-56,25-34-125-34-125,12-6,24-30S341.16,22.18,375.16,30.18Z"/><path class="cls-2" d="M400.16,43.18s31.83,11.64,48,39c13,22,13,40-5,64-15,19-38,35-58,50s-37,18-56,25c-17,6.27-4.38-29.32-2.38-35a3.72,3.72,0,0,1,1.23-1.69c8.2-6.28,63.15-37.35,83.15-68.35C426.8,91.94,400.16,43.18,400.16,43.18Z"/><path class="cls-4" d="M104.66,94.68s-94,5-98,52-1,76,0,88,0,31,48,40,90.67,16.85,210,6c33-3,65-28,66-59s3-67,0-81c-2.25-10.48,1.12-32.75-32.75-44.1-11.36-3.81-26.91-6.4-48.25-6.9C164.66,87.68,104.66,94.68,104.66,94.68Z"/><path class="cls-5" d="M320.16,198.18c-27,50-44,51-83,63-79.2,24.37-184,13-181.5,13.5,47.89,9.58,90.67,16.85,210,6,33-3,65-28,66-59s4.5-61.5-1.5-93.5C330.16,128.18,337.59,165.9,320.16,198.18Z"/><path class="cls-6" d="M111.16,171.18a24.36,24.36,0,0,1-24,24c-13,0-22-11-22-24s13-25,26-25S111.16,158.68,111.16,171.18Z"/><path class="cls-6" d="M270.16,181.18c0,13-8,24-21,24s-22-11-22-24,13.31-27.72,26-25C267.16,159.18,270.16,168.68,270.16,181.18Z"/><path d="M104.16,172.68c1,10.5-8.3,22.66-18,20.5-9-2-19.79-9.32-18-20.5,2-12.5,8.06-20.5,18-20.5S103.09,161.41,104.16,172.68Z"/><path d="M268.16,181.18c0,12.17-3.55,18.39-14,21-8,2-18-4.57-18-17s4.51-25,15-25S268.16,171.18,268.16,181.18Z"/><path class="cls-7" d="M156.16,173.18l46,3s23-2,15,27-13,38-13,38a39.08,39.08,0,0,1-38,18c-18-2-67-7-83-11s-14-18-14-18a16.9,16.9,0,0,1,6-14c7-6,56-39,56-39A56.67,56.67,0,0,1,156.16,173.18Z"/><ellipse cx="170.78" cy="222.13" rx="5.57" ry="3.68" transform="translate(-96.78 305.32) rotate(-69.72)"/><ellipse cx="133.78" cy="218.13" rx="5.57" ry="3.68" transform="translate(-117.2 268) rotate(-69.72)"/><ellipse class="cls-6" cx="92.16" cy="163.18" rx="4" ry="5"/><ellipse class="cls-6" cx="248.66" cy="169.18" rx="4.5" ry="5"/><path class="cls-3" d="M375.16,30.18s56.83,24.64,73,52c13,22,13,40-5,64-15,19-38,35-58,50s-37,18-56,25-34-125-34-125,12-6,24-30S341.16,22.18,375.16,30.18Z"/><path class="cls-2" d="M400.16,43.18s31.83,11.64,48,39c13,22,13,40-5,64-15,19-38,35-58,50s-37,18-56,25c-17,6.27-4.38-29.32-2.38-35a3.72,3.72,0,0,1,1.23-1.69c8.2-6.28,63.15-37.35,83.15-68.35C426.8,91.94,400.16,43.18,400.16,43.18Z"/><path class="cls-4" d="M104.66,94.68s-94,5-98,52-1,76,0,88,0,31,48,40,90.67,16.85,210,6c33-3,65-28,66-59s3-67,0-81c-2.25-10.48,1.12-32.75-32.75-44.1-11.36-3.81-26.91-6.4-48.25-6.9C164.66,87.68,104.66,94.68,104.66,94.68Z"/><path class="cls-5" d="M320.16,198.18c-27,50-44,51-83,63-79.2,24.37-184,13-181.5,13.5,47.89,9.58,90.67,16.85,210,6,33-3,65-28,66-59s4.5-61.5-1.5-93.5C330.16,128.18,337.59,165.9,320.16,198.18Z"/><path class="cls-8" d="M111.16,171.18a24.36,24.36,0,0,1-24,24c-13,0-22-11-22-24s13-25,26-25S111.16,158.68,111.16,171.18Z"/><path class="cls-8" d="M270.16,181.18c0,13-8,24-21,24s-22-11-22-24,13.31-27.72,26-25C267.16,159.18,270.16,168.68,270.16,181.18Z"/><path d="M104.16,172.68c1,10.5-8.3,22.66-18,20.5-9-2-19.79-9.32-18-20.5,2-12.5,8.06-20.5,18-20.5S103.09,161.41,104.16,172.68Z"/><path d="M263.16,180.18c0,12.17-3.55,18.39-14,21-8,2-18-4.57-18-17s4.51-25,15-25S263.16,170.18,263.16,180.18Z"/><path class="cls-7" d="M156.16,173.18l46,3s23-2,15,27-13,38-13,38a39.08,39.08,0,0,1-38,18c-18-2-67-7-83-11s-14-18-14-18a16.9,16.9,0,0,1,6-14c7-6,56-39,56-39A56.67,56.67,0,0,1,156.16,173.18Z"/><ellipse cx="170.78" cy="222.13" rx="5.57" ry="3.68" transform="translate(-96.78 305.32) rotate(-69.72)"/><ellipse cx="133.78" cy="218.13" rx="5.57" ry="3.68" transform="translate(-117.2 268) rotate(-69.72)"/><ellipse class="cls-6" cx="92.16" cy="163.18" rx="4" ry="5"/><ellipse class="cls-6" cx="252.66" cy="169.18" rx="4.5" ry="5"/><rect class="cls-1" x="163.36" y="254.58" width="10.83" height="70.41"/><path class="cls-1" d="M126.54,316.78c36.4-20.06,67.77-6.48,62.13,14.55C186,341.22,167.8,350,158.79,355c-3,1.65,0,0,0,0s-14.72,6.63-13.76-3c.78-7.85-8.41-4-10.56-3.59s-10.09,2.18-8.62-5.05c1.16-5.71-3.88-6.82-8.62-5-4.18,1.58-14.5.47-7.94-7.36C114.72,324.43,126.54,316.78,126.54,316.78Z"/><path class="cls-2" d="M191.35,322.45c36.16-20.47,67.69-7.27,62.29,13.83-2.53,9.92-20.65,18.94-29.6,24h0c-.13.06-14.64,6.81-13.79-2.85.69-7.85-8.45-3.88-10.6-3.46s-10.07,2.3-8.68-4.94c1.1-5.73-4-6.78-8.68-4.94-4.16,1.62-14.49.64-8-7.28C179.61,330.24,191.35,322.45,191.35,322.45Z"/><rect class="cls-2" x="226.19" y="254.58" width="10.83" height="70.41"/><path class="cls-3" d="M375.16,30.18s56.83,24.64,73,52c13,22,13,40-5,64-15,19-38,35-58,50s-37,18-56,25-34-125-34-125,12-6,24-30S341.16,22.18,375.16,30.18Z"/><path class="cls-2" d="M400.16,43.18s31.83,11.64,48,39c13,22,13,40-5,64-15,19-38,35-58,50s-37,18-56,25c-17,6.27-4.38-29.32-2.38-35a3.72,3.72,0,0,1,1.23-1.69c8.2-6.28,63.15-37.35,83.15-68.35C426.8,91.94,400.16,43.18,400.16,43.18Z"/><path class="cls-4" d="M104.66,94.68s-94,5-98,52-1,76,0,88,0,31,48,40,90.67,16.85,210,6c33-3,65-28,66-59s3-67,0-81c-2.25-10.48,1.12-32.75-32.75-44.1-11.36-3.81-26.91-6.4-48.25-6.9C164.66,87.68,104.66,94.68,104.66,94.68Z"/><path class="cls-5" d="M320.16,198.18c-27,50-44,51-83,63-79.2,24.37-184,13-181.5,13.5,47.89,9.58,90.67,16.85,210,6,33-3,65-28,66-59s4.5-61.5-1.5-93.5C330.16,128.18,337.59,165.9,320.16,198.18Z"/><path class="cls-6" d="M111.16,171.18a24.36,24.36,0,0,1-24,24c-13,0-22-11-22-24s13-25,26-25S111.16,158.68,111.16,171.18Z"/><path class="cls-6" d="M270.16,181.18c0,13-8,24-21,24s-22-11-22-24,13.31-27.72,26-25C267.16,159.18,270.16,168.68,270.16,181.18Z"/><path d="M104.16,172.68c1,10.5-8.3,22.66-18,20.5-9-2-19.79-9.32-18-20.5,2-12.5,8.06-20.5,18-20.5S103.09,161.41,104.16,172.68Z"/><path d="M268.16,181.18c0,12.17-3.55,18.39-14,21-8,2-18-4.57-18-17s4.51-25,15-25S268.16,171.18,268.16,181.18Z"/><path class="cls-7" d="M156.16,173.18l46,3s23-2,15,27-13,38-13,38a39.08,39.08,0,0,1-38,18c-18-2-67-7-83-11s-14-18-14-18a16.9,16.9,0,0,1,6-14c7-6,56-39,56-39A56.67,56.67,0,0,1,156.16,173.18Z"/><ellipse cx="170.78" cy="222.13" rx="5.57" ry="3.68" transform="translate(-96.78 305.32) rotate(-69.72)"/><ellipse cx="133.78" cy="218.13" rx="5.57" ry="3.68" transform="translate(-117.2 268) rotate(-69.72)"/><ellipse class="cls-6" cx="92.16" cy="163.18" rx="4" ry="5"/><ellipse class="cls-6" cx="248.66" cy="169.18" rx="4.5" ry="5"/><path class="cls-3" d="M375.16,30.18s56.83,24.64,73,52c13,22,13,40-5,64-15,19-38,35-58,50s-37,18-56,25-34-125-34-125,12-6,24-30S341.16,22.18,375.16,30.18Z"/><path class="cls-2" d="M400.16,43.18s31.83,11.64,48,39c13,22,13,40-5,64-15,19-38,35-58,50s-37,18-56,25c-17,6.27-4.38-29.32-2.38-35a3.72,3.72,0,0,1,1.23-1.69c8.2-6.28,63.15-37.35,83.15-68.35C426.8,91.94,400.16,43.18,400.16,43.18Z"/><path class="cls-4" d="M104.66,94.68s-94,5-98,52-1,76,0,88,0,31,48,40,90.67,16.85,210,6c33-3,65-28,66-59s3-67,0-81c-2.25-10.48,1.12-32.75-32.75-44.1-11.36-3.81-26.91-6.4-48.25-6.9C164.66,87.68,104.66,94.68,104.66,94.68Z"/><path class="cls-5" d="M320.16,198.18c-27,50-44,51-83,63-79.2,24.37-184,13-181.5,13.5,47.89,9.58,90.67,16.85,210,6,33-3,65-28,66-59s4.5-61.5-1.5-93.5C330.16,128.18,337.59,165.9,320.16,198.18Z"/><path class="cls-8" d="M111.16,171.18a24.36,24.36,0,0,1-24,24c-13,0-22-11-22-24s13-25,26-25S111.16,158.68,111.16,171.18Z"/><path class="cls-8" d="M270.16,181.18c0,13-8,24-21,24s-22-11-22-24,13.31-27.72,26-25C267.16,159.18,270.16,168.68,270.16,181.18Z"/><path d="M104.16,172.68c1,10.5-8.3,22.66-18,20.5-9-2-19.79-9.32-18-20.5,2-12.5,8.06-20.5,18-20.5S103.09,161.41,104.16,172.68Z"/><path d="M263.16,180.18c0,12.17-3.55,18.39-14,21-8,2-18-4.57-18-17s4.51-25,15-25S263.16,170.18,263.16,180.18Z"/><path class="cls-7" d="M156.16,173.18l46,3s23-2,15,27-13,38-13,38a39.08,39.08,0,0,1-38,18c-18-2-67-7-83-11s-14-18-14-18a16.9,16.9,0,0,1,6-14c7-6,56-39,56-39A56.67,56.67,0,0,1,156.16,173.18Z"/><ellipse cx="170.78" cy="222.13" rx="5.57" ry="3.68" transform="translate(-96.78 305.32) rotate(-69.72)"/><ellipse cx="133.78" cy="218.13" rx="5.57" ry="3.68" transform="translate(-117.2 268) rotate(-69.72)"/><ellipse class="cls-6" cx="92.16" cy="163.18" rx="4" ry="5"/><ellipse class="cls-6" cx="252.66" cy="169.18" rx="4.5" ry="5"/></g><g id="andre_ting" data-name="andre ting"><path class="cls-9" d="M58.89,186.1a21,21,0,0,1,9.16.26,24.77,24.77,0,0,1,7.35,3.14,25.15,25.15,0,0,1,6,5.31A21.15,21.15,0,0,1,85.54,203l-.37.6-3.43-2-3.38-2c-2.25-1.35-4.47-2.76-6.71-4.14s-4.42-2.84-6.62-4.29l-3.28-2.19-3.24-2.25Z"/><path class="cls-9" d="M247.41,210.75a21,21,0,0,1,5.39-7.42,24.53,24.53,0,0,1,6.73-4.29,25.29,25.29,0,0,1,7.75-1.94,21.19,21.19,0,0,1,9.09,1.16l.28.64-3.55,1.72-3.59,1.65c-2.39,1.09-4.8,2.13-7.21,3.2s-4.83,2.06-7.27,3.05L251.37,210l-3.69,1.4Z"/><path class="cls-10" d="M163.16,24.18l-46,77s43,12,88,0Z"/><polygon class="cls-11" points="173.59 33.75 162.35 28.88 151.96 35.37 153.13 23.18 143.74 15.31 155.7 12.64 160.28 1.29 166.51 11.84 178.73 12.69 170.62 21.87 173.59 33.75"/><path class="cls-11" d="M132.62,75.31l5.34-9S164,84.46,194.6,81.82c-.44.36,4.09,7.5,4.09,7.5S175.08,93.43,132.62,75.31Z"/><path class="cls-11" d="M122.16,93.18l6-10s36,18.92,76,16a3.49,3.49,0,0,0,1,2s-18.78,5-24,5C168.58,106.27,161.45,107.34,122.16,93.18Z"/><path class="cls-11" d="M142.16,59.18l5-8s17.12,15.69,38.18,13.26c-.3.33,4.82,8.74,4.82,8.74S171.43,75.9,142.16,59.18Z"/><path class="cls-11" d="M152.16,43.18l5-10s9,14,18,13c-.26.39,6,11,6,11S169.16,58.18,152.16,43.18Z"/></g></svg>
