<svg xmlns="http://www.w3.org/2000/svg" width="460" height="340" viewBox="0 0 460 340"><defs><style>.cls-1{fill:#2a0d59;}.cls-2{fill:#441982;}.cls-3{fill:#5e25a0;}.cls-4{fill:#f9b732;}.cls-5{fill:#e29c40;}.cls-6{fill:#fff;}.cls-7{fill:#f9cf8c;}.cls-8{fill:#b2ff6e;}</style></defs><title>næbdyr_standart copy</title><g id="næbdyr"><rect class="cls-1" x="162.36" y="229.08" width="10.83" height="70.41"/><path class="cls-1" d="M125.54,291.28c36.4-20.06,67.77-6.48,62.13,14.55-2.65,9.89-20.87,18.7-29.88,23.63-3,1.65,0,0,0,0s-14.72,6.63-13.76-3c.78-7.85-8.41-4-10.56-3.59s-10.09,2.18-8.62-5.05c1.16-5.71-3.88-6.82-8.62-5-4.18,1.58-14.5.47-7.94-7.36C113.72,298.93,125.54,291.28,125.54,291.28Z"/><path class="cls-2" d="M190.35,297c36.16-20.47,67.69-7.27,62.29,13.83-2.53,9.92-20.65,18.94-29.6,24h0c-.13.06-14.64,6.81-13.79-2.85.69-7.85-8.45-3.88-10.6-3.46s-10.07,2.3-8.68-4.94c1.1-5.73-4-6.78-8.68-4.94-4.16,1.62-14.49.64-8-7.28C178.61,304.74,190.35,297,190.35,297Z"/><rect class="cls-2" x="225.19" y="229.08" width="10.83" height="70.41"/><path class="cls-3" d="M374.16,4.68s56.83,24.64,73,52c13,22,13,40-5,64-15,19-38,35-58,50s-37,18-56,25-34-125-34-125,12-6,24-30S340.16-3.32,374.16,4.68Z"/><path class="cls-2" d="M399.16,17.68s31.83,11.64,48,39c13,22,13,40-5,64-15,19-38,35-58,50s-37,18-56,25c-17,6.27-4.38-29.32-2.38-35A3.72,3.72,0,0,1,327,159c8.2-6.28,63.15-37.35,83.15-68.35C425.8,66.44,399.16,17.68,399.16,17.68Z"/><path class="cls-4" d="M103.66,69.18s-94,5-98,52-1,76,0,88,0,31,48,40,90.67,16.85,210,6c33-3,65-28,66-59s3-67,0-81c-2.25-10.48,1.12-32.75-32.75-44.1-11.36-3.81-26.91-6.4-48.25-6.9C163.66,62.18,103.66,69.18,103.66,69.18Z"/><path class="cls-5" d="M319.16,172.68c-27,50-44,51-83,63-79.2,24.37-184,13-181.5,13.5,47.89,9.58,90.67,16.85,210,6,33-3,65-28,66-59s4.5-61.5-1.5-93.5C329.16,102.68,336.59,140.4,319.16,172.68Z"/><path class="cls-6" d="M110.16,145.68a24.36,24.36,0,0,1-24,24c-13,0-22-11-22-24s13-25,26-25S110.16,133.18,110.16,145.68Z"/><path class="cls-6" d="M269.16,155.68c0,13-8,24-21,24s-22-11-22-24,13.31-27.72,26-25C266.16,133.68,269.16,143.18,269.16,155.68Z"/><path d="M103.16,147.18c1,10.5-8.3,22.66-18,20.5-9-2-19.79-9.32-18-20.5,2-12.5,8.06-20.5,18-20.5S102.09,135.91,103.16,147.18Z"/><path d="M267.16,155.68c0,12.17-3.55,18.39-14,21-8,2-18-4.57-18-17s4.51-25,15-25S267.16,145.68,267.16,155.68Z"/><path class="cls-7" d="M155.16,147.68l46,3s23-2,15,27-13,38-13,38a39.08,39.08,0,0,1-38,18c-18-2-67-7-83-11s-14-18-14-18a16.9,16.9,0,0,1,6-14c7-6,56-39,56-39A56.67,56.67,0,0,1,155.16,147.68Z"/><ellipse cx="169.78" cy="196.63" rx="5.57" ry="3.68" transform="translate(-73.51 287.72) rotate(-69.72)"/><ellipse cx="132.78" cy="192.63" rx="5.57" ry="3.68" transform="translate(-93.94 250.4) rotate(-69.72)"/><ellipse class="cls-6" cx="91.16" cy="137.68" rx="4" ry="5"/><ellipse class="cls-6" cx="247.66" cy="143.68" rx="4.5" ry="5"/><path class="cls-3" d="M374.16,4.68s56.83,24.64,73,52c13,22,13,40-5,64-15,19-38,35-58,50s-37,18-56,25-34-125-34-125,12-6,24-30S340.16-3.32,374.16,4.68Z"/><path class="cls-2" d="M399.16,17.68s31.83,11.64,48,39c13,22,13,40-5,64-15,19-38,35-58,50s-37,18-56,25c-17,6.27-4.38-29.32-2.38-35A3.72,3.72,0,0,1,327,159c8.2-6.28,63.15-37.35,83.15-68.35C425.8,66.44,399.16,17.68,399.16,17.68Z"/><path class="cls-4" d="M103.66,69.18s-94,5-98,52-1,76,0,88,0,31,48,40,90.67,16.85,210,6c33-3,65-28,66-59s3-67,0-81c-2.25-10.48,1.12-32.75-32.75-44.1-11.36-3.81-26.91-6.4-48.25-6.9C163.66,62.18,103.66,69.18,103.66,69.18Z"/><path class="cls-5" d="M319.16,172.68c-27,50-44,51-83,63-79.2,24.37-184,13-181.5,13.5,47.89,9.58,90.67,16.85,210,6,33-3,65-28,66-59s4.5-61.5-1.5-93.5C329.16,102.68,336.59,140.4,319.16,172.68Z"/><path class="cls-8" d="M110.16,145.68a24.36,24.36,0,0,1-24,24c-13,0-22-11-22-24s13-25,26-25S110.16,133.18,110.16,145.68Z"/><path class="cls-8" d="M269.16,155.68c0,13-8,24-21,24s-22-11-22-24,13.31-27.72,26-25C266.16,133.68,269.16,143.18,269.16,155.68Z"/><path d="M103.16,147.18c1,10.5-8.3,22.66-18,20.5-9-2-19.79-9.32-18-20.5,2-12.5,8.06-20.5,18-20.5S102.09,135.91,103.16,147.18Z"/><path d="M262.16,154.68c0,12.17-3.55,18.39-14,21-8,2-18-4.57-18-17s4.51-25,15-25S262.16,144.68,262.16,154.68Z"/><path class="cls-7" d="M155.16,147.68l46,3s23-2,15,27-13,38-13,38a39.08,39.08,0,0,1-38,18c-18-2-67-7-83-11s-14-18-14-18a16.9,16.9,0,0,1,6-14c7-6,56-39,56-39A56.67,56.67,0,0,1,155.16,147.68Z"/><ellipse cx="169.78" cy="196.63" rx="5.57" ry="3.68" transform="translate(-73.51 287.72) rotate(-69.72)"/><ellipse cx="132.78" cy="192.63" rx="5.57" ry="3.68" transform="translate(-93.94 250.4) rotate(-69.72)"/><ellipse class="cls-6" cx="91.16" cy="137.68" rx="4" ry="5"/><ellipse class="cls-6" cx="251.66" cy="143.68" rx="4.5" ry="5"/><rect class="cls-1" x="162.36" y="229.08" width="10.83" height="70.41"/><path class="cls-1" d="M125.54,291.28c36.4-20.06,67.77-6.48,62.13,14.55-2.65,9.89-20.87,18.7-29.88,23.63-3,1.65,0,0,0,0s-14.72,6.63-13.76-3c.78-7.85-8.41-4-10.56-3.59s-10.09,2.18-8.62-5.05c1.16-5.71-3.88-6.82-8.62-5-4.18,1.58-14.5.47-7.94-7.36C113.72,298.93,125.54,291.28,125.54,291.28Z"/><path class="cls-2" d="M190.35,297c36.16-20.47,67.69-7.27,62.29,13.83-2.53,9.92-20.65,18.94-29.6,24h0c-.13.06-14.64,6.81-13.79-2.85.69-7.85-8.45-3.88-10.6-3.46s-10.07,2.3-8.68-4.94c1.1-5.73-4-6.78-8.68-4.94-4.16,1.62-14.49.64-8-7.28C178.61,304.74,190.35,297,190.35,297Z"/><rect class="cls-2" x="225.19" y="229.08" width="10.83" height="70.41"/><path class="cls-3" d="M374.16,4.68s56.83,24.64,73,52c13,22,13,40-5,64-15,19-38,35-58,50s-37,18-56,25-34-125-34-125,12-6,24-30S340.16-3.32,374.16,4.68Z"/><path class="cls-2" d="M399.16,17.68s31.83,11.64,48,39c13,22,13,40-5,64-15,19-38,35-58,50s-37,18-56,25c-17,6.27-4.38-29.32-2.38-35A3.72,3.72,0,0,1,327,159c8.2-6.28,63.15-37.35,83.15-68.35C425.8,66.44,399.16,17.68,399.16,17.68Z"/><path class="cls-4" d="M103.66,69.18s-94,5-98,52-1,76,0,88,0,31,48,40,90.67,16.85,210,6c33-3,65-28,66-59s3-67,0-81c-2.25-10.48,1.12-32.75-32.75-44.1-11.36-3.81-26.91-6.4-48.25-6.9C163.66,62.18,103.66,69.18,103.66,69.18Z"/><path class="cls-5" d="M319.16,172.68c-27,50-44,51-83,63-79.2,24.37-184,13-181.5,13.5,47.89,9.58,90.67,16.85,210,6,33-3,65-28,66-59s4.5-61.5-1.5-93.5C329.16,102.68,336.59,140.4,319.16,172.68Z"/><path class="cls-6" d="M110.16,145.68a24.36,24.36,0,0,1-24,24c-13,0-22-11-22-24s13-25,26-25S110.16,133.18,110.16,145.68Z"/><path class="cls-6" d="M269.16,155.68c0,13-8,24-21,24s-22-11-22-24,13.31-27.72,26-25C266.16,133.68,269.16,143.18,269.16,155.68Z"/><path d="M103.16,147.18c1,10.5-8.3,22.66-18,20.5-9-2-19.79-9.32-18-20.5,2-12.5,8.06-20.5,18-20.5S102.09,135.91,103.16,147.18Z"/><path d="M267.16,155.68c0,12.17-3.55,18.39-14,21-8,2-18-4.57-18-17s4.51-25,15-25S267.16,145.68,267.16,155.68Z"/><path class="cls-7" d="M155.16,147.68l46,3s23-2,15,27-13,38-13,38a39.08,39.08,0,0,1-38,18c-18-2-67-7-83-11s-14-18-14-18a16.9,16.9,0,0,1,6-14c7-6,56-39,56-39A56.67,56.67,0,0,1,155.16,147.68Z"/><ellipse cx="169.78" cy="196.63" rx="5.57" ry="3.68" transform="translate(-73.51 287.72) rotate(-69.72)"/><ellipse cx="132.78" cy="192.63" rx="5.57" ry="3.68" transform="translate(-93.94 250.4) rotate(-69.72)"/><ellipse class="cls-6" cx="91.16" cy="137.68" rx="4" ry="5"/><ellipse class="cls-6" cx="247.66" cy="143.68" rx="4.5" ry="5"/><path class="cls-3" d="M374.16,4.68s56.83,24.64,73,52c13,22,13,40-5,64-15,19-38,35-58,50s-37,18-56,25-34-125-34-125,12-6,24-30S340.16-3.32,374.16,4.68Z"/><path class="cls-2" d="M399.16,17.68s31.83,11.64,48,39c13,22,13,40-5,64-15,19-38,35-58,50s-37,18-56,25c-17,6.27-4.38-29.32-2.38-35A3.72,3.72,0,0,1,327,159c8.2-6.28,63.15-37.35,83.15-68.35C425.8,66.44,399.16,17.68,399.16,17.68Z"/><path class="cls-4" d="M103.66,69.18s-94,5-98,52-1,76,0,88,0,31,48,40,90.67,16.85,210,6c33-3,65-28,66-59s3-67,0-81c-2.25-10.48,1.12-32.75-32.75-44.1-11.36-3.81-26.91-6.4-48.25-6.9C163.66,62.18,103.66,69.18,103.66,69.18Z"/><path class="cls-5" d="M319.16,172.68c-27,50-44,51-83,63-79.2,24.37-184,13-181.5,13.5,47.89,9.58,90.67,16.85,210,6,33-3,65-28,66-59s4.5-61.5-1.5-93.5C329.16,102.68,336.59,140.4,319.16,172.68Z"/><path class="cls-8" d="M110.16,145.68a24.36,24.36,0,0,1-24,24c-13,0-22-11-22-24s13-25,26-25S110.16,133.18,110.16,145.68Z"/><path class="cls-8" d="M269.16,155.68c0,13-8,24-21,24s-22-11-22-24,13.31-27.72,26-25C266.16,133.68,269.16,143.18,269.16,155.68Z"/><path d="M103.16,147.18c1,10.5-8.3,22.66-18,20.5-9-2-19.79-9.32-18-20.5,2-12.5,8.06-20.5,18-20.5S102.09,135.91,103.16,147.18Z"/><path d="M262.16,154.68c0,12.17-3.55,18.39-14,21-8,2-18-4.57-18-17s4.51-25,15-25S262.16,144.68,262.16,154.68Z"/><path class="cls-7" d="M155.16,147.68l46,3s23-2,15,27-13,38-13,38a39.08,39.08,0,0,1-38,18c-18-2-67-7-83-11s-14-18-14-18a16.9,16.9,0,0,1,6-14c7-6,56-39,56-39A56.67,56.67,0,0,1,155.16,147.68Z"/><ellipse cx="169.78" cy="196.63" rx="5.57" ry="3.68" transform="translate(-73.51 287.72) rotate(-69.72)"/><ellipse cx="132.78" cy="192.63" rx="5.57" ry="3.68" transform="translate(-93.94 250.4) rotate(-69.72)"/><ellipse class="cls-6" cx="91.16" cy="137.68" rx="4" ry="5"/><ellipse class="cls-6" cx="251.66" cy="143.68" rx="4.5" ry="5"/></g></svg>
