<svg xmlns="http://www.w3.org/2000/svg" xmlns:xlink="http://www.w3.org/1999/xlink" width="1920" height="1080" viewBox="0 0 1920 1080"><defs><style>.cls-1{fill:#9a97c1;opacity:0.07;}.cls-2{fill:url(#linear-gradient);}.cls-3{fill:none;}.cls-4{fill:#fff;}.cls-5{fill:#233f2f;}.cls-6{fill:#2a3a2f;}.cls-7{fill:#31443d;}</style><linearGradient id="linear-gradient" x1="959.81" y1="641.85" x2="959.6" y2="439.77" gradientUnits="userSpaceOnUse"><stop offset="0" stop-color="#27544b"/><stop offset="0.37" stop-color="#2b6257"/><stop offset="0.77" stop-color="#2e6d61"/></linearGradient></defs><title>2_middelground_happy_ending</title><g id="himler"><circle class="cls-1" cx="1449.58" cy="1641.8" r="886.88"/><path class="cls-2" d="M1796.92,495s0,0,0-.05a.82.82,0,0,0,0-.27h0l.47-7.16,18.08,1.2c-3.24-5.72-6-11.24-8.37-16.37l6.27.41a186,186,0,0,1-8.54-17.1l5.51.36A147.52,147.52,0,0,1,1803,441l5,.33a106.38,106.38,0,0,1-10.16-24.22,89.35,89.35,0,0,1-13.53,22.65l5.43.36a118.82,118.82,0,0,1-9.74,13.92l6,.4c-1.75,2.82-3.73,5.81-5.93,8.88a99.73,99.73,0,0,1-5.33-8.83l4.52.35a70.38,70.38,0,0,1-9.25-17.46,59,59,0,0,1-12.06,15.8l4.88.38a83.8,83.8,0,0,1-8.69,9.68l5.4.42a106.73,106.73,0,0,1-10,11l5.43.42a127.85,127.85,0,0,1-9.81,10.49l16.83,1.3-.39,5.08h0a.83.83,0,0,0,0,.15C1575.92,477,1256.51,455,965,455c-71.65,0-144.94,1.3-217.55,3.48v-7.87l22.64-.06c-4.53-6.44-8.46-12.69-11.84-18.52h7.86A217,217,0,0,1,754,412.65h6.91a171.26,171.26,0,0,1-10.52-17.05h6.29A122.05,122.05,0,0,1,741.93,368,102.57,102.57,0,0,1,727,395.64h6.8a140.83,140.83,0,0,1-10.95,17.09h7.52a176.81,176.81,0,0,1-12.64,19.42l7.56,0a208.35,208.35,0,0,1-12.41,18.57l23.44-.05,0,8.19c-28.65.9-57.17,1.93-85.41,3.07l-.13-5.69,17.89-.4c-3.69-5.42-6.91-10.67-9.68-15.57l6.21-.14a185.39,185.39,0,0,1-9.91-16.29l5.46-.12a145.87,145.87,0,0,1-8.61-14.34l5-.11A106.89,106.89,0,0,1,645,386a89.94,89.94,0,0,1-11.32,23.76l5.37-.12a122,122,0,0,1-8.36,14.72l5.95-.14A151.24,151.24,0,0,1,627,441l6-.14a179.26,179.26,0,0,1-9.48,16L642,456.4l.13,5.85C300,476.36,0,506.16,0,506.16V1124H1920V506.16S1873.73,501.52,1796.92,495Zm-16.62-23.63-.52-.84,1,.07Zm-1.58-6.25c-.39.53-.79,1.07-1.2,1.61-.34-.6-.7-1.21-1-1.78Zm-9.18,27.4h0l.39-5.09,16.27,1.27c-.48-.68-.94-1.35-1.4-2l3.71.24-.47,7.16h0l0,.15-18.52-1.53h0A.67.67,0,0,0,1769.54,492.56Z"/></g><g id="startside"><rect class="cls-3" x="1258.89" y="39.29" width="5.51" height="5.51" transform="translate(936.87 1261.9) rotate(-77)"/><circle class="cls-4" cx="1261.65" cy="42.04" r="2.76"/><rect class="cls-3" x="1447.58" y="11.27" width="4.82" height="4.82" transform="translate(1110.49 1423.43) rotate(-77)"/><circle class="cls-4" cx="1450" cy="13.68" r="2.41"/><rect class="cls-3" x="1606.74" y="51.52" width="5.47" height="5.47" transform="translate(1194.56 1610.27) rotate(-77)"/><circle class="cls-4" cx="1609.47" cy="54.25" r="2.74"/><rect class="cls-3" x="1684.28" y="42" width="6.24" height="6.24" transform="translate(1263.85 1679.12) rotate(-77)"/><circle class="cls-4" cx="1687.4" cy="45.12" r="3.12"/><rect class="cls-3" x="1763.77" y="45.64" width="3.21" height="3.21" transform="translate(1322.22 1756.74) rotate(-77)"/><circle class="cls-4" cx="1765.38" cy="47.24" r="1.6"/></g><g id="baggrund"><polygon class="cls-5" points="823.56 223.04 803 228 754.12 124.2 671.63 280.01 607.85 195.7 440 479 670 465 964 457 823.56 223.04"/><polyline class="cls-6" points="643 242 607.85 195.7 440 479 522 474"/><polyline class="cls-7" points="343 486 571 473 488.65 356 450.11 355.96 433.94 331.94 433.8 332.16 403.62 287.32 294.95 287.2 226 195.83 77 508 343 486 343 486"/></g></svg>
