<svg xmlns="http://www.w3.org/2000/svg" xmlns:xlink="http://www.w3.org/1999/xlink" width="1920" height="1080" viewBox="0 0 1920 1080"><defs><style>.cls-1{fill:#323f38;}.cls-2{fill:#3a423d;}.cls-3{fill:#404946;}.cls-4{fill:url(#linear-gradient);}</style><linearGradient id="linear-gradient" x1="959.81" y1="640.85" x2="959.6" y2="438.77" gradientUnits="userSpaceOnUse"><stop offset="0" stop-color="#1c3a34"/><stop offset="0.47" stop-color="#26534a"/><stop offset="0.77" stop-color="#2a5e54"/></linearGradient></defs><title>2_middelground_game</title><g id="himler"><polygon class="cls-1" points="823.56 222.04 803 227 754.12 123.2 671.63 279.01 607.85 194.7 440 478 670 464 964 456 823.56 222.04"/><polyline class="cls-2" points="643 241 607.85 194.7 440 478 522 473"/><polyline class="cls-3" points="343 485 571 472 488.65 355 450.11 354.96 433.94 330.94 433.8 331.16 403.62 286.32 294.95 286.2 226 194.83 77 507 343 485 343 485"/><path class="cls-4" d="M1796.92,494s0,0,0-.05a.82.82,0,0,0,0-.27h0l.47-7.16,18.08,1.2c-3.24-5.72-6-11.24-8.37-16.37l6.27.41a186,186,0,0,1-8.54-17.1l5.51.36A147.52,147.52,0,0,1,1803,440l5,.33a106.38,106.38,0,0,1-10.16-24.22,89.35,89.35,0,0,1-13.53,22.65l5.43.36a118.82,118.82,0,0,1-9.74,13.92l6,.4c-1.75,2.82-3.73,5.81-5.93,8.88a99.73,99.73,0,0,1-5.33-8.83l4.52.35a70.38,70.38,0,0,1-9.25-17.46,59,59,0,0,1-12.06,15.8l4.88.38a83.8,83.8,0,0,1-8.69,9.68l5.4.42a106.73,106.73,0,0,1-10,11l5.43.42a127.85,127.85,0,0,1-9.81,10.49l16.83,1.3-.39,5.08h0a.83.83,0,0,0,0,.15C1575.92,476,1256.51,454,965,454c-71.65,0-144.94,1.3-217.55,3.48v-7.87l22.64-.06c-4.53-6.44-8.46-12.69-11.84-18.52h7.86A217,217,0,0,1,754,411.65h6.91a171.26,171.26,0,0,1-10.52-17.05h6.29A122.05,122.05,0,0,1,741.93,367,102.57,102.57,0,0,1,727,394.64h6.8a140.83,140.83,0,0,1-10.95,17.09h7.52a176.81,176.81,0,0,1-12.64,19.42l7.56,0a208.35,208.35,0,0,1-12.41,18.57l23.44-.05,0,8.19c-28.65.9-57.17,1.93-85.41,3.07l-.13-5.69,17.89-.4c-3.69-5.42-6.91-10.67-9.68-15.57l6.21-.14a185.39,185.39,0,0,1-9.91-16.29l5.46-.12a145.87,145.87,0,0,1-8.61-14.34l5-.11A106.89,106.89,0,0,1,645,385a89.94,89.94,0,0,1-11.32,23.76l5.37-.12a122,122,0,0,1-8.36,14.72l5.95-.14A151.24,151.24,0,0,1,627,440l6-.14a179.26,179.26,0,0,1-9.48,16L642,455.4l.13,5.85C300,475.36,0,505.16,0,505.16V1123H1920V505.16S1873.73,500.52,1796.92,494Zm-16.62-23.63-.52-.84,1,.07Zm-1.58-6.25c-.39.53-.79,1.07-1.2,1.61-.34-.6-.7-1.21-1-1.78Zm-9.18,27.4h0l.39-5.09,16.27,1.27c-.48-.68-.94-1.35-1.4-2l3.71.24-.47,7.16h0l0,.15-18.52-1.53h0A.67.67,0,0,0,1769.54,491.56Z"/></g></svg>
