<svg xmlns="http://www.w3.org/2000/svg" xmlns:xlink="http://www.w3.org/1999/xlink" width="1920" height="1080" viewBox="0 0 1920 1080"><defs><style>.cls-1,.cls-3{filter:url(#AI_GaussianBlur_4);}.cls-2{fill:url(#linear-gradient);}.cls-3{fill:url(#linear-gradient-2);}.cls-4{fill:url(#linear-gradient-3);}.cls-5{fill:url(#linear-gradient-4);}.cls-6{fill:#fff;}.cls-7{fill:#323f38;}.cls-8{fill:#3a423d;}.cls-9{fill:#404946;}.cls-10{fill:#0b381b;}.cls-11{fill:#124419;}.cls-12{fill:#12352d;}.cls-13{fill:#b22497;}.cls-14{fill:#dd43a2;}.cls-15{fill:#49190e;}.cls-16{fill:#2b0f09;}.cls-17{fill:#91268a;}.cls-18{fill:#bc3c91;}.cls-19{fill:#1a021e;}.cls-20{opacity:0.9;filter:url(#AI_Shadow_2);}.cls-21{fill:#e8d3ea;}.cls-22{fill:#2a0d59;}.cls-23{fill:#441982;}.cls-24{fill:#5e25a0;}.cls-25{fill:#f9b732;}.cls-26{fill:#e29c40;}.cls-27{fill:#b2ff6e;}.cls-28{fill:#f9cf8c;}.cls-29{fill:#931968;}</style><filter id="AI_GaussianBlur_4" name="AI_GaussianBlur_4"><feGaussianBlur stdDeviation="4"/></filter><linearGradient id="linear-gradient" x1="960.84" y1="710.61" x2="962.87" y2="50.98" gradientUnits="userSpaceOnUse"><stop offset="0.11" stop-color="#443077"/><stop offset="0.18" stop-color="#462577"/><stop offset="0.35" stop-color="#4a0c77"/><stop offset="0.46" stop-color="#4c0377"/><stop offset="0.95" stop-color="#280842"/></linearGradient><linearGradient id="linear-gradient-2" x1="960.67" y1="643.85" x2="960.45" y2="441.77" gradientUnits="userSpaceOnUse"><stop offset="0" stop-color="#1c3a34"/><stop offset="0.47" stop-color="#26534a"/><stop offset="0.77" stop-color="#2a5e54"/></linearGradient><linearGradient id="linear-gradient-3" x1="963.55" y1="760.74" x2="959.94" y2="1053.38" gradientUnits="userSpaceOnUse"><stop offset="0.02" stop-color="#3d776c"/><stop offset="0.23" stop-color="#30665c"/><stop offset="0.42" stop-color="#275b51"/></linearGradient><linearGradient id="linear-gradient-4" x1="961.16" y1="917.27" x2="963.32" y2="1110.41" gradientUnits="userSpaceOnUse"><stop offset="0" stop-color="#76938d"/><stop offset="0.04" stop-color="#73918b"/><stop offset="0.49" stop-color="#557d75"/><stop offset="0.74" stop-color="#49756d"/></linearGradient><filter id="AI_Shadow_2" x="-15" y="-15" width="140" height="130" name="AI_Shadow_2"><feGaussianBlur result="blur" stdDeviation="6" in="SourceAlpha"/><feOffset result="offsetBlurredAlpha" dx="8" dy="8" in="blur"/><feMerge><feMergeNode in="offsetBlurredAlpha"/><feMergeNode in="SourceGraphic"/></feMerge></filter></defs><title>settings</title><g id="himler"><g class="cls-1"><rect class="cls-2" x="1.86" y="4" width="1919" height="1078"/></g><path class="cls-3" d="M1797.78,497s0,0,0-.05a.82.82,0,0,0,0-.27h0l.47-7.16,18.08,1.2c-3.24-5.72-6-11.24-8.38-16.37l6.28.41a186,186,0,0,1-8.54-17.1l5.51.36a143.46,143.46,0,0,1-7.41-15.05l5,.33a106.38,106.38,0,0,1-10.16-24.22,89.35,89.35,0,0,1-13.53,22.65l5.43.36a120,120,0,0,1-9.74,13.92l6,.4c-1.75,2.82-3.73,5.81-5.94,8.88-2.12-3.16-3.9-6.16-5.33-8.83l4.53.35a70,70,0,0,1-9.25-17.46,58.88,58.88,0,0,1-12.07,15.8l4.89.38a84,84,0,0,1-8.7,9.68l5.41.42a107.89,107.89,0,0,1-10,11l5.43.42a128.07,128.07,0,0,1-9.82,10.49l16.84,1.3-.39,5.08h0a.83.83,0,0,0,0,.15C1576.77,479,1257.37,457,965.86,457c-71.65,0-145,1.3-217.55,3.48l0-7.87,22.65-.06c-4.53-6.44-8.46-12.69-11.84-18.52H767a217,217,0,0,1-12.12-19.37h6.91a169.4,169.4,0,0,1-10.52-17.05h6.29A122.37,122.37,0,0,1,742.78,370a102.34,102.34,0,0,1-14.93,27.64h6.8a139.79,139.79,0,0,1-11,17.09h7.53a176.81,176.81,0,0,1-12.64,19.42l7.56,0a206.41,206.41,0,0,1-12.42,18.57l23.45-.05v8.19c-28.64.9-57.16,1.93-85.41,3.07l-.13-5.69,17.9-.4c-3.7-5.42-6.91-10.67-9.68-15.57l6.21-.14a185.39,185.39,0,0,1-9.91-16.29l5.46-.12A146.12,146.12,0,0,1,653,411.34l5-.11A107.24,107.24,0,0,1,645.85,388a89.55,89.55,0,0,1-11.32,23.76l5.38-.12a122,122,0,0,1-8.36,14.72l6-.14A151.43,151.43,0,0,1,627.84,443l6-.14a177.11,177.11,0,0,1-9.49,16l18.52-.42.14,5.85C300.86,478.36.86,508.16.86,508.16V1126h1920V508.16S1874.58,503.52,1797.78,497Zm-16.62-23.63c-.18-.28-.35-.56-.52-.84l1,.07Zm-1.58-6.25c-.39.53-.8,1.07-1.21,1.61l-1-1.78Zm-9.18,27.4h0l.39-5.09,16.27,1.27c-.49-.68-.94-1.35-1.4-2l3.71.24-.48,7.16h0a.8.8,0,0,0,0,.15l-18.52-1.53h0A.67.67,0,0,0,1770.4,494.56Z"/><g class="cls-1"><path class="cls-4" d="M1534.71,658.4c-7.07-11.56-20.7-19.4-36.35-19.4-13.66,0-25.77,6-33.33,15.16-26.22-1.52-53-3-80.34-4.39C1371,630.43,1341.19,616,1306,614.09c-36.44-2-68.57,9.87-83.75,28.67-84.53-3-170.6-4.76-254.36-4.76-176.42,0-362.81,7.86-524.26,17.43A41,41,0,0,0,361.86,660c0,.18,0,.35,0,.53-208.92,13.72-359,28.63-359,28.63L.86,1107h1920l2-417.84S1758.36,672.66,1534.71,658.4Z"/></g><g class="cls-1"><path class="cls-5" d="M967.86,827C859.29,827,747,830,639,834.5c-9.24-29.37-40.18-48-72.94-42.53a67.06,67.06,0,0,0-41.65,24.41c-15.06-30.24-49.88-48.37-86.52-42.21-39.06,6.56-67.15,38.52-68.54,74.87C156.52,862.9,2.86,878.16,2.86,878.16L.86,1081h1920l2-202.84S1412.86,827,967.86,827Z"/></g><g class="cls-1"><circle class="cls-6" cx="1246.61" cy="90.98" r="2.81"/><circle class="cls-6" cx="1320.6" cy="96.77" r="2.11"/><circle class="cls-6" cx="1449.86" cy="116.18" r="2.49"/><circle class="cls-6" cx="1577.88" cy="159.1" r="1.3"/><circle class="cls-6" cx="1642.69" cy="145.02" r="1.78"/><circle class="cls-6" cx="1845.62" cy="187.75" r="2.62"/><circle class="cls-6" cx="1843.07" cy="287.92" r="1.46"/><circle class="cls-6" cx="1710.95" cy="266.25" r="3.13"/><circle class="cls-6" cx="1598.69" cy="271.84" r="2.59"/><circle class="cls-6" cx="1385.23" cy="294.24" r="1.61"/><circle class="cls-6" cx="1216.88" cy="289.06" r="2.83"/><circle class="cls-6" cx="1103.45" cy="294.99" r="1.28"/><circle class="cls-6" cx="1050.5" cy="303.52" r="2.6"/><circle class="cls-6" cx="993.68" cy="326.64" r="2.66"/><circle class="cls-6" cx="794.04" cy="322.3" r="3.31"/><circle class="cls-6" cx="653.03" cy="364.79" r="1.17"/><circle class="cls-6" cx="463.53" cy="303.81" r="2.33"/><circle class="cls-6" cx="796.32" cy="6.39" r="2.65"/><circle class="cls-6" cx="911.16" cy="4.36" r="2.45"/><circle class="cls-6" cx="981.98" cy="29.47" r="1.2"/><circle class="cls-6" cx="1042.04" cy="48.19" r="2.64"/><circle class="cls-6" cx="949.35" cy="225.81" r="2.28"/><circle class="cls-6" cx="829.29" cy="225.05" r="2.95"/><circle class="cls-6" cx="650.14" cy="205.68" r="2.57"/><circle class="cls-6" cx="526.18" cy="189.48" r="3.4"/><circle class="cls-6" cx="412.17" cy="216.26" r="2.39"/><circle class="cls-6" cx="332.78" cy="231" r="1.1"/><circle class="cls-6" cx="193.76" cy="205.16" r="2.03"/><circle class="cls-6" cx="124.9" cy="188.03" r="2.9"/></g><g class="cls-1"><circle class="cls-6" cx="1240.86" cy="37.92" r="2.1"/><circle class="cls-6" cx="1454.36" cy="44.65" r="1.83"/><circle class="cls-6" cx="1566.19" cy="29.51" r="1.7"/><circle class="cls-6" cx="1747.48" cy="20.61" r="1.6"/><circle class="cls-6" cx="1830.14" cy="45.55" r="1.97"/></g><g class="cls-1"><polygon class="cls-7" points="824.42 226.04 803.86 231 754.97 127.2 672.48 283.01 608.7 198.7 440.86 482 670.86 468 964.86 460 824.42 226.04"/></g><g class="cls-1"><polyline class="cls-8" points="643.86 245 608.7 198.7 440.86 482 522.86 477"/></g><g class="cls-1"><polyline class="cls-9" points="343.86 489 571.86 476 489.51 359 450.97 358.96 434.8 334.94 434.66 335.16 404.48 290.32 295.81 290.2 226.86 198.83 77.86 511 343.86 489 343.86 489"/></g><g class="cls-1"><path class="cls-10" d="M225.21,491.89h22.65c-4.52-6.86-8.43-13.53-11.8-19.73h7.86a231.2,231.2,0,0,1-12.07-20.63h6.9a183.44,183.44,0,0,1-10.48-18.16h6.3A132.78,132.78,0,0,1,219.89,404a111.44,111.44,0,0,1-15,29.37h6.8a149.55,149.55,0,0,1-11,18.16h7.53a190.16,190.16,0,0,1-12.69,20.63h7.56a221.39,221.39,0,0,1-12.46,19.73h23.44v9h0a1.27,1.27,0,0,0,0,.34c0,1.55,2.5,2.8,5.57,2.8s5.56-1.25,5.56-2.8a1.86,1.86,0,0,0,0-.34h0Z"/></g><g class="cls-1"><path class="cls-11" d="M255.21,479.89h22.65c-4.52-6.86-8.43-13.53-11.8-19.73h7.86a231.2,231.2,0,0,1-12.07-20.63h6.9a183.44,183.44,0,0,1-10.48-18.16h6.3A132.78,132.78,0,0,1,249.89,392a111.44,111.44,0,0,1-15,29.37h6.8a149.55,149.55,0,0,1-11,18.16h7.53a190.16,190.16,0,0,1-12.69,20.63h7.56a221.39,221.39,0,0,1-12.46,19.73h23.44v9h0a1.27,1.27,0,0,0,0,.34c0,1.55,2.5,2.8,5.57,2.8s5.56-1.25,5.56-2.8a1.86,1.86,0,0,0,0-.34h0Z"/></g><g class="cls-1"><path class="cls-11" d="M254.21,522.89h22.65c-4.52-6.86-8.43-13.53-11.8-19.73h7.86a231.2,231.2,0,0,1-12.07-20.63h6.9a183.44,183.44,0,0,1-10.48-18.16h6.3A132.78,132.78,0,0,1,248.89,435a111.44,111.44,0,0,1-15,29.37h6.8a149.55,149.55,0,0,1-11,18.16h7.53a190.16,190.16,0,0,1-12.69,20.63h7.56a221.39,221.39,0,0,1-12.46,19.73h23.44v9h0a1.27,1.27,0,0,0,0,.34c0,1.55,2.5,2.8,5.57,2.8s5.56-1.25,5.56-2.8a1.86,1.86,0,0,0,0-.34h0Z"/></g><g class="cls-1"><path class="cls-10" d="M329.21,479.89h22.65c-4.52-6.86-8.43-13.53-11.8-19.73h7.86a231.2,231.2,0,0,1-12.07-20.63h6.9a183.44,183.44,0,0,1-10.48-18.16h6.3A132.78,132.78,0,0,1,323.89,392a111.44,111.44,0,0,1-15,29.37h6.8a149.55,149.55,0,0,1-11,18.16h7.53a190.16,190.16,0,0,1-12.69,20.63h7.56a221.39,221.39,0,0,1-12.46,19.73h23.44v9h.05a1.27,1.27,0,0,0-.05.34c0,1.55,2.5,2.8,5.57,2.8s5.56-1.25,5.56-2.8a1.86,1.86,0,0,0,0-.34h0Z"/></g><g class="cls-1"><path class="cls-12" d="M371,529.47h17.9c-3.57-6-6.67-11.77-9.33-17.17h6.22c-3.79-6.34-7-12.45-9.54-17.95h5.45a162.83,162.83,0,0,1-8.28-15.8h5A121.38,121.38,0,0,1,366.76,453a101.69,101.69,0,0,1-11.86,25.55h5.38a133.26,133.26,0,0,1-8.69,15.8h6a168.36,168.36,0,0,1-10,17.95h6c-2.78,5.44-6,11.25-9.85,17.17h18.53v7.8h0a1.43,1.43,0,0,0,0,.29c0,1.35,2,2.44,4.39,2.44s4.4-1.09,4.4-2.44a1.43,1.43,0,0,0,0-.29h0Z"/></g><g class="cls-1"><circle class="cls-13" cx="1930.15" cy="677.7" r="85.7"/><circle class="cls-13" cx="1791.64" cy="693.92" r="64.86"/><circle class="cls-13" cx="1545.64" cy="863.94" r="85.7"/><ellipse class="cls-13" cx="1660.53" cy="758.31" rx="115.35" ry="102.38"/></g><g class="cls-1"><circle class="cls-14" cx="1444.65" cy="913.04" r="49.57"/><circle class="cls-14" cx="1227.88" cy="1070.59" r="44.98"/><circle class="cls-14" cx="1351.54" cy="963.02" r="72.27"/><circle class="cls-14" cx="1284.22" cy="1030.57" r="49.43"/><circle class="cls-14" cx="1300.22" cy="1055.57" r="49.43"/><circle class="cls-14" cx="1130.1" cy="1069.16" r="64.86"/><circle class="cls-14" cx="1051.24" cy="1080.02" r="34.28"/></g><g class="cls-1"><path class="cls-15" d="M135.86,641h-69v509.38h.25q-.24,6.06-.25,12.32c0,20.1,15.94,24.3,35,24.3s34-5.6,34-24.3c0-4.17-.1-8.28-.26-12.32h.26Z"/><path class="cls-16" d="M101.86,647.41H67.27v503.4h.25q-.24,6-.25,12.18c0,21.24,15.76,24,34.59,24"/><path class="cls-16" d="M66.86,853.57s-57.74,3-66-49.57c-.39-2.45-14,3-14,3s4,62,80,62Z"/><path class="cls-15" d="M274.9,709.55c-12,63.45-94,99.88-139,95.16v22.18s137-2.89,159-119.89C294.9,707.45,274.9,709.55,274.9,709.55Z"/><path class="cls-14" d="M348.86,288.5c36,221.5-110.59,372.5-247,372.5s-288-170-247-372.5C-104.32,86.87-34.56-84,101.86-84S315.85,85.44,348.86,288.5Z"/><ellipse class="cls-13" cx="283.36" cy="544.5" rx="114.5" ry="165.5"/><circle class="cls-17" cx="-17.14" cy="736" r="71"/><path class="cls-18" d="M101.86,661c-136.42,0-288-170-247-372.5C-104.32,86.87-34.56-84,101.86-84"/></g><g class="cls-1"><ellipse class="cls-19" cx="1851.15" cy="918.09" rx="249.97" ry="217.72" transform="translate(-32.64 68.98) rotate(-2.12)"/><ellipse class="cls-19" cx="1553.9" cy="1042.9" rx="172.37" ry="155.86" transform="translate(-37.45 58.09) rotate(-2.12)"/><ellipse class="cls-19" cx="1377.82" cy="1063.32" rx="78.56" ry="68.81" transform="translate(-38.32 51.6) rotate(-2.12)"/></g></g><g id="taber-forgrund"><g class="cls-20"><rect class="cls-21" x="396.5" y="231.5" width="1020" height="651" rx="10.5"/><path class="cls-6" d="M1406,233a9,9,0,0,1,9,9V872a9,9,0,0,1-9,9H407a9,9,0,0,1-9-9V242a9,9,0,0,1,9-9h999m0-3H407a12,12,0,0,0-12,12V872a12,12,0,0,0,12,12h999a12,12,0,0,0,12-12V242a12,12,0,0,0-12-12Z"/></g><rect class="cls-22" x="1224.15" y="863.28" width="70.41" height="10.83" transform="translate(44.81 1799.01) rotate(-72.05)"/><path class="cls-22" d="M1210.85,881.36c40.81-7.86,66.47,14.72,54.62,33-5.57,8.59-25.61,11.36-35.71,13.27-3.37.64,0,0,0,0s-16,1.78-12.16-7.11c3.16-7.22-6.77-6.37-8.94-6.67s-10.28-1-6.65-7.45c2.87-5.08-1.58-7.69-6.65-7.45-4.46.2-13.93-4-5.28-9.46C1197.24,885,1210.85,881.36,1210.85,881.36Z"/><path class="cls-23" d="M1283.39,904.32c32.37-26.06,65.62-18.13,63.71,3.56-.89,10.2-17.31,22-25.32,28.46-2.68,2.14,0,0,0,0s-13.33,9.09-14.07-.58c-.59-7.86-9-2.46-11-1.7s-9.56,3.9-9.36-3.47c.15-5.83-5-6.05-9.37-3.47-3.84,2.27-14.2,3-9.1-5.88C1273.07,913.91,1283.39,904.32,1283.39,904.32Z"/><rect class="cls-23" x="1312.41" y="830.36" width="10.83" height="70.41" transform="translate(-122.79 224.86) rotate(-9.32)"/><path class="cls-24" d="M1488.33,634.42s53.1,31.91,65.52,61.17c10,23.52,7.61,41.36-13.39,62.78-17.37,16.86-42.28,29.69-64.08,41.92s-39.05,13-58.81,17.41-17.23-128.39-17.23-128.39,12.68-4.37,27.74-26.58S1455.69,622,1488.33,634.42Z"/><path class="cls-23" d="M1511.4,650.6s30,15.73,42.45,45c10,23.52,7.61,41.36-13.39,62.78-17.37,16.86-42.28,29.69-64.08,41.92s-39.05,13-58.81,17.41c-17.68,4-.47-29.64,2.25-35a3.74,3.74,0,0,1,1.44-1.51c9-5.15,67.52-28.7,91.43-56.8C1531.38,702.45,1511.4,650.6,1511.4,650.6Z"/><path class="cls-25" d="M1211.69,662.72s-93.83-7.43-104,38.64-11,75.2-11.6,87.23-4.08,30.73,42.32,46,87.66,28.65,207.38,33.62c33.1,1.37,68.12-19.19,73.19-49.79s11.8-66,10.67-80.29c-.84-10.69,5.42-32.32-26.65-48-10.76-5.27-25.83-9.88-46.92-13.19C1272.09,663.69,1211.69,662.72,1211.69,662.72Z"/><path class="cls-26" d="M1411.68,793.71c-33.35,46-50.34,44.76-90.58,51.52C1239.39,859,1137,833.87,1139.41,834.7c46.21,15.8,87.66,28.64,207.38,33.61,33.1,1.38,68.12-19.19,73.19-49.79s12.57-60.37,10.84-92.88C1430.82,725.64,1433.21,764,1411.68,793.71Z"/><path class="cls-27" d="M1208.06,739.41a24.36,24.36,0,0,1-27,20.63c-12.89-1.71-20.36-13.82-18.65-26.69s16.2-23.07,29.07-21.36S1209.71,727,1208.06,739.41Z"/><path class="cls-27" d="M1364.36,770.27c-1.71,12.87-11.12,22.74-24,21s-20.36-13.83-18.65-26.69,16.85-25.73,29.07-21.36C1364.28,748.07,1366,757.88,1364.36,770.27Z"/><path d="M1200.2,737.86c-.4,10.54-11.21,21.37-20.55,17.95-8.66-3.17-18.39-11.85-15.14-22.69,3.63-12.13,10.69-19.26,20.54-18S1200.62,726.55,1200.2,737.86Z"/><path d="M1325.53,761.11c4.17-12.26,9.89-17.32,21.31-16.37,8.76.73,16.58,10.79,12.32,23.32s-13.12,23.65-23.7,20.05S1322.1,771.19,1325.53,761.11Z"/><path class="cls-28" d="M1252.4,747.32l45.21,9s23.06,1,11.31,28.74S1291,821.05,1291,821.05a39.05,39.05,0,0,1-40,12.84c-17.58-4.35-65.5-15.77-80.83-21.84s-11.51-19.69-11.51-19.69a16.91,16.91,0,0,1,7.79-13.08c7.73-5,60.65-31.29,60.65-31.29A56.8,56.8,0,0,1,1252.4,747.32Z"/><ellipse cx="1260.44" cy="797.77" rx="5.57" ry="3.68" transform="translate(-33.79 1539.47) rotate(-62.15)"/><ellipse cx="1224.29" cy="788.93" rx="5.57" ry="3.68" transform="translate(-45.23 1502.8) rotate(-62.15)"/><ellipse class="cls-6" cx="1178.65" cy="725.41" rx="5" ry="4" transform="translate(304.27 1798.22) rotate(-82.43)"/><ellipse class="cls-6" cx="1337.06" cy="754.05" rx="5.32" ry="4.79" transform="translate(517.4 2051.92) rotate(-87.15)"/><g class="cls-1"><path d="M733.57,373.24l4.32-7.44A2.78,2.78,0,0,1,742,365c.6.36,10.32,7.44,18.12,7.44,6.24,0,10.92-4.08,10.92-9.24,0-6.12-5.16-10.32-15.24-14.4-11.28-4.56-22.56-11.76-22.56-25.92,0-10.68,7.92-23,27-23a42.25,42.25,0,0,1,24,8,3,3,0,0,1,.72,4l-4.56,6.84c-1,1.44-2.76,2.4-4.2,1.44-1-.6-10.08-6.6-16.68-6.6-6.84,0-10.56,4.56-10.56,8.4,0,5.64,4.44,9.48,14.16,13.44,11.64,4.68,25.08,11.64,25.08,27.12,0,12.36-10.68,23.76-27.6,23.76-15.12,0-24-7.08-26.4-9.36C733.09,375.76,732.49,375.16,733.57,373.24Z"/><path d="M820,335.8c12.36,0,22.44,9.36,22.44,22.32a29.42,29.42,0,0,1-.24,3.24,2.32,2.32,0,0,1-2.28,2H809.17a11.45,11.45,0,0,0,11.52,10.44,16.69,16.69,0,0,0,9.36-3c1.2-.72,2.28-1,3.12,0l4.92,5.64a2,2,0,0,1-.12,3.12,25.83,25.83,0,0,1-17.88,6.6c-14.4,0-24.6-11.4-24.6-25.2C795.49,347.44,805.69,335.8,820,335.8Zm8.4,19.2a9,9,0,0,0-8.76-8.16,9.46,9.46,0,0,0-9.36,8.16Z"/><path d="M855,349.6h-4.08a2.26,2.26,0,0,1-2.16-2.28v-8a2.18,2.18,0,0,1,2.16-2.28H855V323.68a2.36,2.36,0,0,1,2.28-2.28l9.84-.12a2.26,2.26,0,0,1,2.16,2.28V337h10.56a2.21,2.21,0,0,1,2.28,2.28v8a2.28,2.28,0,0,1-2.28,2.28H869.29v19.2c0,3.36,1.8,3.84,3.72,3.84a19.35,19.35,0,0,0,5.88-1.32,1.86,1.86,0,0,1,2.64,1.32l2.4,7.56a2.17,2.17,0,0,1-1.32,2.88c-.6.36-8.4,3.12-14.28,3.12-9.24,0-13.32-5.76-13.32-15.48Z"/><path d="M896.41,349.6h-4.08a2.26,2.26,0,0,1-2.16-2.28v-8a2.18,2.18,0,0,1,2.16-2.28h4.08V323.68a2.36,2.36,0,0,1,2.28-2.28l9.84-.12a2.26,2.26,0,0,1,2.16,2.28V337h10.56a2.21,2.21,0,0,1,2.28,2.28v8a2.28,2.28,0,0,1-2.28,2.28H910.69v19.2c0,3.36,1.8,3.84,3.72,3.84a19.35,19.35,0,0,0,5.88-1.32,1.86,1.86,0,0,1,2.64,1.32l2.4,7.56a2.17,2.17,0,0,1-1.32,2.88c-.6.36-8.4,3.12-14.28,3.12-9.24,0-13.32-5.76-13.32-15.48Z"/><path d="M934.21,311.68a8.19,8.19,0,0,1,8.16-8.28,8.28,8.28,0,1,1,0,16.56A8.19,8.19,0,0,1,934.21,311.68Zm1.08,27.6a2.28,2.28,0,0,1,2.28-2.28h10a2.28,2.28,0,0,1,2.28,2.28v43.44a2.36,2.36,0,0,1-2.28,2.28h-10a2.36,2.36,0,0,1-2.28-2.28Z"/><path d="M964.21,339.28a2.28,2.28,0,0,1,2.28-2.28H971a2.08,2.08,0,0,1,2,1.44l1.69,4.44a23.59,23.59,0,0,1,16.91-7.08c15.24,0,21.36,11.4,21.36,23.88v23a2.36,2.36,0,0,1-2.28,2.28h-9.84a2.28,2.28,0,0,1-2.28-2.28V359c0-6.24-3.24-10.2-9-10.2a12,12,0,0,0-11.27,7.56v26.4c0,1.68-.73,2.28-3,2.28h-8.88a2.36,2.36,0,0,1-2.28-2.28Z"/><path d="M1030.45,368a17.91,17.91,0,0,1-3.6-11.28,20.88,20.88,0,0,1,20.87-20.88h21.84a2.21,2.21,0,0,1,2.28,2.28v4a2.1,2.1,0,0,1-1.32,2l-6.72,2.16s4.8,3.72,4.8,12.24c0,9.48-7.92,18.84-20.52,18.84-4.56,0-7.68-1-9.6-1a4.77,4.77,0,0,0-4.44,4.56c0,2.52,2.17,4.08,4.8,4.08h15.36c10.92,0,19.8,6.24,19.8,16.8,0,11-8.88,20.4-26.28,20.4-17.76,0-24.47-8.76-24.47-16.44,0-7.2,6-10.68,7.2-11.4V394a13,13,0,0,1-9-12.6C1021.45,372,1030.45,368,1030.45,368Zm17.15,42.24c6.72,0,11.16-3,11.16-7.56,0-2.16-1.68-5.88-8.76-5.88a55.34,55.34,0,0,0-7.79.48c-1.45.48-5.17,2.16-5.17,5.88C1037,407.32,1041.13,410.2,1047.6,410.2Zm.48-44.28c4.92,0,8.28-3.6,8.28-8.64s-3.36-8.64-8.28-8.64a8.64,8.64,0,0,0,0,17.28Z"/><path d="M1079.28,379.24l3.24-6.48a1.82,1.82,0,0,1,2.76-.84,26.75,26.75,0,0,0,10.92,2.88c2.4,0,4.08-1,4.08-3s-1.68-3.48-8-6c-9.24-3.6-13.56-8.52-13.56-15.84s5.4-14.16,17.64-14.16c7.08,0,12.24,2,14.76,3.72a2.55,2.55,0,0,1,1.08,3.24l-3,6.12a2.3,2.3,0,0,1-2.88.84s-5.4-2.52-10-2.52c-2.88,0-4.08,1.2-4.08,2.76,0,2.16,2.16,2.88,6.6,4.68,9.24,3.6,16.2,7.56,16.2,16.92,0,7.92-7,14.64-19.08,14.64-7.92,0-13.44-2.52-16-4.44A2.06,2.06,0,0,1,1079.28,379.24Z"/></g><path class="cls-29" d="M729.57,369.24l4.32-7.44A2.78,2.78,0,0,1,738,361c.6.36,10.32,7.44,18.12,7.44,6.24,0,10.92-4.08,10.92-9.24,0-6.12-5.16-10.32-15.24-14.4-11.28-4.56-22.56-11.76-22.56-25.92,0-10.68,7.92-23,27-23a42.25,42.25,0,0,1,24,8,3,3,0,0,1,.72,4l-4.56,6.84c-1,1.44-2.76,2.4-4.2,1.44-1-.6-10.08-6.6-16.68-6.6-6.84,0-10.56,4.56-10.56,8.4,0,5.64,4.44,9.48,14.16,13.44,11.64,4.68,25.08,11.64,25.08,27.12,0,12.36-10.68,23.76-27.6,23.76-15.12,0-24-7.08-26.4-9.36C729.09,371.76,728.49,371.16,729.57,369.24Z"/><path class="cls-29" d="M816,331.8c12.36,0,22.44,9.36,22.44,22.32a29.42,29.42,0,0,1-.24,3.24,2.32,2.32,0,0,1-2.28,2H805.17a11.45,11.45,0,0,0,11.52,10.44,16.69,16.69,0,0,0,9.36-3c1.2-.72,2.28-1,3.12,0l4.92,5.64a2,2,0,0,1-.12,3.12,25.83,25.83,0,0,1-17.88,6.6c-14.4,0-24.6-11.4-24.6-25.2C791.49,343.44,801.69,331.8,816,331.8Zm8.4,19.2a9,9,0,0,0-8.76-8.16,9.46,9.46,0,0,0-9.36,8.16Z"/><path class="cls-29" d="M851,345.6h-4.08a2.26,2.26,0,0,1-2.16-2.28v-8a2.18,2.18,0,0,1,2.16-2.28H851V319.68a2.36,2.36,0,0,1,2.28-2.28l9.84-.12a2.26,2.26,0,0,1,2.16,2.28V333h10.56a2.21,2.21,0,0,1,2.28,2.28v8a2.28,2.28,0,0,1-2.28,2.28H865.29v19.2c0,3.36,1.8,3.84,3.72,3.84a19.35,19.35,0,0,0,5.88-1.32,1.86,1.86,0,0,1,2.64,1.32l2.4,7.56a2.17,2.17,0,0,1-1.32,2.88c-.6.36-8.4,3.12-14.28,3.12-9.24,0-13.32-5.76-13.32-15.48Z"/><path class="cls-29" d="M892.41,345.6h-4.08a2.26,2.26,0,0,1-2.16-2.28v-8a2.18,2.18,0,0,1,2.16-2.28h4.08V319.68a2.36,2.36,0,0,1,2.28-2.28l9.84-.12a2.26,2.26,0,0,1,2.16,2.28V333h10.56a2.21,2.21,0,0,1,2.28,2.28v8a2.28,2.28,0,0,1-2.28,2.28H906.69v19.2c0,3.36,1.8,3.84,3.72,3.84a19.35,19.35,0,0,0,5.88-1.32,1.86,1.86,0,0,1,2.64,1.32l2.4,7.56a2.17,2.17,0,0,1-1.32,2.88c-.6.36-8.4,3.12-14.28,3.12-9.24,0-13.32-5.76-13.32-15.48Z"/><path class="cls-29" d="M930.21,307.68a8.19,8.19,0,0,1,8.16-8.28,8.28,8.28,0,1,1,0,16.56A8.19,8.19,0,0,1,930.21,307.68Zm1.08,27.6a2.28,2.28,0,0,1,2.28-2.28h10a2.28,2.28,0,0,1,2.28,2.28v43.44a2.36,2.36,0,0,1-2.28,2.28h-10a2.36,2.36,0,0,1-2.28-2.28Z"/><path class="cls-29" d="M960.21,335.28a2.28,2.28,0,0,1,2.28-2.28H967a2.08,2.08,0,0,1,2,1.44l1.69,4.44a23.59,23.59,0,0,1,16.91-7.08c15.24,0,21.36,11.4,21.36,23.88v23a2.36,2.36,0,0,1-2.28,2.28h-9.84a2.28,2.28,0,0,1-2.28-2.28V355c0-6.24-3.24-10.2-9-10.2a12,12,0,0,0-11.27,7.56v26.4c0,1.68-.73,2.28-3,2.28h-8.88a2.36,2.36,0,0,1-2.28-2.28Z"/><path class="cls-29" d="M1026.45,364a17.91,17.91,0,0,1-3.6-11.28,20.88,20.88,0,0,1,20.87-20.88h21.84a2.21,2.21,0,0,1,2.28,2.28v4a2.1,2.1,0,0,1-1.32,2l-6.72,2.16s4.8,3.72,4.8,12.24c0,9.48-7.92,18.84-20.52,18.84-4.56,0-7.68-1-9.6-1a4.77,4.77,0,0,0-4.44,4.56c0,2.52,2.17,4.08,4.8,4.08h15.36c10.92,0,19.8,6.24,19.8,16.8,0,11-8.88,20.4-26.28,20.4-17.76,0-24.47-8.76-24.47-16.44,0-7.2,6-10.68,7.2-11.4V390a13,13,0,0,1-9-12.6C1017.45,368,1026.45,364,1026.45,364Zm17.15,42.24c6.72,0,11.16-3,11.16-7.56,0-2.16-1.68-5.88-8.76-5.88a55.34,55.34,0,0,0-7.79.48c-1.45.48-5.17,2.16-5.17,5.88C1033,403.32,1037.13,406.2,1043.6,406.2Zm.48-44.28c4.92,0,8.28-3.6,8.28-8.64s-3.36-8.64-8.28-8.64a8.64,8.64,0,0,0,0,17.28Z"/><path class="cls-29" d="M1075.28,375.24l3.24-6.48a1.82,1.82,0,0,1,2.76-.84,26.75,26.75,0,0,0,10.92,2.88c2.4,0,4.08-1,4.08-3s-1.68-3.48-8-6c-9.24-3.6-13.56-8.52-13.56-15.84s5.4-14.16,17.64-14.16c7.08,0,12.24,2,14.76,3.72a2.55,2.55,0,0,1,1.08,3.24l-3,6.12a2.3,2.3,0,0,1-2.88.84s-5.4-2.52-10-2.52c-2.88,0-4.08,1.2-4.08,2.76,0,2.16,2.16,2.88,6.6,4.68,9.24,3.6,16.2,7.56,16.2,16.92,0,7.92-7,14.64-19.08,14.64-7.92,0-13.44-2.52-16-4.44A2.06,2.06,0,0,1,1075.28,375.24Z"/><path d="M523.34,482.42A1.59,1.59,0,0,1,525,481h1.51a1.71,1.71,0,0,1,1.61.94L549,526.62h.28l20.83-44.68a1.62,1.62,0,0,1,1.61-.94h1.51a1.6,1.6,0,0,1,1.71,1.42L586.1,546a1.64,1.64,0,0,1-1.7,2.18h-8.62a2.06,2.06,0,0,1-1.8-1.42l-5.58-35.88h-.29l-16.56,37.2a1.62,1.62,0,0,1-1.61,1h-1.71a1.71,1.71,0,0,1-1.61-1l-16.75-37.2h-.29l-5.49,35.88a1.83,1.83,0,0,1-1.7,1.42h-8.52a1.74,1.74,0,0,1-1.8-2.18Z"/><path d="M594.33,512.14a1.8,1.8,0,0,1,1.8-1.8h7.76a1.8,1.8,0,0,1,1.8,1.8v18.65c0,5,2.56,8.14,6.91,8.14,4,0,7-3.69,7.57-7.1V512.14c0-1.42.57-1.8,2.09-1.8h7.19a1.8,1.8,0,0,1,1.8,1.8v34.27a1.86,1.86,0,0,1-1.8,1.8H626a1.92,1.92,0,0,1-1.8-1.42L623,543.66c-1.7,1.52-5.2,5.5-12.68,5.5-11.74,0-16-9-16-18.65Z"/><path d="M640.52,543.66l2.56-5.11a1.44,1.44,0,0,1,2.18-.66,21.11,21.11,0,0,0,8.61,2.27c1.89,0,3.22-.76,3.22-2.36s-1.33-2.75-6.34-4.74c-7.29-2.84-10.7-6.72-10.7-12.49S644.31,509.4,654,509.4c5.58,0,9.65,1.6,11.64,2.93a2,2,0,0,1,.85,2.56l-2.36,4.82a1.82,1.82,0,0,1-2.28.67,22.41,22.41,0,0,0-7.85-2c-2.28,0-3.22,1-3.22,2.18,0,1.7,1.7,2.27,5.2,3.69,7.29,2.84,12.78,6,12.78,13.35,0,6.24-5.49,11.55-15.05,11.55-6.25,0-10.6-2-12.59-3.51A1.62,1.62,0,0,1,640.52,543.66Z"/><path d="M676.21,490.37a6.46,6.46,0,0,1,6.44-6.53,6.53,6.53,0,1,1,0,13.06A6.47,6.47,0,0,1,676.21,490.37Zm.85,21.77a1.8,1.8,0,0,1,1.8-1.8h7.86a1.8,1.8,0,0,1,1.8,1.8v34.27a1.86,1.86,0,0,1-1.8,1.8h-7.86a1.86,1.86,0,0,1-1.8-1.8Z"/><path d="M699.88,483.74a1.86,1.86,0,0,1,1.79-1.8h8.05a1.86,1.86,0,0,1,1.8,1.8v41l13.06-13.25a3.54,3.54,0,0,1,2.37-1.14h8.61a1.62,1.62,0,0,1,1.24,2.75l-14.11,14.39,16.85,18.08a1.55,1.55,0,0,1-1.23,2.65H728.09a2.34,2.34,0,0,1-1.61-.76l-15-17v16a1.86,1.86,0,0,1-1.8,1.8h-8.05a1.86,1.86,0,0,1-1.79-1.8Z"/><path d="M512.67,613.74a1.74,1.74,0,0,1,1.75-1.74h8.46a1.8,1.8,0,0,1,1.75,1.74v51.62h23.46a1.75,1.75,0,0,1,1.75,1.75v7.54a1.75,1.75,0,0,1-1.75,1.75H514.42a1.75,1.75,0,0,1-1.75-1.75Z"/><path d="M549,642a1.62,1.62,0,0,1,1.56-2.39h8.28a1.67,1.67,0,0,1,1.57,1l9.29,20.79h.09l9.2-20.79c.46-.92,1.11-1,2.21-1h7.36a1.58,1.58,0,0,1,1.57,2.39L562,702.9a1.82,1.82,0,0,1-1.56,1.1h-7.91a1.65,1.65,0,0,1-1.57-2.48L564,673.82Z"/><path d="M611.85,638.68a22.24,22.24,0,0,1,8.19,1.65V613.74a1.8,1.8,0,0,1,1.74-1.74h7.82a1.8,1.8,0,0,1,1.75,1.74v60.91a1.81,1.81,0,0,1-1.75,1.75H626c-.83,0-1.48-.74-1.75-1.75l-.92-2.85a16.17,16.17,0,0,1-12.06,5.52c-10,0-17.66-8.74-17.66-19.32C593.63,647.23,600.9,638.68,611.85,638.68Zm.82,28.7a8,8,0,0,0,7.73-6V650.73a11.85,11.85,0,0,0-7.17-2.12c-5.16,0-8.93,4.24-8.93,9.39S607.8,667.38,612.67,667.38Z"/></g></svg>
