<svg xmlns="http://www.w3.org/2000/svg" xmlns:xlink="http://www.w3.org/1999/xlink" width="1920" height="1080" viewBox="0 0 1920 1080"><defs><style>.cls-1{isolation:isolate;}.cls-2{fill:url(#linear-gradient);}.cls-3{fill:url(#linear-gradient-2);}.cls-4{fill:url(#linear-gradient-3);}.cls-5{fill:url(#linear-gradient-4);}.cls-6{mix-blend-mode:lighten;}.cls-34,.cls-7{fill:none;}.cls-8{fill:#fff;}.cls-9{fill:#3a3f3c;}.cls-10{fill:#3f4240;}.cls-11{fill:#4d6660;}.cls-12{fill:#454948;}.cls-13{fill:#384c48;}.cls-14{fill:#26382d;}.cls-15{fill:#304433;}.cls-16{fill:#273532;}.cls-17{fill:#b27ba7;}.cls-18{fill:#dda1c6;}.cls-19{fill:#493632;}.cls-20{fill:#2b201e;}.cls-21{fill:#91678e;}.cls-22{fill:#bc8aab;}.cls-23{fill:#473b59;}.cls-24{fill:#6a5982;}.cls-25{fill:#8670a0;}.cls-26{fill:#f9dfab;}.cls-27{fill:#e2c7a3;}.cls-28{fill:#f9e9ce;}.cls-29{fill:#e1ffc6;}.cls-30{fill:#f7ecdf;}.cls-31{fill:#1c131e;}.cls-32{opacity:0.76;}.cls-32,.cls-35{filter:url(#AI_Shadow_2);}.cls-33{fill:#162623;}.cls-34{stroke:#000;stroke-miterlimit:10;stroke-width:4px;}.cls-36{fill:#83b739;}.cls-37{fill:#688e2b;}.cls-38{fill:#dd43a2;}.cls-39{fill:#9e337a;}.cls-40{fill:#f2d7ea;}.cls-41{fill:#546d23;}.cls-42{fill:#e3ef9c;}.cls-43{fill:#ccd38c;}.cls-44{fill:#ebeced;}.cls-45{fill:#d3d3d3;}.cls-46{fill:#f9f9f9;}.cls-47{fill:#efefef;}.cls-48{fill:#dbdbdb;}.cls-49{fill:#d8d8d8;}.cls-50{fill:#dce1e5;}.cls-51{filter:url(#AI_Shadow_1);}</style><linearGradient id="linear-gradient" x1="960.99" y1="707.61" x2="963.01" y2="47.98" gradientUnits="userSpaceOnUse"><stop offset="0.11" stop-color="#635b77"/><stop offset="0.24" stop-color="#645377"/><stop offset="0.46" stop-color="#664a77"/><stop offset="0.95" stop-color="#382b42"/></linearGradient><linearGradient id="linear-gradient-2" x1="959.81" y1="642.85" x2="959.6" y2="440.77" gradientUnits="userSpaceOnUse"><stop offset="0" stop-color="#1c3a34"/><stop offset="0.47" stop-color="#26534a"/><stop offset="0.77" stop-color="#2a5e54"/></linearGradient><linearGradient id="linear-gradient-3" x1="962.69" y1="759.74" x2="959.08" y2="1052.38" gradientUnits="userSpaceOnUse"><stop offset="0.02" stop-color="#3d776c"/><stop offset="0.23" stop-color="#30665c"/><stop offset="0.42" stop-color="#275b51"/></linearGradient><linearGradient id="linear-gradient-4" x1="960.31" y1="916.27" x2="962.46" y2="1109.41" gradientUnits="userSpaceOnUse"><stop offset="0" stop-color="#76938d"/><stop offset="0.04" stop-color="#73918b"/><stop offset="0.49" stop-color="#557d75"/><stop offset="0.74" stop-color="#49756d"/></linearGradient><filter id="AI_Shadow_2" x="-15" y="-15" width="140" height="130" name="AI_Shadow_2"><feGaussianBlur result="blur" stdDeviation="6" in="SourceAlpha"/><feOffset result="offsetBlurredAlpha" dx="8" dy="8" in="blur"/><feMerge><feMergeNode in="offsetBlurredAlpha"/><feMergeNode in="SourceGraphic"/></feMerge></filter><filter id="AI_Shadow_1" name="AI_Shadow_1"><feGaussianBlur result="blur" stdDeviation="2" in="SourceAlpha"/><feOffset result="offsetBlurredAlpha" dx="4" dy="4" in="blur"/><feMerge><feMergeNode in="offsetBlurredAlpha"/><feMergeNode in="SourceGraphic"/></feMerge></filter></defs><title>slut</title><g class="cls-1"><g id="taber-baggrund"><rect class="cls-2" x="2" y="1" width="1919" height="1078"/><path class="cls-3" d="M1796.92,496s0,0,0-.05a.82.82,0,0,0,0-.27h0l.47-7.16,18.08,1.2c-3.24-5.72-6-11.24-8.37-16.37l6.27.41a186,186,0,0,1-8.54-17.1l5.51.36A147.52,147.52,0,0,1,1803,442l5,.33a106.38,106.38,0,0,1-10.16-24.22,89.35,89.35,0,0,1-13.53,22.65l5.43.36a118.82,118.82,0,0,1-9.74,13.92l6,.4c-1.75,2.82-3.73,5.81-5.93,8.88a99.73,99.73,0,0,1-5.33-8.83l4.52.35a70.38,70.38,0,0,1-9.25-17.46,59,59,0,0,1-12.06,15.8l4.88.38a83.8,83.8,0,0,1-8.69,9.68l5.4.42a106.73,106.73,0,0,1-10,11l5.43.42a127.85,127.85,0,0,1-9.81,10.49l16.83,1.3-.39,5.08h0a.83.83,0,0,0,0,.15C1575.92,478,1256.51,456,965,456c-71.65,0-144.94,1.3-217.55,3.48v-7.87l22.64-.06c-4.53-6.44-8.46-12.69-11.84-18.52h7.86A217,217,0,0,1,754,413.65h6.91a171.26,171.26,0,0,1-10.52-17.05h6.29A122.05,122.05,0,0,1,741.93,369,102.57,102.57,0,0,1,727,396.64h6.8a140.83,140.83,0,0,1-10.95,17.09h7.52a176.81,176.81,0,0,1-12.64,19.42l7.56,0a208.35,208.35,0,0,1-12.41,18.57l23.44-.05,0,8.19c-28.65.9-57.17,1.93-85.41,3.07l-.13-5.69,17.89-.4c-3.69-5.42-6.91-10.67-9.68-15.57l6.21-.14a185.39,185.39,0,0,1-9.91-16.29l5.46-.12a145.87,145.87,0,0,1-8.61-14.34l5-.11A106.89,106.89,0,0,1,645,387a89.94,89.94,0,0,1-11.32,23.76l5.37-.12a122,122,0,0,1-8.36,14.72l5.95-.14A151.24,151.24,0,0,1,627,442l6-.14a179.26,179.26,0,0,1-9.48,16L642,457.4l.13,5.85C300,477.36,0,507.16,0,507.16V1125H1920V507.16S1873.73,502.52,1796.92,496Zm-16.62-23.63-.52-.84,1,.07Zm-1.58-6.25c-.39.53-.79,1.07-1.2,1.61-.34-.6-.7-1.21-1-1.78Zm-9.18,27.4h0l.39-5.09,16.27,1.27c-.48-.68-.94-1.35-1.4-2l3.71.24-.47,7.16h0l0,.15-18.52-1.53h0A.67.67,0,0,0,1769.54,493.56Z"/><path class="cls-4" d="M1533.85,657.4c-7.07-11.56-20.69-19.4-36.35-19.4-13.65,0-25.77,6-33.33,15.16-26.22-1.52-53.05-3-80.34-4.39-13.71-19.34-43.49-33.74-78.72-35.68-36.44-2-68.56,9.87-83.75,28.67-84.53-3-170.6-4.76-254.36-4.76-176.41,0-362.81,7.86-524.26,17.43A41,41,0,0,0,361,659c0,.18,0,.35,0,.53C152.09,673.25,2,688.16,2,688.16L0,1106H1920l2-417.84S1757.5,671.66,1533.85,657.4Z"/><path class="cls-5" d="M967,826c-108.57,0-220.91,3-328.9,7.5-9.24-29.37-40.18-48-72.94-42.53a67.06,67.06,0,0,0-41.65,24.41C508.45,785.14,473.64,767,437,773.17c-39.07,6.56-67.16,38.52-68.55,74.87C155.66,861.9,2,877.16,2,877.16L0,1080H1920l2-202.84S1412,826,967,826Z"/><g class="cls-6"><rect class="cls-7" x="1262.01" y="106.53" width="4.74" height="4.74" transform="translate(873.84 1316.38) rotate(-77)"/><circle class="cls-8" cx="1264.38" cy="108.9" r="2.37"/><rect class="cls-7" x="1433.44" y="107.52" width="4.83" height="4.83" transform="translate(1005.74 1484.26) rotate(-77)"/><circle class="cls-8" cx="1435.85" cy="109.94" r="2.41"/><rect class="cls-7" x="1508.46" y="125.35" width="2.84" height="2.84" transform="translate(1046.71 1569.44) rotate(-77)"/><circle class="cls-8" cx="1509.88" cy="126.78" r="1.42"/><rect class="cls-7" x="1592.04" y="140.28" width="4.77" height="4.77" transform="translate(1096.75 1664.13) rotate(-77)"/><circle class="cls-8" cx="1594.43" cy="142.66" r="2.38"/><rect class="cls-7" x="1793.28" y="170.52" width="5.66" height="5.66" transform="translate(1223.16 1884.42) rotate(-77)"/><circle class="cls-8" cx="1796.1" cy="173.35" r="2.83"/><rect class="cls-7" x="1873.49" y="169" width="2.84" height="2.84" transform="translate(1287.09 1958.95) rotate(-77)"/><circle class="cls-8" cx="1874.91" cy="170.42" r="1.42"/><rect class="cls-7" x="1792.45" y="294.31" width="4.86" height="4.86" transform="translate(1101.98 1978.87) rotate(-77)"/><circle class="cls-8" cx="1794.88" cy="296.74" r="2.43"/><rect class="cls-7" x="1650.93" y="257.38" width="6.26" height="6.26" transform="translate(1028.15 1813.58) rotate(-77)"/><circle class="cls-8" cx="1654.06" cy="260.51" r="3.13"/><rect class="cls-7" x="1607.38" y="236.37" width="3.97" height="3.97" transform="translate(1015.09 1752.85) rotate(-77)"/><circle class="cls-8" cx="1609.37" cy="238.35" r="1.98"/><rect class="cls-7" x="1509.36" y="246.91" width="5.63" height="5.63" transform="translate(928.68 1666.96) rotate(-77)"/><circle class="cls-8" cx="1512.17" cy="249.72" r="2.82"/><rect class="cls-7" x="1464.57" y="294.37" width="6.52" height="6.52" transform="translate(847.64 1660.89) rotate(-77)"/><circle class="cls-8" cx="1467.83" cy="297.63" r="3.26"/><rect class="cls-7" x="1361.31" y="267.84" width="5.89" height="5.89" transform="translate(793.52 1539.16) rotate(-77)"/><circle class="cls-8" cx="1364.25" cy="270.78" r="2.94"/><rect class="cls-7" x="1164.9" y="283.4" width="5.92" height="5.92" transform="translate(626.12 1359.87) rotate(-77)"/><circle class="cls-8" cx="1167.86" cy="286.36" r="2.96"/><rect class="cls-7" x="992.78" y="342.37" width="2.38" height="2.38" transform="translate(435.62 1234.77) rotate(-77)"/><circle class="cls-8" cx="993.97" cy="343.56" r="1.19"/><rect class="cls-7" x="892.9" y="340.38" width="3.54" height="3.54" transform="translate(360.03 1136.93) rotate(-77)"/><circle class="cls-8" cx="894.67" cy="342.15" r="1.77"/><rect class="cls-7" x="760.85" y="317.02" width="6.05" height="6.05" transform="translate(280.19 992.35) rotate(-77)"/><circle class="cls-8" cx="763.87" cy="320.05" r="3.02"/><rect class="cls-7" x="545.35" y="314.34" width="4.43" height="4.43" transform="translate(115.94 778.88) rotate(-77)"/><circle class="cls-8" cx="547.56" cy="316.56" r="2.22"/><rect class="cls-7" x="390.63" y="90.25" width="2.43" height="2.43" transform="translate(214.57 452.7) rotate(-77)"/><circle class="cls-8" cx="391.85" cy="91.47" r="1.22"/><rect class="cls-7" x="773.15" y="-0.8" width="6.55" height="6.55" transform="translate(599.36 758.45) rotate(-77)"/><circle class="cls-8" cx="776.43" cy="2.47" r="3.27"/><rect class="cls-7" x="983.63" y="6.37" width="3.31" height="3.31" transform="translate(755.83 966.25) rotate(-77)"/><circle class="cls-8" cx="985.29" cy="8.02" r="1.66"/><rect class="cls-7" x="1047.84" y="217.37" width="5.49" height="5.49" transform="translate(599.79 1194.26) rotate(-77)"/><circle class="cls-8" cx="1050.59" cy="220.11" r="2.74"/><rect class="cls-7" x="885.35" y="219.01" width="3.37" height="3.37" transform="translate(472.46 1035.35) rotate(-77)"/><circle class="cls-8" cx="887.04" cy="220.7" r="1.68"/><rect class="cls-7" x="826.04" y="182.09" width="3.1" height="3.1" transform="translate(462.49 948.72) rotate(-77)"/><circle class="cls-8" cx="827.59" cy="183.64" r="1.55"/><rect class="cls-7" x="759.6" y="187.17" width="6.64" height="6.64" transform="translate(405.69 891.01) rotate(-77)"/><circle class="cls-8" cx="762.92" cy="190.49" r="3.32"/><rect class="cls-7" x="590.58" y="201.89" width="5.43" height="5.43" transform="translate(260.47 736.67) rotate(-77)"/><circle class="cls-8" cx="593.3" cy="204.61" r="2.71"/><rect class="cls-7" x="416.87" y="200.33" width="4.62" height="4.62" transform="translate(127.44 565.49) rotate(-77)"/><circle class="cls-8" cx="419.18" cy="202.64" r="2.31"/><rect class="cls-7" x="349.73" y="196.96" width="5.86" height="5.86" transform="translate(78.57 498.55) rotate(-77)"/><circle class="cls-8" cx="352.66" cy="199.89" r="2.93"/><rect class="cls-7" x="214.22" y="211.89" width="2.71" height="2.71" transform="translate(-40.7 375.33) rotate(-77)"/><circle class="cls-8" cx="215.58" cy="213.25" r="1.36"/><rect class="cls-7" x="103.11" y="204.79" width="4.42" height="4.42" transform="translate(-120.07 263.06) rotate(-77)"/><circle class="cls-8" cx="105.32" cy="207" r="2.21"/><rect class="cls-7" x="39.21" y="201.41" width="2.82" height="2.82" transform="translate(-166.14 196.77) rotate(-77)"/><circle class="cls-8" cx="40.62" cy="202.82" r="1.41"/></g><rect class="cls-7" x="1259.89" y="39.29" width="5.51" height="5.51" transform="translate(937.65 1262.87) rotate(-77)"/><circle class="cls-8" cx="1262.65" cy="42.04" r="2.76"/><rect class="cls-7" x="1448.58" y="11.27" width="4.82" height="4.82" transform="translate(1111.27 1424.41) rotate(-77)"/><circle class="cls-8" cx="1451" cy="13.68" r="2.41"/><rect class="cls-7" x="1607.74" y="51.52" width="5.47" height="5.47" transform="translate(1195.33 1611.25) rotate(-77)"/><circle class="cls-8" cx="1610.47" cy="54.25" r="2.74"/><rect class="cls-7" x="1685.28" y="42" width="6.24" height="6.24" transform="translate(1264.63 1680.1) rotate(-77)"/><circle class="cls-8" cx="1688.4" cy="45.12" r="3.12"/><rect class="cls-7" x="1764.77" y="45.64" width="3.21" height="3.21" transform="translate(1323 1757.72) rotate(-77)"/><circle class="cls-8" cx="1766.38" cy="47.24" r="1.6"/><polygon class="cls-9" points="824.56 223.04 804 228 755.12 124.2 672.63 280.01 608.85 195.7 441 479 671 465 965 457 824.56 223.04"/><polyline class="cls-10" points="644 242 608.85 195.7 441 479 523 474"/><circle class="cls-11" cx="406" cy="667" r="41"/><polyline class="cls-12" points="344 486 572 473 489.65 356 451.11 355.96 434.94 331.94 434.8 332.16 404.62 287.32 295.95 287.2 227 195.83 78 508 344 486 344 486"/><path class="cls-13" d="M648.79,460.2l17.89-.4c-3.69-5.42-6.91-10.67-9.68-15.57l6.21-.14a185.39,185.39,0,0,1-9.91-16.29l5.46-.12a145.87,145.87,0,0,1-8.61-14.34l5-.11A106.89,106.89,0,0,1,643,390a89.94,89.94,0,0,1-11.32,23.76l5.37-.12a122,122,0,0,1-8.36,14.72l5.95-.14A151.24,151.24,0,0,1,625,445l6-.14a179.26,179.26,0,0,1-9.48,16L640,460.4l.16,7.17h.05a1.28,1.28,0,0,0-.05.27c0,1.24,2,2.2,4.45,2.14s4.37-1.1,4.35-2.34a2.61,2.61,0,0,0-.06-.27H649Z"/><path class="cls-14" d="M225.35,488.89H248c-4.52-6.86-8.43-13.53-11.8-19.73h7.86A233.65,233.65,0,0,1,232,448.53h6.91a183.68,183.68,0,0,1-10.49-18.16h6.3A133.33,133.33,0,0,1,220,401a111.44,111.44,0,0,1-15,29.37h6.8a149.55,149.55,0,0,1-11,18.16h7.53a188.59,188.59,0,0,1-12.69,20.63h7.56a223.49,223.49,0,0,1-12.45,19.73h23.44v9h0a1.27,1.27,0,0,0,0,.34c0,1.55,2.49,2.8,5.56,2.8s5.56-1.25,5.56-2.8a1.27,1.27,0,0,0,0-.34h0Z"/><path class="cls-15" d="M255.35,476.89H278c-4.52-6.86-8.43-13.53-11.8-19.73h7.86A233.65,233.65,0,0,1,262,436.53h6.91a183.68,183.68,0,0,1-10.49-18.16h6.3A133.33,133.33,0,0,1,250,389a111.44,111.44,0,0,1-15,29.37h6.8a149.55,149.55,0,0,1-11,18.16h7.53a188.59,188.59,0,0,1-12.69,20.63h7.56a223.49,223.49,0,0,1-12.45,19.73h23.44v9h0a1.27,1.27,0,0,0,0,.34c0,1.55,2.49,2.8,5.56,2.8s5.56-1.25,5.56-2.8a1.27,1.27,0,0,0,0-.34h0Z"/><path class="cls-15" d="M254.35,519.89H277c-4.52-6.86-8.43-13.53-11.8-19.73h7.86A233.65,233.65,0,0,1,261,479.53h6.91a183.68,183.68,0,0,1-10.49-18.16h6.3A133.33,133.33,0,0,1,249,432a111.44,111.44,0,0,1-15,29.37h6.8a149.55,149.55,0,0,1-11,18.16h7.53a188.59,188.59,0,0,1-12.69,20.63h7.56a223.49,223.49,0,0,1-12.45,19.73h23.44v9h0a1.27,1.27,0,0,0,0,.34c0,1.55,2.49,2.8,5.56,2.8s5.56-1.25,5.56-2.8a1.27,1.27,0,0,0,0-.34h0Z"/><path class="cls-14" d="M329.35,476.89H352c-4.52-6.86-8.43-13.53-11.8-19.73h7.86A233.65,233.65,0,0,1,336,436.53h6.91a183.68,183.68,0,0,1-10.49-18.16h6.3A133.33,133.33,0,0,1,324,389a111.44,111.44,0,0,1-15,29.37h6.8a149.55,149.55,0,0,1-11,18.16h7.53a188.59,188.59,0,0,1-12.69,20.63h7.56a223.49,223.49,0,0,1-12.45,19.73h23.44v9h0a1.27,1.27,0,0,0,0,.34c0,1.55,2.49,2.8,5.56,2.8s5.56-1.25,5.56-2.8a1.27,1.27,0,0,0,0-.34h0Z"/><path class="cls-13" d="M745.44,454.61l22.64-.06c-4.53-6.44-8.46-12.69-11.84-18.52h7.86A217,217,0,0,1,752,416.65h6.91a171.26,171.26,0,0,1-10.52-17.05h6.29A122.05,122.05,0,0,1,739.93,372,102.57,102.57,0,0,1,725,399.64h6.8a140.83,140.83,0,0,1-10.95,17.09h7.52a176.81,176.81,0,0,1-12.64,19.42l7.56,0a208.35,208.35,0,0,1-12.41,18.57l23.44-.05,0,8.43h0a1.12,1.12,0,0,0,0,.32c0,1.45,2.49,2.63,5.57,2.62s5.56-1.19,5.55-2.65a1.06,1.06,0,0,0,0-.31h0Z"/><path class="cls-16" d="M371.1,526.47H389c-3.57-6-6.66-11.77-9.32-17.17h6.21c-3.79-6.34-6.95-12.45-9.54-17.95h5.46a160.89,160.89,0,0,1-8.29-15.8h5A121.14,121.14,0,0,1,366.9,450a101.85,101.85,0,0,1-11.85,25.55h5.37a133.26,133.26,0,0,1-8.69,15.8h5.95a168.36,168.36,0,0,1-10,17.95h6c-2.78,5.44-6,11.25-9.84,17.17h18.52v7.8h0a1.43,1.43,0,0,0,0,.29c0,1.35,2,2.44,4.4,2.44s4.39-1.09,4.39-2.44a1.43,1.43,0,0,0,0-.29h0Z"/><circle class="cls-17" cx="1930.3" cy="674.7" r="85.7"/><circle class="cls-17" cx="1791.78" cy="690.92" r="64.86"/><circle class="cls-17" cx="1545.79" cy="860.94" r="85.7"/><ellipse class="cls-17" cx="1660.68" cy="755.31" rx="115.35" ry="102.38"/><circle class="cls-18" cx="1444.79" cy="910.04" r="49.57"/><circle class="cls-18" cx="1228.02" cy="1067.59" r="44.98"/><circle class="cls-18" cx="1351.68" cy="960.02" r="72.27"/><circle class="cls-18" cx="1284.36" cy="1027.57" r="49.43"/><circle class="cls-18" cx="1130.24" cy="1066.16" r="64.86"/><circle class="cls-18" cx="1051.38" cy="1077.02" r="34.28"/><path class="cls-19" d="M136,638H67v509.38h.26q-.26,6.06-.26,12.32c0,20.1,16,24.3,35,24.3s34-5.6,34-24.3q0-6.26-.26-12.32H136Z"/><path class="cls-20" d="M102,638.41H67.41v503.4h.25q-.24,6-.25,12.18c0,21.24,15.76,24,34.59,24"/><path class="cls-20" d="M67,850.57S9.27,853.54,1,801c-.39-2.45-14,3-14,3s4,62,80,62Z"/><path class="cls-19" d="M275,706.55c-12,63.45-94,99.88-139,95.16v22.18S273,821,295,704C295,704.45,275,706.55,275,706.55Z"/><path class="cls-18" d="M349,285.5C385,507,238.41,658,102,658S-186,488-145,285.5C-104.18,83.87-34.41-87,102-87S316,82.44,349,285.5Z"/><ellipse class="cls-17" cx="283.5" cy="541.5" rx="114.5" ry="165.5"/><circle class="cls-21" cx="-17" cy="733" r="71"/><path class="cls-22" d="M102,658c-136.41,0-288-170-247-372.5C-104.18,83.87-34.41-87,102-87"/><rect class="cls-23" x="1414.77" y="962.94" width="10.09" height="65.6" transform="translate(-120.96 199.88) rotate(-7.72)"/><path class="cls-23" d="M1384.2,1026c31.1-23.07,61.76-14.47,59.19,5.66-1.21,9.46-16.93,19.87-24.63,25.56h0c-.12.06-12.76,8-13.08-1.06-.26-7.34-8.26-2.62-10.2-2s-9,3.28-8.59-3.57c.36-5.43-4.43-5.82-8.59-3.58-3.66,2-13.33,2.25-8.25-5.81C1374.24,1034.49,1384.2,1026,1384.2,1026Z"/><path class="cls-24" d="M1444.75,1023.07c30.82-23.43,61.58-15.18,59.24,5-1.1,9.47-16.69,20.07-24.33,25.85-2.54,1.92,0,0,0,0s-12.66,8.12-13.09-.91c-.35-7.34-8.29-2.52-10.22-1.87s-9,3.39-8.63-3.47c.3-5.43-4.5-5.77-8.63-3.48-3.64,2-13.3,2.41-8.32-5.71C1434.89,1031.73,1444.75,1023.07,1444.75,1023.07Z"/><rect class="cls-24" x="1472.78" y="955.07" width="10.09" height="65.6" transform="translate(-119.37 207.61) rotate(-7.72)"/><path class="cls-25" d="M1577.85,730.22s55.55,15.63,73.9,38.87c14.76,18.68,17,35.3,3.4,59.71-11.47,19.42-30.7,37.07-47.28,53.43s-31.91,21.25-48.57,30.09-47-111.15-47-111.15,10.33-7,18.4-30.7S1545.45,727.09,1577.85,730.22Z"/><path class="cls-24" d="M1602.55,739.09s30.85,6.76,49.2,30c14.76,18.68,17,35.3,3.4,59.71-11.47,19.42-30.7,37.07-47.28,53.43s-31.91,21.25-48.57,30.09c-14.92,7.91-7.72-26.52-6.58-32a3.49,3.49,0,0,1,.92-1.71c6.79-6.83,53.63-42.39,68.21-73.52C1633.25,780.78,1602.55,739.09,1602.55,739.09Z"/><path class="cls-26" d="M1336.19,823.65s-86.16,16.38-84,60.28,8.59,70.29,11,81.24,3.88,28.62,49.32,30.92,85.82,4.2,194.63-20.76c30.09-6.9,56.5-34,53.54-62.74s-5.62-62.23-10.14-74.78c-3.39-9.4-3.07-30.37-35.76-36.62-11-2.09-25.64-2.53-45.41-.32C1390.71,809.67,1336.19,823.65,1336.19,823.65Z"/><path class="cls-27" d="M1548.11,892.21c-18.67,49.54-34.24,52.6-68.74,68.56-70.07,32.41-168.25,35-165.88,35.19,45.41,2.85,85.82,4.2,194.63-20.76,30.09-6.9,56.51-34,53.55-62.73s-3.55-57.34-13.1-86.14C1548.57,826.33,1560.16,860.23,1548.11,892.21Z"/><path class="cls-8" d="M1351.77,893.46a22.69,22.69,0,0,1-19.15,25.16c-12,1.63-21.69-7.42-23.32-19.4s8.89-24.71,20.88-26.34S1350.21,881.92,1351.77,893.46Z"/><path class="cls-8" d="M1499.82,882.78c1.62,12-4.4,23.16-16.39,24.79s-21.69-7.42-23.31-19.41,8.81-27.25,20.87-26.33C1494.29,862.84,1498.25,871.24,1499.82,882.78Z"/><path d="M1345.5,895.72c2.23,9.57-4.82,22-14,21.18-8.56-.72-19.44-6.13-19.19-16.67.28-11.79,4.87-19.94,14-21.18S1343.09,885.45,1345.5,895.72Z"/><path d="M1498,883c1.52,11.23-1,17.42-10.3,21.14-7.13,2.85-17.19-2-18.74-13.44s1-23.65,10.72-25S1496.72,873.8,1498,883Z"/><path class="cls-28" d="M1393.57,889.67l42.84-3s21-4.73,17.23,23.05-7.24,36.71-7.24,36.71a36.39,36.39,0,0,1-32.83,21.37c-16.87.41-62.73,1.93-78,.24s-15.18-14.86-15.18-14.86a15.76,15.76,0,0,1,3.79-13.68c5.71-6.41,46.82-43,46.82-43A52.83,52.83,0,0,1,1393.57,889.67Z"/><ellipse cx="1413.19" cy="933.03" rx="5.19" ry="3.43" transform="translate(195.23 2109.55) rotate(-77.44)"/><ellipse cx="1378.53" cy="933.97" rx="5.19" ry="3.43" transform="translate(167.18 2076.46) rotate(-77.44)"/><ellipse class="cls-8" cx="1333.23" cy="888.45" rx="3.73" ry="4.66" transform="matrix(0.99, -0.13, 0.13, 0.99, -107.32, 187.27)"/><ellipse class="cls-8" cx="1478.46" cy="874.39" rx="4.19" ry="4.66" transform="translate(-104.11 206.66) rotate(-7.72)"/><path class="cls-25" d="M1577.85,730.22s55.55,15.63,73.9,38.87c14.76,18.68,17,35.3,3.4,59.71-11.47,19.42-30.7,37.07-47.28,53.43s-31.91,21.25-48.57,30.09-47-111.15-47-111.15,10.33-7,18.4-30.7S1545.45,727.09,1577.85,730.22Z"/><path class="cls-24" d="M1602.55,739.09s30.85,6.76,49.2,30c14.76,18.68,17,35.3,3.4,59.71-11.47,19.42-30.7,37.07-47.28,53.43s-31.91,21.25-48.57,30.09c-14.92,7.91-7.72-26.52-6.58-32a3.49,3.49,0,0,1,.92-1.71c6.79-6.83,53.63-42.39,68.21-73.52C1633.25,780.78,1602.55,739.09,1602.55,739.09Z"/><path class="cls-26" d="M1336.19,823.65s-86.16,16.38-84,60.28,8.59,70.29,11,81.24,3.88,28.62,49.32,30.92,85.82,4.2,194.63-20.76c30.09-6.9,56.5-34,53.54-62.74s-5.62-62.23-10.14-74.78c-3.39-9.4-3.07-30.37-35.76-36.62-11-2.09-25.64-2.53-45.41-.32C1390.71,809.67,1336.19,823.65,1336.19,823.65Z"/><path class="cls-27" d="M1548.11,892.21c-18.67,49.54-34.24,52.6-68.74,68.56-70.07,32.41-168.25,35-165.88,35.19,45.41,2.85,85.82,4.2,194.63-20.76,30.09-6.9,56.51-34,53.55-62.73s-3.55-57.34-13.1-86.14C1548.57,826.33,1560.16,860.23,1548.11,892.21Z"/><path class="cls-29" d="M1351.77,893.46a22.69,22.69,0,0,1-19.15,25.16c-12,1.63-21.69-7.42-23.32-19.4s8.89-24.71,20.88-26.34S1350.21,881.92,1351.77,893.46Z"/><path class="cls-29" d="M1499.82,882.78c1.62,12-4.4,23.16-16.39,24.79s-21.69-7.42-23.31-19.41,8.81-27.25,20.87-26.33C1494.29,862.84,1498.25,871.24,1499.82,882.78Z"/><path d="M1345.5,895.72c2.23,9.57-4.82,22-14,21.18-8.56-.72-19.44-6.13-19.19-16.67.28-11.79,4.87-19.94,14-21.18S1343.09,885.45,1345.5,895.72Z"/><path d="M1493.23,882.73c1.52,11.23-1,17.42-10.3,21.14-7.13,2.85-17.19-2-18.74-13.44s1-23.64,10.71-25S1492,873.5,1493.23,882.73Z"/><path class="cls-30" d="M1393.57,889.67l42.84-3s21-4.73,17.23,23.05-7.24,36.71-7.24,36.71a36.39,36.39,0,0,1-32.83,21.37c-16.87.41-62.73,1.93-78,.24s-15.18-14.86-15.18-14.86a15.76,15.76,0,0,1,3.79-13.68c5.71-6.41,46.82-43,46.82-43A52.83,52.83,0,0,1,1393.57,889.67Z"/><ellipse cx="1413.19" cy="933.03" rx="5.19" ry="3.43" transform="translate(195.23 2109.55) rotate(-77.44)"/><ellipse cx="1378.53" cy="933.97" rx="5.19" ry="3.43" transform="translate(167.18 2076.46) rotate(-77.44)"/><ellipse class="cls-8" cx="1334.23" cy="891.45" rx="3.73" ry="4.66" transform="matrix(0.99, -0.13, 0.13, 0.99, -107.72, 187.43)"/><ellipse class="cls-8" cx="1471.16" cy="878.89" rx="4.19" ry="4.66" transform="translate(-104.78 205.72) rotate(-7.72)"/><ellipse class="cls-31" cx="1859.29" cy="922.09" rx="249.97" ry="217.72" transform="translate(-32.78 69.28) rotate(-2.12)"/><ellipse class="cls-31" cx="1562.04" cy="1046.9" rx="172.37" ry="155.86" transform="translate(-37.59 58.39) rotate(-2.12)"/><ellipse class="cls-31" cx="1343.96" cy="1059.32" rx="78.56" ry="68.81" transform="translate(-38.2 50.35) rotate(-2.12)"/><rect class="cls-26" x="1295" y="867" width="47" height="20" transform="translate(-264.52 917.11) rotate(-35.08)"/><rect class="cls-26" x="1466" y="853" width="47" height="20" transform="translate(567.86 -590.95) rotate(27.54)"/><path d="M1465.16,861.69a34.36,34.36,0,0,1,12.09.81,49.59,49.59,0,0,1,20,10,34.58,34.58,0,0,1,7.92,9.17l-.32.62-5.07-2.34-5-2.45-10-4.89-10-5.11-5-2.55-4.93-2.66Z"/><path d="M1305.5,897.57a34,34,0,0,1,6.46-10.26,48.25,48.25,0,0,1,8.42-7.46,49.14,49.14,0,0,1,9.89-5.38,34.62,34.62,0,0,1,11.83-2.61l.4.57-4.48,3.36-4.54,3.26-9.08,6.52-9.21,6.33-4.61,3.17-4.68,3.07Z"/></g><g id="taber-forgrund"><g class="cls-32"><rect class="cls-33" x="356" y="100" width="1023" height="654" rx="12"/><rect class="cls-34" x="356" y="100" width="1023" height="654" rx="12"/></g><g class="cls-35"><path class="cls-36" d="M453.36,736.79S419.9,513.63,438.27,430.26C450.14,376.4,406.9,328.2,406.9,328.2s-28.6-34.62-5.42-68c0,0-37.7,10.08-30.3-41.52,0,0,30.07-15.58,46.75,26.71,0,0,33.59-16.41,51.43-20.6,29.68-7,44.43-3.15,56.58-4.79,0,0-15.6-32.81,1.41-45.32,7.42-5.46,34.26,6.54,38.61,14,3.59,6.17,9.83,19.57-6.28,30.66,0,0,33.07,32.35,29.11,67.33L605,297c2.39,5.34,12.83,29.12-15,49-14,10-28.34,9.05-40.43,5.81,0,0-25,10.74-26.63,24.5s23.63,106.32,23.63,106.32l3.9,21s9.38,109.66,52.79,168.77c23.89,32.54,44,86.94,50.24,107.35,0,0,30.13,5.08,35.39,36.67,0,0,7.47,8.7,6.11,23.61,0,0-16-1-28.44-12.28,0,0-3.56-24.7-17.52-20.2-7,2.25-11.46,5.74-19.28,9.7s-19,8.41-39.28,12.58c-40.64,8.34-46.48,2.2-58.61,1.62-4.57-.22-15.87,1.58-17.81,4.18C513,837,497,849,497,867c0,0-6,15-22,15,0,0-6-13-2-23,2-6,4-19,17-36,0,0-21.26-20.32-32-64Z"/></g><polygon class="cls-8" points="487 355 512.4 337.56 491.84 325.81 487 355"/><polygon class="cls-8" points="512.1 366.14 537.31 348.47 512.96 337.55 512.1 366.14"/><polygon class="cls-8" points="544.25 376.17 564.03 354.49 537.47 348.58 544.25 376.17"/><path class="cls-37" d="M417.93,245.35s33.59-16.41,51.43-20.6c29.68-7,44.43-3.15,56.58-4.79,0,0-15.6-32.81,1.41-45.32,7.42-5.46,34.26,6.54,38.61,14,3.59,6.17,9.83,19.57-6.28,30.66,0,0,33.07,32.35,29.11,67.33C544.4,260.17,487.75,246.09,417.93,245.35Z"/><ellipse cx="588.73" cy="302.07" rx="10.97" ry="8.29" transform="translate(-51.29 134.08) rotate(-12.45)"/><path class="cls-38" d="M384.13,301.94S357,293.72,353,277.63c0,0,23.29-7.72,39.79,18.71l0,.09c.68-.17,19.16-4.92,32.7-20,13.79-15.4,45.37-18.85,68.78-11.31,10.91,3.52,20.41,1.29,35.39-14.39S576.3,241,576.3,241s13.11,17.59,13.68,45.43l-67.77.12s-12.44.49-28,18.75c-13.64,16-52.56,16-67.88,9.88-12.74-5.1-27.8-5.82-29.57-5.89-.18.82-3.25,13.72-26.56,22.73C370.16,332,368.86,316.47,384.13,301.94Z"/><path d="M484,282.32a82.67,82.67,0,0,1-10.47,1c-1.74.11-3.48.09-5.22.14l-5.22-.05c-1.73-.08-3.47-.14-5.21-.24s-3.47-.22-5.2-.43a81,81,0,0,1-10.4-1.6h0a.1.1,0,0,1-.07-.12.1.1,0,0,1,.1-.07l20.86.47,20.85.67a.09.09,0,0,1,.1.1.1.1,0,0,1-.08.09Z"/><path d="M565.77,254.19a32.55,32.55,0,0,1-4.58,4.72c-.8.73-1.67,1.36-2.51,2s-1.74,1.26-2.61,1.89-1.8,1.18-2.72,1.73-1.85,1.11-2.82,1.58a33,33,0,0,1-6.07,2.53h0a.1.1,0,0,1-.12-.07.09.09,0,0,1,0-.11l10.6-7.32L565.66,254a.1.1,0,0,1,.13,0,.09.09,0,0,1,0,.11Z"/><ellipse cx="557.37" cy="266.08" rx="4.88" ry="5.92" transform="translate(-49.96 153.79) rotate(-15.04)"/><ellipse cx="468.63" cy="288.15" rx="6.1" ry="7.1" transform="translate(-59.8 135.17) rotate(-15.44)"/><path class="cls-39" d="M396.72,309.24c-.18.82-3.25,13.72-26.56,22.73,0,0-1.3-15.5,14-30,0,0-27.13-8.22-31.09-24.31,0,0,23.29-7.72,39.79,18.71l0,.09"/><ellipse class="cls-40" cx="465.83" cy="286.99" rx="1.22" ry="1.78" transform="translate(-56.54 124.24) rotate(-14.33)"/><ellipse class="cls-40" cx="554.85" cy="266.06" rx="1.22" ry="1.78" transform="translate(-48.59 145.62) rotate(-14.33)"/><path class="cls-36" d="M462,506.16s59.24-4.19,71.21,42.9c0,0-19.72-15.39-20.28,5.93,0,0-11.33-17.77-21.65,3.87,0,0-4.07-36.67-23.44-31.29"/><path class="cls-41" d="M400.81,248.23c-3.94-7.35-13.2-14-21.69-14.47,0,0,6.34,2.24,9.27,6.68,0,0-4.89,5.94.54,9.55S400.81,248.23,400.81,248.23Z"/><path class="cls-42" d="M466,445c.53-38.53,30.06-62.62,46-8s26.65,115.58,26.65,115.58,12.21,95.62,42.11,145.75,45.56,103.59,48,118.81c0,0-44.35,24.48-100.37,14.1C528.43,831.24,462.27,715.82,466,445Z"/><path class="cls-37" d="M546.57,482.63S593,473,605,522c0,0-15-12-14,7,0,0-12-15-19,3,0,0,7-37-21.53-28.4"/><path class="cls-37" d="M417.93,245.35s33.59-16.41,51.43-20.6c29.68-7,44.43-3.15,56.58-4.79,0,0-15.6-32.81,1.41-45.32,7.42-5.46,34.26,6.54,38.61,14,3.59,6.17,9.83,19.57-6.28,30.66,0,0,33.07,32.35,29.11,67.33C544.4,260.17,487.75,246.09,417.93,245.35Z"/><path class="cls-38" d="M384.13,301.56S357,293.34,353,277.25c0,0,23.29-7.72,39.79,18.71l0,.09c.68-.17,19.16-4.92,32.7-20,13.79-15.4,45.37-18.85,68.78-11.3,10.91,3.51,20.41,1.28,35.39-14.4s46.57-9.73,46.57-9.73S589.41,258.17,590,286l-67.77.12s-12.44.49-28,18.75c-13.64,16-52.56,16-67.88,9.88-12.74-5.1-27.8-5.81-29.57-5.88-.18.82-3.25,13.71-26.56,22.72C370.16,331.59,368.86,316.09,384.13,301.56Z"/><path d="M484,279.32a82.67,82.67,0,0,1-10.47,1c-1.74.11-3.48.09-5.22.14l-5.22-.05c-1.73-.08-3.47-.14-5.21-.24s-3.47-.22-5.2-.43a81,81,0,0,1-10.4-1.6h0a.1.1,0,0,1-.07-.12.1.1,0,0,1,.1-.07l20.86.47,20.85.67a.09.09,0,0,1,.1.1.1.1,0,0,1-.08.09Z"/><path d="M564.77,251.19a32.55,32.55,0,0,1-4.58,4.72c-.8.73-1.67,1.36-2.51,2s-1.74,1.26-2.61,1.89-1.8,1.18-2.72,1.73-1.85,1.11-2.82,1.58a33,33,0,0,1-6.07,2.53h0a.1.1,0,0,1-.12-.07.09.09,0,0,1,0-.11l10.6-7.32L564.66,251a.1.1,0,0,1,.13,0,.09.09,0,0,1,0,.11Z"/><ellipse cx="557.37" cy="266.08" rx="4.88" ry="5.92" transform="translate(-49.96 153.79) rotate(-15.04)"/><ellipse cx="468.63" cy="288.15" rx="6.1" ry="7.1" transform="translate(-59.8 135.17) rotate(-15.44)"/><path class="cls-39" d="M396.72,309.24c-.18.82-3.25,13.72-26.56,22.73,0,0-1.3-15.5,14-30,0,0-27.13-8.22-31.09-24.31,0,0,23.29-7.72,39.79,18.71l0,.09"/><ellipse class="cls-40" cx="465.83" cy="286.99" rx="1.22" ry="1.78" transform="translate(-56.54 124.24) rotate(-14.33)"/><ellipse class="cls-40" cx="554.85" cy="266.06" rx="1.22" ry="1.78" transform="translate(-48.59 145.62) rotate(-14.33)"/><path class="cls-43" d="M505,511c-3.66-33.44-18.8-105.94-18-106,9.41-.75,19.59,6.6,27,32,15.94,54.62,24.65,115.58,24.65,115.58s12.21,95.62,42.11,145.75,45.56,103.59,48,118.81c0,0-17.8,10.86-50.8,14.86,0,0-11.69-79-39-140C522,654,509.05,548,505,511Z"/><path class="cls-41" d="M400.81,248.23c-3.94-7.35-13.2-14-21.69-14.47,0,0,6.34,2.24,9.27,6.68,0,0-4.89,5.94.54,9.55S400.81,248.23,400.81,248.23Z"/><path class="cls-37" d="M458,759s-92.51-49.61-126-266c-8.53-55.14,44.86-95.82,49-51,6.05,65.46-23.5,190.86,72.36,294.79"/><g class="cls-35"><circle class="cls-44" cx="616.19" cy="556.24" r="150.97"/><path class="cls-45" d="M646.31,408.07a151,151,0,0,1,26.27,288c0-.13,67-92.32,21.36-182.37C644,415,526.47,434.53,526.62,434.46A150.6,150.6,0,0,1,646.31,408.07Z"/><path class="cls-46" d="M552.94,676.42c-114.41-70.44-91.85-217,33.17-253,0,0-76.64,33.3-87.43,109.35S552.94,676.42,552.94,676.42Z"/><ellipse class="cls-47" cx="629.45" cy="454.17" rx="27.22" ry="42.73" transform="translate(56.91 978.27) rotate(-78.28)"/><ellipse class="cls-45" cx="629.54" cy="453.65" rx="23.02" ry="38.5" transform="translate(57.49 977.95) rotate(-78.28)"/><ellipse class="cls-48" cx="638.85" cy="654.27" rx="32.51" ry="20.03" transform="translate(-100.47 116.12) rotate(-9.63)"/><ellipse class="cls-49" cx="541.48" cy="526.64" rx="20.53" ry="13.9" transform="matrix(0.29, -0.96, 0.96, 0.29, -117.93, 895.06)"/><ellipse class="cls-50" cx="544.55" cy="641.23" rx="16.32" ry="26.03" transform="translate(-295.6 684.45) rotate(-52.61)"/><ellipse class="cls-46" cx="605.43" cy="577.62" rx="18.27" ry="25.51" transform="translate(-121.1 992.77) rotate(-73.4)"/></g><path class="cls-36" d="M461,502s39,3.91,51,51c0,0-17.44-12.32-18,9,0,0-11.68-21.65-22,0,0,0,6-30-8.21-33.43"/><g class="cls-51"><path class="cls-38" d="M658.62,256.6l-19.89-30.06a1.67,1.67,0,0,1,1.44-2.61h11.7a1.79,1.79,0,0,1,1.44.81l12.5,18.45,12.51-18.45a1.66,1.66,0,0,1,1.44-.81h11.7a1.67,1.67,0,0,1,1.44,2.61l-20.16,30v28.71a1.77,1.77,0,0,1-1.71,1.71h-10.7a1.71,1.71,0,0,1-1.71-1.71Z"/><path class="cls-38" d="M702.45,250a18.9,18.9,0,1,1-18.72,18.81A19,19,0,0,1,702.45,250Zm0,26.19a7.24,7.24,0,0,0,7.11-7.38,7.11,7.11,0,1,0-14.22,0A7.24,7.24,0,0,0,702.45,276.22Z"/><path class="cls-38" d="M727.29,252.64a1.71,1.71,0,0,1,1.71-1.71h9.63a1.7,1.7,0,0,1,1.7,1.71v16.65c0,3.69,2.08,6.93,5.76,6.93,3.51,0,5.4-3.33,5.4-6.39V252.64c0-1.44,1-1.71,1.89-1.71h9.18a1.71,1.71,0,0,1,1.71,1.71v32.58a1.77,1.77,0,0,1-1.71,1.71h-4.23a2,2,0,0,1-1.71-1.26l-1.35-3.33c-2.34,2.25-5.22,5.49-12.14,5.49-10.71,0-15.84-8.64-15.84-18.9Z"/><path class="cls-38" d="M809.18,250a18.18,18.18,0,0,1,7.47,1.71v-26.1a1.77,1.77,0,0,1,1.71-1.71h10a1.77,1.77,0,0,1,1.71,1.71v59.58a1.77,1.77,0,0,1-1.71,1.71h-4.23c-.9,0-1.53-.81-1.89-1.8l-1.08-3a15.57,15.57,0,0,1-12.06,5.67c-10.17,0-17.82-8.55-17.82-18.9C791.27,256.24,799.55,250,809.18,250Zm1.71,26.19a7.15,7.15,0,0,0,7.2-7.38,7.05,7.05,0,0,0-7.2-7.2,7.13,7.13,0,0,0-7.29,7.2A7.22,7.22,0,0,0,810.89,276.22Z"/><path class="cls-38" d="M839.24,232.93a7.14,7.14,0,0,1,7.11-7.2,7.22,7.22,0,0,1,7.2,7.2,7.14,7.14,0,0,1-7.2,7.11A7.07,7.07,0,0,1,839.24,232.93Zm.54,19.71a1.71,1.71,0,0,1,1.71-1.71h9.9a1.71,1.71,0,0,1,1.71,1.71v32.58a1.77,1.77,0,0,1-1.71,1.71h-9.9a1.77,1.77,0,0,1-1.71-1.71Z"/><path class="cls-38" d="M878.12,250a18.18,18.18,0,0,1,7.47,1.71v-26.1a1.77,1.77,0,0,1,1.71-1.71h10a1.77,1.77,0,0,1,1.71,1.71v59.58a1.77,1.77,0,0,1-1.71,1.71h-4.23c-.9,0-1.53-.81-1.89-1.8l-1.08-3A15.57,15.57,0,0,1,878,287.83c-10.17,0-17.82-8.55-17.82-18.9C860.21,256.24,868.49,250,878.12,250Zm1.71,26.19a7.15,7.15,0,0,0,7.2-7.38,7.05,7.05,0,0,0-7.2-7.2,7.13,7.13,0,0,0-7.29,7.2A7.22,7.22,0,0,0,879.83,276.22Z"/><path class="cls-38" d="M908.72,252.64a1.71,1.71,0,0,1,1.71-1.71h4.23a2,2,0,0,1,1.62,1.08l1.44,3.6A17,17,0,0,1,930.41,250c11.16,0,17.1,8.55,17.1,18.81v16.38a1.77,1.77,0,0,1-1.71,1.71h-9.63a1.71,1.71,0,0,1-1.71-1.71V268.39c0-3.6-2.07-6.75-6.12-6.75-3.6,0-6.84,2.61-6.84,6.3v17.28a1.53,1.53,0,0,1-1.62,1.71h-9.45a1.77,1.77,0,0,1-1.71-1.71Z"/><path class="cls-38" d="M953.54,248.05a1.33,1.33,0,0,1,.09-2c1-.72,6.3-4.68,6.39-10.8a10.39,10.39,0,0,1-3.6.63,6.43,6.43,0,0,1-6.48-6.39c0-3.51,3-6.48,7.11-6.48,3.42,0,8.19,2.61,8.19,10.44,0,9.45-6.3,14.4-8.37,16.11a1.29,1.29,0,0,1-2-.18Z"/><path class="cls-38" d="M973.07,262.36h-2.34a1.69,1.69,0,0,1-1.62-1.71v-8a1.64,1.64,0,0,1,1.62-1.71h2.34v-10a1.77,1.77,0,0,1,1.71-1.71h9.63a1.69,1.69,0,0,1,1.62,1.71v10h6.66a1.65,1.65,0,0,1,1.71,1.71v8a1.71,1.71,0,0,1-1.71,1.71H986v11.25c0,2,1.35,2.16,2.43,2.16a17.57,17.57,0,0,0,3.51-.63,1.58,1.58,0,0,1,2,1.17l2,7.47a1.79,1.79,0,0,1-1.17,2.07s-6.39,2-10.89,2c-6.84,0-10.8-4.32-10.8-12.51Z"/><path class="cls-38" d="M1025.81,273.79s-2.61-2.7-2.61-8.19A15.87,15.87,0,0,1,1039,250h17a1.65,1.65,0,0,1,1.71,1.71v3.69a1.83,1.83,0,0,1-1,1.53l-5.22,1.89s3.42,2.79,3.42,8.73c0,6.57-6,13.59-15.57,13.59h-6.48c-1.89,0-3,1-3,2.43,0,1.71,1.53,2.43,2.88,2.43h10.8c8.46,0,15.48,5.13,15.48,13.14,0,8.64-6,15.66-20.25,15.66-13.95,0-18.81-6.57-18.81-12.24,0-5.4,4.5-8.1,5.49-8.64v-.27a10.38,10.38,0,0,1-6.93-10C1018.61,276.58,1025.81,273.79,1025.81,273.79Zm13,30.51c4.5,0,6.48-1.8,6.48-4.23,0-1.89-1.62-3.78-6.48-3.78-3.24,0-6.48,1.17-6.48,3.78S1034.54,304.3,1038.86,304.3Zm.54-33.21a4.68,4.68,0,1,0,0-9.36,4.68,4.68,0,1,0,0,9.36Z"/><path class="cls-38" d="M1080.26,250a16.82,16.82,0,0,1,17.1,16.92,22.07,22.07,0,0,1-.18,2.43,1.74,1.74,0,0,1-1.71,1.53h-21.6a6.68,6.68,0,0,0,6.93,5.94,11.73,11.73,0,0,0,6.3-2.16,1.57,1.57,0,0,1,2.25,0l4.5,5.4a1.94,1.94,0,0,1-.09,2.61,18.32,18.32,0,0,1-13.32,5.13,18.9,18.9,0,0,1-.18-37.8Zm4.41,13.86a4.85,4.85,0,0,0-4.77-4.23,5,5,0,0,0-4.86,4.23Z"/><path class="cls-38" d="M1105.28,262.36h-2.34a1.69,1.69,0,0,1-1.62-1.71v-8a1.64,1.64,0,0,1,1.62-1.71h2.34v-10a1.77,1.77,0,0,1,1.71-1.71h9.63a1.69,1.69,0,0,1,1.62,1.71v10h6.66a1.65,1.65,0,0,1,1.71,1.71v8a1.71,1.71,0,0,1-1.71,1.71h-6.66v11.25c0,2,1.35,2.16,2.43,2.16a17.57,17.57,0,0,0,3.51-.63,1.58,1.58,0,0,1,2,1.17l2,7.47a1.79,1.79,0,0,1-1.17,2.07s-6.39,2-10.89,2c-6.84,0-10.8-4.32-10.8-12.51Z"/><path class="cls-38" d="M1156.13,262.36h-2.34a1.69,1.69,0,0,1-1.62-1.71v-8a1.64,1.64,0,0,1,1.62-1.71h2.34v-10a1.77,1.77,0,0,1,1.71-1.71h9.63a1.69,1.69,0,0,1,1.62,1.71v10h6.66a1.65,1.65,0,0,1,1.71,1.71v8a1.71,1.71,0,0,1-1.71,1.71h-6.66v11.25c0,2,1.35,2.16,2.43,2.16a17.57,17.57,0,0,0,3.51-.63,1.58,1.58,0,0,1,2,1.17l2,7.47a1.79,1.79,0,0,1-1.17,2.07s-6.39,2-10.89,2c-6.84,0-10.8-4.32-10.8-12.51Z"/><path class="cls-38" d="M1185.65,225.64a1.77,1.77,0,0,1,1.71-1.71h10a1.77,1.77,0,0,1,1.71,1.71V252.1a19.14,19.14,0,0,1,8.37-2.07c11.34,0,17.19,8.91,17.19,18.9v16.29a1.77,1.77,0,0,1-1.71,1.71h-9.54a1.71,1.71,0,0,1-1.71-1.71V268.75c0-4-2.61-7.11-6.57-7.11-2.88,0-6,1.62-6,7.11v16.47c0,1.17-.45,1.71-2,1.71h-9.72a1.77,1.77,0,0,1-1.71-1.71Z"/><path class="cls-38" d="M1249.28,250a16.82,16.82,0,0,1,17.1,16.92,22.07,22.07,0,0,1-.18,2.43,1.74,1.74,0,0,1-1.71,1.53h-21.6a6.68,6.68,0,0,0,6.93,5.94,11.73,11.73,0,0,0,6.3-2.16,1.57,1.57,0,0,1,2.25,0l4.5,5.4a1.94,1.94,0,0,1-.09,2.61,18.32,18.32,0,0,1-13.32,5.13,18.9,18.9,0,0,1-.18-37.8Zm4.41,13.86a4.85,4.85,0,0,0-4.77-4.23,5,5,0,0,0-4.86,4.23Z"/><path class="cls-38" d="M796.85,360.64a1.65,1.65,0,0,1,1.71-1.71h4.14a1.83,1.83,0,0,1,1.53,1l1.53,3.69A17,17,0,0,1,817.91,358c5,0,8.55,1.89,11.79,5.49A17.67,17.67,0,0,1,842.12,358c11.16,0,16.65,8.64,16.65,18.9v16.29a1.71,1.71,0,0,1-1.71,1.71h-9.54a1.71,1.71,0,0,1-1.71-1.71V376.39c0-3.6-1.89-6.75-6-6.75a6.11,6.11,0,0,0-6,6.12v17.46a1.71,1.71,0,0,1-1.71,1.71H823.4a1.71,1.71,0,0,1-1.71-1.71V376.39c0-3.6-1.62-6.75-5.67-6.75a6.1,6.1,0,0,0-6.3,6.3v17.28a1.77,1.77,0,0,1-1.71,1.71h-9.45a1.71,1.71,0,0,1-1.71-1.71Z"/><path class="cls-38" d="M883.52,358a18.9,18.9,0,1,1-18.72,18.81A19,19,0,0,1,883.52,358Zm0,26.19a7.24,7.24,0,0,0,7.11-7.38,7.11,7.11,0,1,0-14.22,0A7.24,7.24,0,0,0,883.52,384.22Z"/><path class="cls-38" d="M925.1,358a18.9,18.9,0,1,1-18.72,18.81A19,19,0,0,1,925.1,358Zm0,26.19a7.24,7.24,0,0,0,7.11-7.38,7.11,7.11,0,1,0-14.22,0A7.24,7.24,0,0,0,925.1,384.22Z"/><path class="cls-38" d="M950.75,360.64a1.71,1.71,0,0,1,1.71-1.71h4.23a2,2,0,0,1,1.62,1.08l1.44,3.6A17,17,0,0,1,972.44,358c11.16,0,17.1,8.55,17.1,18.81v16.38a1.77,1.77,0,0,1-1.71,1.71H978.2a1.71,1.71,0,0,1-1.71-1.71V376.39c0-3.6-2.07-6.75-6.12-6.75-3.6,0-6.84,2.61-6.84,6.3v17.28a1.53,1.53,0,0,1-1.62,1.71h-9.45a1.77,1.77,0,0,1-1.71-1.71Z"/><path class="cls-38" d="M1017.62,340.93a7.14,7.14,0,0,1,7.11-7.2,7.22,7.22,0,0,1,7.2,7.2,7.14,7.14,0,0,1-7.2,7.11A7.07,7.07,0,0,1,1017.62,340.93Zm.54,19.71a1.71,1.71,0,0,1,1.71-1.71h9.9a1.71,1.71,0,0,1,1.71,1.71v32.58a1.77,1.77,0,0,1-1.71,1.71h-9.9a1.77,1.77,0,0,1-1.71-1.71Z"/><path class="cls-38" d="M1041.2,360.64a1.71,1.71,0,0,1,1.71-1.71h4.23a2,2,0,0,1,1.62,1.08l1.44,3.6a17,17,0,0,1,12.69-5.58c11.16,0,17.1,8.55,17.1,18.81v16.38a1.77,1.77,0,0,1-1.71,1.71h-9.63a1.71,1.71,0,0,1-1.71-1.71V376.39c0-3.6-2.07-6.75-6.12-6.75-3.6,0-6.84,2.61-6.84,6.3v17.28a1.53,1.53,0,0,1-1.62,1.71h-9.45a1.77,1.77,0,0,1-1.71-1.71Z"/><path class="cls-38" d="M1110.05,370.36h-2.34a1.69,1.69,0,0,1-1.62-1.71v-8a1.64,1.64,0,0,1,1.62-1.71h2.34v-10a1.77,1.77,0,0,1,1.71-1.71h9.63a1.69,1.69,0,0,1,1.62,1.71v10h6.66a1.65,1.65,0,0,1,1.71,1.71v8a1.71,1.71,0,0,1-1.71,1.71H1123v11.25c0,2,1.35,2.16,2.43,2.16a17.57,17.57,0,0,0,3.51-.63,1.58,1.58,0,0,1,2,1.17l2,7.47a1.79,1.79,0,0,1-1.17,2.07s-6.39,2-10.89,2c-6.84,0-10.8-4.32-10.8-12.51Z"/><path class="cls-38" d="M1139,340.93a7.14,7.14,0,0,1,7.11-7.2,7.22,7.22,0,0,1,7.2,7.2,7.14,7.14,0,0,1-7.2,7.11A7.07,7.07,0,0,1,1139,340.93Zm.54,19.71a1.71,1.71,0,0,1,1.71-1.71h9.9a1.71,1.71,0,0,1,1.71,1.71v32.58a1.77,1.77,0,0,1-1.71,1.71h-9.9a1.77,1.77,0,0,1-1.71-1.71Z"/><path class="cls-38" d="M1162.61,360.64a1.65,1.65,0,0,1,1.71-1.71h4.14a1.83,1.83,0,0,1,1.53,1l1.53,3.69a17,17,0,0,1,12.15-5.58c5,0,8.55,1.89,11.79,5.49a17.67,17.67,0,0,1,12.42-5.49c11.16,0,16.65,8.64,16.65,18.9v16.29a1.71,1.71,0,0,1-1.71,1.71h-9.54a1.71,1.71,0,0,1-1.71-1.71V376.39c0-3.6-1.89-6.75-6-6.75a6.11,6.11,0,0,0-6,6.12v17.46a1.71,1.71,0,0,1-1.71,1.71h-8.64a1.71,1.71,0,0,1-1.71-1.71V376.39c0-3.6-1.62-6.75-5.67-6.75a6.1,6.1,0,0,0-6.3,6.3v17.28a1.77,1.77,0,0,1-1.71,1.71h-9.45a1.71,1.71,0,0,1-1.71-1.71Z"/><path class="cls-38" d="M1249.28,358a16.82,16.82,0,0,1,17.1,16.92,22.07,22.07,0,0,1-.18,2.43,1.74,1.74,0,0,1-1.71,1.53h-21.6a6.68,6.68,0,0,0,6.93,5.94,11.73,11.73,0,0,0,6.3-2.16,1.57,1.57,0,0,1,2.25,0l4.5,5.4a1.94,1.94,0,0,1-.09,2.61,18.32,18.32,0,0,1-13.32,5.13,18.9,18.9,0,0,1-.18-37.8Zm4.41,13.86a4.85,4.85,0,0,0-4.77-4.23,5,5,0,0,0-4.86,4.23Z"/></g></g></g></svg>
