<svg xmlns="http://www.w3.org/2000/svg" xmlns:xlink="http://www.w3.org/1999/xlink" width="1920" height="1080" viewBox="0 0 1920 1080"><defs><style>.cls-1{stroke-miterlimit:10;fill:url(#radial-gradient);stroke:url(#linear-gradient);}.cls-2{fill:#5e25a0;}.cls-3{fill:#441982;}.cls-4{fill:#e5a330;}.cls-5{fill:#c48437;}.cls-6{fill:#e2bf81;}.cls-7{fill:#b2ff6e;}.cls-8{fill:#fff;}.cls-9{fill:#bfb2d3;}.cls-10,.cls-11,.cls-12,.cls-26,.cls-9{opacity:0.9;}.cls-10{fill:#b1a1c6;}.cls-11{fill:#9483b5;}.cls-12,.cls-13,.cls-14,.cls-15,.cls-16{fill:#9a97c1;}.cls-13{opacity:0.14;}.cls-14{opacity:0.21;}.cls-15{opacity:0.28;}.cls-16{opacity:0.35;}.cls-17{fill:#83b739;}.cls-18{fill:#e3ef9c;}.cls-19{fill:#688e2b;}.cls-20{fill:#dd43a2;}.cls-21{fill:#9e337a;}.cls-22{fill:#f2d7ea;}.cls-23{fill:#ccd38c;}.cls-24{fill:#546d23;}.cls-25{fill:#8167a5;}.cls-26{fill:#6d6ca3;}.cls-27{filter:url(#AI_Shadow_2);}</style><radialGradient id="radial-gradient" cx="878.1" cy="504.79" fx="304.7827375533485" fy="198.34599883553983" r="1468.51" gradientTransform="matrix(1, 0.01, -0.01, 0.98, -9.7, -0.66)" gradientUnits="userSpaceOnUse"><stop offset="0" stop-color="#5d3b82"/><stop offset="0.12" stop-color="#442b67"/><stop offset="0.34" stop-color="#1c113b"/><stop offset="0.43" stop-color="#160d2d"/><stop offset="0.61" stop-color="#0a0515"/><stop offset="0.72" stop-color="#06020c"/></radialGradient><linearGradient id="linear-gradient" x1="-2" y1="539.5" x2="1921" y2="539.5" gradientUnits="userSpaceOnUse"><stop offset="0" stop-color="#391572"/><stop offset="0.08" stop-color="#341468"/><stop offset="0.34" stop-color="#27124f"/><stop offset="0.57" stop-color="#1f1140"/><stop offset="0.76" stop-color="#1c113b"/><stop offset="0.79" stop-color="#171132"/><stop offset="0.85" stop-color="#131028"/><stop offset="0.92" stop-color="#111025"/></linearGradient><filter id="AI_Shadow_2" x="-15" y="-15" width="140" height="130" name="AI_Shadow_2"><feGaussianBlur result="blur" stdDeviation="6" in="SourceAlpha"/><feOffset result="offsetBlurredAlpha" dx="8" dy="8" in="blur"/><feMerge><feMergeNode in="offsetBlurredAlpha"/><feMergeNode in="SourceGraphic"/></feMerge></filter></defs><title>start</title><g id="himler"><rect class="cls-1" x="-1.5" y="-0.5" width="1922" height="1080"/></g><g id="startside"><path class="cls-2" d="M1841.43,208.34c53,4.26,300.19,77.29,396.77,198.44,78.84,98.91,94.17,185.67,24.51,316.8C2203.89,828,2105,925.09,2017.32,1012.46c-47.67,47.54-167.16,116.33-254.72,165.1s-261.9-585.27-261.9-585.27,54.1-38.52,94.42-165.06S1682.18,183.15,1841.43,208.34Z"/><path class="cls-3" d="M1977.76,247.13s168,48.87,264.56,154c85.58,93.13,94.17,185.66,24.51,316.8-58.82,104.39-157.47,201.79-245.38,288.88-78.08,77.34-167.17,116.33-254.73,165.09-78.37,43.65-43.82-140-38.37-169.16a18.16,18.16,0,0,1,4.71-9.19c35.29-37,278.68-256,361.05-418.94C2182.11,400.53,1977.76,247.13,1977.76,247.13Z"/><path class="cls-4" d="M932.16,556.91s-370.28,19.69-386,204.84-3.94,299.38,0,346.65,0,122.12,189.08,157.57,357.18,66.37,827.24,23.63c130-11.81,256-110.29,260-232.41s11.82-263.93,0-319.08c-8.85-41.3,4.39-129-129-173.74-44.74-15-106-25.18-190.05-27.16C1168.52,529.33,932.16,556.91,932.16,556.91Z"/><path class="cls-5" d="M1775.73,950.62c-105.82,197-172.44,200.9-325.28,248.17-310.38,96-721.11,51.21-711.31,53.18,187.68,37.73,355.35,66.37,823,23.63,129.33-11.81,254.74-110.29,258.66-232.41s17.63-242.26-5.88-368.32C1814.92,674.87,1844.05,823.45,1775.73,950.62Z"/><path class="cls-6" d="M1122.44,830.14,1303.64,842s90.6-7.88,59.09,106.36S1311.52,1098,1311.52,1098s-46,82.43-149.69,70.91c-70.91-7.88-263.93-27.58-327-43.33s-55.15-70.91-55.15-70.91-3.94-31.51,23.64-55.15S1024,845.9,1024,845.9,1067.29,826.21,1122.44,830.14Z"/><ellipse cx="1074.43" cy="1043.19" rx="21.94" ry="14.51" transform="translate(-312.69 1607.6) rotate(-66.3)"/><ellipse cx="972.01" cy="1031.38" rx="21.94" ry="14.51" transform="translate(-407.19 1357.47) rotate(-60)"/><path class="cls-7" d="M912.58,817.91c4.47,48.13-37,103.86-80.37,94-40.18-9.17-88.35-42.72-80.37-94,8.93-57.29,36-94,80.37-94S907.79,766.25,912.58,817.91Z"/><path d="M895.61,810.9c3.81,41.36-31.6,89.25-68.57,80.76-34.28-7.88-75.38-36.72-68.57-80.76,7.62-49.24,30.7-80.75,68.57-80.75S891.52,766.5,895.61,810.9Z"/><path class="cls-8" d="M815.58,767.2c0,9.28-6.53,17.16-14.22,17.16s-13-7.88-13-17.16,7.71-17.88,15.4-17.88S815.58,758.26,815.58,767.2Z"/><path class="cls-7" d="M1552.42,823.83c0,55.44-16.29,83.8-64.22,95.71-36.7,9.11-82.58-20.85-82.58-77.48s20.68-113.93,68.81-113.93S1552.42,778.26,1552.42,823.83Z"/><path d="M1536.86,816.15c0,47.93-14,72.44-55.15,82.73-31.51,7.87-70.91-18-70.91-67s17.76-98.48,59.09-98.48S1536.86,776.76,1536.86,816.15Z"/><path class="cls-8" d="M1463.84,770.52c0,8.76-5.09,16.19-13.31,16.19s-14-7.43-14-16.19,8.44-18.7,16.48-16.87C1461.93,755.68,1463.84,762.09,1463.84,770.52Z"/><polygon class="cls-9" points="1610.5 87.21 1600.05 86.29 1593.36 94.38 1591.01 84.15 1581.25 80.29 1590.25 74.89 1590.91 64.42 1598.82 71.31 1608.98 68.7 1604.88 78.36 1610.5 87.21"/><polygon class="cls-10" points="1470.61 350.85 1462.94 343.69 1452.69 345.94 1457.13 336.44 1451.81 327.39 1462.23 328.67 1469.19 320.82 1471.19 331.12 1480.81 335.32 1471.63 340.4 1470.61 350.85"/><polygon class="cls-11" points="1043.48 246.78 1035.07 242.54 1026.8 247.08 1028.23 237.76 1021.36 231.31 1030.66 229.78 1034.68 221.26 1039 229.63 1048.35 230.82 1041.72 237.52 1043.48 246.78"/><polygon class="cls-12" points="96.5 860.21 86.05 859.29 79.36 867.38 77.01 857.15 67.25 853.29 76.25 847.89 76.91 837.42 84.82 844.31 94.98 841.7 90.88 851.36 96.5 860.21"/><circle class="cls-13" cx="449.06" cy="281.85" r="475.97"/><circle class="cls-14" cx="449.64" cy="289.75" r="287.79"/><circle class="cls-15" cx="451.14" cy="291.41" r="190.21"/><ellipse class="cls-16" cx="448.44" cy="285.87" rx="133.07" ry="131.37"/><path class="cls-17" d="M529.88,91.13s-19.05-2.9-28.43-2.16c-15.61,1.22-22.18,5.5-28.37,6.62,0,0,2.28-19-8.05-22.61-4.51-1.56-15.65,8.76-16.55,13.23-.75,3.68-1.62,11.43,8,14.44,0,0-10.87,21.58-3.26,38.57l-13.58,2.95c-.3,3.07-4.63,21.73,14.31,30.28,11.25,5.07,23.62-3.11,29-6.67,0,0,13.93,1.42,17,8.09s5.75,57.32,5.75,57.32S474,234.94,475.1,257.46c0,0,11.32-7.8,12.82,3.39,0,0,5.36-11.73,11.86-.93,0,0-2.76-19.25,7.42-17.54,0,0,13.24,56.74,1.68,93.44-6.37,20.21-7.32,50.82-7.07,62.1,0,0-13.86,7.37-11.29,24.13,0,0-6.53,4.9-3.44,12.2,0,0,9.69-4.53,16.17-10.06,0,0-2.28-13,5.26-13,3.77,0,6.52,1,11,1.8s10.62,1.21,21.2.07c21.18-2.29,28.85-8.54,28.85-8.54s6.67-3,9.36-.74,7.9,12.57,26.09,4.24c0,0,1,4.94,9.13,4.3,0,0-.89-11.23-4.45-16.6,0,0-15.79,6.89-20.31-2.81,0,0,6.65-11.2,4.79-34.91,0,0,46.64-43.58,27.81-157.93C617.15,171,583.63,163.75,588.9,187c7.68,33.94,33.41,89.7,3.54,157.35,0,0-19.93-117.75-42.44-156.81-14.54-25.24-1.28-56.43-1.28-56.43s8.32-22-8.41-35.13c0,0,20-1,8-25.75C548.34,70.22,531.14,67.17,529.88,91.13Z"/><polygon class="cls-8" points="512.79 161.56 499.67 154.42 511.36 146.79 512.79 161.56"/><polygon class="cls-8" points="502.72 169.25 488.35 162.22 499.67 154.42 502.72 169.25"/><polygon class="cls-8" points="489.53 177.2 476.36 169.44 488.35 162.22 489.53 177.2"/><path class="cls-18" d="M532.78,200.18c-6.52-19.32-21.08-28.49-20,1.57s8.11,63.42,8.11,63.42,9.58,50.12,3.14,80.14-5.38,59.46-4.12,67.52a81.71,81.71,0,0,0,51.24-8.92S578.6,336,532.78,200.18Z"/><path class="cls-19" d="M505.69,231.19S474,234.94,475.1,257.46c0,0,11.32-7.8,12.82,3.39,0,0,5.36-11.73,11.86-.93,0,0-2.76-19.25,7.42-17.54"/><path class="cls-19" d="M529.88,91.13s-19.05-2.9-28.43-2.16c-15.61,1.22-22.18,5.5-28.37,6.62,0,0,2.28-19-8.05-22.61-4.51-1.56-15.65,8.76-16.55,13.23-.75,3.68-1.62,11.43,8,14.44,0,0-10.87,21.58-3.26,38.57C470.61,118.79,496,102.65,529.88,91.13Z"/><ellipse cx="444.1" cy="142.45" rx="5.63" ry="4.38" transform="translate(-9.78 35.16) rotate(-4.48)"/><path class="cls-20" d="M555.56,114.24s11.89-8.47,11.21-17.21c0,0-12.61-.17-16.37,15.78v0A36.47,36.47,0,0,1,531.2,108c-9.23-5.56-25.19-2.26-35.38,5.28-4.75,3.51-9.74,3.91-19.6-1.6s-24.29,2.53-24.29,2.53-3.54,11,.71,25.07l33.07-10.76s6.14-1.74,16.72,5c9.25,5.86,28.23-.33,34.71-5.86a49.87,49.87,0,0,1,13.46-7.69c.22.39,3.82,6.39,16.64,7.21C567.24,127.14,565.36,119.12,555.56,114.24Z"/><path d="M503.62,120.16a22.8,22.8,0,0,1,4.59-3.06c.79-.45,1.62-.78,2.42-1.17s1.66-.66,2.49-1,1.7-.57,2.55-.82,1.73-.48,2.62-.63a22.94,22.94,0,0,1,5.49-.57h0a.11.11,0,0,1,.1.1.1.1,0,0,1-.07.09l-10,3.71-10.11,3.52a.1.1,0,0,1-.13-.06.1.1,0,0,1,0-.1Z"/><path d="M459.26,119a10.08,10.08,0,0,1,3.57-.29,13.85,13.85,0,0,1,3.3.61,15.21,15.21,0,0,1,3.08,1.34,10.16,10.16,0,0,1,2.8,2.24l0,0a.09.09,0,0,1,0,.13.08.08,0,0,1-.08,0c-2.15-.57-4.27-1.24-6.4-1.85s-4.25-1.32-6.35-2a.1.1,0,0,1-.06-.12.09.09,0,0,1,.07,0Z"/><ellipse cx="465.25" cy="123.83" rx="2.5" ry="3.13" transform="translate(-8.26 36.75) rotate(-4.48)"/><ellipse cx="512.11" cy="120.79" rx="3.13" ry="3.76" transform="translate(-7.88 40.41) rotate(-4.48)"/><path class="cls-21" d="M550.6,119.93c.22.39,3.82,6.39,16.64,7.21,0,0-1.88-8-11.68-12.9,0,0,11.89-8.47,11.21-17.21,0,0-12.61-.17-16.37,15.78v0"/><ellipse class="cls-22" cx="513.28" cy="119.75" rx="0.63" ry="0.94" transform="matrix(1, -0.08, 0.08, 1, -7.79, 40.5)"/><ellipse class="cls-22" cx="466.47" cy="123.42" rx="0.63" ry="0.94" transform="matrix(1, -0.08, 0.08, 1, -8.22, 36.85)"/><path class="cls-23" d="M527.13,240.19c-3.65-17.43-7.68-57.8-8.09-57.85-3.85-.45-6.75,5.43-6.23,19.41,1.1,30.06,8.11,63.42,8.11,63.42s9.58,50.12,3.14,80.14-5.38,59.46-4.12,67.52c0,0,3.27,1.63,17.62.5,0,0-4.48-41.1.32-76C541.63,310,531.16,259.48,527.13,240.19Z"/><path class="cls-17" d="M550.78,229.54s-29.57,7.35-27.76,33c0,0,7.12-10.9,10.86-.25,0,0,2.64-10.76,11.19-1.51,0,0-4-19.12,6.34-19.5"/><path class="cls-24" d="M538.69,89.85c.73-4.33,4.16-9.17,8.23-10.75a10.87,10.87,0,0,0-3.43,4.84s3.34,2.21,1.29,4.9S538.69,89.85,538.69,89.85Z"/><path class="cls-19" d="M594.14,358S640.78,314.45,622,200.1C617.15,171,583.63,163.75,588.9,187c7.68,33.94,33.41,89.7,3.54,157.35"/><path class="cls-17" d="M529.88,91.13s-19.05-2.9-28.43-2.16c-15.61,1.22-22.18,5.5-28.37,6.62,0,0,2.28-19-8.05-22.61-4.51-1.56-15.65,8.76-16.55,13.23-.75,3.68-1.62,11.43,8,14.44,0,0-10.87,21.58-3.26,38.57l-13.58,2.95c-.3,3.07-4.63,21.73,14.31,30.28,11.25,5.07,23.62-3.11,29-6.67,0,0,13.93,1.42,17,8.09s5.75,57.32,5.75,57.32S474,234.94,475.1,257.46c0,0,11.32-7.8,12.82,3.39,0,0,5.36-11.73,11.86-.93,0,0-2.76-19.25,7.42-17.54,0,0,13.24,56.74,1.68,93.44-6.37,20.21-7.32,50.82-7.07,62.1,0,0-13.86,7.37-11.29,24.13,0,0-6.53,4.9-3.44,12.2,0,0,9.69-4.53,16.17-10.06,0,0-2.28-13,5.26-13,3.77,0,6.52,1,11,1.8s10.62,1.21,21.2.07c21.18-2.29,28.85-8.54,28.85-8.54s6.67-3,9.36-.74,7.9,12.57,26.09,4.24c0,0,1,4.94,9.13,4.3,0,0-.89-11.23-4.45-16.6,0,0-15.79,6.89-20.31-2.81,0,0,6.65-11.2,4.79-34.91,0,0,46.64-43.58,27.81-157.93C617.15,171,583.63,163.75,588.9,187c7.68,33.94,33.41,89.7,3.54,157.35,0,0-19.93-117.75-42.44-156.81-14.54-25.24-1.28-56.43-1.28-56.43s8.32-22-8.41-35.13c0,0,20-1,8-25.75C548.34,70.22,531.14,67.17,529.88,91.13Z"/><polygon class="cls-8" points="512.79 161.56 499.67 154.42 511.36 146.79 512.79 161.56"/><polygon class="cls-8" points="502.72 169.25 488.35 162.22 499.67 154.42 502.72 169.25"/><polygon class="cls-8" points="489.53 177.2 476.36 169.44 488.35 162.22 489.53 177.2"/><path class="cls-18" d="M532.78,200.18c-6.52-19.32-21.08-28.49-20,1.57s8.11,63.42,8.11,63.42,9.58,50.12,3.14,80.14-5.38,59.46-4.12,67.52a81.71,81.71,0,0,0,51.24-8.92S578.6,336,532.78,200.18Z"/><path class="cls-19" d="M505.69,231.19S474,234.94,475.1,257.46c0,0,11.32-7.8,12.82,3.39,0,0,5.36-11.73,11.86-.93,0,0-2.76-19.25,7.42-17.54"/><path class="cls-19" d="M529.88,91.13s-19.05-2.9-28.43-2.16c-15.61,1.22-22.18,5.5-28.37,6.62,0,0,2.28-19-8.05-22.61-4.51-1.56-15.65,8.76-16.55,13.23-.75,3.68-1.62,11.43,8,14.44,0,0-10.87,21.58-3.26,38.57C470.61,118.79,496,102.65,529.88,91.13Z"/><ellipse cx="444.1" cy="142.45" rx="5.63" ry="4.38" transform="translate(-9.78 35.16) rotate(-4.48)"/><path class="cls-20" d="M555.56,114.24s11.89-8.47,11.21-17.21c0,0-12.61-.17-16.37,15.78v0A36.47,36.47,0,0,1,531.2,108c-9.23-5.56-25.19-2.26-35.38,5.28-4.75,3.51-9.74,3.91-19.6-1.6s-24.29,2.53-24.29,2.53-3.54,11,.71,25.07l33.07-10.76s6.14-1.74,16.72,5c9.25,5.86,28.23-.33,34.71-5.86a49.87,49.87,0,0,1,13.46-7.69c.22.39,3.82,6.39,16.64,7.21C567.24,127.14,565.36,119.12,555.56,114.24Z"/><path d="M503.62,120.16a22.8,22.8,0,0,1,4.59-3.06c.79-.45,1.62-.78,2.42-1.17s1.66-.66,2.49-1,1.7-.57,2.55-.82,1.73-.48,2.62-.63a22.94,22.94,0,0,1,5.49-.57h0a.11.11,0,0,1,.1.1.1.1,0,0,1-.07.09l-10,3.71-10.11,3.52a.1.1,0,0,1-.13-.06.1.1,0,0,1,0-.1Z"/><path d="M459.26,119a10.08,10.08,0,0,1,3.57-.29,13.85,13.85,0,0,1,3.3.61,15.21,15.21,0,0,1,3.08,1.34,10.16,10.16,0,0,1,2.8,2.24l0,0a.09.09,0,0,1,0,.13.08.08,0,0,1-.08,0c-2.15-.57-4.27-1.24-6.4-1.85s-4.25-1.32-6.35-2a.1.1,0,0,1-.06-.12.09.09,0,0,1,.07,0Z"/><ellipse cx="465.25" cy="123.83" rx="2.5" ry="3.13" transform="translate(-8.26 36.75) rotate(-4.48)"/><ellipse cx="512.11" cy="120.79" rx="3.13" ry="3.76" transform="translate(-7.88 40.41) rotate(-4.48)"/><path class="cls-21" d="M550.6,119.93c.22.39,3.82,6.39,16.64,7.21,0,0-1.88-8-11.68-12.9,0,0,11.89-8.47,11.21-17.21,0,0-12.61-.17-16.37,15.78v0"/><ellipse class="cls-22" cx="513.28" cy="119.75" rx="0.63" ry="0.94" transform="matrix(1, -0.08, 0.08, 1, -7.79, 40.5)"/><ellipse class="cls-22" cx="466.47" cy="123.42" rx="0.63" ry="0.94" transform="matrix(1, -0.08, 0.08, 1, -8.22, 36.85)"/><path class="cls-23" d="M527.13,240.19c-3.65-17.43-7.68-57.8-8.09-57.85-3.85-.45-6.75,5.43-6.23,19.41,1.1,30.06,8.11,63.42,8.11,63.42s9.58,50.12,3.14,80.14-5.38,59.46-4.12,67.52c0,0,3.27,1.63,17.62.5,0,0-4.48-41.1.32-76C541.63,310,531.16,259.48,527.13,240.19Z"/><path class="cls-24" d="M538.69,89.85c.73-4.33,4.16-9.17,8.23-10.75a10.87,10.87,0,0,0-3.43,4.84s3.34,2.21,1.29,4.9S538.69,89.85,538.69,89.85Z"/><path class="cls-19" d="M594.14,358S640.78,314.45,622,200.1C617.15,171,583.63,163.75,588.9,187c7.68,33.94,33.41,89.7,3.54,157.35"/><path class="cls-17" d="M550.78,229.54s-29.57,7.35-27.76,33c0,0,7.12-10.9,10.86-.25,0,0,2.64-10.76,11.19-1.51,0,0-4-19.12,6.34-19.5"/><polygon class="cls-25" points="47.63 93.11 35.77 92.06 28.19 101.24 25.52 89.64 14.45 85.26 24.66 79.14 25.41 67.26 34.38 75.08 45.91 72.11 41.25 83.06 47.63 93.11"/><polygon class="cls-26" points="214.14 133.52 208.19 130.37 202.31 133.64 203.37 126.83 198.54 122.06 205.14 121 208.03 114.78 211.06 120.94 217.68 121.86 212.94 126.73 214.14 133.52"/><g class="cls-27"><path class="cls-20" d="M316.21,436.55A5.83,5.83,0,0,1,322.1,431h7.75L453.54,550h.31V440a5.89,5.89,0,0,1,5.89-5.89h37.2a6.1,6.1,0,0,1,5.89,5.89V648.59a5.83,5.83,0,0,1-5.89,5.58h-5a9.14,9.14,0,0,1-4-1.55L365.5,529.55h-.31V645.18a5.89,5.89,0,0,1-5.89,5.89H322.41a6.1,6.1,0,0,1-5.89-5.89Z"/><path class="cls-20" d="M556.15,440a6.1,6.1,0,0,1,5.89-5.89h37.2a6.1,6.1,0,0,1,5.89,5.89V645.18a6.1,6.1,0,0,1-5.89,5.89H562a6.1,6.1,0,0,1-5.89-5.89Z"/><path class="cls-20" d="M754.23,431.28c26,0,54.56,10.85,75.64,29.14a5.44,5.44,0,0,1,.62,8.37l-24.49,26a6.56,6.56,0,0,1-8.37.31c-11.78-10.85-25.42-14.88-40.61-14.88-33.79,0-61.07,28.52-61.07,62.62,0,33.79,27.59,61.69,61.38,61.69a73.26,73.26,0,0,0,27.59-5v-18H765.39a5.63,5.63,0,0,1-5.89-5.58V545.36a5.7,5.7,0,0,1,5.89-5.89H827.7a5.83,5.83,0,0,1,5.58,5.89l.31,83.39a7.65,7.65,0,0,1-2.48,5s-31.93,20.15-76.88,20.15c-61.69,0-111.29-49-111.29-111A111.07,111.07,0,0,1,754.23,431.28Z"/><path class="cls-20" d="M876.06,440a6.1,6.1,0,0,1,5.89-5.89h36.89a5.89,5.89,0,0,1,5.89,5.89v78.12h88.66V440a5.89,5.89,0,0,1,5.89-5.89h36.89a6.1,6.1,0,0,1,5.89,5.89V645.18a6.1,6.1,0,0,1-5.89,5.89h-36.89a5.89,5.89,0,0,1-5.89-5.89V563.65H924.73v81.53a5.89,5.89,0,0,1-5.89,5.89H882a6.1,6.1,0,0,1-5.89-5.89Z"/><path class="cls-20" d="M1143.28,479.64H1099a5.89,5.89,0,0,1-5.89-5.89V440a5.89,5.89,0,0,1,5.89-5.89h137.64a5.89,5.89,0,0,1,5.89,5.89v33.79a5.89,5.89,0,0,1-5.89,5.89h-44.33V645.18a6.1,6.1,0,0,1-5.89,5.89h-37.2a6.1,6.1,0,0,1-5.89-5.89Z"/></g><g class="cls-27"><path class="cls-20" d="M281.4,711.67c38.76,0,70.72,32.64,70.72,71.06,0,39.1-32,71.74-70.72,71.74s-70.72-32.64-70.72-71.74C210.68,744.31,242.64,711.67,281.4,711.67Zm0,98.94c15,0,26.86-12.58,26.86-27.88a26.86,26.86,0,1,0-53.72,0C254.54,798,266.44,810.61,281.4,810.61Z"/><path class="cls-20" d="M375.23,721.53a6.46,6.46,0,0,1,6.46-6.46h36.38a6.46,6.46,0,0,1,6.46,6.46v62.9c0,13.94,7.82,26.18,21.76,26.18,13.26,0,20.4-12.58,20.4-24.14V721.53c0-5.44,3.74-6.46,7.14-6.46h34.68a6.46,6.46,0,0,1,6.46,6.46V844.61a6.69,6.69,0,0,1-6.46,6.46h-16c-3.06,0-5.44-2.38-6.46-4.76L481,833.73c-8.84,8.5-19.72,20.74-45.9,20.74-40.46,0-59.84-32.64-59.84-71.4Z"/><path class="cls-20" d="M557.13,758.25h-8.84a6.39,6.39,0,0,1-6.12-6.46V721.53a6.18,6.18,0,0,1,6.12-6.46h8.84V677.33a6.69,6.69,0,0,1,6.46-6.46H600a6.39,6.39,0,0,1,6.12,6.46v37.74h25.16a6.25,6.25,0,0,1,6.46,6.46v30.26a6.46,6.46,0,0,1-6.46,6.46H606.09v42.5c0,7.48,5.1,8.16,9.18,8.16,4.76,0,9.86-1.7,13.26-2.38s6.46.68,7.48,4.42l7.48,28.22a6.76,6.76,0,0,1-4.42,7.82s-24.14,7.48-41.14,7.48c-25.84,0-40.8-16.32-40.8-47.26Z"/></g></g></svg>
