<svg xmlns="http://www.w3.org/2000/svg" xmlns:xlink="http://www.w3.org/1999/xlink" width="250" height="250" viewBox="0 0 250 250"><defs><style>.cls-1{filter:url(#AI_Shadow_1);}.cls-2{fill:#f0f1f2;}.cls-3{fill:#47167f;}.cls-4{fill:#b9bfc1;}.cls-5{fill:#f9f9f9;}.cls-6{fill:#efefef;}</style><filter id="AI_Shadow_1" name="AI_Shadow_1"><feGaussianBlur result="blur" stdDeviation="2" in="SourceAlpha"/><feOffset result="offsetBlurredAlpha" dx="4" dy="4" in="blur"/><feMerge><feMergeNode in="offsetBlurredAlpha"/><feMergeNode in="SourceGraphic"/></feMerge></filter></defs><title>startmåne</title><g id="startside"><g class="cls-1"><path class="cls-2" d="M124.84,228.11a103.34,103.34,0,1,1,48.72-12.28A103.21,103.21,0,0,1,124.84,228.11Z"/><path class="cls-3" d="M124.66,23a101.84,101.84,0,1,1-48,12.1,101.77,101.77,0,0,1,48-12.1m0-3h0a104.83,104.83,0,1,0,92.46,55.31A105.09,105.09,0,0,0,124.66,20Z"/></g><path class="cls-4" d="M210,68.8A101.81,101.81,0,0,1,84.64,218.2c.08,0,76-11.82,97.41-76.42C205.51,71,140.36,24,140.46,24.07A101.56,101.56,0,0,1,210,68.8Z"/><path class="cls-5" d="M37.19,151.63C16.54,63.41,97.36,4.59,174,47.28c0,0-52.34-20.85-93.86,10.12S37.19,151.63,37.19,151.63Z"/><ellipse class="cls-6" cx="179.89" cy="82.64" rx="18.35" ry="28.81" transform="translate(-15.95 111.58) rotate(-33.08)"/><ellipse class="cls-4" cx="180.18" cy="82.43" rx="15.53" ry="25.96" transform="translate(-15.79 111.71) rotate(-33.08)"/><ellipse class="cls-4" cx="88.61" cy="182.2" rx="13.51" ry="21.92" transform="translate(-111.14 148.3) rotate(-54.43)"/><ellipse class="cls-4" cx="103.41" cy="74.98" rx="13.84" ry="9.38" transform="translate(-23.15 57.76) rotate(-28.2)"/><ellipse class="cls-4" cx="50.04" cy="130.89" rx="11.01" ry="17.55" transform="translate(-16.45 7.54) rotate(-7.4)"/><ellipse class="cls-5" cx="114.41" cy="101.8" rx="12.32" ry="17.2" transform="translate(-34.52 66.13) rotate(-28.2)"/><path d="M50.89,142.84l2.66-4.71a1.47,1.47,0,0,1,1.93-.34c.23.12,4.31,3.12,8.05,3.12,2.27,0,3.92-1.42,3.92-3.4,0-2.38-2-4.2-5.84-5.73-4.88-1.93-11-5.73-11-12.53C50.61,113.64,55,108,63.7,108a21.08,21.08,0,0,1,12.14,4.25,1.43,1.43,0,0,1,.34,1.81l-2.89,4.37c-.4.62-1.42,1.13-1.93.74s-4.65-3.41-8.11-3.41c-2,0-3.57,1.37-3.57,2.9,0,2.09,1.7,3.68,6.18,5.5s11.45,5.21,11.45,12.92c0,5.84-5,11.74-13.38,11.74-7.37,0-11.45-3.06-12.76-4.36C50.61,143.86,50.44,143.63,50.89,142.84Z"/><path d="M89.34,116.87H81.23a1.08,1.08,0,0,1-1.08-1.08v-6.18a1.08,1.08,0,0,1,1.08-1.08H106.4a1.08,1.08,0,0,1,1.08,1.08v6.18a1.08,1.08,0,0,1-1.08,1.08H98.3v30.28a1.12,1.12,0,0,1-1.08,1.07H90.41a1.11,1.11,0,0,1-1.07-1.07Z"/><path d="M106,146.75l17.75-38.16a1.14,1.14,0,0,1,1-.62h.57a1.15,1.15,0,0,1,1,.62L144,146.75a1,1,0,0,1-1,1.47h-6.3c-1,0-1.47-.34-2-1.41l-2-4.48H117.29l-2,4.53a2.11,2.11,0,0,1-2,1.36H107A1,1,0,0,1,106,146.75Zm23.3-12.13L125,125.26h0l-4.26,9.36Z"/><path d="M148.65,109.61a1.08,1.08,0,0,1,1.08-1.08h17A12.33,12.33,0,0,1,179,120.78c0,5.22-3.45,9.41-8.39,11.4l7.77,14.4a1.07,1.07,0,0,1-1,1.64h-7.54a1,1,0,0,1-.91-.51l-7.54-15h-3.92v14.46a1.11,1.11,0,0,1-1.07,1.07h-6.75a1.08,1.08,0,0,1-1.08-1.07ZM166,125.49a4.56,4.56,0,0,0,4.31-4.54,4.35,4.35,0,0,0-4.31-4.31h-8.4v8.85Z"/><path d="M191.75,116.87h-8.11a1.08,1.08,0,0,1-1.08-1.08v-6.18a1.08,1.08,0,0,1,1.08-1.08h25.18a1.07,1.07,0,0,1,1.07,1.08v6.18a1.07,1.07,0,0,1-1.07,1.08h-8.11v30.28a1.11,1.11,0,0,1-1.08,1.07h-6.8a1.11,1.11,0,0,1-1.08-1.07Z"/></g></svg>
