<svg xmlns="http://www.w3.org/2000/svg" width="110" height="140" viewBox="0 0 110 140"><defs><style>.cls-1{fill:#d3d3d3;}.cls-2{fill:#aaa9aa;}.cls-3{fill:#f4edf3;}.cls-4{fill:#423b4c;}</style></defs><title>timeglas</title><g id="andre_ting" data-name="andre ting"><path class="cls-1" d="M73.44,77.82c-2.55-1.6-6.57-4.65-6.57-8s4-6.42,6.57-8A55.51,55.51,0,0,0,109.5,9.49H.5A55.54,55.54,0,0,0,34.86,61.11c2.58,1.39,9.2,5.26,9.2,8.68,0,3.67-5.6,6.95-8.51,8.41a55.53,55.53,0,0,0-35,51.89h109A55.49,55.49,0,0,0,73.44,77.82Z"/><ellipse class="cls-2" cx="55" cy="129.77" rx="54.5" ry="9.52"/><ellipse class="cls-3" cx="55" cy="9.81" rx="54.5" ry="9.52"/><path class="cls-4" d="M53.08,33.3c-16.67,0-59.95,3.8,1.6,27.29C121.68,37.1,69.75,33.3,53.08,33.3Z"/><path class="cls-4" d="M51.86,129.77C29,129.77-29,128,54.07,90.42,143.48,129.77,74.78,129.77,51.86,129.77Z"/></g></svg>
