<svg xmlns="http://www.w3.org/2000/svg" xmlns:xlink="http://www.w3.org/1999/xlink" width="300" height="590" viewBox="0 0 300 590"><defs><style>.cls-1{filter:url(#AI_Shadow_1);}.cls-2{fill:#83b739;}.cls-3{fill:#fff;}.cls-4{fill:#e3ef9c;}.cls-5{fill:#688e2b;}.cls-6{fill:#dd43a2;}.cls-7{fill:#9e337a;}.cls-8{fill:#f2d7ea;}.cls-9{fill:#ccd38c;}.cls-10{fill:#546d23;}</style><filter id="AI_Shadow_1" name="AI_Shadow_1"><feGaussianBlur result="blur" stdDeviation="2" in="SourceAlpha"/><feOffset result="offsetBlurredAlpha" dx="4" dy="4" in="blur"/><feMerge><feMergeNode in="offsetBlurredAlpha"/><feMergeNode in="SourceGraphic"/></feMerge></filter></defs><title>væsel_standart</title><g id="væsel"><g class="cls-1"><path class="cls-2" d="M153.51,40.2s-30-7-45-7c-25,0-36,6-46,7,0,0,6-30-10-37-7-3.05-26,12-28,19-1.65,5.77-4,18,11,24,0,0-20,33-10,61l-22,3c-.86,4.85-10.1,34,19,50,17.29,9.49,38-2,47-7,0,0,22,4,26,15s2,92,2,92-51,2-52,38c0,0,19-11,20,7,0,0,10-18,19,0,0,0-2-31,14-27,0,0,14,92-9,149-12.67,31.38-18,80-19,98,0,0-23,10-21,37,0,0-11,7-7,19,0,0,16-6,27-14,0,0-2-21,10-20,6,.5,10.25,2.5,17.25,4.25s16.75,3.25,33.75,2.75c34-1,47-10,47-10s11-4,15,0,11,21,41,10c0,0,1,8,14,8,0,0,0-18-5-27,0,0-26,9-32-7,0,0,12-17,12-55,0,0,79.69-63.57,64-248-4-47-56.48-62.65-51-25,8,55,42,147-14,251,0,0-17-190-48-255-20-42,5-90,5-90s16-34-9-57c0,0,32,1,16-40C185.51,9.2,158.51,2.2,153.51,40.2Z"/><polygon class="cls-3" points="117.51 150.2 97.51 137.2 117.07 126.51 117.51 150.2"/><polygon class="cls-3" points="100.51 161.2 78.51 148.2 97.51 137.2 100.51 161.2"/><polygon class="cls-3" points="78.51 172.2 58.51 158.2 78.51 148.2 78.51 172.2"/><path class="cls-4" d="M144.51,214.2c-8-31.58-30-48-32,0s5,102,5,102,9,81-5,128-16,94-15,107c0,0,40.11,11.56,82.7-7.81C180.21,543.39,200.51,436.2,144.51,214.2Z"/><path class="cls-5" d="M97.51,260.2s-51,2-52,38c0,0,19-11,20,7,0,0,10-18,19,0,0,0-2-31,14-27"/><path class="cls-5" d="M153.51,40.2s-30-7-45-7c-25,0-36,6-46,7,0,0,6-30-10-37-7-3.05-26,12-28,19-1.65,5.77-4,18,11,24,0,0-20,33-10,61C55.68,76.84,98,54.31,153.51,40.2Z"/><ellipse cx="10.51" cy="111.2" rx="9" ry="7"/><path class="cls-6" d="M191.51,80.2s20-12,20-26c0,0-20.06-1.84-28,23.08v.08c-.57,0-16.22-.34-30-10.16-14-10-39.83-6.73-57,4-8,5-16,5-31-5s-39,1-39,1-7,17-2,40l54-13s10-2,26,10c14,10.5,45,3,56-5,9.15-6.65,21-10.16,22.4-10.55.3.64,5.27,10.65,25.6,13.55C208.51,102.2,206.51,89.2,191.51,80.2Z"/><path d="M108.08,83.19a56,56,0,0,1,7.9-3.53c1.34-.52,2.7-.93,4-1.39s2.74-.81,4.1-1.22,2.76-.71,4.15-1,2.79-.63,4.2-.85a55.63,55.63,0,0,1,8.6-1h0a.1.1,0,0,1,.1.1.11.11,0,0,1-.08.1L124.66,79l-16.53,4.41a.11.11,0,0,1-.12-.07.11.11,0,0,1,0-.12Z"/><path d="M37.55,75.88a22.45,22.45,0,0,1,5.44.71c.88.18,1.72.48,2.58.71s1.67.6,2.51.9,1.64.68,2.44,1.06,1.61.77,2.37,1.24a22.78,22.78,0,0,1,4.47,3.17l0,0a.11.11,0,0,1,0,.14.11.11,0,0,1-.11,0l-9.94-3.8-9.87-4a.09.09,0,0,1-.06-.12.1.1,0,0,1,.09-.06Z"/><ellipse cx="46.51" cy="84.2" rx="4" ry="5"/><ellipse cx="121.51" cy="85.2" rx="5" ry="6"/><path class="cls-7" d="M182.91,88.65c.3.64,5.27,10.65,25.6,13.55,0,0-2-13-17-22,0,0,20-12,20-26,0,0-20.06-1.84-28,23.08v.08"/><ellipse class="cls-8" cx="123.51" cy="83.7" rx="1" ry="1.5"/><ellipse class="cls-8" cx="48.51" cy="83.7" rx="1" ry="1.5"/><path class="cls-9" d="M130.51,277.2c-3.64-28.21-5-93-5.65-93.12-6.07-1.2-11.42,7.8-12.35,30.12-2,48,5,102,5,102s9,81-5,128-16,94-15,107c0,0,5,3,28,3,0,0-2-66,10-121C144.89,390.2,134.53,308.42,130.51,277.2Z"/><path class="cls-2" d="M169.51,263.2s-48,8-48.32,49c0,0,12.7-16.46,17.32,1,0,0,5.54-16.81,18-1,0,0-3.94-30.95,12.54-30.27"/><path class="cls-10" d="M167.7,39.26c1.7-6.8,7.77-14.09,14.44-16.09,0,0-4.6,3.06-6.07,7.28,0,0,5.05,3.94,1.44,8S167.7,39.26,167.7,39.26Z"/><path class="cls-5" d="M222.51,473.2s79.69-63.57,64-248c-4-47-56.48-62.65-51-25,8,55,42,147-14,251"/><path class="cls-2" d="M153.51,40.2s-30-7-45-7c-25,0-36,6-46,7,0,0,6-30-10-37-7-3.05-26,12-28,19-1.65,5.77-4,18,11,24,0,0-20,33-10,61l-22,3c-.86,4.85-10.1,34,19,50,17.29,9.49,38-2,47-7,0,0,22,4,26,15s2,92,2,92-51,2-52,38c0,0,19-11,20,7,0,0,10-18,19,0,0,0-2-31,14-27,0,0,14,92-9,149-12.67,31.38-18,80-19,98,0,0-23,10-21,37,0,0-11,7-7,19,0,0,16-6,27-14,0,0-2-21,10-20,6,.5,10.25,2.5,17.25,4.25s16.75,3.25,33.75,2.75c34-1,47-10,47-10s11-4,15,0,11,21,41,10c0,0,1,8,14,8,0,0,0-18-5-27,0,0-26,9-32-7,0,0,12-17,12-55,0,0,79.69-63.57,64-248-4-47-56.48-62.65-51-25,8,55,42,147-14,251,0,0-17-190-48-255-20-42,5-90,5-90s16-34-9-57c0,0,32,1,16-40C185.51,9.2,158.51,2.2,153.51,40.2Z"/><polygon class="cls-3" points="117.51 150.2 97.51 137.2 117.07 126.51 117.51 150.2"/><polygon class="cls-3" points="100.51 161.2 78.51 148.2 97.51 137.2 100.51 161.2"/><polygon class="cls-3" points="78.51 172.2 58.51 158.2 78.51 148.2 78.51 172.2"/><path class="cls-4" d="M144.51,214.2c-8-31.58-30-48-32,0s5,102,5,102,9,81-5,128-16,94-15,107c0,0,40.11,11.56,82.7-7.81C180.21,543.39,200.51,436.2,144.51,214.2Z"/><path class="cls-5" d="M97.51,260.2s-51,2-52,38c0,0,19-11,20,7,0,0,10-18,19,0,0,0-2-31,14-27"/><path class="cls-5" d="M153.51,40.2s-30-7-45-7c-25,0-36,6-46,7,0,0,6-30-10-37-7-3.05-26,12-28,19-1.65,5.77-4,18,11,24,0,0-20,33-10,61C55.68,76.84,98,54.31,153.51,40.2Z"/><ellipse cx="10.51" cy="111.2" rx="9" ry="7"/><path class="cls-6" d="M191.51,80.2s20-12,20-26c0,0-20.06-1.84-28,23.08v.08c-.57,0-16.22-.34-30-10.16-14-10-39.83-6.73-57,4-8,5-16,5-31-5s-39,1-39,1-7,17-2,40l54-13s10-2,26,10c14,10.5,45,3,56-5,9.15-6.65,21-10.16,22.4-10.55.3.64,5.27,10.65,25.6,13.55C208.51,102.2,206.51,89.2,191.51,80.2Z"/><path d="M108.08,83.19a56,56,0,0,1,7.9-3.53c1.34-.52,2.7-.93,4-1.39s2.74-.81,4.1-1.22,2.76-.71,4.15-1,2.79-.63,4.2-.85a55.63,55.63,0,0,1,8.6-1h0a.1.1,0,0,1,.1.1.11.11,0,0,1-.08.1L124.66,79l-16.53,4.41a.11.11,0,0,1-.12-.07.11.11,0,0,1,0-.12Z"/><path d="M37.55,75.88a22.45,22.45,0,0,1,5.44.71c.88.18,1.72.48,2.58.71s1.67.6,2.51.9,1.64.68,2.44,1.06,1.61.77,2.37,1.24a22.78,22.78,0,0,1,4.47,3.17l0,0a.11.11,0,0,1,0,.14.11.11,0,0,1-.11,0l-9.94-3.8-9.87-4a.09.09,0,0,1-.06-.12.1.1,0,0,1,.09-.06Z"/><ellipse cx="46.51" cy="84.2" rx="4" ry="5"/><ellipse cx="121.51" cy="85.2" rx="5" ry="6"/><path class="cls-7" d="M182.91,88.65c.3.64,5.27,10.65,25.6,13.55,0,0-2-13-17-22,0,0,20-12,20-26,0,0-20.06-1.84-28,23.08v.08"/><ellipse class="cls-8" cx="123.51" cy="83.7" rx="1" ry="1.5"/><ellipse class="cls-8" cx="48.51" cy="83.7" rx="1" ry="1.5"/><path class="cls-9" d="M130.51,277.2c-3.64-28.21-5-93-5.65-93.12-6.07-1.2-11.42,7.8-12.35,30.12-2,48,5,102,5,102s9,81-5,128-16,94-15,107c0,0,5,3,28,3,0,0-2-66,10-121C144.89,390.2,134.53,308.42,130.51,277.2Z"/><path class="cls-2" d="M169.51,263.2s-48,8-48.32,49c0,0,12.7-16.46,17.32,1,0,0,5.54-16.81,18-1,0,0-3.94-30.95,12.54-30.27"/><path class="cls-10" d="M167.7,39.26c1.7-6.8,7.77-14.09,14.44-16.09,0,0-4.6,3.06-6.07,7.28,0,0,5.05,3.94,1.44,8S167.7,39.26,167.7,39.26Z"/><path class="cls-5" d="M222.51,473.2s79.69-63.57,64-248c-4-47-56.48-62.65-51-25,8,55,42,147-14,251"/></g></g></svg>
